 0
SECTION
 2
HEADER
 9
$ACADVER
 1
AC1009
 0
ENDSEC
 0
SECTION
 2
ENTITIES
 0
POLYLINE
 8
TITLE
 66
1
 70
1
 10
0.0
 20
0.0
 30
0.0
 0
VERTEX
 8
TITLE
 10
 -0.1000
 20
  0.1000
 30
0.0
 0
VERTEX
 8
TITLE
 10
  9.6000
 20
  0.1000
 30
0.0
 0
VERTEX
 8
TITLE
 10
  9.6000
 20
  7.3000
 30
0.0
 0
VERTEX
 8
TITLE
 10
 -0.1000
 20
  7.3000
 30
0.0
 0
SEQEND
 8
TITLE
 0
POLYLINE
 8
TITLE
 66
1
 70
1
 10
0.0
 20
0.0
 30
0.0
 0
VERTEX
 8
TITLE
 10
  0.0000
 20
  0.2000
 30
0.0
 0
VERTEX
 8
TITLE
 10
  9.5000
 20
  0.2000
 30
0.0
 0
VERTEX
 8
TITLE
 10
  9.5000
 20
  7.2000
 30
0.0
 0
VERTEX
 8
TITLE
 10
  0.0000
 20
  7.2000
 30
0.0
 0
SEQEND
 8
TITLE
 0
POLYLINE
 8
TITLE
 66
1
 10
0.0
 20
0.0
 30
0.0
 0
VERTEX
 8
TITLE
 10
  2.0600
 20
  0.2000
 30
0.0
 0
VERTEX
 8
TITLE
 10
  2.0600
 20
  0.1000
 30
0.0
 0
SEQEND
 8
TITLE
 0
POLYLINE
 8
TITLE
 66
1
 10
0.0
 20
0.0
 30
0.0
 0
VERTEX
 8
TITLE
 10
  2.0600
 20
  7.2000
 30
0.0
 0
VERTEX
 8
TITLE
 10
  2.0600
 20
  7.3000
 30
0.0
 0
SEQEND
 8
TITLE
 0
POLYLINE
 8
TITLE
 66
1
 10
0.0
 20
0.0
 30
0.0
 0
VERTEX
 8
TITLE
 10
  3.9200
 20
  0.2000
 30
0.0
 0
VERTEX
 8
TITLE
 10
  3.9200
 20
  0.1000
 30
0.0
 0
SEQEND
 8
TITLE
 0
POLYLINE
 8
TITLE
 66
1
 10
0.0
 20
0.0
 30
0.0
 0
VERTEX
 8
TITLE
 10
  3.9200
 20
  7.2000
 30
0.0
 0
VERTEX
 8
TITLE
 10
  3.9200
 20
  7.3000
 30
0.0
 0
SEQEND
 8
TITLE
 0
POLYLINE
 8
TITLE
 66
1
 10
0.0
 20
0.0
 30
0.0
 0
VERTEX
 8
TITLE
 10
  5.7800
 20
  0.2000
 30
0.0
 0
VERTEX
 8
TITLE
 10
  5.7800
 20
  0.1000
 30
0.0
 0
SEQEND
 8
TITLE
 0
POLYLINE
 8
TITLE
 66
1
 10
0.0
 20
0.0
 30
0.0
 0
VERTEX
 8
TITLE
 10
  5.7800
 20
  7.2000
 30
0.0
 0
VERTEX
 8
TITLE
 10
  5.7800
 20
  7.3000
 30
0.0
 0
SEQEND
 8
TITLE
 0
POLYLINE
 8
TITLE
 66
1
 10
0.0
 20
0.0
 30
0.0
 0
VERTEX
 8
TITLE
 10
  7.6400
 20
  0.2000
 30
0.0
 0
VERTEX
 8
TITLE
 10
  7.6400
 20
  0.1000
 30
0.0
 0
SEQEND
 8
TITLE
 0
POLYLINE
 8
TITLE
 66
1
 10
0.0
 20
0.0
 30
0.0
 0
VERTEX
 8
TITLE
 10
  7.6400
 20
  7.2000
 30
0.0
 0
VERTEX
 8
TITLE
 10
  7.6400
 20
  7.3000
 30
0.0
 0
SEQEND
 8
TITLE
 0
TEXT
 8
TITLE
 10
  1.1300
 20
  0.1200
 30
0.0
 40
  0.0500
 1
5
 0
TEXT
 8
TITLE
 10
  1.1300
 20
  7.2200
 30
0.0
 40
  0.0500
 1
5
 0
TEXT
 8
TITLE
 10
  2.9900
 20
  0.1200
 30
0.0
 40
  0.0500
 1
4
 0
TEXT
 8
TITLE
 10
  2.9900
 20
  7.2200
 30
0.0
 40
  0.0500
 1
4
 0
TEXT
 8
TITLE
 10
  4.8500
 20
  0.1200
 30
0.0
 40
  0.0500
 1
3
 0
TEXT
 8
TITLE
 10
  4.8500
 20
  7.2200
 30
0.0
 40
  0.0500
 1
3
 0
TEXT
 8
TITLE
 10
  6.7100
 20
  0.1200
 30
0.0
 40
  0.0500
 1
2
 0
TEXT
 8
TITLE
 10
  6.7100
 20
  7.2200
 30
0.0
 40
  0.0500
 1
2
 0
TEXT
 8
TITLE
 10
  8.5700
 20
  0.1200
 30
0.0
 40
  0.0500
 1
1
 0
TEXT
 8
TITLE
 10
  8.5700
 20
  7.2200
 30
0.0
 40
  0.0500
 1
1
 0
POLYLINE
 8
TITLE
 66
1
 10
0.0
 20
0.0
 30
0.0
 0
VERTEX
 8
TITLE
 10
 -0.1000
 20
  5.3000
 30
0.0
 0
VERTEX
 8
TITLE
 10
  0.0000
 20
  5.3000
 30
0.0
 0
SEQEND
 8
TITLE
 0
POLYLINE
 8
TITLE
 66
1
 10
0.0
 20
0.0
 30
0.0
 0
VERTEX
 8
TITLE
 10
  9.5000
 20
  5.3000
 30
0.0
 0
VERTEX
 8
TITLE
 10
  9.6000
 20
  5.3000
 30
0.0
 0
SEQEND
 8
TITLE
 0
SOLID
 8
TITLE
 10
  0.0000
 20
  3.6000
 30
0.0
 11
 -0.0500
 21
  3.6200
 31
0.0
 12
 -0.0500
 22
  3.5800
 32
0.0
 13
 -0.0500
 23
  3.6000
 33
0.0
 0
SOLID
 8
TITLE
 10
  9.5000
 20
  3.6000
 30
0.0
 11
  9.5500
 21
  3.6200
 31
0.0
 12
  9.5500
 22
  3.5800
 32
0.0
 13
  9.5500
 23
  3.6000
 33
0.0
 0
POLYLINE
 8
TITLE
 66
1
 10
0.0
 20
0.0
 30
0.0
 0
VERTEX
 8
TITLE
 10
 -0.1000
 20
  3.6000
 30
0.0
 0
VERTEX
 8
TITLE
 10
  0.0000
 20
  3.6000
 30
0.0
 0
SEQEND
 8
TITLE
 0
POLYLINE
 8
TITLE
 66
1
 10
0.0
 20
0.0
 30
0.0
 0
VERTEX
 8
TITLE
 10
  9.5000
 20
  3.6000
 30
0.0
 0
VERTEX
 8
TITLE
 10
  9.6000
 20
  3.6000
 30
0.0
 0
SEQEND
 8
TITLE
 0
SOLID
 8
TITLE
 10
  0.0000
 20
  3.6000
 30
0.0
 11
 -0.0500
 21
  3.6200
 31
0.0
 12
 -0.0500
 22
  3.5800
 32
0.0
 13
 -0.0500
 23
  3.6000
 33
0.0
 0
SOLID
 8
TITLE
 10
  9.5000
 20
  3.6000
 30
0.0
 11
  9.5500
 21
  3.6200
 31
0.0
 12
  9.5500
 22
  3.5800
 32
0.0
 13
  9.5500
 23
  3.6000
 33
0.0
 0
POLYLINE
 8
TITLE
 66
1
 10
0.0
 20
0.0
 30
0.0
 0
VERTEX
 8
TITLE
 10
 -0.1000
 20
  1.9000
 30
0.0
 0
VERTEX
 8
TITLE
 10
  0.0000
 20
  1.9000
 30
0.0
 0
SEQEND
 8
TITLE
 0
POLYLINE
 8
TITLE
 66
1
 10
0.0
 20
0.0
 30
0.0
 0
VERTEX
 8
TITLE
 10
  9.5000
 20
  1.9000
 30
0.0
 0
VERTEX
 8
TITLE
 10
  9.6000
 20
  1.9000
 30
0.0
 0
SEQEND
 8
TITLE
 0
SOLID
 8
TITLE
 10
  0.0000
 20
  3.6000
 30
0.0
 11
 -0.0500
 21
  3.6200
 31
0.0
 12
 -0.0500
 22
  3.5800
 32
0.0
 13
 -0.0500
 23
  3.6000
 33
0.0
 0
SOLID
 8
TITLE
 10
  9.5000
 20
  3.6000
 30
0.0
 11
  9.5500
 21
  3.6200
 31
0.0
 12
  9.5500
 22
  3.5800
 32
0.0
 13
  9.5500
 23
  3.6000
 33
0.0
 0
TEXT
 8
TITLE
 10
 -0.0800
 20
  6.1500
 30
0.0
 40
  0.0500
 1
D
 0
TEXT
 8
TITLE
 10
  9.5200
 20
  6.1500
 30
0.0
 40
  0.0500
 1
D
 0
TEXT
 8
TITLE
 10
 -0.0800
 20
  4.4500
 30
0.0
 40
  0.0500
 1
C
 0
TEXT
 8
TITLE
 10
  9.5200
 20
  4.4500
 30
0.0
 40
  0.0500
 1
C
 0
TEXT
 8
TITLE
 10
 -0.0800
 20
  2.7500
 30
0.0
 40
  0.0500
 1
B
 0
TEXT
 8
TITLE
 10
  9.5200
 20
  2.7500
 30
0.0
 40
  0.0500
 1
B
 0
TEXT
 8
TITLE
 10
 -0.0800
 20
  1.0500
 30
0.0
 40
  0.0500
 1
A
 0
TEXT
 8
TITLE
 10
  9.5200
 20
  1.0500
 30
0.0
 40
  0.0500
 1
A
 0
TEXT
 8
TITLE
 10
  6.3000
 20
  0.4186
 30
0.0
 40
  0.0514
 1
<Doc>
 0
TEXT
 8
TITLE
 10
  9.3000
 20
  0.4186
 30
0.0
 40
  0.0514
 1
<RevCode>
 0
TEXT
 8
TITLE
 10
  6.3000
 20
  0.7186
 30
0.0
 40
  0.0514
 1
<Title>
 0
TEXT
 8
TITLE
 10
  6.0000
 20
  0.4186
 30
0.0
 40
  0.0514
 1
A
 0
TEXT
 8
TITLE
 10
  8.4000
 20
  0.2186
 30
0.0
 40
  0.0514
 1
1
 0
TEXT
 8
TITLE
 10
  9.0000
 20
  0.2186
 30
0.0
 40
  0.0514
 1
1
 0
TEXT
 8
TITLE
 10
  6.4200
 20
  0.2186
 30
0.0
 40
  0.0514
 1
Saturday, April 06, 2013
 0
TEXT
 8
PARTTEXT
 10
  5.9000
 20
  0.8186
 30
0.0
 40
  0.0514
 1
Title
 0
TEXT
 8
PARTTEXT
 10
  5.9000
 20
  0.5186
 30
0.0
 40
  0.0514
 1
Size
 0
TEXT
 8
PARTTEXT
 10
  6.3000
 20
  0.5186
 30
0.0
 40
  0.0514
 1
Document Number
 0
TEXT
 8
PARTTEXT
 10
  9.2000
 20
  0.5186
 30
0.0
 40
  0.0514
 1
Rev
 0
TEXT
 8
PARTTEXT
 10
  5.9000
 20
  0.2186
 30
0.0
 40
  0.0514
 1
Date:
 0
TEXT
 8
PARTTEXT
 10
  7.9000
 20
  0.2186
 30
0.0
 40
  0.0514
 1
Sheet
 0
POLYLINE
 8
TITLE
 66
1
 70
1
 10
0.0
 20
0.0
 30
0.0
 0
VERTEX
 8
TITLE
 10
  5.9000
 20
  1.1000
 30
0.0
 0
VERTEX
 8
TITLE
 10
  9.5000
 20
  1.1000
 30
0.0
 0
VERTEX
 8
TITLE
 10
  9.5000
 20
  0.9000
 30
0.0
 0
VERTEX
 8
TITLE
 10
  5.9000
 20
  0.9000
 30
0.0
 0
SEQEND
 8
TITLE
 0
POLYLINE
 8
TITLE
 66
1
 70
1
 10
0.0
 20
0.0
 30
0.0
 0
VERTEX
 8
TITLE
 10
  5.9000
 20
  0.9000
 30
0.0
 0
VERTEX
 8
TITLE
 10
  9.5000
 20
  0.9000
 30
0.0
 0
VERTEX
 8
TITLE
 10
  9.5000
 20
  0.6000
 30
0.0
 0
VERTEX
 8
TITLE
 10
  5.9000
 20
  0.6000
 30
0.0
 0
SEQEND
 8
TITLE
 0
POLYLINE
 8
TITLE
 66
1
 70
1
 10
0.0
 20
0.0
 30
0.0
 0
VERTEX
 8
TITLE
 10
  5.9000
 20
  0.6000
 30
0.0
 0
VERTEX
 8
TITLE
 10
  6.2000
 20
  0.6000
 30
0.0
 0
VERTEX
 8
TITLE
 10
  6.2000
 20
  0.3000
 30
0.0
 0
VERTEX
 8
TITLE
 10
  5.9000
 20
  0.3000
 30
0.0
 0
SEQEND
 8
TITLE
 0
POLYLINE
 8
TITLE
 66
1
 70
1
 10
0.0
 20
0.0
 30
0.0
 0
VERTEX
 8
TITLE
 10
  6.2000
 20
  0.6000
 30
0.0
 0
VERTEX
 8
TITLE
 10
  9.2000
 20
  0.6000
 30
0.0
 0
VERTEX
 8
TITLE
 10
  9.2000
 20
  0.3000
 30
0.0
 0
VERTEX
 8
TITLE
 10
  6.2000
 20
  0.3000
 30
0.0
 0
SEQEND
 8
TITLE
 0
POLYLINE
 8
TITLE
 66
1
 70
1
 10
0.0
 20
0.0
 30
0.0
 0
VERTEX
 8
TITLE
 10
  9.2000
 20
  0.6000
 30
0.0
 0
VERTEX
 8
TITLE
 10
  9.5000
 20
  0.6000
 30
0.0
 0
VERTEX
 8
TITLE
 10
  9.5000
 20
  0.3000
 30
0.0
 0
VERTEX
 8
TITLE
 10
  9.2000
 20
  0.3000
 30
0.0
 0
SEQEND
 8
TITLE
 0
POLYLINE
 8
TITLE
 66
1
 70
1
 10
0.0
 20
0.0
 30
0.0
 0
VERTEX
 8
TITLE
 10
  5.9000
 20
  0.3000
 30
0.0
 0
VERTEX
 8
TITLE
 10
  7.9000
 20
  0.3000
 30
0.0
 0
VERTEX
 8
TITLE
 10
  7.9000
 20
  0.2000
 30
0.0
 0
VERTEX
 8
TITLE
 10
  5.9000
 20
  0.2000
 30
0.0
 0
SEQEND
 8
TITLE
 0
POLYLINE
 8
TITLE
 66
1
 70
1
 10
0.0
 20
0.0
 30
0.0
 0
VERTEX
 8
TITLE
 10
  7.9000
 20
  0.3000
 30
0.0
 0
VERTEX
 8
TITLE
 10
  9.5000
 20
  0.3000
 30
0.0
 0
VERTEX
 8
TITLE
 10
  9.5000
 20
  0.2000
 30
0.0
 0
VERTEX
 8
TITLE
 10
  7.9000
 20
  0.2000
 30
0.0
 0
SEQEND
 8
TITLE
 0
TEXT
 8
PARTTEXT
 10
  8.7000
 20
  0.2186
 30
0.0
 40
  0.0514
 1
of
 0
TEXT
 8
PARTTEXT
 10
  2.6900
 20
  4.0386
 30
0.0
 40
  0.0514
 1
R2
 0
TEXT
 8
PARTTEXT
 10
  2.6100
 20
  3.9186
 30
0.0
 40
  0.0514
 1
100k
 0
LINE
 8
PARTS
 10
  2.8700
 20
  4.2100
 30
0.0
 11
  2.8700
 21
  4.1100
 31
0.0
 0
LINE
 8
PARTS
 10
  2.8700
 20
  3.8100
 30
0.0
 11
  2.8700
 21
  3.9100
 31
0.0
 0
POLYLINE
 8
PARTS
 66
1
 10
0.0
 20
0.0
 30
0.0
 0
VERTEX
 8
PARTS
 10
  2.8700
 20
  3.9200
 30
0.0
 0
VERTEX
 8
PARTS
 10
  2.8300
 20
  3.9400
 30
0.0
 0
SEQEND
 8
PARTS
 0
POLYLINE
 8
PARTS
 66
1
 10
0.0
 20
0.0
 30
0.0
 0
VERTEX
 8
PARTS
 10
  2.8300
 20
  3.9400
 30
0.0
 0
VERTEX
 8
PARTS
 10
  2.9100
 20
  3.9700
 30
0.0
 0
SEQEND
 8
PARTS
 0
POLYLINE
 8
PARTS
 66
1
 10
0.0
 20
0.0
 30
0.0
 0
VERTEX
 8
PARTS
 10
  2.9100
 20
  3.9700
 30
0.0
 0
VERTEX
 8
PARTS
 10
  2.8300
 20
  4.0000
 30
0.0
 0
SEQEND
 8
PARTS
 0
POLYLINE
 8
PARTS
 66
1
 10
0.0
 20
0.0
 30
0.0
 0
VERTEX
 8
PARTS
 10
  2.8300
 20
  4.0000
 30
0.0
 0
VERTEX
 8
PARTS
 10
  2.9100
 20
  4.0300
 30
0.0
 0
SEQEND
 8
PARTS
 0
POLYLINE
 8
PARTS
 66
1
 10
0.0
 20
0.0
 30
0.0
 0
VERTEX
 8
PARTS
 10
  2.9100
 20
  4.0300
 30
0.0
 0
VERTEX
 8
PARTS
 10
  2.8300
 20
  4.0600
 30
0.0
 0
SEQEND
 8
PARTS
 0
POLYLINE
 8
PARTS
 66
1
 10
0.0
 20
0.0
 30
0.0
 0
VERTEX
 8
PARTS
 10
  2.8300
 20
  4.0600
 30
0.0
 0
VERTEX
 8
PARTS
 10
  2.9100
 20
  4.0900
 30
0.0
 0
SEQEND
 8
PARTS
 0
POLYLINE
 8
PARTS
 66
1
 10
0.0
 20
0.0
 30
0.0
 0
VERTEX
 8
PARTS
 10
  2.9100
 20
  4.0900
 30
0.0
 0
VERTEX
 8
PARTS
 10
  2.8700
 20
  4.1100
 30
0.0
 0
SEQEND
 8
PARTS
 0
POLYLINE
 8
PARTS
 66
1
 10
0.0
 20
0.0
 30
0.0
 0
VERTEX
 8
PARTS
 10
  2.8700
 20
  3.9100
 30
0.0
 0
VERTEX
 8
PARTS
 10
  2.8700
 20
  3.9200
 30
0.0
 0
SEQEND
 8
PARTS
 0
TEXT
 8
PARTTEXT
 10
  5.4500
 20
  3.2986
 30
0.0
 40
  0.0514
 1
R2n
 0
TEXT
 8
PARTTEXT
 10
  5.7400
 20
  3.2986
 30
0.0
 40
  0.0514
 1
22.17k
 0
LINE
 8
PARTS
 10
  5.6700
 20
  3.5100
 30
0.0
 11
  5.6700
 21
  3.4100
 31
0.0
 0
LINE
 8
PARTS
 10
  5.6700
 20
  3.1100
 30
0.0
 11
  5.6700
 21
  3.2100
 31
0.0
 0
POLYLINE
 8
PARTS
 66
1
 10
0.0
 20
0.0
 30
0.0
 0
VERTEX
 8
PARTS
 10
  5.6700
 20
  3.2200
 30
0.0
 0
VERTEX
 8
PARTS
 10
  5.6300
 20
  3.2400
 30
0.0
 0
SEQEND
 8
PARTS
 0
POLYLINE
 8
PARTS
 66
1
 10
0.0
 20
0.0
 30
0.0
 0
VERTEX
 8
PARTS
 10
  5.6300
 20
  3.2400
 30
0.0
 0
VERTEX
 8
PARTS
 10
  5.7100
 20
  3.2700
 30
0.0
 0
SEQEND
 8
PARTS
 0
POLYLINE
 8
PARTS
 66
1
 10
0.0
 20
0.0
 30
0.0
 0
VERTEX
 8
PARTS
 10
  5.7100
 20
  3.2700
 30
0.0
 0
VERTEX
 8
PARTS
 10
  5.6300
 20
  3.3000
 30
0.0
 0
SEQEND
 8
PARTS
 0
POLYLINE
 8
PARTS
 66
1
 10
0.0
 20
0.0
 30
0.0
 0
VERTEX
 8
PARTS
 10
  5.6300
 20
  3.3000
 30
0.0
 0
VERTEX
 8
PARTS
 10
  5.7100
 20
  3.3300
 30
0.0
 0
SEQEND
 8
PARTS
 0
POLYLINE
 8
PARTS
 66
1
 10
0.0
 20
0.0
 30
0.0
 0
VERTEX
 8
PARTS
 10
  5.7100
 20
  3.3300
 30
0.0
 0
VERTEX
 8
PARTS
 10
  5.6300
 20
  3.3600
 30
0.0
 0
SEQEND
 8
PARTS
 0
POLYLINE
 8
PARTS
 66
1
 10
0.0
 20
0.0
 30
0.0
 0
VERTEX
 8
PARTS
 10
  5.6300
 20
  3.3600
 30
0.0
 0
VERTEX
 8
PARTS
 10
  5.7100
 20
  3.3900
 30
0.0
 0
SEQEND
 8
PARTS
 0
POLYLINE
 8
PARTS
 66
1
 10
0.0
 20
0.0
 30
0.0
 0
VERTEX
 8
PARTS
 10
  5.7100
 20
  3.3900
 30
0.0
 0
VERTEX
 8
PARTS
 10
  5.6700
 20
  3.4100
 30
0.0
 0
SEQEND
 8
PARTS
 0
POLYLINE
 8
PARTS
 66
1
 10
0.0
 20
0.0
 30
0.0
 0
VERTEX
 8
PARTS
 10
  5.6700
 20
  3.2100
 30
0.0
 0
VERTEX
 8
PARTS
 10
  5.6700
 20
  3.2200
 30
0.0
 0
SEQEND
 8
PARTS
 0
TEXT
 8
PARTTEXT
 10
  6.8300
 20
  3.9086
 30
0.0
 40
  0.0514
 1
Cout
 0
TEXT
 8
PARTTEXT
 10
  6.8500
 20
  3.6586
 30
0.0
 40
  0.0514
 1
10u
 0
LINE
 8
PARTS
 10
  6.7700
 20
  3.8100
 30
0.0
 11
  6.8700
 21
  3.8100
 31
0.0
 0
LINE
 8
PARTS
 10
  7.0700
 20
  3.8100
 30
0.0
 11
  6.9700
 21
  3.8100
 31
0.0
 0
POLYLINE
 8
PARTS
 66
1
 10
0.0
 20
0.0
 30
0.0
 0
VERTEX
 8
PARTS
 10
  6.9000
 20
  3.8600
 30
0.0
 0
VERTEX
 8
PARTS
 10
  6.9000
 20
  3.7600
 30
0.0
 0
SEQEND
 8
PARTS
 0
POLYLINE
 8
PARTS
 66
1
 10
0.0
 20
0.0
 30
0.0
 0
VERTEX
 8
PARTS
 10
  6.9400
 20
  3.8600
 30
0.0
 0
VERTEX
 8
PARTS
 10
  6.9400
 20
  3.7600
 30
0.0
 0
SEQEND
 8
PARTS
 0
POLYLINE
 8
PARTS
 66
1
 10
0.0
 20
0.0
 30
0.0
 0
VERTEX
 8
PARTS
 10
  6.9400
 20
  3.8100
 30
0.0
 0
VERTEX
 8
PARTS
 10
  6.9700
 20
  3.8100
 30
0.0
 0
SEQEND
 8
PARTS
 0
POLYLINE
 8
PARTS
 66
1
 10
0.0
 20
0.0
 30
0.0
 0
VERTEX
 8
PARTS
 10
  6.8700
 20
  3.8100
 30
0.0
 0
VERTEX
 8
PARTS
 10
  6.9000
 20
  3.8100
 30
0.0
 0
SEQEND
 8
PARTS
 0
TEXT
 8
PARTTEXT
 10
  5.2900
 20
  3.7186
 30
0.0
 40
  0.0514
 1
C2
 0
TEXT
 8
PARTTEXT
 10
  5.2300
 20
  3.4586
 30
0.0
 40
  0.0514
 1
0.1u
 0
LINE
 8
PARTS
 10
  5.4700
 20
  3.6100
 30
0.0
 11
  5.3700
 21
  3.6100
 31
0.0
 0
LINE
 8
PARTS
 10
  5.1700
 20
  3.6100
 30
0.0
 11
  5.2700
 21
  3.6100
 31
0.0
 0
POLYLINE
 8
PARTS
 66
1
 10
0.0
 20
0.0
 30
0.0
 0
VERTEX
 8
PARTS
 10
  5.3400
 20
  3.5600
 30
0.0
 0
VERTEX
 8
PARTS
 10
  5.3400
 20
  3.6600
 30
0.0
 0
SEQEND
 8
PARTS
 0
POLYLINE
 8
PARTS
 66
1
 10
0.0
 20
0.0
 30
0.0
 0
VERTEX
 8
PARTS
 10
  5.3000
 20
  3.5600
 30
0.0
 0
VERTEX
 8
PARTS
 10
  5.3000
 20
  3.6600
 30
0.0
 0
SEQEND
 8
PARTS
 0
POLYLINE
 8
PARTS
 66
1
 10
0.0
 20
0.0
 30
0.0
 0
VERTEX
 8
PARTS
 10
  5.3000
 20
  3.6100
 30
0.0
 0
VERTEX
 8
PARTS
 10
  5.2700
 20
  3.6100
 30
0.0
 0
SEQEND
 8
PARTS
 0
POLYLINE
 8
PARTS
 66
1
 10
0.0
 20
0.0
 30
0.0
 0
VERTEX
 8
PARTS
 10
  5.3700
 20
  3.6100
 30
0.0
 0
VERTEX
 8
PARTS
 10
  5.3400
 20
  3.6100
 30
0.0
 0
SEQEND
 8
PARTS
 0
TEXT
 8
PARTTEXT
 10
  2.3300
 20
  4.3086
 30
0.0
 40
  0.0514
 1
R1
 0
TEXT
 8
PARTTEXT
 10
  2.3000
 20
  4.0486
 30
0.0
 40
  0.0514
 1
100k
 0
LINE
 8
PARTS
 10
  2.2700
 20
  4.2100
 30
0.0
 11
  2.3700
 21
  4.2100
 31
0.0
 0
LINE
 8
PARTS
 10
  2.6700
 20
  4.2100
 30
0.0
 11
  2.5700
 21
  4.2100
 31
0.0
 0
POLYLINE
 8
PARTS
 66
1
 10
0.0
 20
0.0
 30
0.0
 0
VERTEX
 8
PARTS
 10
  2.5600
 20
  4.2100
 30
0.0
 0
VERTEX
 8
PARTS
 10
  2.5400
 20
  4.1700
 30
0.0
 0
SEQEND
 8
PARTS
 0
POLYLINE
 8
PARTS
 66
1
 10
0.0
 20
0.0
 30
0.0
 0
VERTEX
 8
PARTS
 10
  2.5400
 20
  4.1700
 30
0.0
 0
VERTEX
 8
PARTS
 10
  2.5100
 20
  4.2500
 30
0.0
 0
SEQEND
 8
PARTS
 0
POLYLINE
 8
PARTS
 66
1
 10
0.0
 20
0.0
 30
0.0
 0
VERTEX
 8
PARTS
 10
  2.5100
 20
  4.2500
 30
0.0
 0
VERTEX
 8
PARTS
 10
  2.4800
 20
  4.1700
 30
0.0
 0
SEQEND
 8
PARTS
 0
POLYLINE
 8
PARTS
 66
1
 10
0.0
 20
0.0
 30
0.0
 0
VERTEX
 8
PARTS
 10
  2.4800
 20
  4.1700
 30
0.0
 0
VERTEX
 8
PARTS
 10
  2.4500
 20
  4.2500
 30
0.0
 0
SEQEND
 8
PARTS
 0
POLYLINE
 8
PARTS
 66
1
 10
0.0
 20
0.0
 30
0.0
 0
VERTEX
 8
PARTS
 10
  2.4500
 20
  4.2500
 30
0.0
 0
VERTEX
 8
PARTS
 10
  2.4200
 20
  4.1700
 30
0.0
 0
SEQEND
 8
PARTS
 0
POLYLINE
 8
PARTS
 66
1
 10
0.0
 20
0.0
 30
0.0
 0
VERTEX
 8
PARTS
 10
  2.4200
 20
  4.1700
 30
0.0
 0
VERTEX
 8
PARTS
 10
  2.3900
 20
  4.2500
 30
0.0
 0
SEQEND
 8
PARTS
 0
POLYLINE
 8
PARTS
 66
1
 10
0.0
 20
0.0
 30
0.0
 0
VERTEX
 8
PARTS
 10
  2.3900
 20
  4.2500
 30
0.0
 0
VERTEX
 8
PARTS
 10
  2.3700
 20
  4.2100
 30
0.0
 0
SEQEND
 8
PARTS
 0
POLYLINE
 8
PARTS
 66
1
 10
0.0
 20
0.0
 30
0.0
 0
VERTEX
 8
PARTS
 10
  2.5700
 20
  4.2100
 30
0.0
 0
VERTEX
 8
PARTS
 10
  2.5600
 20
  4.2100
 30
0.0
 0
SEQEND
 8
PARTS
 0
TEXT
 8
PARTTEXT
 10
  6.4700
 20
  3.4386
 30
0.0
 40
  0.0514
 1
U1A
 0
TEXT
 8
PARTTEXT
 10
  6.4000
 20
  3.5286
 30
0.0
 40
  0.0514
 1
LM124A
 0
LINE
 8
PARTS
 10
  5.9000
 20
  4.0100
 30
0.0
 11
  6.0000
 21
  4.0100
 31
0.0
 0
TEXT
 8
PARTS
 10
  6.0900
 20
  3.9850
 30
0.0
 40
  0.0500
 1
+
 0
TEXT
 8
PARTS
 10
  5.9000
 20
  4.0400
 30
0.0
 40
  0.0500
 1
3
 0
LINE
 8
PARTS
 10
  5.9000
 20
  3.6100
 30
0.0
 11
  6.0000
 21
  3.6100
 31
0.0
 0
TEXT
 8
PARTS
 10
  6.0900
 20
  3.5850
 30
0.0
 40
  0.0500
 1
-
 0
TEXT
 8
PARTS
 10
  5.9000
 20
  3.6400
 30
0.0
 40
  0.0500
 1
2
 0
TEXT
 8
PARTS
 10
  6.3250
 20
  3.9400
 30
0.0
 40
  0.0500
 50
 90.0000
 1
V+
 0
TEXT
 8
PARTS
 10
  6.2700
 20
  4.1700
 30
0.0
 40
  0.0500
 50
 90.0000
 1
4
 0
TEXT
 8
PARTS
 10
  6.3250
 20
  3.6000
 30
0.0
 40
  0.0500
 50
 90.0000
 1
V-
 0
TEXT
 8
PARTS
 10
  6.2700
 20
  3.3900
 30
0.0
 40
  0.0500
 50
 90.0000
 1
11
 0
LINE
 8
PARTS
 10
  6.7000
 20
  3.8100
 30
0.0
 11
  6.6000
 21
  3.8100
 31
0.0
 0
TEXT
 8
PARTS
 10
  6.3900
 20
  3.7850
 30
0.0
 40
  0.0500
 1
OUT
 0
TEXT
 8
PARTS
 10
  6.6600
 20
  3.8400
 30
0.0
 40
  0.0500
 1
1
 0
POLYLINE
 8
PARTS
 66
1
 10
0.0
 20
0.0
 30
0.0
 0
VERTEX
 8
PARTS
 10
  6.0000
 20
  3.5100
 30
0.0
 0
VERTEX
 8
PARTS
 10
  6.6000
 20
  3.8100
 30
0.0
 0
SEQEND
 8
PARTS
 0
POLYLINE
 8
PARTS
 66
1
 10
0.0
 20
0.0
 30
0.0
 0
VERTEX
 8
PARTS
 10
  6.6000
 20
  3.8100
 30
0.0
 0
VERTEX
 8
PARTS
 10
  6.0000
 20
  4.1100
 30
0.0
 0
SEQEND
 8
PARTS
 0
POLYLINE
 8
PARTS
 66
1
 10
0.0
 20
0.0
 30
0.0
 0
VERTEX
 8
PARTS
 10
  6.3000
 20
  4.0100
 30
0.0
 0
VERTEX
 8
PARTS
 10
  6.3000
 20
  3.9600
 30
0.0
 0
SEQEND
 8
PARTS
 0
POLYLINE
 8
PARTS
 66
1
 10
0.0
 20
0.0
 30
0.0
 0
VERTEX
 8
PARTS
 10
  6.3000
 20
  3.6100
 30
0.0
 0
VERTEX
 8
PARTS
 10
  6.3000
 20
  3.6600
 30
0.0
 0
SEQEND
 8
PARTS
 0
POLYLINE
 8
PARTS
 66
1
 10
0.0
 20
0.0
 30
0.0
 0
VERTEX
 8
PARTS
 10
  6.0000
 20
  4.1100
 30
0.0
 0
VERTEX
 8
PARTS
 10
  6.0000
 20
  3.5100
 30
0.0
 0
SEQEND
 8
PARTS
 0
POLYLINE
 8
PARTS
 66
1
 10
0.0
 20
0.0
 30
0.0
 0
VERTEX
 8
PARTS
 10
  6.3000
 20
  4.0100
 30
0.0
 0
VERTEX
 8
PARTS
 10
  6.3000
 20
  4.1100
 30
0.0
 0
SEQEND
 8
PARTS
 0
POLYLINE
 8
PARTS
 66
1
 10
0.0
 20
0.0
 30
0.0
 0
VERTEX
 8
PARTS
 10
  6.3000
 20
  3.6100
 30
0.0
 0
VERTEX
 8
PARTS
 10
  6.3000
 20
  3.5100
 30
0.0
 0
SEQEND
 8
PARTS
 0
TEXT
 8
PARTTEXT
 10
  4.9700
 20
  3.8286
 30
0.0
 40
  0.0514
 1
Rb
 0
TEXT
 8
PARTTEXT
 10
  4.8700
 20
  3.7286
 30
0.0
 40
  0.0514
 1
1.26k
 0
LINE
 8
PARTS
 10
  5.1700
 20
  4.0100
 30
0.0
 11
  5.1700
 21
  3.9100
 31
0.0
 0
LINE
 8
PARTS
 10
  5.1700
 20
  3.6100
 30
0.0
 11
  5.1700
 21
  3.7100
 31
0.0
 0
POLYLINE
 8
PARTS
 66
1
 10
0.0
 20
0.0
 30
0.0
 0
VERTEX
 8
PARTS
 10
  5.1700
 20
  3.7200
 30
0.0
 0
VERTEX
 8
PARTS
 10
  5.1300
 20
  3.7400
 30
0.0
 0
SEQEND
 8
PARTS
 0
POLYLINE
 8
PARTS
 66
1
 10
0.0
 20
0.0
 30
0.0
 0
VERTEX
 8
PARTS
 10
  5.1300
 20
  3.7400
 30
0.0
 0
VERTEX
 8
PARTS
 10
  5.2100
 20
  3.7700
 30
0.0
 0
SEQEND
 8
PARTS
 0
POLYLINE
 8
PARTS
 66
1
 10
0.0
 20
0.0
 30
0.0
 0
VERTEX
 8
PARTS
 10
  5.2100
 20
  3.7700
 30
0.0
 0
VERTEX
 8
PARTS
 10
  5.1300
 20
  3.8000
 30
0.0
 0
SEQEND
 8
PARTS
 0
POLYLINE
 8
PARTS
 66
1
 10
0.0
 20
0.0
 30
0.0
 0
VERTEX
 8
PARTS
 10
  5.1300
 20
  3.8000
 30
0.0
 0
VERTEX
 8
PARTS
 10
  5.2100
 20
  3.8300
 30
0.0
 0
SEQEND
 8
PARTS
 0
POLYLINE
 8
PARTS
 66
1
 10
0.0
 20
0.0
 30
0.0
 0
VERTEX
 8
PARTS
 10
  5.2100
 20
  3.8300
 30
0.0
 0
VERTEX
 8
PARTS
 10
  5.1300
 20
  3.8600
 30
0.0
 0
SEQEND
 8
PARTS
 0
POLYLINE
 8
PARTS
 66
1
 10
0.0
 20
0.0
 30
0.0
 0
VERTEX
 8
PARTS
 10
  5.1300
 20
  3.8600
 30
0.0
 0
VERTEX
 8
PARTS
 10
  5.2100
 20
  3.8900
 30
0.0
 0
SEQEND
 8
PARTS
 0
POLYLINE
 8
PARTS
 66
1
 10
0.0
 20
0.0
 30
0.0
 0
VERTEX
 8
PARTS
 10
  5.2100
 20
  3.8900
 30
0.0
 0
VERTEX
 8
PARTS
 10
  5.1700
 20
  3.9100
 30
0.0
 0
SEQEND
 8
PARTS
 0
POLYLINE
 8
PARTS
 66
1
 10
0.0
 20
0.0
 30
0.0
 0
VERTEX
 8
PARTS
 10
  5.1700
 20
  3.7100
 30
0.0
 0
VERTEX
 8
PARTS
 10
  5.1700
 20
  3.7200
 30
0.0
 0
SEQEND
 8
PARTS
 0
TEXT
 8
PARTTEXT
 10
  4.8900
 20
  3.1386
 30
0.0
 40
  0.0514
 1
Ra
 0
TEXT
 8
PARTTEXT
 10
  4.8600
 20
  2.8486
 30
0.0
 40
  0.0514
 1
11.1k
 0
LINE
 8
PARTS
 10
  5.1700
 20
  3.0100
 30
0.0
 11
  5.0700
 21
  3.0100
 31
0.0
 0
LINE
 8
PARTS
 10
  4.7700
 20
  3.0100
 30
0.0
 11
  4.8700
 21
  3.0100
 31
0.0
 0
POLYLINE
 8
PARTS
 66
1
 10
0.0
 20
0.0
 30
0.0
 0
VERTEX
 8
PARTS
 10
  4.8800
 20
  3.0100
 30
0.0
 0
VERTEX
 8
PARTS
 10
  4.9000
 20
  3.0500
 30
0.0
 0
SEQEND
 8
PARTS
 0
POLYLINE
 8
PARTS
 66
1
 10
0.0
 20
0.0
 30
0.0
 0
VERTEX
 8
PARTS
 10
  4.9000
 20
  3.0500
 30
0.0
 0
VERTEX
 8
PARTS
 10
  4.9300
 20
  2.9700
 30
0.0
 0
SEQEND
 8
PARTS
 0
POLYLINE
 8
PARTS
 66
1
 10
0.0
 20
0.0
 30
0.0
 0
VERTEX
 8
PARTS
 10
  4.9300
 20
  2.9700
 30
0.0
 0
VERTEX
 8
PARTS
 10
  4.9600
 20
  3.0500
 30
0.0
 0
SEQEND
 8
PARTS
 0
POLYLINE
 8
PARTS
 66
1
 10
0.0
 20
0.0
 30
0.0
 0
VERTEX
 8
PARTS
 10
  4.9600
 20
  3.0500
 30
0.0
 0
VERTEX
 8
PARTS
 10
  4.9900
 20
  2.9700
 30
0.0
 0
SEQEND
 8
PARTS
 0
POLYLINE
 8
PARTS
 66
1
 10
0.0
 20
0.0
 30
0.0
 0
VERTEX
 8
PARTS
 10
  4.9900
 20
  2.9700
 30
0.0
 0
VERTEX
 8
PARTS
 10
  5.0200
 20
  3.0500
 30
0.0
 0
SEQEND
 8
PARTS
 0
POLYLINE
 8
PARTS
 66
1
 10
0.0
 20
0.0
 30
0.0
 0
VERTEX
 8
PARTS
 10
  5.0200
 20
  3.0500
 30
0.0
 0
VERTEX
 8
PARTS
 10
  5.0500
 20
  2.9700
 30
0.0
 0
SEQEND
 8
PARTS
 0
POLYLINE
 8
PARTS
 66
1
 10
0.0
 20
0.0
 30
0.0
 0
VERTEX
 8
PARTS
 10
  5.0500
 20
  2.9700
 30
0.0
 0
VERTEX
 8
PARTS
 10
  5.0700
 20
  3.0100
 30
0.0
 0
SEQEND
 8
PARTS
 0
POLYLINE
 8
PARTS
 66
1
 10
0.0
 20
0.0
 30
0.0
 0
VERTEX
 8
PARTS
 10
  4.8700
 20
  3.0100
 30
0.0
 0
VERTEX
 8
PARTS
 10
  4.8800
 20
  3.0100
 30
0.0
 0
SEQEND
 8
PARTS
 0
TEXT
 8
PARTTEXT
 10
  3.5300
 20
  4.0286
 30
0.0
 40
  0.0514
 1
C1
 0
TEXT
 8
PARTTEXT
 10
  3.5300
 20
  3.9086
 30
0.0
 40
  0.0514
 1
0.1u
 0
LINE
 8
PARTS
 10
  3.3700
 20
  3.9100
 30
0.0
 11
  3.3700
 21
  4.0100
 31
0.0
 0
LINE
 8
PARTS
 10
  3.3700
 20
  4.2100
 30
0.0
 11
  3.3700
 21
  4.1100
 31
0.0
 0
POLYLINE
 8
PARTS
 66
1
 10
0.0
 20
0.0
 30
0.0
 0
VERTEX
 8
PARTS
 10
  3.3200
 20
  4.0400
 30
0.0
 0
VERTEX
 8
PARTS
 10
  3.4200
 20
  4.0400
 30
0.0
 0
SEQEND
 8
PARTS
 0
POLYLINE
 8
PARTS
 66
1
 10
0.0
 20
0.0
 30
0.0
 0
VERTEX
 8
PARTS
 10
  3.3200
 20
  4.0800
 30
0.0
 0
VERTEX
 8
PARTS
 10
  3.4200
 20
  4.0800
 30
0.0
 0
SEQEND
 8
PARTS
 0
POLYLINE
 8
PARTS
 66
1
 10
0.0
 20
0.0
 30
0.0
 0
VERTEX
 8
PARTS
 10
  3.3700
 20
  4.0800
 30
0.0
 0
VERTEX
 8
PARTS
 10
  3.3700
 20
  4.1100
 30
0.0
 0
SEQEND
 8
PARTS
 0
POLYLINE
 8
PARTS
 66
1
 10
0.0
 20
0.0
 30
0.0
 0
VERTEX
 8
PARTS
 10
  3.3700
 20
  4.0100
 30
0.0
 0
VERTEX
 8
PARTS
 10
  3.3700
 20
  4.0400
 30
0.0
 0
SEQEND
 8
PARTS
 0
TEXT
 8
PARTTEXT
 10
  5.2800
 20
  3.1086
 30
0.0
 40
  0.0514
 1
C3
 0
TEXT
 8
PARTTEXT
 10
  5.2400
 20
  2.8486
 30
0.0
 40
  0.0514
 1
0.1u
 0
LINE
 8
PARTS
 10
  5.4700
 20
  3.0100
 30
0.0
 11
  5.3700
 21
  3.0100
 31
0.0
 0
LINE
 8
PARTS
 10
  5.1700
 20
  3.0100
 30
0.0
 11
  5.2700
 21
  3.0100
 31
0.0
 0
POLYLINE
 8
PARTS
 66
1
 10
0.0
 20
0.0
 30
0.0
 0
VERTEX
 8
PARTS
 10
  5.3400
 20
  2.9600
 30
0.0
 0
VERTEX
 8
PARTS
 10
  5.3400
 20
  3.0600
 30
0.0
 0
SEQEND
 8
PARTS
 0
POLYLINE
 8
PARTS
 66
1
 10
0.0
 20
0.0
 30
0.0
 0
VERTEX
 8
PARTS
 10
  5.3000
 20
  2.9600
 30
0.0
 0
VERTEX
 8
PARTS
 10
  5.3000
 20
  3.0600
 30
0.0
 0
SEQEND
 8
PARTS
 0
POLYLINE
 8
PARTS
 66
1
 10
0.0
 20
0.0
 30
0.0
 0
VERTEX
 8
PARTS
 10
  5.3000
 20
  3.0100
 30
0.0
 0
VERTEX
 8
PARTS
 10
  5.2700
 20
  3.0100
 30
0.0
 0
SEQEND
 8
PARTS
 0
POLYLINE
 8
PARTS
 66
1
 10
0.0
 20
0.0
 30
0.0
 0
VERTEX
 8
PARTS
 10
  5.3700
 20
  3.0100
 30
0.0
 0
VERTEX
 8
PARTS
 10
  5.3400
 20
  3.0100
 30
0.0
 0
SEQEND
 8
PARTS
 0
TEXT
 8
PARTTEXT
 10
  4.4100
 20
  4.2086
 30
0.0
 40
  0.0514
 1
U1B
 0
TEXT
 8
PARTTEXT
 10
  4.3700
 20
  3.7286
 30
0.0
 40
  0.0514
 1
LM124A
 0
LINE
 8
PARTS
 10
  3.8700
 20
  4.2100
 30
0.0
 11
  3.9700
 21
  4.2100
 31
0.0
 0
TEXT
 8
PARTS
 10
  4.0600
 20
  4.1850
 30
0.0
 40
  0.0500
 1
+
 0
TEXT
 8
PARTS
 10
  3.8700
 20
  4.2400
 30
0.0
 40
  0.0500
 1
5
 0
LINE
 8
PARTS
 10
  3.8700
 20
  3.8100
 30
0.0
 11
  3.9700
 21
  3.8100
 31
0.0
 0
TEXT
 8
PARTS
 10
  4.0600
 20
  3.7850
 30
0.0
 40
  0.0500
 1
-
 0
TEXT
 8
PARTS
 10
  3.8700
 20
  3.8400
 30
0.0
 40
  0.0500
 1
6
 0
TEXT
 8
PARTS
 10
  4.2950
 20
  4.1400
 30
0.0
 40
  0.0500
 50
 90.0000
 1
V+
 0
TEXT
 8
PARTS
 10
  4.2400
 20
  4.3700
 30
0.0
 40
  0.0500
 50
 90.0000
 1
4
 0
TEXT
 8
PARTS
 10
  4.2950
 20
  3.8000
 30
0.0
 40
  0.0500
 50
 90.0000
 1
V-
 0
TEXT
 8
PARTS
 10
  4.2400
 20
  3.5900
 30
0.0
 40
  0.0500
 50
 90.0000
 1
11
 0
LINE
 8
PARTS
 10
  4.6700
 20
  4.0100
 30
0.0
 11
  4.5700
 21
  4.0100
 31
0.0
 0
TEXT
 8
PARTS
 10
  4.3600
 20
  3.9850
 30
0.0
 40
  0.0500
 1
OUT
 0
TEXT
 8
PARTS
 10
  4.6300
 20
  4.0400
 30
0.0
 40
  0.0500
 1
7
 0
POLYLINE
 8
PARTS
 66
1
 10
0.0
 20
0.0
 30
0.0
 0
VERTEX
 8
PARTS
 10
  3.9700
 20
  3.7100
 30
0.0
 0
VERTEX
 8
PARTS
 10
  4.5700
 20
  4.0100
 30
0.0
 0
SEQEND
 8
PARTS
 0
POLYLINE
 8
PARTS
 66
1
 10
0.0
 20
0.0
 30
0.0
 0
VERTEX
 8
PARTS
 10
  4.5700
 20
  4.0100
 30
0.0
 0
VERTEX
 8
PARTS
 10
  3.9700
 20
  4.3100
 30
0.0
 0
SEQEND
 8
PARTS
 0
POLYLINE
 8
PARTS
 66
1
 10
0.0
 20
0.0
 30
0.0
 0
VERTEX
 8
PARTS
 10
  4.2700
 20
  4.2100
 30
0.0
 0
VERTEX
 8
PARTS
 10
  4.2700
 20
  4.1600
 30
0.0
 0
SEQEND
 8
PARTS
 0
POLYLINE
 8
PARTS
 66
1
 10
0.0
 20
0.0
 30
0.0
 0
VERTEX
 8
PARTS
 10
  4.2700
 20
  3.8100
 30
0.0
 0
VERTEX
 8
PARTS
 10
  4.2700
 20
  3.8600
 30
0.0
 0
SEQEND
 8
PARTS
 0
POLYLINE
 8
PARTS
 66
1
 10
0.0
 20
0.0
 30
0.0
 0
VERTEX
 8
PARTS
 10
  3.9700
 20
  4.3100
 30
0.0
 0
VERTEX
 8
PARTS
 10
  3.9700
 20
  3.7100
 30
0.0
 0
SEQEND
 8
PARTS
 0
POLYLINE
 8
PARTS
 66
1
 10
0.0
 20
0.0
 30
0.0
 0
VERTEX
 8
PARTS
 10
  4.2700
 20
  4.2100
 30
0.0
 0
VERTEX
 8
PARTS
 10
  4.2700
 20
  4.3100
 30
0.0
 0
SEQEND
 8
PARTS
 0
POLYLINE
 8
PARTS
 66
1
 10
0.0
 20
0.0
 30
0.0
 0
VERTEX
 8
PARTS
 10
  4.2700
 20
  3.8100
 30
0.0
 0
VERTEX
 8
PARTS
 10
  4.2700
 20
  3.7100
 30
0.0
 0
SEQEND
 8
PARTS
 0
TEXT
 8
PARTTEXT
 10
  4.4700
 20
  3.1786
 30
0.0
 40
  0.0514
 1
Cin
 0
TEXT
 8
PARTTEXT
 10
  4.4500
 20
  2.8386
 30
0.0
 40
  0.0514
 1
10u
 0
LINE
 8
PARTS
 10
  4.6700
 20
  3.0100
 30
0.0
 11
  4.5700
 21
  3.0100
 31
0.0
 0
LINE
 8
PARTS
 10
  4.3700
 20
  3.0100
 30
0.0
 11
  4.4700
 21
  3.0100
 31
0.0
 0
POLYLINE
 8
PARTS
 66
1
 10
0.0
 20
0.0
 30
0.0
 0
VERTEX
 8
PARTS
 10
  4.5400
 20
  2.9600
 30
0.0
 0
VERTEX
 8
PARTS
 10
  4.5400
 20
  3.0600
 30
0.0
 0
SEQEND
 8
PARTS
 0
POLYLINE
 8
PARTS
 66
1
 10
0.0
 20
0.0
 30
0.0
 0
VERTEX
 8
PARTS
 10
  4.5000
 20
  2.9600
 30
0.0
 0
VERTEX
 8
PARTS
 10
  4.5000
 20
  3.0600
 30
0.0
 0
SEQEND
 8
PARTS
 0
POLYLINE
 8
PARTS
 66
1
 10
0.0
 20
0.0
 30
0.0
 0
VERTEX
 8
PARTS
 10
  4.5000
 20
  3.0100
 30
0.0
 0
VERTEX
 8
PARTS
 10
  4.4700
 20
  3.0100
 30
0.0
 0
SEQEND
 8
PARTS
 0
POLYLINE
 8
PARTS
 66
1
 10
0.0
 20
0.0
 30
0.0
 0
VERTEX
 8
PARTS
 10
  4.5700
 20
  3.0100
 30
0.0
 0
VERTEX
 8
PARTS
 10
  4.5400
 20
  3.0100
 30
0.0
 0
SEQEND
 8
PARTS
 0
POLYLINE
 8
WIRE
 66
1
 10
0.0
 20
0.0
 30
0.0
 0
VERTEX
 8
WIRE
 10
  3.8700
 20
  3.5100
 30
0.0
 0
VERTEX
 8
WIRE
 10
  3.8700
 20
  3.8100
 30
0.0
 0
SEQEND
 8
WIRE
 0
POLYLINE
 8
WIRE
 66
1
 10
0.0
 20
0.0
 30
0.0
 0
VERTEX
 8
WIRE
 10
  4.6700
 20
  3.5100
 30
0.0
 0
VERTEX
 8
WIRE
 10
  3.8700
 20
  3.5100
 30
0.0
 0
SEQEND
 8
WIRE
 0
POLYLINE
 8
WIRE
 66
1
 10
0.0
 20
0.0
 30
0.0
 0
VERTEX
 8
WIRE
 10
  4.6700
 20
  3.5100
 30
0.0
 0
VERTEX
 8
WIRE
 10
  4.6700
 20
  4.0100
 30
0.0
 0
SEQEND
 8
WIRE
 0
POLYLINE
 8
WIRE
 66
1
 10
0.0
 20
0.0
 30
0.0
 0
VERTEX
 8
WIRE
 10
  3.8700
 20
  4.2100
 30
0.0
 0
VERTEX
 8
WIRE
 10
  3.3700
 20
  4.2100
 30
0.0
 0
SEQEND
 8
WIRE
 0
POLYLINE
 8
WIRE
 66
1
 10
0.0
 20
0.0
 30
0.0
 0
VERTEX
 8
WIRE
 10
  3.3700
 20
  3.6100
 30
0.0
 0
VERTEX
 8
WIRE
 10
  3.3700
 20
  3.8100
 30
0.0
 0
SEQEND
 8
WIRE
 0
POLYLINE
 8
WIRE
 66
1
 70
1
 10
0.0
 20
0.0
 30
0.0
 40
  0.0200
 41
  0.0200
 0
VERTEX
 8
WIRE
 10
  3.3600
 20
  3.8100
 30
0.0
 42
1.0
 0
VERTEX
 8
WIRE
 10
  3.3800
 20
  3.8100
 30
0.0
 42
1.0
 0
SEQEND
 8
WIRE
 0
POLYLINE
 8
WIRE
 66
1
 10
0.0
 20
0.0
 30
0.0
 0
VERTEX
 8
WIRE
 10
  3.3700
 20
  4.2100
 30
0.0
 0
VERTEX
 8
WIRE
 10
  2.8700
 20
  4.2100
 30
0.0
 0
SEQEND
 8
WIRE
 0
POLYLINE
 8
WIRE
 66
1
 70
1
 10
0.0
 20
0.0
 30
0.0
 40
  0.0200
 41
  0.0200
 0
VERTEX
 8
WIRE
 10
  3.3600
 20
  4.2100
 30
0.0
 42
1.0
 0
VERTEX
 8
WIRE
 10
  3.3800
 20
  4.2100
 30
0.0
 42
1.0
 0
SEQEND
 8
WIRE
 0
POLYLINE
 8
WIRE
 66
1
 70
1
 10
0.0
 20
0.0
 30
0.0
 40
  0.0200
 41
  0.0200
 0
VERTEX
 8
WIRE
 10
  2.8600
 20
  4.2100
 30
0.0
 42
1.0
 0
VERTEX
 8
WIRE
 10
  2.8800
 20
  4.2100
 30
0.0
 42
1.0
 0
SEQEND
 8
WIRE
 0
POLYLINE
 8
WIRE
 66
1
 10
0.0
 20
0.0
 30
0.0
 0
VERTEX
 8
WIRE
 10
  3.3700
 20
  3.8100
 30
0.0
 0
VERTEX
 8
WIRE
 10
  2.8700
 20
  3.8100
 30
0.0
 0
SEQEND
 8
WIRE
 0
POLYLINE
 8
WIRE
 66
1
 10
0.0
 20
0.0
 30
0.0
 0
VERTEX
 8
WIRE
 10
  3.3700
 20
  3.8100
 30
0.0
 0
VERTEX
 8
WIRE
 10
  3.3700
 20
  3.9100
 30
0.0
 0
SEQEND
 8
WIRE
 0
POLYLINE
 8
WIRE
 66
1
 10
0.0
 20
0.0
 30
0.0
 0
VERTEX
 8
WIRE
 10
  5.1700
 20
  4.0100
 30
0.0
 0
VERTEX
 8
WIRE
 10
  4.6700
 20
  4.0100
 30
0.0
 0
SEQEND
 8
WIRE
 0
POLYLINE
 8
WIRE
 66
1
 70
1
 10
0.0
 20
0.0
 30
0.0
 40
  0.0200
 41
  0.0200
 0
VERTEX
 8
WIRE
 10
  5.1600
 20
  4.0100
 30
0.0
 42
1.0
 0
VERTEX
 8
WIRE
 10
  5.1800
 20
  4.0100
 30
0.0
 42
1.0
 0
SEQEND
 8
WIRE
 0
POLYLINE
 8
WIRE
 66
1
 70
1
 10
0.0
 20
0.0
 30
0.0
 40
  0.0200
 41
  0.0200
 0
VERTEX
 8
WIRE
 10
  4.6600
 20
  4.0100
 30
0.0
 42
1.0
 0
VERTEX
 8
WIRE
 10
  4.6800
 20
  4.0100
 30
0.0
 42
1.0
 0
SEQEND
 8
WIRE
 0
POLYLINE
 8
WIRE
 66
1
 10
0.0
 20
0.0
 30
0.0
 0
VERTEX
 8
WIRE
 10
  5.9000
 20
  4.0100
 30
0.0
 0
VERTEX
 8
WIRE
 10
  5.1700
 20
  4.0100
 30
0.0
 0
SEQEND
 8
WIRE
 0
POLYLINE
 8
WIRE
 66
1
 10
0.0
 20
0.0
 30
0.0
 0
VERTEX
 8
WIRE
 10
  5.6700
 20
  3.6100
 30
0.0
 0
VERTEX
 8
WIRE
 10
  5.4700
 20
  3.6100
 30
0.0
 0
SEQEND
 8
WIRE
 0
POLYLINE
 8
WIRE
 66
1
 10
0.0
 20
0.0
 30
0.0
 0
VERTEX
 8
WIRE
 10
  5.6700
 20
  3.5100
 30
0.0
 0
VERTEX
 8
WIRE
 10
  5.6700
 20
  3.6100
 30
0.0
 0
SEQEND
 8
WIRE
 0
POLYLINE
 8
WIRE
 66
1
 70
1
 10
0.0
 20
0.0
 30
0.0
 40
  0.0200
 41
  0.0200
 0
VERTEX
 8
WIRE
 10
  5.6600
 20
  3.6100
 30
0.0
 42
1.0
 0
VERTEX
 8
WIRE
 10
  5.6800
 20
  3.6100
 30
0.0
 42
1.0
 0
SEQEND
 8
WIRE
 0
POLYLINE
 8
WIRE
 66
1
 10
0.0
 20
0.0
 30
0.0
 0
VERTEX
 8
WIRE
 10
  5.9000
 20
  3.6100
 30
0.0
 0
VERTEX
 8
WIRE
 10
  5.6700
 20
  3.6100
 30
0.0
 0
SEQEND
 8
WIRE
 0
POLYLINE
 8
WIRE
 66
1
 10
0.0
 20
0.0
 30
0.0
 0
VERTEX
 8
WIRE
 10
  5.6700
 20
  3.0100
 30
0.0
 0
VERTEX
 8
WIRE
 10
  5.6700
 20
  3.1100
 30
0.0
 0
SEQEND
 8
WIRE
 0
POLYLINE
 8
WIRE
 66
1
 10
0.0
 20
0.0
 30
0.0
 0
VERTEX
 8
WIRE
 10
  6.7700
 20
  3.0100
 30
0.0
 0
VERTEX
 8
WIRE
 10
  5.6700
 20
  3.0100
 30
0.0
 0
SEQEND
 8
WIRE
 0
POLYLINE
 8
WIRE
 66
1
 70
1
 10
0.0
 20
0.0
 30
0.0
 40
  0.0200
 41
  0.0200
 0
VERTEX
 8
WIRE
 10
  5.6600
 20
  3.0100
 30
0.0
 42
1.0
 0
VERTEX
 8
WIRE
 10
  5.6800
 20
  3.0100
 30
0.0
 42
1.0
 0
SEQEND
 8
WIRE
 0
POLYLINE
 8
WIRE
 66
1
 10
0.0
 20
0.0
 30
0.0
 0
VERTEX
 8
WIRE
 10
  6.7700
 20
  3.0100
 30
0.0
 0
VERTEX
 8
WIRE
 10
  6.7700
 20
  3.8100
 30
0.0
 0
SEQEND
 8
WIRE
 0
POLYLINE
 8
WIRE
 66
1
 70
1
 10
0.0
 20
0.0
 30
0.0
 40
  0.0200
 41
  0.0200
 0
VERTEX
 8
WIRE
 10
  6.7600
 20
  3.8100
 30
0.0
 42
1.0
 0
VERTEX
 8
WIRE
 10
  6.7800
 20
  3.8100
 30
0.0
 42
1.0
 0
SEQEND
 8
WIRE
 0
POLYLINE
 8
WIRE
 66
1
 10
0.0
 20
0.0
 30
0.0
 0
VERTEX
 8
WIRE
 10
  4.7700
 20
  3.0100
 30
0.0
 0
VERTEX
 8
WIRE
 10
  4.6700
 20
  3.0100
 30
0.0
 0
SEQEND
 8
WIRE
 0
POLYLINE
 8
WIRE
 66
1
 10
0.0
 20
0.0
 30
0.0
 0
VERTEX
 8
WIRE
 10
  5.6700
 20
  3.0100
 30
0.0
 0
VERTEX
 8
WIRE
 10
  5.4700
 20
  3.0100
 30
0.0
 0
SEQEND
 8
WIRE
 0
POLYLINE
 8
WIRE
 66
1
 10
0.0
 20
0.0
 30
0.0
 0
VERTEX
 8
WIRE
 10
  2.2700
 20
  4.2100
 30
0.0
 0
VERTEX
 8
WIRE
 10
  2.1700
 20
  4.2100
 30
0.0
 0
SEQEND
 8
WIRE
 0
POLYLINE
 8
WIRE
 66
1
 10
0.0
 20
0.0
 30
0.0
 0
VERTEX
 8
WIRE
 10
  6.3700
 20
  3.5100
 30
0.0
 0
VERTEX
 8
WIRE
 10
  6.3000
 20
  3.5100
 30
0.0
 0
SEQEND
 8
WIRE
 0
POLYLINE
 8
WIRE
 66
1
 10
0.0
 20
0.0
 30
0.0
 0
VERTEX
 8
WIRE
 10
  6.3700
 20
  3.2600
 30
0.0
 0
VERTEX
 8
WIRE
 10
  6.3700
 20
  3.5100
 30
0.0
 0
SEQEND
 8
WIRE
 0
POLYLINE
 8
WIRE
 66
1
 10
0.0
 20
0.0
 30
0.0
 0
VERTEX
 8
WIRE
 10
  4.3700
 20
  3.4100
 30
0.0
 0
VERTEX
 8
WIRE
 10
  4.3700
 20
  3.7100
 30
0.0
 0
SEQEND
 8
WIRE
 0
POLYLINE
 8
WIRE
 66
1
 10
0.0
 20
0.0
 30
0.0
 0
VERTEX
 8
WIRE
 10
  4.3700
 20
  3.7100
 30
0.0
 0
VERTEX
 8
WIRE
 10
  4.2700
 20
  3.7100
 30
0.0
 0
SEQEND
 8
WIRE
 0
POLYLINE
 8
WIRE
 66
1
 10
0.0
 20
0.0
 30
0.0
 0
VERTEX
 8
WIRE
 10
  4.3700
 20
  3.0100
 30
0.0
 0
VERTEX
 8
WIRE
 10
  4.2700
 20
  3.0100
 30
0.0
 0
SEQEND
 8
WIRE
 0
POLYLINE
 8
WIRE
 66
1
 10
0.0
 20
0.0
 30
0.0
 0
VERTEX
 8
WIRE
 10
  2.8700
 20
  4.2100
 30
0.0
 0
VERTEX
 8
WIRE
 10
  2.6700
 20
  4.2100
 30
0.0
 0
SEQEND
 8
WIRE
 0
POLYLINE
 8
WIRE
 66
1
 10
0.0
 20
0.0
 30
0.0
 0
VERTEX
 8
WIRE
 10
  4.4000
 20
  4.4000
 30
0.0
 0
VERTEX
 8
WIRE
 10
  4.4000
 20
  4.4100
 30
0.0
 0
SEQEND
 8
WIRE
 0
POLYLINE
 8
WIRE
 66
1
 70
1
 10
0.0
 20
0.0
 30
0.0
 40
  0.0200
 41
  0.0200
 0
VERTEX
 8
WIRE
 10
  4.3900
 20
  4.4100
 30
0.0
 42
1.0
 0
VERTEX
 8
WIRE
 10
  4.4100
 20
  4.4100
 30
0.0
 42
1.0
 0
SEQEND
 8
WIRE
 0
POLYLINE
 8
WIRE
 66
1
 10
0.0
 20
0.0
 30
0.0
 0
VERTEX
 8
WIRE
 10
  6.3000
 20
  4.4000
 30
0.0
 0
VERTEX
 8
WIRE
 10
  4.4000
 20
  4.4000
 30
0.0
 0
SEQEND
 8
WIRE
 0
POLYLINE
 8
WIRE
 66
1
 10
0.0
 20
0.0
 30
0.0
 0
VERTEX
 8
WIRE
 10
  6.7000
 20
  3.8100
 30
0.0
 0
VERTEX
 8
WIRE
 10
  6.6700
 20
  3.8100
 30
0.0
 0
SEQEND
 8
WIRE
 0
POLYLINE
 8
WIRE
 66
1
 10
0.0
 20
0.0
 30
0.0
 0
VERTEX
 8
WIRE
 10
  6.7700
 20
  3.8100
 30
0.0
 0
VERTEX
 8
WIRE
 10
  6.7000
 20
  3.8100
 30
0.0
 0
SEQEND
 8
WIRE
 0
POLYLINE
 8
WIRE
 66
1
 70
1
 10
0.0
 20
0.0
 30
0.0
 40
  0.0200
 41
  0.0200
 0
VERTEX
 8
WIRE
 10
  6.6900
 20
  3.8100
 30
0.0
 42
1.0
 0
VERTEX
 8
WIRE
 10
  6.7100
 20
  3.8100
 30
0.0
 42
1.0
 0
SEQEND
 8
WIRE
 0
POLYLINE
 8
WIRE
 66
1
 10
0.0
 20
0.0
 30
0.0
 0
VERTEX
 8
WIRE
 10
  5.1700
 20
  3.0100
 30
0.0
 0
VERTEX
 8
WIRE
 10
  5.1700
 20
  3.6100
 30
0.0
 0
SEQEND
 8
WIRE
 0
POLYLINE
 8
WIRE
 66
1
 70
1
 10
0.0
 20
0.0
 30
0.0
 40
  0.0200
 41
  0.0200
 0
VERTEX
 8
WIRE
 10
  5.1600
 20
  3.0100
 30
0.0
 42
1.0
 0
VERTEX
 8
WIRE
 10
  5.1800
 20
  3.0100
 30
0.0
 42
1.0
 0
SEQEND
 8
WIRE
 0
POLYLINE
 8
WIRE
 66
1
 70
1
 10
0.0
 20
0.0
 30
0.0
 40
  0.0200
 41
  0.0200
 0
VERTEX
 8
WIRE
 10
  5.1600
 20
  3.6100
 30
0.0
 42
1.0
 0
VERTEX
 8
WIRE
 10
  5.1800
 20
  3.6100
 30
0.0
 42
1.0
 0
SEQEND
 8
WIRE
 0
POLYLINE
 8
WIRE
 66
1
 10
0.0
 20
0.0
 30
0.0
 0
VERTEX
 8
WIRE
 10
  6.3000
 20
  4.1000
 30
0.0
 0
VERTEX
 8
WIRE
 10
  6.3000
 20
  4.1100
 30
0.0
 0
SEQEND
 8
WIRE
 0
POLYLINE
 8
WIRE
 66
1
 70
1
 10
0.0
 20
0.0
 30
0.0
 40
  0.0200
 41
  0.0200
 0
VERTEX
 8
WIRE
 10
  6.2900
 20
  4.1100
 30
0.0
 42
1.0
 0
VERTEX
 8
WIRE
 10
  6.3100
 20
  4.1100
 30
0.0
 42
1.0
 0
SEQEND
 8
WIRE
 0
POLYLINE
 8
WIRE
 66
1
 10
0.0
 20
0.0
 30
0.0
 0
VERTEX
 8
WIRE
 10
  6.3000
 20
  4.1100
 30
0.0
 0
VERTEX
 8
WIRE
 10
  6.3000
 20
  4.4000
 30
0.0
 0
SEQEND
 8
WIRE
 0
POLYLINE
 8
WIRE
 66
1
 10
0.0
 20
0.0
 30
0.0
 0
VERTEX
 8
WIRE
 10
  4.4000
 20
  4.4100
 30
0.0
 0
VERTEX
 8
WIRE
 10
  4.2700
 20
  4.4100
 30
0.0
 0
SEQEND
 8
WIRE
 0
POLYLINE
 8
WIRE
 66
1
 10
0.0
 20
0.0
 30
0.0
 0
VERTEX
 8
WIRE
 10
  4.2700
 20
  4.4100
 30
0.0
 0
VERTEX
 8
WIRE
 10
  4.2700
 20
  4.3100
 30
0.0
 0
SEQEND
 8
WIRE
 0
POLYLINE
 8
WIRE
 66
1
 10
0.0
 20
0.0
 30
0.0
 0
VERTEX
 8
WIRE
 10
  4.4000
 20
  4.4100
 30
0.0
 0
VERTEX
 8
WIRE
 10
  4.4000
 20
  4.6000
 30
0.0
 0
SEQEND
 8
WIRE
 0
POLYLINE
 8
PARTS
 66
1
 10
0.0
 20
0.0
 30
0.0
 0
VERTEX
 8
PARTS
 10
  3.2700
 20
  3.6100
 30
0.0
 0
VERTEX
 8
PARTS
 10
  3.4700
 20
  3.6100
 30
0.0
 0
SEQEND
 8
PARTS
 0
POLYLINE
 8
PARTS
 66
1
 10
0.0
 20
0.0
 30
0.0
 0
VERTEX
 8
PARTS
 10
  3.4700
 20
  3.6100
 30
0.0
 0
VERTEX
 8
PARTS
 10
  3.3700
 20
  3.5100
 30
0.0
 0
SEQEND
 8
PARTS
 0
POLYLINE
 8
PARTS
 66
1
 10
0.0
 20
0.0
 30
0.0
 0
VERTEX
 8
PARTS
 10
  3.3700
 20
  3.5100
 30
0.0
 0
VERTEX
 8
PARTS
 10
  3.2700
 20
  3.6100
 30
0.0
 0
SEQEND
 8
PARTS
 0
POLYLINE
 8
PARTS
 66
1
 10
0.0
 20
0.0
 30
0.0
 0
VERTEX
 8
PARTS
 10
  6.2700
 20
  3.2600
 30
0.0
 0
VERTEX
 8
PARTS
 10
  6.4700
 20
  3.2600
 30
0.0
 0
SEQEND
 8
PARTS
 0
POLYLINE
 8
PARTS
 66
1
 10
0.0
 20
0.0
 30
0.0
 0
VERTEX
 8
PARTS
 10
  6.4700
 20
  3.2600
 30
0.0
 0
VERTEX
 8
PARTS
 10
  6.3700
 20
  3.1600
 30
0.0
 0
SEQEND
 8
PARTS
 0
POLYLINE
 8
PARTS
 66
1
 10
0.0
 20
0.0
 30
0.0
 0
VERTEX
 8
PARTS
 10
  6.3700
 20
  3.1600
 30
0.0
 0
VERTEX
 8
PARTS
 10
  6.2700
 20
  3.2600
 30
0.0
 0
SEQEND
 8
PARTS
 0
POLYLINE
 8
PARTS
 66
1
 10
0.0
 20
0.0
 30
0.0
 0
VERTEX
 8
PARTS
 10
  4.2700
 20
  3.4100
 30
0.0
 0
VERTEX
 8
PARTS
 10
  4.4700
 20
  3.4100
 30
0.0
 0
SEQEND
 8
PARTS
 0
POLYLINE
 8
PARTS
 66
1
 10
0.0
 20
0.0
 30
0.0
 0
VERTEX
 8
PARTS
 10
  4.4700
 20
  3.4100
 30
0.0
 0
VERTEX
 8
PARTS
 10
  4.3700
 20
  3.3100
 30
0.0
 0
SEQEND
 8
PARTS
 0
POLYLINE
 8
PARTS
 66
1
 10
0.0
 20
0.0
 30
0.0
 0
VERTEX
 8
PARTS
 10
  4.3700
 20
  3.3100
 30
0.0
 0
VERTEX
 8
PARTS
 10
  4.2700
 20
  3.4100
 30
0.0
 0
SEQEND
 8
PARTS
 0
TEXT
 8
PARTTEXT
 10
  7.3900
 20
  3.7786
 30
0.0
 40
  0.0514
 1
Vo
 0
POLYLINE
 8
PARTS
 66
1
 10
0.0
 20
0.0
 30
0.0
 0
VERTEX
 8
PARTS
 10
  7.0700
 20
  3.8100
 30
0.0
 0
VERTEX
 8
PARTS
 10
  7.1700
 20
  3.8600
 30
0.0
 0
SEQEND
 8
PARTS
 0
POLYLINE
 8
PARTS
 66
1
 10
0.0
 20
0.0
 30
0.0
 0
VERTEX
 8
PARTS
 10
  7.1700
 20
  3.8600
 30
0.0
 0
VERTEX
 8
PARTS
 10
  7.3700
 20
  3.8600
 30
0.0
 0
SEQEND
 8
PARTS
 0
POLYLINE
 8
PARTS
 66
1
 10
0.0
 20
0.0
 30
0.0
 0
VERTEX
 8
PARTS
 10
  7.3700
 20
  3.8600
 30
0.0
 0
VERTEX
 8
PARTS
 10
  7.3700
 20
  3.7600
 30
0.0
 0
SEQEND
 8
PARTS
 0
POLYLINE
 8
PARTS
 66
1
 10
0.0
 20
0.0
 30
0.0
 0
VERTEX
 8
PARTS
 10
  7.3700
 20
  3.7600
 30
0.0
 0
VERTEX
 8
PARTS
 10
  7.1700
 20
  3.7600
 30
0.0
 0
SEQEND
 8
PARTS
 0
POLYLINE
 8
PARTS
 66
1
 10
0.0
 20
0.0
 30
0.0
 0
VERTEX
 8
PARTS
 10
  7.1700
 20
  3.7600
 30
0.0
 0
VERTEX
 8
PARTS
 10
  7.0700
 20
  3.8100
 30
0.0
 0
SEQEND
 8
PARTS
 0
TEXT
 8
PARTTEXT
 10
  1.7100
 20
  4.1886
 30
0.0
 40
  0.0514
 1
Vcc
 0
POLYLINE
 8
PARTS
 66
1
 10
0.0
 20
0.0
 30
0.0
 0
VERTEX
 8
PARTS
 10
  1.8700
 20
  4.2600
 30
0.0
 0
VERTEX
 8
PARTS
 10
  2.0700
 20
  4.2600
 30
0.0
 0
SEQEND
 8
PARTS
 0
POLYLINE
 8
PARTS
 66
1
 10
0.0
 20
0.0
 30
0.0
 0
VERTEX
 8
PARTS
 10
  2.0700
 20
  4.2600
 30
0.0
 0
VERTEX
 8
PARTS
 10
  2.1700
 20
  4.2100
 30
0.0
 0
SEQEND
 8
PARTS
 0
POLYLINE
 8
PARTS
 66
1
 10
0.0
 20
0.0
 30
0.0
 0
VERTEX
 8
PARTS
 10
  2.1700
 20
  4.2100
 30
0.0
 0
VERTEX
 8
PARTS
 10
  2.0700
 20
  4.1600
 30
0.0
 0
SEQEND
 8
PARTS
 0
POLYLINE
 8
PARTS
 66
1
 10
0.0
 20
0.0
 30
0.0
 0
VERTEX
 8
PARTS
 10
  2.0700
 20
  4.1600
 30
0.0
 0
VERTEX
 8
PARTS
 10
  1.8700
 20
  4.1600
 30
0.0
 0
SEQEND
 8
PARTS
 0
POLYLINE
 8
PARTS
 66
1
 10
0.0
 20
0.0
 30
0.0
 0
VERTEX
 8
PARTS
 10
  1.8700
 20
  4.1600
 30
0.0
 0
VERTEX
 8
PARTS
 10
  1.8700
 20
  4.2600
 30
0.0
 0
SEQEND
 8
PARTS
 0
TEXT
 8
PARTTEXT
 10
  3.8100
 20
  2.9886
 30
0.0
 40
  0.0514
 1
Vin
 0
POLYLINE
 8
PARTS
 66
1
 10
0.0
 20
0.0
 30
0.0
 0
VERTEX
 8
PARTS
 10
  3.9700
 20
  3.0600
 30
0.0
 0
VERTEX
 8
PARTS
 10
  4.1700
 20
  3.0600
 30
0.0
 0
SEQEND
 8
PARTS
 0
POLYLINE
 8
PARTS
 66
1
 10
0.0
 20
0.0
 30
0.0
 0
VERTEX
 8
PARTS
 10
  4.1700
 20
  3.0600
 30
0.0
 0
VERTEX
 8
PARTS
 10
  4.2700
 20
  3.0100
 30
0.0
 0
SEQEND
 8
PARTS
 0
POLYLINE
 8
PARTS
 66
1
 10
0.0
 20
0.0
 30
0.0
 0
VERTEX
 8
PARTS
 10
  4.2700
 20
  3.0100
 30
0.0
 0
VERTEX
 8
PARTS
 10
  4.1700
 20
  2.9600
 30
0.0
 0
SEQEND
 8
PARTS
 0
POLYLINE
 8
PARTS
 66
1
 10
0.0
 20
0.0
 30
0.0
 0
VERTEX
 8
PARTS
 10
  4.1700
 20
  2.9600
 30
0.0
 0
VERTEX
 8
PARTS
 10
  3.9700
 20
  2.9600
 30
0.0
 0
SEQEND
 8
PARTS
 0
POLYLINE
 8
PARTS
 66
1
 10
0.0
 20
0.0
 30
0.0
 0
VERTEX
 8
PARTS
 10
  3.9700
 20
  2.9600
 30
0.0
 0
VERTEX
 8
PARTS
 10
  3.9700
 20
  3.0600
 30
0.0
 0
SEQEND
 8
PARTS
 0
TEXT
 8
PARTTEXT
 10
  4.5000
 20
  4.8186
 30
0.0
 40
  0.0514
 1
V+
 0
POLYLINE
 8
PARTS
 66
1
 10
0.0
 20
0.0
 30
0.0
 0
VERTEX
 8
PARTS
 10
  4.4000
 20
  4.6000
 30
0.0
 0
VERTEX
 8
PARTS
 10
  4.3500
 20
  4.7000
 30
0.0
 0
SEQEND
 8
PARTS
 0
POLYLINE
 8
PARTS
 66
1
 10
0.0
 20
0.0
 30
0.0
 0
VERTEX
 8
PARTS
 10
  4.3500
 20
  4.7000
 30
0.0
 0
VERTEX
 8
PARTS
 10
  4.3500
 20
  4.9000
 30
0.0
 0
SEQEND
 8
PARTS
 0
POLYLINE
 8
PARTS
 66
1
 10
0.0
 20
0.0
 30
0.0
 0
VERTEX
 8
PARTS
 10
  4.3500
 20
  4.9000
 30
0.0
 0
VERTEX
 8
PARTS
 10
  4.4500
 20
  4.9000
 30
0.0
 0
SEQEND
 8
PARTS
 0
POLYLINE
 8
PARTS
 66
1
 10
0.0
 20
0.0
 30
0.0
 0
VERTEX
 8
PARTS
 10
  4.4500
 20
  4.9000
 30
0.0
 0
VERTEX
 8
PARTS
 10
  4.4500
 20
  4.7000
 30
0.0
 0
SEQEND
 8
PARTS
 0
POLYLINE
 8
PARTS
 66
1
 10
0.0
 20
0.0
 30
0.0
 0
VERTEX
 8
PARTS
 10
  4.4500
 20
  4.7000
 30
0.0
 0
VERTEX
 8
PARTS
 10
  4.4000
 20
  4.6000
 30
0.0
 0
SEQEND
 8
PARTS
 0
TEXT
 8
COMMENTS
 10
  5.7700
 20
  2.8786
 30
0.0
 40
  0.0514
 1
BandPass Circuit
 0
TEXT
 8
COMMENTS
 10
  2.8600
 20
  4.3286
 30
0.0
 40
  0.0514
 1
Vcc Offset
 0
ENDSEC
 0
EOF
