G04 ================== begin FILE IDENTIFICATION RECORD ==================*
G04 Layout Name:  C:/CADENCE/PROJECTS/TEST FIXTURE-PSPICEFILES/BOARD/test_fixture_3.brd*
G04 Film Name:    POWER*
G04 File Format:  Gerber RS274X*
G04 File Origin:  Cadence Allegro 16.3-p003*
G04 Origin Date:  Sat Jun 20 01:53:49 2020*
G04 *
G04 Layer:  ETCH/POWER*
G04 Layer:  PIN/POWER*
G04 Layer:  VIA CLASS/POWER*
G04 *
G04 Offset:    (0.00 0.00)*
G04 Mirror:    No*
G04 Mode:      Positive*
G04 Rotation:  0*
G04 FullContactRelief:  No*
G04 UndefLineWidth:     5.00*
G04 ================== end FILE IDENTIFICATION RECORD ====================*
%FSLAX55Y55*MOIN*%
%IR0*IPPOS*OFA0.00000B0.00000*MIA0B0*SFA1.00000B1.00000*%
%ADD10C,.024*%
%ADD14C,.025*%
%ADD12C,.055*%
%ADD11C,.028*%
%ADD13C,.065*%
%ADD15C,.007*%
%ADD16C,.03404*%
%ADD18C,.06504*%
%ADD17C,.03804*%
%ADD19C,.07504*%
G75*
%LPD*%
G75*
G36*
G01X24000Y24500D02*
Y252500D01*
X174500D01*
Y300000D01*
X193000D01*
Y323500D01*
X232000D01*
Y317500D01*
X293500D01*
Y86898D01*
G02X293313Y86699I-200J0D01*
G03Y83301I108J-1699D01*
G02X293500Y83102I-13J-199D01*
G01Y24500D01*
X283633D01*
X283583Y24626D01*
G03X280417I-1583J-626D01*
G01X280367Y24500D01*
X24000D01*
G37*
G36*
G01X35000Y324500D02*
X85000D01*
Y307000D01*
X169500D01*
Y256500D01*
X59500D01*
Y259500D01*
X35000D01*
Y324500D01*
G37*
G36*
G01X87500Y312500D02*
Y328000D01*
X74831D01*
G02X74462Y328554I0J400D01*
G03X67538I-3462J1446D01*
G02X67169Y328000I-369J-154D01*
G01X34000D01*
Y418000D01*
X295000D01*
Y322000D01*
X235500D01*
Y332000D01*
X191000D01*
Y312500D01*
X87500D01*
G37*
%LPC*%
G75*
G36*
G01X174568Y83948D02*
Y83608D01*
X174700Y83560D01*
G02X171809Y83215I-1101J-3060D01*
G03X171589Y83948I-220J333D01*
G01X168947D01*
X167320Y85576D01*
X167190Y85509D01*
G02X162879Y90017I-1490J2891D01*
G01X157447Y95448D01*
X156616D01*
X156564Y95328D01*
G02X153436I-1564J672D01*
G01X153384Y95448D01*
X141616D01*
X141564Y95328D01*
G02X138436I-1564J672D01*
G01X138384Y95448D01*
X133116D01*
X133064Y95328D01*
G02X129936I-1564J672D01*
G01X129884Y95448D01*
X101402D01*
Y95297D01*
X99703Y93598D01*
X97297D01*
X95598Y95297D01*
Y95448D01*
X87642D01*
X87597Y95309D01*
G02X81403I-3097J991D01*
G01X81358Y95448D01*
X79742D01*
X79697Y95309D01*
G02Y97291I-3097J991D01*
G01X79742Y97152D01*
X81358D01*
X81403Y97291D01*
G02X83509Y99397I3097J-991D01*
G01X83648Y99442D01*
Y101058D01*
X83509Y101103D01*
G02X85491I991J3097D01*
G01X85352Y101058D01*
Y99442D01*
X85491Y99397D01*
G02X87597Y97291I-991J-3097D01*
G01X87642Y97152D01*
X96928D01*
G02X100072I1572J-652D01*
G01X128547D01*
X130297Y98902D01*
X132703D01*
X134453Y97152D01*
X137047D01*
X138797Y98902D01*
X141203D01*
X142953Y97152D01*
X152047D01*
X153797Y98902D01*
X156203D01*
X157953Y97152D01*
X158153D01*
X160566Y94739D01*
G03X161248Y95021I282J283D01*
G01Y115388D01*
G03X160592Y115694I-400J-1D01*
G02Y118306I-1092J1306D01*
G03X161248Y118612I256J307D01*
G01Y121845D01*
X161648Y122245D01*
Y125247D01*
X160598Y126297D01*
Y128703D01*
X161648Y129753D01*
Y156858D01*
X161509Y156903D01*
G02X165597Y160991I991J3097D01*
G01X165642Y160852D01*
X169358D01*
X169403Y160991D01*
G02X171509Y163097I3097J-991D01*
G01X171648Y163142D01*
Y186858D01*
X171509Y186903D01*
G02X169679Y191617I991J3097D01*
G01X168148Y193147D01*
Y198947D01*
X165447Y201648D01*
X148142D01*
X148097Y201509D01*
G02Y203491I-3097J991D01*
G01X148142Y203352D01*
X166153D01*
X169852Y199653D01*
Y193853D01*
X170883Y192821D01*
G02X174117I1617J-2821D01*
G01X187147Y205852D01*
X189358D01*
X189403Y205991D01*
G02X191509Y208097I3097J-991D01*
G01X191648Y208142D01*
Y208953D01*
X192148Y209453D01*
Y281858D01*
X192009Y281903D01*
G02X194490Y287891I991J3097D01*
G01X194620Y287824D01*
X201648Y294853D01*
Y313843D01*
X201502Y313883D01*
G02X203498I998J3617D01*
G01X203352Y313843D01*
Y294147D01*
X195824Y286620D01*
X195891Y286490D01*
G02X193991Y281903I-2891J-1490D01*
G01X193852Y281858D01*
Y208747D01*
X193717Y208613D01*
G03X193835Y207965I283J-283D01*
G02X195597Y205991I-1335J-2965D01*
G01X195642Y205852D01*
X211858D01*
X211903Y205991D01*
G02X218097I3097J-991D01*
G01X218142Y205852D01*
X234147D01*
X236679Y208383D01*
G02X240491Y206903I2821J1617D01*
G01X240352Y206858D01*
Y204739D01*
X239533Y203921D01*
G03X239782Y203240I283J-283D01*
G02Y196760I-282J-3240D01*
G03X239533Y196079I34J-398D01*
G01X240352Y195261D01*
Y190853D01*
X240883Y190321D01*
G02X243491Y184403I1618J-2821D01*
G01X243352Y184358D01*
Y152239D01*
X242533Y151421D01*
G03X242782Y150740I283J-283D01*
G02Y144260I-282J-3240D01*
G03X242533Y143579I34J-398D01*
G01X243352Y142761D01*
Y140642D01*
X243491Y140597D01*
G02X245597Y138491I-991J-3097D01*
G01X245642Y138352D01*
X251101D01*
X270773Y118679D01*
X270884Y118709D01*
G02X273077Y117724I493J-1837D01*
G01X277549D01*
G02X280102Y115171I1701J-852D01*
G01Y110699D01*
G02X278398I-852J-1701D01*
G01Y115171D01*
G02X277549Y116020I852J1701D01*
G01X273077D01*
G02X269539Y117364I-1701J852D01*
G01X269569Y117475D01*
X250395Y136648D01*
X245642D01*
X245597Y136509D01*
G02X239535Y136165I-3097J991D01*
G03X238887Y136283I-365J-165D01*
G01X236753Y134148D01*
X233142D01*
X233097Y134009D01*
G02Y135991I-3097J991D01*
G01X233142Y135852D01*
X236047D01*
X238547Y138352D01*
X239358D01*
X239403Y138491D01*
G02X241509Y140597I3097J-991D01*
G01X241648Y140642D01*
Y142055D01*
X238048Y145655D01*
Y149345D01*
X241648Y152945D01*
Y184358D01*
X241509Y184403D01*
G02X240883Y184679I992J3097D01*
G01X237853Y181648D01*
X233142D01*
X233097Y181509D01*
G02Y183491I-3097J991D01*
G01X233142Y183352D01*
X237147D01*
X239679Y185883D01*
G02Y189117I2821J1617D01*
G01X238648Y190147D01*
Y194555D01*
X235048Y198155D01*
Y201845D01*
X238648Y205445D01*
Y206858D01*
X238509Y206903D01*
G02X237883Y207179I992J3097D01*
G01X234853Y204148D01*
X218142D01*
X218097Y204009D01*
G02X211903I-3097J991D01*
G01X211858Y204148D01*
X195642D01*
X195597Y204009D01*
G02X189403I-3097J991D01*
G01X189358Y204148D01*
X187853D01*
X175321Y191617D01*
G02X173491Y186903I-2821J-1617D01*
G01X173352Y186858D01*
Y163142D01*
X173491Y163097D01*
G02X169403Y159009I-991J-3097D01*
G01X169358Y159148D01*
X165642D01*
X165597Y159009D01*
G02X163491Y156903I-3097J991D01*
G01X163352Y156858D01*
Y129401D01*
G03X163546Y129201I200J0D01*
G02Y125799I-46J-1701D01*
G03X163352Y125599I6J-200D01*
G01Y123089D01*
G03X163965Y122750I400J-1D01*
G02X163609Y117510I1735J-2750D01*
G03X162952Y117203I-257J-306D01*
G01Y114897D01*
G03X163609Y114590I400J-1D01*
G02Y109610I2091J-2490D01*
G03X162952Y109303I-257J-306D01*
G01Y106997D01*
G03X163609Y106690I400J-1D01*
G02Y101710I2091J-2490D01*
G03X162952Y101403I-257J-306D01*
G01Y99097D01*
G03X163609Y98790I400J-1D01*
G02Y93810I2091J-2490D01*
G03X162952Y93503I-257J-306D01*
G01Y92353D01*
X164080Y91224D01*
X164210Y91291D01*
G02X168521Y86783I1490J-2891D01*
G01X169653Y85652D01*
X170803D01*
G03X171110Y86309I1J400D01*
G02X176849Y88253I2490J2091D01*
G01X176845Y88164D01*
X177048Y87961D01*
X177439Y88352D01*
X184358D01*
X184403Y88491D01*
G02X186509Y90597I3097J-991D01*
G01X186648Y90642D01*
Y96858D01*
X186509Y96903D01*
G02X188491I991J3097D01*
G01X188352Y96858D01*
Y90642D01*
X188491Y90597D01*
G02X184403Y86509I-991J-3097D01*
G01X184358Y86648D01*
X178145D01*
X175445Y83948D01*
X174568D01*
G37*
G54D16*
X41500Y57000D03*
X61000Y91500D03*
X60500Y100000D03*
X58000Y137000D03*
X61000Y143000D03*
X54500Y155500D03*
X60500Y160000D03*
X60000Y173500D03*
X34000Y223000D03*
X67500Y34500D03*
X89000Y57500D03*
X67500Y57000D03*
X64000Y66000D03*
X62500Y117500D03*
X72500Y133500D03*
X79500Y141000D03*
X71500Y151500D03*
X86500Y150000D03*
X67500Y148500D03*
X63500Y154000D03*
X84500Y177500D03*
X67000Y171000D03*
X83500Y153500D03*
X78500Y155500D03*
X101000Y29000D03*
X106000Y31500D03*
X115500Y56000D03*
X105500Y61500D03*
X94500Y57500D03*
X100300Y55800D03*
X102500Y66500D03*
X114500Y63000D03*
X107000Y68500D03*
X95500Y89500D03*
X97000Y62500D03*
Y84000D03*
X112000Y111500D03*
X104000D03*
X105500Y147000D03*
X111000Y152000D03*
X120500Y146000D03*
X119000Y170500D03*
X101500D03*
X126000Y56500D03*
X138000Y74500D03*
X134500Y70000D03*
X124000Y67500D03*
X126000Y84000D03*
X129500Y64700D03*
X147000Y67000D03*
X152000Y92000D03*
X141000Y119500D03*
X147500Y110000D03*
X126000Y103000D03*
X145000D03*
X137500Y111000D03*
X131500D03*
X127000Y117000D03*
X132000Y120000D03*
X134500Y148000D03*
X151000Y122500D03*
X138000Y156000D03*
X172000Y29500D03*
X155742Y41000D03*
X164500Y43000D03*
X174250Y47250D03*
X166000Y33000D03*
X176500Y51500D03*
X158500Y69500D03*
X157000Y75500D03*
X180000Y115600D03*
X158500Y146000D03*
X173000Y130000D03*
X157500D03*
X158000Y176000D03*
X181000D03*
X164500Y171000D03*
X179500Y162000D03*
X184000Y29500D03*
X193000Y41000D03*
X186000Y33000D03*
X188000Y38500D03*
X198000Y89500D03*
X207500Y83000D03*
X202000Y77500D03*
X201500Y71000D03*
X206000Y69000D03*
X212000Y91500D03*
X190750Y79250D03*
X194500Y92500D03*
X187500Y120000D03*
X212000Y110500D03*
X202500Y143000D03*
X209000Y147000D03*
X207000Y127500D03*
X193000Y150000D03*
X187500Y130500D03*
X184000Y158000D03*
X193000Y167500D03*
X193500Y158500D03*
X188000Y164000D03*
X234500Y100000D03*
X213000Y176500D03*
X213500Y157500D03*
X222000Y189500D03*
X251000Y83000D03*
Y99500D03*
X246000Y123000D03*
X257000Y138500D03*
X267000Y181000D03*
G54D18*
X92400Y41000D03*
Y48900D03*
X76600Y88400D03*
X84500D03*
X76600Y80500D03*
X84500D03*
X76600Y72600D03*
X84500D03*
X76600Y64700D03*
X84500D03*
X76600Y120000D03*
X84500D03*
X76600Y112100D03*
X84500D03*
X76600Y104200D03*
X92400Y141100D03*
Y133200D03*
X75000Y165000D03*
Y175000D03*
X92500Y160000D03*
Y190000D03*
X75000Y197500D03*
Y187500D03*
X100300Y41000D03*
Y48900D03*
X108200Y41000D03*
Y48900D03*
X116100Y41000D03*
Y48900D03*
X124000Y41000D03*
Y48900D03*
Y141100D03*
Y133200D03*
X116100Y141100D03*
Y133200D03*
X108200Y141100D03*
Y133200D03*
X100300Y141100D03*
Y133200D03*
X122500Y160000D03*
X112500D03*
X102500D03*
X122500Y190000D03*
X112500D03*
X102500D03*
X122500Y212500D03*
Y202500D03*
X100000Y212500D03*
Y202500D03*
X131900Y41000D03*
Y48900D03*
X139800Y41000D03*
Y48900D03*
X147700Y41000D03*
Y48900D03*
Y141100D03*
Y133200D03*
X139800Y141100D03*
Y133200D03*
X131900Y141100D03*
Y133200D03*
X152500Y160000D03*
X142500D03*
X132500D03*
X152500Y190000D03*
X142500D03*
X132500D03*
X145000Y212500D03*
X173600Y64700D03*
X165700D03*
X173600Y72600D03*
X165700D03*
Y80500D03*
X173600Y96300D03*
Y104200D03*
Y112100D03*
Y120000D03*
X162500Y190000D03*
X187500Y47500D03*
X200000Y115000D03*
Y105000D03*
Y125000D03*
Y135000D03*
Y152500D03*
X187500Y140000D03*
X200000Y162500D03*
Y172500D03*
Y182500D03*
X192500Y195000D03*
X237500Y32500D03*
X227500D03*
X237500Y42500D03*
X227500D03*
X230000Y105000D03*
Y115000D03*
X242500Y97500D03*
X230000Y125000D03*
Y152500D03*
Y162500D03*
Y172500D03*
X215000Y195000D03*
X267500Y32500D03*
X257500D03*
X247500D03*
X267500Y42500D03*
X257500D03*
X247500D03*
X48500Y267500D03*
Y277500D03*
Y300000D03*
Y290000D03*
X68500Y262500D03*
X84000Y295000D03*
X94000D03*
X68500Y302500D03*
X112500Y290000D03*
Y280000D03*
X153000Y285000D03*
X137000Y287500D03*
Y277500D03*
X80000Y370000D03*
X67000D03*
X80000Y410000D03*
X67000D03*
X120500Y332500D03*
X99500Y330000D03*
Y320000D03*
X100000Y342500D03*
Y352500D03*
Y364000D03*
X122500Y369000D03*
X100000Y386500D03*
Y374000D03*
X122500Y399000D03*
X100000Y396500D03*
X152500Y355000D03*
Y345000D03*
X127500Y355000D03*
Y345000D03*
X132500Y369000D03*
X142500D03*
X152500D03*
X132500Y399000D03*
X142500D03*
X152500D03*
X160500Y332500D03*
X177500Y355000D03*
Y345000D03*
X162500Y369000D03*
X172500D03*
X182500D03*
X162500Y399000D03*
X172500D03*
X182500D03*
X210000Y355000D03*
X197500D03*
X210000Y395000D03*
X197500D03*
X235000Y355000D03*
X222500D03*
X235000Y395000D03*
X222500D03*
X251500Y345000D03*
Y335000D03*
G54D17*
X49250Y90750D03*
X41376D03*
X49250Y122246D03*
X41376D03*
X49250Y114372D03*
X41376D03*
X49250Y106498D03*
X41376D03*
X49250Y98624D03*
X41376D03*
X49250Y145868D03*
X41376D03*
X49250Y137994D03*
X41376D03*
X49250Y130120D03*
X41376D03*
X49250Y177364D03*
X41376D03*
X49250Y169490D03*
X41376D03*
X49250Y161616D03*
X41376D03*
X49250Y153742D03*
X41376D03*
X49250Y208860D03*
X41376D03*
X49250Y200986D03*
X41376D03*
X49250Y193112D03*
X41376D03*
X49250Y185238D03*
X41376D03*
X271376Y93250D03*
Y101124D03*
Y108998D03*
Y124746D03*
Y132620D03*
Y140494D03*
Y148368D03*
Y156242D03*
Y164116D03*
Y171990D03*
Y179864D03*
Y187738D03*
Y195612D03*
Y203486D03*
Y211360D03*
X279250Y93250D03*
Y101124D03*
Y124746D03*
Y132620D03*
Y140494D03*
Y148368D03*
Y156242D03*
Y164116D03*
Y171990D03*
Y179864D03*
Y187738D03*
Y195612D03*
Y203486D03*
Y211360D03*
G54D19*
X71000Y320000D03*
Y340000D03*
X202500Y337500D03*
%LPD*%
G75*
G54D10*
X41500Y57000D03*
X61000Y91500D03*
X60500Y100000D03*
X61000Y143000D03*
X58000Y137000D03*
X60500Y160000D03*
X54500Y155500D03*
X60000Y173500D03*
X89000Y57500D03*
X67500Y57000D03*
X64000Y66000D03*
X62500Y117500D03*
X67500Y148500D03*
X72500Y133500D03*
X79500Y141000D03*
X71500Y151500D03*
X86500Y150000D03*
X63500Y154000D03*
X84500Y177500D03*
X67000Y171000D03*
X83500Y153500D03*
X78500Y155500D03*
X105500Y61500D03*
X94500Y57500D03*
X115500Y56000D03*
X100300Y55800D03*
X114500Y63000D03*
X107000Y68500D03*
X102500Y66500D03*
X97000Y62500D03*
Y84000D03*
X95500Y89500D03*
X98500Y96500D03*
X112000Y111500D03*
X104000D03*
X105500Y147000D03*
X111000Y152000D03*
X120500Y146000D03*
X101500Y170500D03*
X119000D03*
X126000Y56500D03*
X138000Y74500D03*
X124000Y67500D03*
X129500Y64700D03*
X134500Y70000D03*
X126000Y84000D03*
X147000Y67000D03*
X152000Y92000D03*
X132000Y120000D03*
X147500Y110000D03*
X145000Y103000D03*
X126000D03*
X141000Y119500D03*
X137500Y111000D03*
X131500D03*
Y96000D03*
X140000D03*
X127000Y117000D03*
X151000Y122500D03*
X134500Y148000D03*
X138000Y156000D03*
X155742Y41000D03*
X164500Y43000D03*
X174250Y47250D03*
X176500Y51500D03*
X158500Y69500D03*
X157000Y75500D03*
X155000Y96000D03*
X180000Y115600D03*
X159500Y117000D03*
X157500Y130000D03*
X173000D03*
X163500Y127500D03*
X158500Y146000D03*
X158000Y176000D03*
X181000D03*
X164500Y171000D03*
X179500Y162000D03*
X193000Y41000D03*
X201500Y71000D03*
X198000Y89500D03*
X207500Y83000D03*
X202000Y77500D03*
X206000Y69000D03*
X190750Y79250D03*
X212000Y91500D03*
X194500Y92500D03*
X187500Y120000D03*
X212000Y110500D03*
X207000Y127500D03*
X202500Y143000D03*
X209000Y147000D03*
X187500Y130500D03*
X193000Y150000D03*
Y167500D03*
X184000Y158000D03*
X193500Y158500D03*
X188000Y164000D03*
X234500Y100000D03*
X213000Y176500D03*
X213500Y157500D03*
X222000Y189500D03*
X251000Y83000D03*
Y99500D03*
X246000Y123000D03*
X257000Y138500D03*
X267000Y181000D03*
X293421Y85000D03*
G54D11*
X49250Y90750D03*
X41376D03*
X49250Y122246D03*
X41376D03*
X49250Y114372D03*
X41376D03*
X49250Y106498D03*
X41376D03*
X49250Y98624D03*
X41376D03*
X49250Y145868D03*
X41376D03*
X49250Y137994D03*
X41376D03*
X49250Y130120D03*
X41376D03*
X49250Y177364D03*
X41376D03*
X49250Y169490D03*
X41376D03*
X49250Y161616D03*
X41376D03*
X49250Y153742D03*
X41376D03*
X49250Y208860D03*
X41376D03*
X49250Y200986D03*
X41376D03*
X49250Y193112D03*
X41376D03*
X49250Y185238D03*
X41376D03*
X271376Y93250D03*
Y116872D03*
Y108998D03*
Y101124D03*
Y148368D03*
Y140494D03*
Y132620D03*
Y124746D03*
Y179864D03*
Y171990D03*
Y164116D03*
Y156242D03*
Y211360D03*
Y203486D03*
Y195612D03*
Y187738D03*
X279250Y93250D03*
Y116872D03*
Y108998D03*
Y101124D03*
Y148368D03*
Y140494D03*
Y132620D03*
Y124746D03*
Y179864D03*
Y171990D03*
Y164116D03*
Y156242D03*
Y211360D03*
Y203486D03*
Y195612D03*
Y187738D03*
G54D12*
X48500Y267500D03*
Y277500D03*
Y300000D03*
Y290000D03*
X92400Y48900D03*
Y41000D03*
X84500Y64700D03*
X76600D03*
X84500Y72600D03*
X76600D03*
X84500Y80500D03*
X76600D03*
X84500Y88400D03*
X76600D03*
X84500Y96300D03*
X76600D03*
X84500Y104200D03*
X76600D03*
X84500Y112100D03*
X76600D03*
X84500Y120000D03*
X76600D03*
X92400Y133200D03*
Y141100D03*
X92500Y160000D03*
X75000Y175000D03*
Y165000D03*
X92500Y190000D03*
X75000Y197500D03*
Y187500D03*
X68500Y262500D03*
Y302500D03*
X84000Y295000D03*
X94000D03*
X67000Y370000D03*
X80000D03*
X67000Y410000D03*
X80000D03*
X124000Y48900D03*
Y41000D03*
X116100Y48900D03*
Y41000D03*
X108200Y48900D03*
Y41000D03*
X100300Y48900D03*
Y41000D03*
Y133200D03*
Y141100D03*
X108200Y133200D03*
Y141100D03*
X116100Y133200D03*
Y141100D03*
X124000Y133200D03*
Y141100D03*
X102500Y160000D03*
X112500D03*
X122500D03*
X102500Y190000D03*
X112500D03*
X122500D03*
Y212500D03*
Y202500D03*
X100000Y212500D03*
Y202500D03*
X112500Y290000D03*
Y280000D03*
X120500Y332500D03*
X99500Y330000D03*
Y320000D03*
X100000Y364000D03*
Y342500D03*
Y352500D03*
X122500Y369000D03*
X100000Y374000D03*
Y386500D03*
X122500Y399000D03*
X100000Y396500D03*
X147700Y48900D03*
Y41000D03*
X139800Y48900D03*
Y41000D03*
X131900Y48900D03*
Y41000D03*
Y133200D03*
Y141100D03*
X139800Y133200D03*
Y141100D03*
X147700Y133200D03*
Y141100D03*
X132500Y160000D03*
X142500D03*
X152500D03*
X132500Y190000D03*
X142500D03*
X152500D03*
X145000Y212500D03*
Y202500D03*
X153000Y285000D03*
X137000Y287500D03*
Y277500D03*
X152500Y355000D03*
Y345000D03*
X127500Y355000D03*
Y345000D03*
X152500Y369000D03*
X142500D03*
X132500D03*
X152500Y399000D03*
X142500D03*
X132500D03*
X165700Y88400D03*
X173600D03*
X165700Y80500D03*
X173600D03*
X165700Y72600D03*
X173600D03*
X165700Y64700D03*
X173600D03*
X165700Y120000D03*
X173600D03*
X165700Y112100D03*
X173600D03*
X165700Y104200D03*
X173600D03*
X165700Y96300D03*
X173600D03*
X162500Y160000D03*
X172500D03*
X162500Y190000D03*
X172500D03*
X160500Y332500D03*
X177500Y355000D03*
Y345000D03*
X182500Y369000D03*
X172500D03*
X162500D03*
X182500Y399000D03*
X172500D03*
X162500D03*
X187500Y47500D03*
Y87500D03*
X200000Y105000D03*
Y115000D03*
X187500Y100000D03*
X200000Y125000D03*
Y135000D03*
Y152500D03*
X187500Y140000D03*
X200000Y162500D03*
Y172500D03*
Y182500D03*
X192500Y205000D03*
Y195000D03*
X193000Y285000D03*
X210000Y355000D03*
X197500D03*
X210000Y395000D03*
X197500D03*
X237500Y42500D03*
X227500D03*
X230000Y105000D03*
Y115000D03*
X242500Y97500D03*
X230000Y125000D03*
Y135000D03*
Y152500D03*
X242500Y137500D03*
Y147500D03*
X230000Y162500D03*
Y172500D03*
Y182500D03*
X242500Y187500D03*
X215000Y205000D03*
Y195000D03*
X239500Y210000D03*
Y200000D03*
X222500Y355000D03*
X235000D03*
X222500Y395000D03*
X235000D03*
X267500Y42500D03*
X257500D03*
X247500D03*
X251500Y345000D03*
Y335000D03*
G54D13*
X71000Y320000D03*
Y330000D03*
Y340000D03*
X202500Y327500D03*
Y317500D03*
Y337500D03*
G54D14*
X310000Y430000D03*
G54D15*
G01X68500Y297500D02*
X48500Y277500D01*
G01Y274048D02*
Y277500D01*
G01D02*
Y280952D01*
G01X45048Y277500D02*
X48500D01*
G01D02*
X51952D01*
G01X162100Y92000D02*
X157800Y96300D01*
X157050D01*
Y96850D01*
X155850Y98050D01*
X154150D01*
X152950Y96850D01*
Y96300D01*
X142050D01*
Y96850D01*
X140850Y98050D01*
X139150D01*
X137950Y96850D01*
Y96300D01*
X133550D01*
Y96850D01*
X132350Y98050D01*
X130650D01*
X129450Y96850D01*
Y96300D01*
X100550D01*
Y95650D01*
X99350Y94450D01*
X97650D01*
X96450Y95650D01*
Y96300D01*
X84500D01*
G01D02*
Y104200D01*
G01X76600Y96300D02*
X84500D01*
G01X68500Y302500D02*
Y297500D01*
G01X76500Y302500D02*
X84000Y295000D01*
G01Y291548D02*
Y295000D01*
G01D02*
Y298452D01*
G01X80548Y295000D02*
X84000D01*
G01D02*
X87452D01*
G01X68500Y302500D02*
X76500D01*
G01X71000Y320000D02*
Y308600D01*
G01X68500Y306100D02*
Y302500D01*
G01X71000Y308600D02*
X68500Y306100D01*
G01X71000Y320000D02*
Y323952D01*
G01X67048Y320000D02*
X71000D01*
G01D02*
X74952D01*
G01X89500Y340000D02*
X74952D01*
G01X99500Y330000D02*
X89500Y340000D01*
G01X71000Y406000D02*
Y343952D01*
G01Y336048D02*
Y340000D01*
G01D02*
Y343952D01*
G01X67048Y340000D02*
X71000D01*
G01D02*
X74952D01*
G01X67000Y410000D02*
X71000Y406000D01*
G01X67000Y406548D02*
Y410000D01*
G01D02*
Y413452D01*
G01X63548Y410000D02*
X67000D01*
G01D02*
X70452D01*
G01X117048Y332500D02*
X116900D01*
X114400Y330000D01*
X102952D01*
G01X99500Y326548D02*
Y330000D01*
G01D02*
Y333452D01*
G01X96048Y330000D02*
X99500D01*
G01D02*
X102952D01*
G01X117048Y332500D02*
X120500D01*
G01X145000Y202500D02*
X165800D01*
X169000Y199300D01*
Y193500D01*
X172500Y190000D01*
G01X120500Y332500D02*
X128000Y325000D01*
G01D02*
X164000D01*
X165500Y326500D01*
G01X120500Y329048D02*
Y332500D01*
G01X152500Y369000D02*
X131100Y347600D01*
G01D02*
Y343508D01*
X128992Y341400D01*
X124900D01*
X120500Y337000D01*
Y335952D01*
G01Y332500D02*
Y335952D01*
G01Y332500D02*
X123952D01*
G01X149048Y369000D02*
X152500D01*
G01X187500Y87500D02*
X177792D01*
X175092Y84800D01*
X169300D01*
X165700Y88400D01*
G01X162100Y92000D02*
X165700Y88400D01*
G01X162500Y160000D02*
Y129400D01*
X161450Y128350D01*
Y126650D01*
X162500Y125600D01*
Y121892D01*
X162100Y121492D01*
Y92000D01*
G01X172500Y160000D02*
X162500D01*
G01X172500Y190000D02*
Y160000D01*
G01X192500Y205000D02*
X187500D01*
X172500Y190000D01*
G01X165500Y326500D02*
X191500D01*
X202500Y337500D01*
G01X152500Y365548D02*
Y369000D01*
G01D02*
Y372452D01*
G01Y369000D02*
X155952D01*
G01X187500Y100000D02*
Y87500D01*
G01X192500Y205000D02*
X215000D01*
G01X193000Y285000D02*
Y209100D01*
X192500Y208600D01*
Y205000D01*
G01X202500Y317500D02*
Y294500D01*
X193000Y285000D01*
G01X244000Y337500D02*
X206452D01*
G01X202500Y333548D02*
Y337500D01*
G01D02*
Y341452D01*
G01X198548Y337500D02*
X202500D01*
G01D02*
X206452D01*
G01X242500Y187500D02*
Y152592D01*
X238900Y148992D01*
Y146008D01*
X242500Y142408D01*
Y137500D01*
G01X230000Y135000D02*
X236400D01*
X238900Y137500D01*
X242500D01*
G01X239500Y210000D02*
Y205092D01*
X235900Y201492D01*
Y198508D01*
X239500Y194908D01*
Y190500D01*
X242500Y187500D01*
G01X215000Y205000D02*
X234500D01*
X239500Y210000D01*
G01X230000Y182500D02*
X237500D01*
X242500Y187500D01*
G01X235000Y395000D02*
X251500Y378500D01*
G01X235000Y391548D02*
Y395000D01*
G01D02*
Y398452D01*
G01X231548Y395000D02*
X235000D01*
G01D02*
X238452D01*
G01X242500Y137500D02*
X250748D01*
X271376Y116872D01*
G01X251500Y345000D02*
X244000Y337500D01*
G01X251500Y378500D02*
Y348452D01*
G01Y341548D02*
Y345000D01*
G01D02*
Y348452D01*
G01X248048Y345000D02*
X251500D01*
G01D02*
X254952D01*
G01X279250Y116872D02*
Y108998D01*
G01X271376Y116872D02*
X279250D01*
M02*
