G04 ================== begin FILE IDENTIFICATION RECORD ==================*
G04 Layout Name:  C:/CADENCE/PROJECTS/TEST FIXTURE-PSPICEFILES/BOARD/test_fixture_3.brd*
G04 Film Name:    silkscreen_top*
G04 File Format:  Gerber RS274X*
G04 File Origin:  Cadence Allegro 16.3-p003*
G04 Origin Date:  Sat Jun 20 01:50:37 2020*
G04 *
G04 Layer:  MANUFACTURING/PHOTOPLOT_OUTLINE*
G04 Layer:  MANUFACTURING/AUTOSILK_TOP*
G04 *
G04 Offset:    (0.00 0.00)*
G04 Mirror:    No*
G04 Mode:      Positive*
G04 Rotation:  0*
G04 FullContactRelief:  No*
G04 UndefLineWidth:     5.00*
G04 ================== end FILE IDENTIFICATION RECORD ====================*
%FSLAX55Y55*MOIN*%
%IR0*IPPOS*OFA0.00000B0.00000*MIA0B0*SFA1.00000B1.00000*%
%ADD10C,.01969*%
%ADD11C,.005*%
G75*
%LPD*%
G75*
G54D10*
G01X76600Y151600D02*
X68700Y143700D01*
Y58824D01*
G01Y55176D02*
Y36324D01*
G01X108853Y151600D02*
X87986D01*
G01X85014D02*
X84576D01*
G01X82424D02*
X76600D01*
G01X179300Y117668D02*
Y151600D01*
X113147D01*
G01X168181Y33100D02*
X179300D01*
Y113532D01*
G54D11*
G01X53843Y183583D02*
X53463Y183833D01*
X53020Y184000D01*
X52513D01*
X51943Y183750D01*
X51500Y183333D01*
X51183Y182833D01*
X50930Y182000D01*
X50867Y181250D01*
X50993Y180500D01*
X51183Y180000D01*
X51563Y179500D01*
X52007Y179167D01*
X52450Y179000D01*
X52893D01*
X53337Y179167D01*
X53717Y179417D01*
X54033Y179750D01*
G01X56473Y179583D02*
X56917Y179167D01*
X57423Y179000D01*
X57930Y179167D01*
X58373Y179667D01*
X58690Y180417D01*
X58817Y181167D01*
Y182083D01*
X58690Y182833D01*
X58373Y183500D01*
X57993Y183833D01*
X57550Y184000D01*
X57043Y183833D01*
X56663Y183500D01*
X56410Y183000D01*
X56283Y182333D01*
X56410Y181750D01*
X56727Y181167D01*
X57107Y180833D01*
X57550Y180750D01*
X58057Y180917D01*
X58437Y181333D01*
X58817Y182083D01*
G01X57916Y206874D02*
X58166Y207254D01*
X58333Y207697D01*
Y208204D01*
X58083Y208774D01*
X57666Y209217D01*
X57166Y209534D01*
X56333Y209787D01*
X55583Y209850D01*
X54833Y209724D01*
X54333Y209534D01*
X53833Y209154D01*
X53500Y208710D01*
X53333Y208267D01*
Y207824D01*
X53500Y207380D01*
X53750Y207000D01*
X54083Y206684D01*
G01X53333Y203167D02*
X58333D01*
X57333Y203927D01*
G01X53333D02*
Y202407D01*
G01X58333Y198067D02*
X58166Y198574D01*
X57750Y198954D01*
X57250Y199207D01*
X56583Y199397D01*
X55833Y199460D01*
X55083Y199397D01*
X54416Y199207D01*
X53916Y198954D01*
X53500Y198574D01*
X53333Y198067D01*
X53500Y197560D01*
X53916Y197180D01*
X54416Y196927D01*
X55083Y196737D01*
X55833Y196674D01*
X56583Y196737D01*
X57250Y196927D01*
X57750Y197180D01*
X58166Y197560D01*
X58333Y198067D01*
G01X38500Y272500D02*
G03X48500Y262500I10000J0D01*
G01D02*
G03X58500Y272500I0J10000D01*
G01D02*
G03X48500Y282500I-10000J0D01*
G01D02*
G03X38500Y272500I0J-10000D01*
G01X58500Y295000D02*
G03X48500Y305000I-10000J0D01*
G01D02*
G03X38500Y295000I0J-10000D01*
G01D02*
G03X48500Y285000I10000J0D01*
G01D02*
G03X58500Y295000I0J10000D01*
G01X80407Y126598D02*
Y124378D01*
X80560Y123913D01*
X80866Y123603D01*
X81249Y123500D01*
X81633Y123603D01*
X81939Y123913D01*
X82092Y124378D01*
Y126598D01*
G01X84807Y123500D02*
Y126598D01*
X83390Y124378D01*
X85305D01*
G01X177500Y186000D02*
X87500D01*
Y164000D01*
X177500D01*
Y170000D01*
X175000Y172500D01*
Y177500D01*
X177500Y180000D01*
Y186000D01*
G01X85000Y170000D02*
G03X75000Y180000I-10000J0D01*
G01D02*
G03X65000Y170000I0J-10000D01*
G01D02*
G03X75000Y160000I10000J0D01*
G01D02*
G03X85000Y170000I0J10000D01*
G01Y192500D02*
G03X75000Y202500I-10000J0D01*
G01D02*
G03X65000Y192500I0J-10000D01*
G01D02*
G03X75000Y182500I10000J0D01*
G01D02*
G03X85000Y192500I0J10000D01*
G01X76293Y221083D02*
X75913Y221333D01*
X75470Y221500D01*
X74963D01*
X74393Y221250D01*
X73950Y220833D01*
X73633Y220333D01*
X73380Y219500D01*
X73317Y218750D01*
X73443Y218000D01*
X73633Y217500D01*
X74013Y217000D01*
X74457Y216667D01*
X74900Y216500D01*
X75343D01*
X75787Y216667D01*
X76167Y216917D01*
X76483Y217250D01*
G01X80000Y216500D02*
Y221500D01*
X79240Y220500D01*
G01Y216500D02*
X80760D01*
G01X83897Y220667D02*
X84277Y221167D01*
X84720Y221417D01*
X85227Y221500D01*
X85860Y221333D01*
X86303Y220917D01*
X86430Y220417D01*
X86367Y219917D01*
X86113Y219500D01*
X84847Y218667D01*
X84277Y218083D01*
X83897Y217250D01*
X83770Y216500D01*
X86430D01*
G01X63500Y268500D02*
X73500D01*
Y296500D01*
X63500D01*
Y268500D01*
G01X72317Y259000D02*
X72000Y259500D01*
X71620Y259833D01*
X71177Y260000D01*
X70670Y259833D01*
X70290Y259500D01*
X69910Y259000D01*
X69783Y258333D01*
Y255000D01*
G01X67153Y257917D02*
X66710Y257333D01*
X66330Y257000D01*
X65823Y256833D01*
X65380Y257000D01*
X65063Y257333D01*
X64810Y257833D01*
X64747Y258417D01*
X64810Y258917D01*
X65063Y259417D01*
X65443Y259833D01*
X65887Y260000D01*
X66393Y259833D01*
X66837Y259333D01*
X67090Y258583D01*
X67153Y257750D01*
X67027Y256667D01*
X66837Y256083D01*
X66520Y255500D01*
X66077Y255083D01*
X65633Y255000D01*
X65190Y255167D01*
X64873Y255583D01*
G01X75417Y271293D02*
X75167Y270913D01*
X75000Y270470D01*
Y269963D01*
X75250Y269393D01*
X75667Y268950D01*
X76167Y268633D01*
X77000Y268380D01*
X77750Y268317D01*
X78500Y268443D01*
X79000Y268633D01*
X79500Y269013D01*
X79833Y269457D01*
X80000Y269900D01*
Y270343D01*
X79833Y270787D01*
X79583Y271167D01*
X79250Y271483D01*
G01X80000Y275000D02*
X75000D01*
X76000Y274240D01*
G01X80000D02*
Y275760D01*
G01X77917Y278897D02*
X77333Y279340D01*
X77000Y279720D01*
X76833Y280227D01*
X77000Y280670D01*
X77333Y280987D01*
X77833Y281240D01*
X78417Y281303D01*
X78917Y281240D01*
X79417Y280987D01*
X79833Y280607D01*
X80000Y280163D01*
X79833Y279657D01*
X79333Y279213D01*
X78583Y278960D01*
X77750Y278897D01*
X76667Y279023D01*
X76083Y279213D01*
X75500Y279530D01*
X75083Y279973D01*
X75000Y280417D01*
X75167Y280860D01*
X75583Y281177D01*
G01X75666Y291900D02*
X78766D01*
Y290941D01*
X78611Y290635D01*
X78404Y290443D01*
X77991Y290366D01*
X77578Y290443D01*
X77319Y290673D01*
X77164Y290941D01*
Y291900D01*
G01Y290941D02*
X75666Y290366D01*
G01Y288033D02*
X78766D01*
X78146Y288493D01*
G01X75666D02*
Y287573D01*
G01X78249Y285661D02*
X78559Y285431D01*
X78714Y285163D01*
X78766Y284856D01*
X78663Y284473D01*
X78404Y284205D01*
X78094Y284128D01*
X77784Y284166D01*
X77526Y284320D01*
X77009Y285086D01*
X76648Y285431D01*
X76131Y285661D01*
X75666Y285738D01*
Y284128D01*
G01X88557Y294000D02*
Y299000D01*
X89823D01*
X90330Y298750D01*
X90710Y298417D01*
X91027Y297917D01*
X91280Y297333D01*
X91343Y296500D01*
X91280Y295667D01*
X91027Y295083D01*
X90710Y294583D01*
X90330Y294250D01*
X89823Y294000D01*
X88557D01*
G01X93847Y298167D02*
X94227Y298667D01*
X94670Y298917D01*
X95177Y299000D01*
X95810Y298833D01*
X96253Y298417D01*
X96380Y297917D01*
X96317Y297417D01*
X96063Y297000D01*
X94797Y296167D01*
X94227Y295583D01*
X93847Y294750D01*
X93720Y294000D01*
X96380D01*
G01X89000Y305000D02*
G03X79000Y295000I0J-10000D01*
G01D02*
G03X89000Y285000I10000J0D01*
G01D02*
G03X99000Y295000I0J10000D01*
G01X61000Y350000D02*
Y310000D01*
X78500D01*
Y350000D01*
X61000D01*
G01X85916Y335874D02*
X86166Y336254D01*
X86333Y336697D01*
Y337204D01*
X86083Y337774D01*
X85666Y338217D01*
X85166Y338534D01*
X84333Y338787D01*
X83583Y338850D01*
X82833Y338724D01*
X82333Y338534D01*
X81833Y338154D01*
X81500Y337710D01*
X81333Y337267D01*
Y336824D01*
X81500Y336380D01*
X81750Y336000D01*
X82083Y335684D01*
G01X81333Y332167D02*
X86333D01*
X85333Y332927D01*
G01X81333D02*
Y331407D01*
G01Y327067D02*
X81416Y326624D01*
X81666Y326117D01*
X82083Y325800D01*
X82666Y325674D01*
X83250Y325800D01*
X83750Y326180D01*
X84000Y326750D01*
Y327384D01*
X84166Y327764D01*
X84583Y328080D01*
X85166Y328207D01*
X85750Y328017D01*
X86166Y327574D01*
X86333Y327067D01*
X86166Y326560D01*
X85750Y326117D01*
X85166Y325927D01*
X84583Y326054D01*
X84166Y326370D01*
X84000Y326750D01*
Y327384D01*
X83750Y327954D01*
X83250Y328334D01*
X82666Y328460D01*
X82083Y328334D01*
X81666Y328017D01*
X81416Y327510D01*
X81333Y327067D01*
G01X99500Y335000D02*
G03X89500Y325000I0J-10000D01*
G01D02*
G03X99500Y315000I10000J0D01*
G01X99000Y295000D02*
G03X89000Y305000I-10000J0D01*
G01X88000Y347593D02*
X84417D01*
X83667Y347340D01*
X83167Y346833D01*
X83000Y346200D01*
X83167Y345567D01*
X83667Y345060D01*
X84417Y344807D01*
X88000D01*
G01X83000Y341227D02*
X84083Y341100D01*
X85000Y340910D01*
X85833Y340657D01*
X86750Y340340D01*
X88000Y339833D01*
Y342367D01*
G01X76383Y391000D02*
Y394100D01*
X77342D01*
X77648Y393945D01*
X77840Y393738D01*
X77917Y393325D01*
X77840Y392912D01*
X77610Y392653D01*
X77342Y392498D01*
X76383D01*
G01X77342D02*
X77917Y391000D01*
G01X80250D02*
Y394100D01*
X79790Y393480D01*
G01Y391000D02*
X80710D01*
G01X62000Y376000D02*
X72000D01*
Y404000D01*
X62000D01*
Y376000D01*
G01X75000D02*
X85000D01*
Y404000D01*
X75000D01*
Y376000D01*
G01X78843Y382583D02*
X78463Y382833D01*
X78020Y383000D01*
X77513D01*
X76943Y382750D01*
X76500Y382333D01*
X76183Y381833D01*
X75930Y381000D01*
X75867Y380250D01*
X75993Y379500D01*
X76183Y379000D01*
X76563Y378500D01*
X77007Y378167D01*
X77450Y378000D01*
X77893D01*
X78337Y378167D01*
X78717Y378417D01*
X79033Y378750D01*
G01X81157Y379000D02*
X81537Y378417D01*
X82043Y378083D01*
X82613Y378000D01*
X83120Y378083D01*
X83627Y378500D01*
X83943Y379000D01*
X84007Y379500D01*
X83880Y380083D01*
X83437Y380500D01*
X82993Y380667D01*
X82423D01*
G01X82993D02*
X83373Y380917D01*
X83690Y381333D01*
X83817Y381833D01*
X83690Y382333D01*
X83373Y382750D01*
X82803Y383000D01*
X82233Y382917D01*
X81663Y382583D01*
G01X85883Y398000D02*
Y401100D01*
X86842D01*
X87148Y400945D01*
X87340Y400738D01*
X87417Y400325D01*
X87340Y399912D01*
X87110Y399653D01*
X86842Y399498D01*
X85883D01*
G01X86842D02*
X87417Y398000D01*
G01X88907Y398620D02*
X89137Y398258D01*
X89443Y398052D01*
X89788Y398000D01*
X90095Y398052D01*
X90402Y398310D01*
X90593Y398620D01*
X90632Y398930D01*
X90555Y399292D01*
X90287Y399550D01*
X90018Y399653D01*
X89673D01*
G01X90018D02*
X90248Y399808D01*
X90440Y400067D01*
X90517Y400377D01*
X90440Y400687D01*
X90248Y400945D01*
X89903Y401100D01*
X89558Y401048D01*
X89213Y400842D01*
G01X78843Y401583D02*
X78463Y401833D01*
X78020Y402000D01*
X77513D01*
X76943Y401750D01*
X76500Y401333D01*
X76183Y400833D01*
X75930Y400000D01*
X75867Y399250D01*
X75993Y398500D01*
X76183Y398000D01*
X76563Y397500D01*
X77007Y397167D01*
X77450Y397000D01*
X77893D01*
X78337Y397167D01*
X78717Y397417D01*
X79033Y397750D01*
G01X83310Y397000D02*
Y402000D01*
X80967Y398417D01*
X84133D01*
G01X122500Y217500D02*
G03X112500Y207500I0J-10000D01*
G01D02*
G03X122500Y197500I10000J0D01*
G01X110000Y207500D02*
G03X100000Y217500I-10000J0D01*
G01D02*
G03X90000Y207500I0J-10000D01*
G01D02*
G03X100000Y197500I10000J0D01*
G01D02*
G03X110000Y207500I0J10000D01*
G01X102293Y224583D02*
X101913Y224833D01*
X101470Y225000D01*
X100963D01*
X100393Y224750D01*
X99950Y224333D01*
X99633Y223833D01*
X99380Y223000D01*
X99317Y222250D01*
X99443Y221500D01*
X99633Y221000D01*
X100013Y220500D01*
X100457Y220167D01*
X100900Y220000D01*
X101343D01*
X101787Y220167D01*
X102167Y220417D01*
X102483Y220750D01*
G01X106000Y220000D02*
Y225000D01*
X105240Y224000D01*
G01Y220000D02*
X106760D01*
G01X111100D02*
Y225000D01*
X110340Y224000D01*
G01Y220000D02*
X111860D01*
G01X122500Y285000D02*
G03X112500Y295000I-10000J0D01*
G01D02*
G03X102500Y285000I0J-10000D01*
G01D02*
G03X112500Y275000I10000J0D01*
G01D02*
G03X122500Y285000I0J10000D01*
G01X120057Y295000D02*
Y300000D01*
X121323D01*
X121830Y299750D01*
X122210Y299417D01*
X122527Y298917D01*
X122780Y298333D01*
X122843Y297500D01*
X122780Y296667D01*
X122527Y296083D01*
X122210Y295583D01*
X121830Y295250D01*
X121323Y295000D01*
X120057D01*
G01X125157Y296000D02*
X125537Y295417D01*
X126043Y295083D01*
X126613Y295000D01*
X127120Y295083D01*
X127627Y295500D01*
X127943Y296000D01*
X128007Y296500D01*
X127880Y297083D01*
X127437Y297500D01*
X126993Y297667D01*
X126423D01*
G01X126993D02*
X127373Y297917D01*
X127690Y298333D01*
X127817Y298833D01*
X127690Y299333D01*
X127373Y299750D01*
X126803Y300000D01*
X126233Y299917D01*
X125663Y299583D01*
G01X109500Y325000D02*
G03X99500Y335000I-10000J0D01*
G01Y315000D02*
G03X109500Y325000I0J10000D01*
G01X90000Y369000D02*
G03X100000Y359000I10000J0D01*
G01D02*
G03X110000Y369000I0J10000D01*
G01X121157Y333917D02*
X121537Y333667D01*
X121980Y333500D01*
X122487D01*
X123057Y333750D01*
X123500Y334167D01*
X123817Y334667D01*
X124070Y335500D01*
X124133Y336250D01*
X124007Y337000D01*
X123817Y337500D01*
X123437Y338000D01*
X122993Y338333D01*
X122550Y338500D01*
X122107D01*
X121663Y338333D01*
X121283Y338083D01*
X120967Y337750D01*
G01X118653Y336417D02*
X118210Y335833D01*
X117830Y335500D01*
X117323Y335333D01*
X116880Y335500D01*
X116563Y335833D01*
X116310Y336333D01*
X116247Y336917D01*
X116310Y337417D01*
X116563Y337917D01*
X116943Y338333D01*
X117387Y338500D01*
X117893Y338333D01*
X118337Y337833D01*
X118590Y337083D01*
X118653Y336250D01*
X118527Y335167D01*
X118337Y334583D01*
X118020Y334000D01*
X117577Y333583D01*
X117133Y333500D01*
X116690Y333667D01*
X116373Y334083D01*
G01X110000Y347500D02*
G03X100000Y357500I-10000J0D01*
G01D02*
G03X90000Y347500I0J-10000D01*
G01D02*
G03X100000Y337500I10000J0D01*
G01D02*
G03X110000Y347500I0J10000D01*
G01X117416Y358324D02*
X117666Y358704D01*
X117833Y359147D01*
Y359654D01*
X117583Y360224D01*
X117166Y360667D01*
X116666Y360984D01*
X115833Y361237D01*
X115083Y361300D01*
X114333Y361174D01*
X113833Y360984D01*
X113333Y360604D01*
X113000Y360160D01*
X112833Y359717D01*
Y359274D01*
X113000Y358830D01*
X113250Y358450D01*
X113583Y358134D01*
G01X112833Y354744D02*
X113916Y354617D01*
X114833Y354427D01*
X115666Y354174D01*
X116583Y353857D01*
X117833Y353350D01*
Y355884D01*
G01X127500Y360000D02*
G03X117500Y350000I0J-10000D01*
G01D02*
G03X127500Y340000I10000J0D01*
G01X115000Y373000D02*
X190000D01*
Y395000D01*
X115000D01*
Y389000D01*
X117500Y386500D01*
Y381500D01*
X115000Y379000D01*
Y373000D01*
G01X110000Y369000D02*
G03X100000Y379000I-10000J0D01*
G01D02*
G03X90000Y369000I0J-10000D01*
G01Y391500D02*
G03X100000Y381500I10000J0D01*
G01D02*
G03X110000Y391500I0J10000D01*
G01D02*
G03X100000Y401500I-10000J0D01*
G01D02*
G03X90000Y391500I0J-10000D01*
G01X132500Y207500D02*
G03X122500Y217500I-10000J0D01*
G01Y197500D02*
G03X132500Y207500I0J10000D01*
G01X145000Y217500D02*
G03X135000Y207500I0J-10000D01*
G01D02*
G03X145000Y197500I10000J0D01*
G01D02*
G03X155000Y207500I0J10000D01*
G01X124793Y224583D02*
X124413Y224833D01*
X123970Y225000D01*
X123463D01*
X122893Y224750D01*
X122450Y224333D01*
X122133Y223833D01*
X121880Y223000D01*
X121817Y222250D01*
X121943Y221500D01*
X122133Y221000D01*
X122513Y220500D01*
X122957Y220167D01*
X123400Y220000D01*
X123843D01*
X124287Y220167D01*
X124667Y220417D01*
X124983Y220750D01*
G01X128500Y220000D02*
Y225000D01*
X127740Y224000D01*
G01Y220000D02*
X129260D01*
G01X132207Y221000D02*
X132587Y220417D01*
X133093Y220083D01*
X133663Y220000D01*
X134170Y220083D01*
X134677Y220500D01*
X134993Y221000D01*
X135057Y221500D01*
X134930Y222083D01*
X134487Y222500D01*
X134043Y222667D01*
X133473D01*
G01X134043D02*
X134423Y222917D01*
X134740Y223333D01*
X134867Y223833D01*
X134740Y224333D01*
X134423Y224750D01*
X133853Y225000D01*
X133283Y224917D01*
X132713Y224583D01*
G01X155000Y207500D02*
G03X145000Y217500I-10000J0D01*
G01X147000Y282500D02*
G03X137000Y292500I-10000J0D01*
G01D02*
G03X127000Y282500I0J-10000D01*
G01D02*
G03X137000Y272500I10000J0D01*
G01D02*
G03X147000Y282500I0J10000D01*
G01X154500Y327500D02*
Y337500D01*
X126500D01*
Y327500D01*
X154500D01*
G01X139500Y338383D02*
X136400D01*
Y339342D01*
X136555Y339648D01*
X136762Y339840D01*
X137175Y339917D01*
X137588Y339840D01*
X137847Y339610D01*
X138002Y339342D01*
Y338383D01*
G01Y339342D02*
X139500Y339917D01*
G01X138208Y341522D02*
X137847Y341790D01*
X137640Y342020D01*
X137537Y342327D01*
X137640Y342595D01*
X137847Y342787D01*
X138157Y342940D01*
X138518Y342978D01*
X138828Y342940D01*
X139138Y342787D01*
X139397Y342557D01*
X139500Y342288D01*
X139397Y341982D01*
X139087Y341713D01*
X138622Y341560D01*
X138105Y341522D01*
X137433Y341598D01*
X137072Y341713D01*
X136710Y341905D01*
X136452Y342173D01*
X136400Y342442D01*
X136503Y342710D01*
X136762Y342902D01*
G01X152500Y360000D02*
G03X142500Y350000I0J-10000D01*
G01D02*
G03X152500Y340000I10000J0D01*
G01X137500Y350000D02*
G03X127500Y360000I-10000J0D01*
G01Y340000D02*
G03X137500Y350000I0J10000D01*
G01X134843Y367083D02*
X134463Y367333D01*
X134020Y367500D01*
X133513D01*
X132943Y367250D01*
X132500Y366833D01*
X132183Y366333D01*
X131930Y365500D01*
X131867Y364750D01*
X131993Y364000D01*
X132183Y363500D01*
X132563Y363000D01*
X133007Y362667D01*
X133450Y362500D01*
X133893D01*
X134337Y362667D01*
X134717Y362917D01*
X135033Y363250D01*
G01X137157D02*
X137537Y362833D01*
X137980Y362583D01*
X138550Y362500D01*
X139120Y362667D01*
X139563Y363000D01*
X139880Y363583D01*
X139943Y364250D01*
X139817Y364917D01*
X139500Y365333D01*
X139057Y365667D01*
X138613Y365750D01*
X138170Y365667D01*
X137600Y365333D01*
X137790Y367500D01*
X139500D01*
G01X130000Y407557D02*
X133583D01*
X134333Y407810D01*
X134833Y408317D01*
X135000Y408950D01*
X134833Y409583D01*
X134333Y410090D01*
X133583Y410343D01*
X130000D01*
G01X135000Y414050D02*
X130000D01*
X131000Y413290D01*
G01X135000D02*
Y414810D01*
G01X176834Y56149D02*
X173734D01*
Y57108D01*
X173889Y57414D01*
X174096Y57606D01*
X174509Y57683D01*
X174922Y57606D01*
X175181Y57376D01*
X175336Y57108D01*
Y56149D01*
G01Y57108D02*
X176834Y57683D01*
G01X176472Y59364D02*
X176731Y59633D01*
X176834Y59939D01*
X176731Y60246D01*
X176421Y60514D01*
X175956Y60706D01*
X175491Y60783D01*
X174922D01*
X174457Y60706D01*
X174044Y60514D01*
X173837Y60284D01*
X173734Y60016D01*
X173837Y59709D01*
X174044Y59479D01*
X174354Y59326D01*
X174767Y59249D01*
X175129Y59326D01*
X175491Y59518D01*
X175697Y59748D01*
X175749Y60016D01*
X175646Y60323D01*
X175387Y60553D01*
X174922Y60783D01*
G01X168110Y143167D02*
Y146750D01*
X167857Y147500D01*
X167350Y148000D01*
X166717Y148167D01*
X166084Y148000D01*
X165577Y147500D01*
X165324Y146750D01*
Y143167D01*
G01X163010Y147167D02*
X162630Y147750D01*
X162124Y148084D01*
X161554Y148167D01*
X161047Y148084D01*
X160540Y147667D01*
X160224Y147167D01*
X160160Y146667D01*
X160287Y146084D01*
X160730Y145667D01*
X161174Y145500D01*
X161744D01*
G01X161174D02*
X160794Y145250D01*
X160477Y144834D01*
X160350Y144334D01*
X160477Y143834D01*
X160794Y143417D01*
X161364Y143167D01*
X161934Y143250D01*
X162504Y143584D01*
G01X168793Y213583D02*
X168413Y213833D01*
X167970Y214000D01*
X167463D01*
X166893Y213750D01*
X166450Y213333D01*
X166133Y212833D01*
X165880Y212000D01*
X165817Y211250D01*
X165943Y210500D01*
X166133Y210000D01*
X166513Y209500D01*
X166957Y209167D01*
X167400Y209000D01*
X167843D01*
X168287Y209167D01*
X168667Y209417D01*
X168983Y209750D01*
G01X172500Y209000D02*
Y214000D01*
X171740Y213000D01*
G01Y209000D02*
X173260D01*
G01X177473D02*
X177600Y210083D01*
X177790Y211000D01*
X178043Y211833D01*
X178360Y212750D01*
X178867Y214000D01*
X176333D01*
G01X177500Y279117D02*
X180600D01*
Y278158D01*
X180445Y277852D01*
X180238Y277660D01*
X179825Y277583D01*
X179412Y277660D01*
X179153Y277890D01*
X178998Y278158D01*
Y279117D01*
G01Y278158D02*
X177500Y277583D01*
G01Y275327D02*
X178172Y275250D01*
X178740Y275135D01*
X179257Y274982D01*
X179825Y274790D01*
X180600Y274483D01*
Y276017D01*
G01X159000Y290000D02*
Y280000D01*
X187000D01*
Y290000D01*
X159000D01*
G01X187500Y350000D02*
G03X177500Y360000I-10000J0D01*
G01D02*
G03X167500Y350000I0J-10000D01*
G01D02*
G03X177500Y340000I10000J0D01*
G01D02*
G03X187500Y350000I0J10000D01*
G01X162500D02*
G03X152500Y360000I-10000J0D01*
G01Y340000D02*
G03X162500Y350000I0J10000D01*
G01X159843Y367083D02*
X159463Y367333D01*
X159020Y367500D01*
X158513D01*
X157943Y367250D01*
X157500Y366833D01*
X157183Y366333D01*
X156930Y365500D01*
X156867Y364750D01*
X156993Y364000D01*
X157183Y363500D01*
X157563Y363000D01*
X158007Y362667D01*
X158450Y362500D01*
X158893D01*
X159337Y362667D01*
X159717Y362917D01*
X160033Y363250D01*
G01X162347Y366667D02*
X162727Y367167D01*
X163170Y367417D01*
X163677Y367500D01*
X164310Y367333D01*
X164753Y366917D01*
X164880Y366417D01*
X164817Y365917D01*
X164563Y365500D01*
X163297Y364667D01*
X162727Y364083D01*
X162347Y363250D01*
X162220Y362500D01*
X164880D01*
G01X207500Y45500D02*
X287500D01*
Y80500D01*
X207500D01*
Y45500D01*
G01X192500Y81500D02*
X182500D01*
Y53500D01*
X192500D01*
Y81500D01*
G01X204000Y140000D02*
X210000D01*
X212500Y137500D01*
X217500D01*
X220000Y140000D01*
X226000D01*
Y100000D01*
X204000D01*
Y140000D01*
G01X182500Y106000D02*
X192500D01*
Y134000D01*
X182500D01*
Y106000D01*
G01X207910Y147500D02*
X204000D01*
Y187500D01*
G01X194666Y127850D02*
X197766D01*
Y126891D01*
X197611Y126585D01*
X197404Y126393D01*
X196991Y126316D01*
X196578Y126393D01*
X196319Y126623D01*
X196164Y126891D01*
Y127850D01*
G01Y126891D02*
X194666Y126316D01*
G01Y123983D02*
X194718Y123715D01*
X194873Y123408D01*
X195131Y123216D01*
X195493Y123140D01*
X195854Y123216D01*
X196164Y123446D01*
X196319Y123791D01*
Y124175D01*
X196423Y124405D01*
X196681Y124596D01*
X197043Y124673D01*
X197404Y124558D01*
X197663Y124290D01*
X197766Y123983D01*
X197663Y123676D01*
X197404Y123408D01*
X197043Y123293D01*
X196681Y123370D01*
X196423Y123561D01*
X196319Y123791D01*
Y124175D01*
X196164Y124520D01*
X195854Y124750D01*
X195493Y124826D01*
X195131Y124750D01*
X194873Y124558D01*
X194718Y124251D01*
X194666Y123983D01*
G01X204000Y187500D02*
X210000D01*
X212500Y185000D01*
X217500D01*
X220000Y187500D01*
X226000D01*
Y147500D01*
X210090D01*
G01X215000Y210000D02*
G03X205000Y200000I0J-10000D01*
G01D02*
G03X215000Y190000I10000J0D01*
G01X202500Y200000D02*
G03X192500Y210000I-10000J0D01*
G01D02*
G03X182500Y200000I0J-10000D01*
G01D02*
G03X192500Y190000I10000J0D01*
G01D02*
G03X202500Y200000I0J10000D01*
G01X194793Y217083D02*
X194413Y217333D01*
X193970Y217500D01*
X193463D01*
X192893Y217250D01*
X192450Y216833D01*
X192133Y216333D01*
X191880Y215500D01*
X191817Y214750D01*
X191943Y214000D01*
X192133Y213500D01*
X192513Y213000D01*
X192957Y212667D01*
X193400Y212500D01*
X193843D01*
X194287Y212667D01*
X194667Y212917D01*
X194983Y213250D01*
G01X198500Y212500D02*
Y217500D01*
X197740Y216500D01*
G01Y212500D02*
X199260D01*
G01X204360D02*
Y217500D01*
X202017Y213917D01*
X205183D01*
G01X185500Y309907D02*
X189083D01*
X189833Y310160D01*
X190333Y310667D01*
X190500Y311300D01*
X190333Y311933D01*
X189833Y312440D01*
X189083Y312693D01*
X185500D01*
G01X190500Y316400D02*
X190417Y316843D01*
X190167Y317350D01*
X189750Y317667D01*
X189167Y317793D01*
X188583Y317667D01*
X188083Y317287D01*
X187833Y316717D01*
Y316083D01*
X187667Y315703D01*
X187250Y315387D01*
X186667Y315260D01*
X186083Y315450D01*
X185667Y315893D01*
X185500Y316400D01*
X185667Y316907D01*
X186083Y317350D01*
X186667Y317540D01*
X187250Y317413D01*
X187667Y317097D01*
X187833Y316717D01*
Y316083D01*
X188083Y315513D01*
X188583Y315133D01*
X189167Y315007D01*
X189750Y315133D01*
X190167Y315450D01*
X190417Y315957D01*
X190500Y316400D01*
G01X212500Y307500D02*
Y347500D01*
X195000D01*
Y307500D01*
X212500D01*
G01X205000Y361000D02*
X215000D01*
Y389000D01*
X205000D01*
Y361000D01*
G01X206883Y376000D02*
Y379100D01*
X207842D01*
X208148Y378945D01*
X208340Y378738D01*
X208417Y378325D01*
X208340Y377912D01*
X208110Y377653D01*
X207842Y377498D01*
X206883D01*
G01X207842D02*
X208417Y376000D01*
G01X211210D02*
Y379100D01*
X209792Y376878D01*
X211708D01*
G01X192500Y361000D02*
X202500D01*
Y389000D01*
X192500D01*
Y361000D01*
G01X222683Y86500D02*
X223000Y86000D01*
X223380Y85667D01*
X223823Y85500D01*
X224330Y85667D01*
X224710Y86000D01*
X225090Y86500D01*
X225217Y87167D01*
Y90500D01*
G01X227657Y86250D02*
X228037Y85833D01*
X228480Y85583D01*
X229050Y85500D01*
X229620Y85667D01*
X230063Y86000D01*
X230380Y86583D01*
X230443Y87250D01*
X230317Y87917D01*
X230000Y88333D01*
X229557Y88667D01*
X229113Y88750D01*
X228670Y88667D01*
X228100Y88333D01*
X228290Y90500D01*
X230000D01*
G01X246433Y127910D02*
X242850D01*
X242100Y127657D01*
X241600Y127150D01*
X241433Y126517D01*
X241600Y125884D01*
X242100Y125377D01*
X242850Y125124D01*
X246433D01*
G01X242183Y122810D02*
X241766Y122430D01*
X241516Y121987D01*
X241433Y121417D01*
X241600Y120847D01*
X241933Y120404D01*
X242516Y120087D01*
X243183Y120024D01*
X243850Y120150D01*
X244266Y120467D01*
X244600Y120910D01*
X244683Y121354D01*
X244600Y121797D01*
X244266Y122367D01*
X246433Y122177D01*
Y120467D01*
G01X237500Y103500D02*
X247500D01*
Y131500D01*
X237500D01*
Y103500D01*
G01X246433Y178910D02*
X242850D01*
X242100Y178657D01*
X241600Y178150D01*
X241433Y177517D01*
X241600Y176884D01*
X242100Y176377D01*
X242850Y176124D01*
X246433D01*
G01X243516Y173620D02*
X244100Y173177D01*
X244433Y172797D01*
X244600Y172290D01*
X244433Y171847D01*
X244100Y171530D01*
X243600Y171277D01*
X243016Y171214D01*
X242516Y171277D01*
X242016Y171530D01*
X241600Y171910D01*
X241433Y172354D01*
X241600Y172860D01*
X242100Y173304D01*
X242850Y173557D01*
X243683Y173620D01*
X244766Y173494D01*
X245350Y173304D01*
X245933Y172987D01*
X246350Y172544D01*
X246433Y172100D01*
X246266Y171657D01*
X245850Y171340D01*
G01X237500Y153500D02*
X247500D01*
Y181500D01*
X237500D01*
Y153500D01*
G01X225000Y200000D02*
G03X215000Y210000I-10000J0D01*
G01Y190000D02*
G03X225000Y200000I0J10000D01*
G01X239500Y215000D02*
G03X229500Y205000I0J-10000D01*
G01D02*
G03X239500Y195000I10000J0D01*
G01D02*
G03X249500Y205000I0J10000D01*
G01X215793Y218583D02*
X215413Y218833D01*
X214970Y219000D01*
X214463D01*
X213893Y218750D01*
X213450Y218333D01*
X213133Y217833D01*
X212880Y217000D01*
X212817Y216250D01*
X212943Y215500D01*
X213133Y215000D01*
X213513Y214500D01*
X213957Y214167D01*
X214400Y214000D01*
X214843D01*
X215287Y214167D01*
X215667Y214417D01*
X215983Y214750D01*
G01X218297Y218167D02*
X218677Y218667D01*
X219120Y218917D01*
X219627Y219000D01*
X220260Y218833D01*
X220703Y218417D01*
X220830Y217917D01*
X220767Y217417D01*
X220513Y217000D01*
X219247Y216167D01*
X218677Y215583D01*
X218297Y214750D01*
X218170Y214000D01*
X220830D01*
G01X223207Y215000D02*
X223587Y214417D01*
X224093Y214083D01*
X224663Y214000D01*
X225170Y214083D01*
X225677Y214500D01*
X225993Y215000D01*
X226057Y215500D01*
X225930Y216083D01*
X225487Y216500D01*
X225043Y216667D01*
X224473D01*
G01X225043D02*
X225423Y216917D01*
X225740Y217333D01*
X225867Y217833D01*
X225740Y218333D01*
X225423Y218750D01*
X224853Y219000D01*
X224283Y218917D01*
X223713Y218583D01*
G01X249500Y205000D02*
G03X239500Y215000I-10000J0D01*
G01X224293Y350083D02*
X223913Y350333D01*
X223470Y350500D01*
X222963D01*
X222393Y350250D01*
X221950Y349833D01*
X221633Y349333D01*
X221380Y348500D01*
X221317Y347750D01*
X221443Y347000D01*
X221633Y346500D01*
X222013Y346000D01*
X222457Y345667D01*
X222900Y345500D01*
X223343D01*
X223787Y345667D01*
X224167Y345917D01*
X224483Y346250D01*
G01X226797Y349667D02*
X227177Y350167D01*
X227620Y350417D01*
X228127Y350500D01*
X228760Y350333D01*
X229203Y349917D01*
X229330Y349417D01*
X229267Y348917D01*
X229013Y348500D01*
X227747Y347667D01*
X227177Y347083D01*
X226797Y346250D01*
X226670Y345500D01*
X229330D01*
G01X231897Y349667D02*
X232277Y350167D01*
X232720Y350417D01*
X233227Y350500D01*
X233860Y350333D01*
X234303Y349917D01*
X234430Y349417D01*
X234367Y348917D01*
X234113Y348500D01*
X232847Y347667D01*
X232277Y347083D01*
X231897Y346250D01*
X231770Y345500D01*
X234430D01*
G01X219383Y376000D02*
Y379100D01*
X220342D01*
X220648Y378945D01*
X220840Y378738D01*
X220917Y378325D01*
X220840Y377912D01*
X220610Y377653D01*
X220342Y377498D01*
X219383D01*
G01X220342D02*
X220917Y376000D01*
G01X222522Y378583D02*
X222752Y378893D01*
X223020Y379048D01*
X223327Y379100D01*
X223710Y378997D01*
X223978Y378738D01*
X224055Y378428D01*
X224017Y378118D01*
X223863Y377860D01*
X223097Y377343D01*
X222752Y376982D01*
X222522Y376465D01*
X222445Y376000D01*
X224055D01*
G01X231883D02*
Y379100D01*
X232842D01*
X233148Y378945D01*
X233340Y378738D01*
X233417Y378325D01*
X233340Y377912D01*
X233110Y377653D01*
X232842Y377498D01*
X231883D01*
G01X232842D02*
X233417Y376000D01*
G01X234907Y376465D02*
X235137Y376207D01*
X235405Y376052D01*
X235750Y376000D01*
X236095Y376103D01*
X236363Y376310D01*
X236555Y376672D01*
X236593Y377085D01*
X236517Y377498D01*
X236325Y377757D01*
X236057Y377963D01*
X235788Y378015D01*
X235520Y377963D01*
X235175Y377757D01*
X235290Y379100D01*
X236325D01*
G01X217500Y361000D02*
X227500D01*
Y389000D01*
X217500D01*
Y361000D01*
G01X230000D02*
X240000D01*
Y389000D01*
X230000D01*
Y361000D01*
G01X249666Y126900D02*
X252766D01*
Y125941D01*
X252611Y125635D01*
X252404Y125443D01*
X251991Y125366D01*
X251578Y125443D01*
X251319Y125673D01*
X251164Y125941D01*
Y126900D01*
G01Y125941D02*
X249666Y125366D01*
G01Y123033D02*
X252766D01*
X252146Y123493D01*
G01X249666D02*
Y122573D01*
G01X252766Y119933D02*
X252663Y120240D01*
X252404Y120470D01*
X252094Y120623D01*
X251681Y120738D01*
X251216Y120776D01*
X250751Y120738D01*
X250338Y120623D01*
X250028Y120470D01*
X249769Y120240D01*
X249666Y119933D01*
X249769Y119626D01*
X250028Y119396D01*
X250338Y119243D01*
X250751Y119128D01*
X251216Y119090D01*
X251681Y119128D01*
X252094Y119243D01*
X252404Y119396D01*
X252663Y119626D01*
X252766Y119933D01*
G01X249666Y176900D02*
X252766D01*
Y175941D01*
X252611Y175635D01*
X252404Y175443D01*
X251991Y175366D01*
X251578Y175443D01*
X251319Y175673D01*
X251164Y175941D01*
Y176900D01*
G01Y175941D02*
X249666Y175366D01*
G01Y173033D02*
X252766D01*
X252146Y173493D01*
G01X249666D02*
Y172573D01*
G01Y169933D02*
X252766D01*
X252146Y170393D01*
G01X249666D02*
Y169473D01*
G01X261500Y340000D02*
G03X251500Y350000I-10000J0D01*
G01D02*
G03X241500Y340000I0J-10000D01*
G01D02*
G03X251500Y330000I10000J0D01*
G01D02*
G03X261500Y340000I0J10000D01*
G01X242493Y382342D02*
X242263Y382497D01*
X241995Y382600D01*
X241688D01*
X241343Y382445D01*
X241075Y382187D01*
X240883Y381877D01*
X240730Y381360D01*
X240692Y380895D01*
X240768Y380430D01*
X240883Y380120D01*
X241113Y379810D01*
X241382Y379603D01*
X241650Y379500D01*
X241918D01*
X242187Y379603D01*
X242417Y379758D01*
X242608Y379965D01*
G01X244750Y379500D02*
Y382600D01*
X244290Y381980D01*
G01Y379500D02*
X245210D01*
G01X39000Y40000D02*
Y440000D01*
X319500D01*
Y40000D01*
X39000D01*
M02*
