G04 ================== begin FILE IDENTIFICATION RECORD ==================*
G04 Layout Name:  C:/CADENCE/PROJECTS/TEST FIXTURE-PSPICEFILES/BOARD/test_fixture_3.brd*
G04 Film Name:    soldermask_bot*
G04 File Format:  Gerber RS274X*
G04 File Origin:  Cadence Allegro 16.3-p003*
G04 Origin Date:  Sat Jun 20 01:50:37 2020*
G04 *
G04 Layer:  VIA CLASS/SOLDERMASK_BOTTOM*
G04 Layer:  PIN/SOLDERMASK_BOTTOM*
G04 Layer:  PACKAGE GEOMETRY/SOLDERMASK_BOTTOM*
G04 Layer:  BOARD GEOMETRY/SOLDERMASK_BOTTOM*
G04 *
G04 Offset:    (0.00 0.00)*
G04 Mirror:    No*
G04 Mode:      Positive*
G04 Rotation:  0*
G04 FullContactRelief:  No*
G04 UndefLineWidth:     5.00*
G04 ================== end FILE IDENTIFICATION RECORD ====================*
%FSLAX55Y55*MOIN*%
%IR0*IPPOS*OFA0.00000B0.00000*MIA0B0*SFA1.00000B1.00000*%
%ADD11C,.05*%
%ADD13C,.08*%
%ADD10C,.044*%
%ADD12C,.075*%
%ADD14C,.095*%
%ADD15R,.075X.075*%
%ADD16C,.145*%
%LPD*%
G75*
G54D10*
X41500Y57000D03*
X61000Y91500D03*
X60500Y100000D03*
X61000Y143000D03*
X58000Y137000D03*
X60500Y160000D03*
X54500Y155500D03*
X60000Y173500D03*
X89000Y57500D03*
X67500Y57000D03*
X64000Y66000D03*
X62500Y117500D03*
X67500Y148500D03*
X72500Y133500D03*
X79500Y141000D03*
X71500Y151500D03*
X86500Y150000D03*
X63500Y154000D03*
X84500Y177500D03*
X67000Y171000D03*
X83500Y153500D03*
X78500Y155500D03*
X105500Y61500D03*
X94500Y57500D03*
X115500Y56000D03*
X100300Y55800D03*
X114500Y63000D03*
X107000Y68500D03*
X102500Y66500D03*
X97000Y62500D03*
Y84000D03*
X95500Y89500D03*
X98500Y96500D03*
X112000Y111500D03*
X104000D03*
X105500Y147000D03*
X111000Y152000D03*
X120500Y146000D03*
X101500Y170500D03*
X119000D03*
X126000Y56500D03*
X138000Y74500D03*
X124000Y67500D03*
X129500Y64700D03*
X134500Y70000D03*
X126000Y84000D03*
X147000Y67000D03*
X152000Y92000D03*
X132000Y120000D03*
X147500Y110000D03*
X145000Y103000D03*
X126000D03*
X141000Y119500D03*
X137500Y111000D03*
X131500D03*
Y96000D03*
X140000D03*
X127000Y117000D03*
X151000Y122500D03*
X134500Y148000D03*
X138000Y156000D03*
X155742Y41000D03*
X164500Y43000D03*
X174250Y47250D03*
X176500Y51500D03*
X158500Y69500D03*
X157000Y75500D03*
X155000Y96000D03*
X180000Y115600D03*
X159500Y117000D03*
X157500Y130000D03*
X173000D03*
X163500Y127500D03*
X158500Y146000D03*
X158000Y176000D03*
X181000D03*
X164500Y171000D03*
X179500Y162000D03*
X188000Y38500D03*
X193000Y41000D03*
X201500Y71000D03*
X198000Y89500D03*
X207500Y83000D03*
X202000Y77500D03*
X206000Y69000D03*
X190750Y79250D03*
X212000Y91500D03*
X194500Y92500D03*
X187500Y120000D03*
X212000Y110500D03*
X207000Y127500D03*
X202500Y143000D03*
X209000Y147000D03*
X187500Y130500D03*
X193000Y150000D03*
Y167500D03*
X184000Y158000D03*
X193500Y158500D03*
X188000Y164000D03*
X234500Y100000D03*
X213000Y176500D03*
X213500Y157500D03*
X222000Y189500D03*
X251000Y83000D03*
Y99500D03*
X246000Y123000D03*
X257000Y138500D03*
X267000Y181000D03*
X293421Y85000D03*
G54D11*
X49250Y90750D03*
X41376D03*
X49250Y122246D03*
X41376D03*
X49250Y114372D03*
X41376D03*
X49250Y106498D03*
X41376D03*
X49250Y98624D03*
X41376D03*
X49250Y145868D03*
X41376D03*
X49250Y137994D03*
X41376D03*
X49250Y130120D03*
X41376D03*
X49250Y177364D03*
X41376D03*
X49250Y169490D03*
X41376D03*
X49250Y161616D03*
X41376D03*
X49250Y153742D03*
X41376D03*
X49250Y208860D03*
X41376D03*
X49250Y200986D03*
X41376D03*
X49250Y193112D03*
X41376D03*
X49250Y185238D03*
X41376D03*
X271376Y93250D03*
Y116872D03*
Y108998D03*
Y101124D03*
Y148368D03*
Y140494D03*
Y132620D03*
Y124746D03*
Y179864D03*
Y171990D03*
Y164116D03*
Y156242D03*
Y211360D03*
Y203486D03*
Y195612D03*
Y187738D03*
X279250Y93250D03*
Y116872D03*
Y108998D03*
Y101124D03*
Y148368D03*
Y140494D03*
Y132620D03*
Y124746D03*
Y179864D03*
Y171990D03*
Y164116D03*
Y156242D03*
Y211360D03*
Y203486D03*
Y195612D03*
Y187738D03*
G54D12*
X48500Y267500D03*
Y277500D03*
Y300000D03*
Y290000D03*
X92400Y48900D03*
Y41000D03*
X84500Y64700D03*
X76600D03*
X84500Y72600D03*
X76600D03*
X84500Y80500D03*
X76600D03*
X84500Y88400D03*
X76600D03*
X84500Y96300D03*
X76600D03*
X84500Y104200D03*
X76600D03*
X84500Y112100D03*
X76600D03*
X84500Y120000D03*
X76600D03*
X92400Y133200D03*
Y141100D03*
X92500Y160000D03*
X75000Y175000D03*
Y165000D03*
X92500Y190000D03*
X75000Y197500D03*
Y187500D03*
X84000Y295000D03*
X94000D03*
X124000Y48900D03*
Y41000D03*
X116100Y48900D03*
Y41000D03*
X108200Y48900D03*
Y41000D03*
X100300Y48900D03*
Y41000D03*
Y133200D03*
Y141100D03*
X108200Y133200D03*
Y141100D03*
X116100Y133200D03*
Y141100D03*
X124000Y133200D03*
Y141100D03*
X102500Y160000D03*
X112500D03*
X122500D03*
X102500Y190000D03*
X112500D03*
X122500D03*
Y212500D03*
Y202500D03*
X100000Y212500D03*
Y202500D03*
X112500Y290000D03*
Y280000D03*
X99500Y330000D03*
Y320000D03*
X100000Y364000D03*
Y342500D03*
Y352500D03*
Y374000D03*
Y386500D03*
X122500Y399000D03*
X100000Y396500D03*
X147700Y48900D03*
Y41000D03*
X139800Y48900D03*
Y41000D03*
X131900Y48900D03*
Y41000D03*
Y133200D03*
Y141100D03*
X139800Y133200D03*
Y141100D03*
X147700Y133200D03*
Y141100D03*
X132500Y160000D03*
X142500D03*
X152500D03*
X132500Y190000D03*
X142500D03*
X152500D03*
X145000Y212500D03*
Y202500D03*
X137000Y287500D03*
Y277500D03*
X152500Y355000D03*
Y345000D03*
X127500Y355000D03*
Y345000D03*
X152500Y369000D03*
X142500D03*
X132500D03*
X152500Y399000D03*
X142500D03*
X132500D03*
X165700Y88400D03*
X173600D03*
X165700Y80500D03*
X173600D03*
X165700Y72600D03*
X173600D03*
X165700Y64700D03*
X173600D03*
X165700Y120000D03*
X173600D03*
X165700Y112100D03*
X173600D03*
X165700Y104200D03*
X173600D03*
X165700Y96300D03*
X173600D03*
X162500Y160000D03*
X172500D03*
X162500Y190000D03*
X177500Y355000D03*
Y345000D03*
X182500Y369000D03*
X172500D03*
X162500D03*
X182500Y399000D03*
X172500D03*
X162500D03*
X200000Y105000D03*
Y115000D03*
Y125000D03*
Y152500D03*
Y162500D03*
Y172500D03*
X192500Y205000D03*
Y195000D03*
X237500Y42500D03*
X227500D03*
X230000Y105000D03*
Y115000D03*
Y125000D03*
Y135000D03*
Y152500D03*
Y162500D03*
Y172500D03*
Y182500D03*
X215000Y205000D03*
Y195000D03*
X239500Y210000D03*
Y200000D03*
X267500Y42500D03*
X257500D03*
X247500D03*
X251500Y345000D03*
Y335000D03*
G54D13*
X68500Y262500D03*
Y302500D03*
X67000Y370000D03*
X80000D03*
X67000Y410000D03*
X80000D03*
X120500Y332500D03*
X153000Y285000D03*
X160500Y332500D03*
X187500Y47500D03*
Y87500D03*
Y100000D03*
Y140000D03*
X193000Y285000D03*
X210000Y355000D03*
X197500D03*
X210000Y395000D03*
X197500D03*
X242500Y97500D03*
Y137500D03*
Y147500D03*
Y187500D03*
X222500Y355000D03*
X235000D03*
X222500Y395000D03*
X235000D03*
G54D14*
X71000Y320000D03*
Y330000D03*
Y340000D03*
X202500Y327500D03*
Y317500D03*
Y337500D03*
G54D15*
X122500Y369000D03*
X172500Y190000D03*
X200000Y135000D03*
Y182500D03*
G54D16*
X310000Y430000D03*
M02*
