G04 ================== begin FILE IDENTIFICATION RECORD ==================*
G04 Layout Name:  C:/CADENCE/PROJECTS/TEST FIXTURE-PSPICEFILES/BOARD/test_fixture_3.brd*
G04 Film Name:    TOP*
G04 File Format:  Gerber RS274X*
G04 File Origin:  Cadence Allegro 16.3-p003*
G04 Origin Date:  Sat Jun 20 01:53:49 2020*
G04 *
G04 Layer:  ETCH/TOP*
G04 Layer:  PIN/TOP*
G04 Layer:  VIA CLASS/TOP*
G04 *
G04 Offset:    (0.00 0.00)*
G04 Mirror:    No*
G04 Mode:      Positive*
G04 Rotation:  0*
G04 FullContactRelief:  No*
G04 UndefLineWidth:     5.00*
G04 ================== end FILE IDENTIFICATION RECORD ====================*
%FSLAX55Y55*MOIN*%
%IR0*IPPOS*OFA0.00000B0.00000*MIA0B0*SFA1.00000B1.00000*%
%ADD11C,.04*%
%ADD12C,.06*%
%ADD10C,.024*%
%ADD16C,.025*%
%ADD14C,.08*%
%ADD13C,.065*%
%ADD15R,.06X.06*%
%ADD17C,.005*%
G75*
%LPD*%
G75*
G54D10*
X41500Y57000D03*
X61000Y91500D03*
X60500Y100000D03*
X61000Y143000D03*
X58000Y137000D03*
X60500Y160000D03*
X54500Y155500D03*
X60000Y173500D03*
X89000Y57500D03*
X67500Y57000D03*
X64000Y66000D03*
X62500Y117500D03*
X67500Y148500D03*
X72500Y133500D03*
X79500Y141000D03*
X71500Y151500D03*
X86500Y150000D03*
X63500Y154000D03*
X84500Y177500D03*
X67000Y171000D03*
X83500Y153500D03*
X78500Y155500D03*
X105500Y61500D03*
X94500Y57500D03*
X115500Y56000D03*
X100300Y55800D03*
X114500Y63000D03*
X107000Y68500D03*
X102500Y66500D03*
X97000Y62500D03*
Y84000D03*
X95500Y89500D03*
X98500Y96500D03*
X112000Y111500D03*
X104000D03*
X105500Y147000D03*
X111000Y152000D03*
X120500Y146000D03*
X101500Y170500D03*
X119000D03*
X126000Y56500D03*
X138000Y74500D03*
X124000Y67500D03*
X129500Y64700D03*
X134500Y70000D03*
X126000Y84000D03*
X147000Y67000D03*
X152000Y92000D03*
X132000Y120000D03*
X147500Y110000D03*
X145000Y103000D03*
X126000D03*
X141000Y119500D03*
X137500Y111000D03*
X131500D03*
Y96000D03*
X140000D03*
X127000Y117000D03*
X151000Y122500D03*
X134500Y148000D03*
X138000Y156000D03*
X155742Y41000D03*
X164500Y43000D03*
X174250Y47250D03*
X176500Y51500D03*
X158500Y69500D03*
X157000Y75500D03*
X155000Y96000D03*
X180000Y115600D03*
X159500Y117000D03*
X157500Y130000D03*
X173000D03*
X163500Y127500D03*
X158500Y146000D03*
X158000Y176000D03*
X181000D03*
X164500Y171000D03*
X179500Y162000D03*
X193000Y41000D03*
X201500Y71000D03*
X198000Y89500D03*
X207500Y83000D03*
X202000Y77500D03*
X206000Y69000D03*
X190750Y79250D03*
X212000Y91500D03*
X194500Y92500D03*
X187500Y120000D03*
X212000Y110500D03*
X207000Y127500D03*
X202500Y143000D03*
X209000Y147000D03*
X187500Y130500D03*
X193000Y150000D03*
Y167500D03*
X184000Y158000D03*
X193500Y158500D03*
X188000Y164000D03*
X234500Y100000D03*
X213000Y176500D03*
X213500Y157500D03*
X222000Y189500D03*
X251000Y83000D03*
Y99500D03*
X246000Y123000D03*
X257000Y138500D03*
X267000Y181000D03*
X293421Y85000D03*
G54D11*
X49250Y90750D03*
X41376D03*
X49250Y122246D03*
X41376D03*
X49250Y114372D03*
X41376D03*
X49250Y106498D03*
X41376D03*
X49250Y98624D03*
X41376D03*
X49250Y145868D03*
X41376D03*
X49250Y137994D03*
X41376D03*
X49250Y130120D03*
X41376D03*
X49250Y177364D03*
X41376D03*
X49250Y169490D03*
X41376D03*
X49250Y161616D03*
X41376D03*
X49250Y153742D03*
X41376D03*
X49250Y208860D03*
X41376D03*
X49250Y200986D03*
X41376D03*
X49250Y193112D03*
X41376D03*
X49250Y185238D03*
X41376D03*
X271376Y93250D03*
Y116872D03*
Y108998D03*
Y101124D03*
Y148368D03*
Y140494D03*
Y132620D03*
Y124746D03*
Y179864D03*
Y171990D03*
Y164116D03*
Y156242D03*
Y211360D03*
Y203486D03*
Y195612D03*
Y187738D03*
X279250Y93250D03*
Y116872D03*
Y108998D03*
Y101124D03*
Y148368D03*
Y140494D03*
Y132620D03*
Y124746D03*
Y179864D03*
Y171990D03*
Y164116D03*
Y156242D03*
Y211360D03*
Y203486D03*
Y195612D03*
Y187738D03*
G54D12*
X48500Y267500D03*
Y277500D03*
Y300000D03*
Y290000D03*
X92400Y48900D03*
Y41000D03*
X84500Y64700D03*
X76600D03*
X84500Y72600D03*
X76600D03*
X84500Y80500D03*
X76600D03*
X84500Y88400D03*
X76600D03*
X84500Y96300D03*
X76600D03*
X84500Y104200D03*
X76600D03*
X84500Y112100D03*
X76600D03*
X84500Y120000D03*
X76600D03*
X92400Y133200D03*
Y141100D03*
X92500Y160000D03*
X75000Y175000D03*
Y165000D03*
X92500Y190000D03*
X75000Y197500D03*
Y187500D03*
X84000Y295000D03*
X94000D03*
X124000Y48900D03*
Y41000D03*
X116100Y48900D03*
Y41000D03*
X108200Y48900D03*
Y41000D03*
X100300Y48900D03*
Y41000D03*
Y133200D03*
Y141100D03*
X108200Y133200D03*
Y141100D03*
X116100Y133200D03*
Y141100D03*
X124000Y133200D03*
Y141100D03*
X102500Y160000D03*
X112500D03*
X122500D03*
X102500Y190000D03*
X112500D03*
X122500D03*
Y212500D03*
Y202500D03*
X100000Y212500D03*
Y202500D03*
X112500Y290000D03*
Y280000D03*
X99500Y330000D03*
Y320000D03*
X100000Y364000D03*
Y342500D03*
Y352500D03*
Y374000D03*
Y386500D03*
X122500Y399000D03*
X100000Y396500D03*
X147700Y48900D03*
Y41000D03*
X139800Y48900D03*
Y41000D03*
X131900Y48900D03*
Y41000D03*
Y133200D03*
Y141100D03*
X139800Y133200D03*
Y141100D03*
X147700Y133200D03*
Y141100D03*
X132500Y160000D03*
X142500D03*
X152500D03*
X132500Y190000D03*
X142500D03*
X152500D03*
X145000Y212500D03*
Y202500D03*
X137000Y287500D03*
Y277500D03*
X152500Y355000D03*
Y345000D03*
X127500Y355000D03*
Y345000D03*
X152500Y369000D03*
X142500D03*
X132500D03*
X152500Y399000D03*
X142500D03*
X132500D03*
X165700Y88400D03*
X173600D03*
X165700Y80500D03*
X173600D03*
X165700Y72600D03*
X173600D03*
X165700Y64700D03*
X173600D03*
X165700Y120000D03*
X173600D03*
X165700Y112100D03*
X173600D03*
X165700Y104200D03*
X173600D03*
X165700Y96300D03*
X173600D03*
X162500Y160000D03*
X172500D03*
X162500Y190000D03*
X177500Y355000D03*
Y345000D03*
X182500Y369000D03*
X172500D03*
X162500D03*
X182500Y399000D03*
X172500D03*
X162500D03*
X200000Y105000D03*
Y115000D03*
Y125000D03*
Y152500D03*
Y162500D03*
Y172500D03*
X192500Y205000D03*
Y195000D03*
X237500Y42500D03*
X227500D03*
X230000Y105000D03*
Y115000D03*
Y125000D03*
Y135000D03*
Y152500D03*
Y162500D03*
Y172500D03*
Y182500D03*
X215000Y205000D03*
Y195000D03*
X239500Y210000D03*
Y200000D03*
X267500Y42500D03*
X257500D03*
X247500D03*
X251500Y345000D03*
Y335000D03*
G54D13*
X68500Y262500D03*
Y302500D03*
X67000Y370000D03*
X80000D03*
X67000Y410000D03*
X80000D03*
X120500Y332500D03*
X153000Y285000D03*
X160500Y332500D03*
X187500Y47500D03*
Y87500D03*
Y100000D03*
Y140000D03*
X193000Y285000D03*
X210000Y355000D03*
X197500D03*
X210000Y395000D03*
X197500D03*
X242500Y97500D03*
Y137500D03*
Y147500D03*
Y187500D03*
X222500Y355000D03*
X235000D03*
X222500Y395000D03*
X235000D03*
G54D14*
X71000Y320000D03*
Y330000D03*
Y340000D03*
X202500Y327500D03*
Y317500D03*
Y337500D03*
G54D15*
X122500Y369000D03*
X172500Y190000D03*
X200000Y135000D03*
Y182500D03*
G54D16*
X310000Y430000D03*
G54D17*
G01X176500Y51500D02*
Y29500D01*
X174000Y27000D01*
X53500D01*
X35500Y45000D01*
Y97000D01*
X37124Y98624D01*
X41376D01*
G01X158500Y69500D02*
X154500D01*
X144500Y59500D01*
X60000D01*
X58500Y61000D01*
Y67000D01*
X64000Y72500D01*
Y79890D01*
X49250Y94640D01*
Y98624D01*
G01X67500Y57000D02*
X41500D01*
G01X49250Y114372D02*
X59372D01*
X62500Y117500D01*
G01X165700Y112100D02*
X160098Y106498D01*
X92102D01*
X86054Y100450D01*
X82946D01*
X80750Y102646D01*
Y105354D01*
X78154Y107950D01*
X75046D01*
X73594Y106498D01*
X49250D01*
G01X83500Y153500D02*
X60000Y130000D01*
X56500D01*
X51496Y124996D01*
X48110D01*
X46500Y123386D01*
Y120000D01*
X44126Y117626D01*
Y97484D01*
X41376Y94734D01*
Y90750D01*
G01X152000Y92000D02*
X86204D01*
X86054Y92150D01*
X75046D01*
X74896Y92000D01*
X72500D01*
X62500Y102000D01*
X49500D01*
X45500Y106000D01*
Y115500D01*
X49250Y119250D01*
Y122246D01*
G01X67500Y148500D02*
X59756D01*
X49250Y137994D01*
G01X41376Y130120D02*
X45360D01*
X48110Y132870D01*
X50870D01*
X61000Y143000D01*
G01X63500Y154000D02*
X55758D01*
X55308Y153550D01*
X55050D01*
X50118Y148618D01*
X48110D01*
X45360Y145868D01*
X41376D01*
G01X78500Y155500D02*
X59950Y136950D01*
Y136192D01*
X58808Y135050D01*
X58050D01*
X53120Y130120D01*
X49250D01*
G01X54500Y155500D02*
X52000Y153000D01*
Y152602D01*
X49398Y150000D01*
X46000D01*
X44618Y148618D01*
X40236D01*
X38626Y147008D01*
Y144728D01*
X44126Y139228D01*
Y136854D01*
X38626Y131354D01*
Y128980D01*
X41376Y126230D01*
Y122246D01*
G01X71500Y151500D02*
X65500Y157500D01*
X45134D01*
X41376Y153742D01*
G01Y161616D02*
X45360D01*
X48110Y158866D01*
X50390D01*
X53140Y161616D01*
X58884D01*
X60500Y160000D01*
G01X41376Y208860D02*
X37500Y204984D01*
Y193098D01*
X48110Y182488D01*
Y182390D01*
X50386Y180114D01*
X50390D01*
X52000Y178504D01*
Y178500D01*
X53000Y177500D01*
X60500D01*
X67000Y171000D01*
G01X173600Y88400D02*
X169450Y84250D01*
X163250D01*
X160000Y81000D01*
Y70758D01*
X160450Y70308D01*
Y68692D01*
X160000Y68242D01*
Y62000D01*
X165000Y57000D01*
X175000D01*
X179000Y53000D01*
Y28500D01*
X176000Y25500D01*
X50500D01*
X28000Y48000D01*
Y141500D01*
X37492Y150992D01*
X42516D01*
X45266Y153742D01*
X49250D01*
G01X41376Y169490D02*
X27000Y155114D01*
Y47500D01*
X51000Y23500D01*
X177500D01*
X180500Y26500D01*
Y73600D01*
X173600Y80500D01*
G01X75000Y165000D02*
X48500D01*
X45000Y168500D01*
Y171500D01*
X43000Y173500D01*
X38000D01*
X36000Y175500D01*
Y211000D01*
X39000Y214000D01*
X82500D01*
X87500Y219000D01*
X156000D01*
X159000Y216000D01*
Y193500D01*
X162500Y190000D01*
G01X60000Y173500D02*
Y171500D01*
X57990Y169490D01*
X49250D01*
G01X41376Y200986D02*
X43321Y199041D01*
X43959D01*
X46500Y196500D01*
Y191972D01*
X48110Y190362D01*
X52638D01*
X74250Y168750D01*
X76554D01*
X78750Y166554D01*
Y164250D01*
X96550Y146450D01*
Y139546D01*
X98746Y137350D01*
X104050D01*
X108200Y133200D01*
G01Y141100D02*
X93050Y156250D01*
X90946D01*
X88750Y158446D01*
Y161250D01*
X78750Y171250D01*
X73446D01*
X71250Y173446D01*
Y175250D01*
X53388Y193112D01*
X49250D01*
G01X84500Y177500D02*
X82500Y179500D01*
X70736D01*
X49250Y200986D01*
G01X68500Y262500D02*
X62000Y269000D01*
Y282500D01*
X54500Y290000D01*
X48500D01*
G01X34000Y223000D02*
Y305000D01*
X36500Y307500D01*
X50000D01*
X54000Y311500D01*
Y349500D01*
X57000Y352500D01*
X100000D01*
G01X89000Y57500D02*
X86500Y55000D01*
Y43000D01*
X88500Y41000D01*
X92400D01*
G01X64000Y66000D02*
X74750Y76750D01*
X80750D01*
X84500Y80500D01*
G01X138000Y74500D02*
X136000Y76500D01*
X88400D01*
X84500Y72600D01*
G01X147000Y67000D02*
X141400Y72600D01*
X138858D01*
X138808Y72550D01*
X137192D01*
X137142Y72600D01*
X89804D01*
X86054Y68850D01*
X80350D01*
X76600Y72600D01*
G01X60500Y100000D02*
X72850Y87650D01*
Y86846D01*
X75046Y84650D01*
X86054D01*
X88404Y87000D01*
X133000D01*
X144500Y75500D01*
X157000D01*
G01X63198Y92149D02*
Y92150D01*
G01X76600Y120000D02*
X82100Y125500D01*
X161327D01*
X162277Y124550D01*
X164723D01*
X165673Y125500D01*
X195196D01*
X198446Y128750D01*
X201554D01*
X204804Y125500D01*
X215000D01*
X238500Y149000D01*
Y149158D01*
X240842Y151500D01*
X241000D01*
X241500Y152000D01*
X283500D01*
X288500Y147000D01*
Y93000D01*
X286000Y90500D01*
X285500D01*
G01X84500Y120000D02*
X132000D01*
G01X230000Y115000D02*
X205304D01*
X201554Y111250D01*
X198446D01*
X194696Y115000D01*
X182158D01*
X180808Y113650D01*
X179192D01*
X178792Y114050D01*
X177192D01*
X176242Y115000D01*
X176004D01*
X175154Y115850D01*
X172046D01*
X171196Y115000D01*
X168104D01*
X167254Y115850D01*
X164146D01*
X163296Y115000D01*
X87400D01*
X84500Y112100D01*
G01X86500Y150000D02*
X83500Y147000D01*
X80000D01*
X69000Y136000D01*
Y119700D01*
X76600Y112100D01*
G01X92400Y141100D02*
X96150Y137350D01*
Y130150D01*
X95000Y129000D01*
X90000D01*
X85500Y133500D01*
X72500D01*
G01X92400Y133200D02*
X87100Y138500D01*
X82000D01*
X79500Y141000D01*
G01X142500Y190000D02*
Y183000D01*
X134500Y175000D01*
X75000D01*
G01X132500Y190000D02*
X127750Y194750D01*
X82250D01*
X75000Y187500D01*
G01X122500Y190000D02*
X115500Y183000D01*
X70000D01*
X68500Y184500D01*
Y195500D01*
X70500Y197500D01*
X75000D01*
G01X67000Y370000D02*
X74342D01*
X78342Y366000D01*
X81658D01*
X85658Y370000D01*
X96000D01*
X100000Y374000D01*
G01X80000Y410000D02*
Y383000D01*
X67000Y370000D01*
G01X92400Y48900D02*
Y55400D01*
X94500Y57500D01*
G01X115500Y56000D02*
X109500D01*
X104050Y50550D01*
Y44750D01*
X100300Y41000D01*
G01Y48900D02*
Y55800D01*
G01X172000Y29500D02*
X116000D01*
X112350Y33150D01*
Y45150D01*
X116100Y48900D01*
G01X166000Y33000D02*
X124000D01*
X120250Y36750D01*
Y45150D01*
X124000Y48900D01*
G01X107000Y68500D02*
X109000D01*
X114500Y63000D01*
G01X124000Y67500D02*
X117000Y60500D01*
X108450D01*
X107450Y61500D01*
X105500D01*
G01X97000Y62500D02*
Y68000D01*
X100379Y71379D01*
X133121D01*
X134500Y70000D01*
G01X97000Y84000D02*
X126000D01*
G01X95500Y89500D02*
X136000D01*
X138500Y87000D01*
X157000D01*
X158500Y88500D01*
Y100750D01*
X161950Y104200D01*
X165700D01*
G01X155000Y96000D02*
X152000Y99000D01*
X127000D01*
X124500Y96500D01*
X98500D01*
G01X230000Y152500D02*
Y146500D01*
X228500Y145000D01*
X181500D01*
X169700Y133200D01*
X153004D01*
X149254Y129450D01*
X130346D01*
X127750Y132046D01*
Y134754D01*
X125554Y136950D01*
X111950D01*
X108200Y133200D01*
G01X200000Y152500D02*
X115000D01*
X108200Y145700D01*
Y141100D01*
G01X111000Y152000D02*
X106000Y147000D01*
X105500D01*
G01X184000Y158000D02*
Y161500D01*
X179000Y166500D01*
X99000D01*
X92500Y160000D01*
G01X179500Y162000D02*
X176000Y165500D01*
X118000D01*
X112500Y160000D01*
G01X102500D02*
X107196D01*
X110946Y156250D01*
X114054D01*
X116858Y159054D01*
X118142D01*
X120946Y156250D01*
X124054D01*
X126858Y159054D01*
X128142D01*
X130946Y156250D01*
X137750D01*
X138000Y156000D01*
G01X112500Y190000D02*
X116250Y193750D01*
X124054D01*
X127000Y190804D01*
Y189696D01*
X129696Y187000D01*
X130196D01*
X130946Y186250D01*
X134054D01*
X136250Y188446D01*
Y191554D01*
X134500Y193304D01*
Y196500D01*
X134000Y197000D01*
X113000D01*
X107500Y202500D01*
X100000D01*
G01X160500Y332500D02*
X152500Y324500D01*
X124000D01*
X122000Y322500D01*
Y280500D01*
X121500Y280000D01*
X112500D01*
G01X222500Y395000D02*
X217000Y389500D01*
X207500D01*
X206000Y391000D01*
Y396500D01*
X201853Y400647D01*
X201147D01*
X199500Y399000D01*
X190500D01*
X185000Y393500D01*
X182500D01*
X181500Y392500D01*
Y384000D01*
X166250Y368750D01*
Y367446D01*
X164054Y365250D01*
X163750D01*
X161500Y363000D01*
X159000D01*
X157000Y361000D01*
X118500D01*
X100000Y342500D01*
G01Y396500D02*
X106000Y390500D01*
Y387000D01*
X118000Y375000D01*
X136500D01*
X142500Y369000D01*
G01X100000Y374000D02*
X127500D01*
X132500Y369000D01*
G01X174250Y47250D02*
X163250D01*
X153000Y57500D01*
X133000D01*
X127750Y52250D01*
Y44750D01*
X124000Y41000D01*
G01X145000Y103000D02*
X126000D01*
G01X131500Y111000D02*
X137500D01*
G01X140000Y96000D02*
X131500D01*
G01X127000Y117000D02*
X159500D01*
G01X131900Y133200D02*
X135700Y137000D01*
X150000D01*
X151000Y136000D01*
X170500D01*
X181500Y147000D01*
X205500D01*
X207500Y149000D01*
Y185000D01*
X205500Y187000D01*
X189000D01*
X182500Y193500D01*
Y212000D01*
X187500Y217000D01*
X247500D01*
X253140Y211360D01*
X271376D01*
G01X124000Y133200D02*
X130700Y126500D01*
X161742D01*
X162692Y125550D01*
X164308D01*
X165258Y126500D01*
X190500D01*
X193500Y129500D01*
Y137000D01*
X198500Y142000D01*
X200742D01*
X201692Y141050D01*
X203308D01*
X204258Y142000D01*
X227500D01*
X244000Y158500D01*
X258000D01*
X265000Y165500D01*
Y181362D01*
X265050Y181412D01*
Y181808D01*
X266192Y182950D01*
X266950D01*
X268988Y184988D01*
X272516D01*
X274126Y186598D01*
Y190488D01*
X279250Y195612D01*
G01X158500Y146000D02*
X120500D01*
G01X193000Y150000D02*
X180500D01*
X178500Y148000D01*
X134500D01*
G01X152500Y190000D02*
X147500Y195000D01*
X142000D01*
X134500Y202500D01*
X122500D01*
G01X137000Y277500D02*
X145500D01*
X153000Y285000D01*
G01X127500Y345000D02*
X152500D01*
G01X177500D02*
X171500Y339000D01*
X123000D01*
X122500Y339500D01*
Y350000D01*
X127500Y355000D01*
G01X122500Y369000D02*
X126250Y365250D01*
G01D02*
X127500Y364000D01*
X157500D01*
X162500Y369000D01*
G01X126250Y365250D02*
X138750D01*
X142500Y369000D01*
G01X165700Y80500D02*
X168352Y83152D01*
X170948D01*
X172046Y84250D01*
X176250D01*
X181250Y79250D01*
X190750D01*
G01X187500Y120000D02*
X173600D01*
G01X151000Y122500D02*
X153500Y120000D01*
X165700D01*
G01Y112100D02*
X168352Y109448D01*
Y109148D01*
X169850Y107650D01*
Y102646D01*
X172046Y100450D01*
X177050D01*
X186000Y91500D01*
X192000D01*
X233750Y49750D01*
Y40946D01*
X235946Y38750D01*
X241250D01*
X247500Y32500D01*
G01X173600Y112100D02*
X187400D01*
X193304Y106196D01*
X193500D01*
X253750Y45946D01*
Y40946D01*
X255946Y38750D01*
X261250D01*
X267500Y32500D01*
G01X173000Y130000D02*
X157500D01*
G01X163500Y127500D02*
X176000D01*
X176500Y128000D01*
X190500D01*
X192500Y130000D01*
Y137500D01*
X198000Y143000D01*
X202500D01*
G01X181000Y176000D02*
X158000D01*
G01X164500Y171000D02*
X183500D01*
X187000Y167500D01*
X193000D01*
G01X210000Y355000D02*
X201500Y363500D01*
X169000D01*
X155152Y349652D01*
Y347652D01*
X152500Y345000D01*
G01X172500Y369000D02*
X163000Y359500D01*
X157000D01*
X152500Y355000D01*
G01X177500Y345000D02*
X171000Y351500D01*
Y359000D01*
X174000Y362000D01*
X200500D01*
X204000Y358500D01*
Y353500D01*
X207500Y350000D01*
Y348500D01*
G01X213000Y176500D02*
X230500Y194000D01*
X243500D01*
X248000Y198500D01*
X268000D01*
X270236Y200736D01*
X272516D01*
X274126Y202346D01*
Y204626D01*
X278110Y208610D01*
X280390D01*
X282000Y210220D01*
Y212500D01*
X297500Y228000D01*
Y252000D01*
X294500Y255000D01*
X238000D01*
X189500Y303500D01*
Y352500D01*
X187000Y355000D01*
X177500D01*
G01X162500Y369000D02*
X178000Y384500D01*
Y399804D01*
X180946Y402750D01*
X202250D01*
X210000Y395000D01*
G01X172500Y369000D02*
X176500Y373000D01*
X190000D01*
X191000Y374000D01*
Y393500D01*
X192500Y395000D01*
X197500D01*
G01X201500Y71000D02*
Y42000D01*
X198000Y38500D01*
X188000D01*
G01X202000Y77500D02*
X199500Y75000D01*
Y45500D01*
X195000Y41000D01*
X193000D01*
G01X206000Y69000D02*
Y41000D01*
X198000Y33000D01*
X186000D01*
G01X207500Y83000D02*
Y87379D01*
X201000Y93879D01*
X195879D01*
X194500Y92500D01*
G01X267000Y181000D02*
Y165500D01*
X259000Y157500D01*
X245000D01*
X222000Y134500D01*
X214000D01*
X207000Y127500D01*
G01X209000Y147000D02*
Y160000D01*
X226500Y177500D01*
X242000D01*
X250000Y185500D01*
X261500D01*
X262000Y186000D01*
Y186236D01*
X271376Y195612D01*
G01X187500Y140000D02*
Y130500D01*
G01X188000Y164000D02*
X193500Y158500D01*
G01X210000Y355000D02*
X222500D01*
G01X182500Y369000D02*
X222500D01*
X229000Y362500D01*
Y351500D01*
X226000Y348500D01*
X207500D01*
G01D02*
X204000D01*
X197500Y355000D01*
G01X230000Y115000D02*
X265374D01*
X268626Y111748D01*
Y107858D01*
X270236Y106248D01*
X274126D01*
X279250Y101124D01*
G01X230000Y115000D02*
Y119696D01*
X233750Y123446D01*
Y126554D01*
X230946Y129358D01*
Y130642D01*
X233750Y133446D01*
Y138750D01*
X242500Y147500D01*
G01X230000Y105000D02*
X235000D01*
X242500Y97500D01*
G01X212000Y110500D02*
Y91500D01*
G01X213500Y157500D02*
X235000D01*
X237500Y160000D01*
X257500D01*
X264000Y166500D01*
Y186000D01*
X270862Y192862D01*
X272516D01*
X274126Y194472D01*
Y198362D01*
X279250Y203486D01*
G01X222000Y189500D02*
X228000Y195500D01*
X242500D01*
X250486Y203486D01*
X271376D01*
G01X237500Y32500D02*
X240000D01*
X245000Y27500D01*
X273500D01*
X275000Y29000D01*
Y79000D01*
X266000Y88000D01*
Y92500D01*
X270000Y96500D01*
X276000D01*
X279250Y93250D01*
G01X251000Y83000D02*
Y99500D01*
G01X271376Y101124D02*
X252134D01*
X251808Y101450D01*
X250192D01*
X249866Y101124D01*
X249624D01*
X249500Y101000D01*
X246000D01*
X242500Y97500D01*
G01X246000Y123000D02*
X247379Y124379D01*
X247387D01*
X271376Y148368D01*
G01X285500Y90500D02*
X288308Y87692D01*
Y82734D01*
X290992Y80050D01*
Y80008D01*
X292500Y78500D01*
Y32000D01*
X286500Y26000D01*
X234000D01*
X227500Y32500D01*
G01X293421Y85000D02*
Y165693D01*
X279250Y179864D01*
G01X285500Y90500D02*
X274126D01*
X271376Y93250D01*
M02*
