G04 ================== begin FILE IDENTIFICATION RECORD ==================*
G04 Layout Name:  C:/Cadence/Projects/i2c_switch/i2c_switch.brd*
G04 Film Name:    BOTTOM*
G04 File Format:  Gerber RS274X*
G04 File Origin:  Cadence Allegro 16.3-p003*
G04 Origin Date:  Tue Jul 28 03:32:18 2020*
G04 *
G04 Layer:  ETCH/BOTTOM*
G04 Layer:  PIN/BOTTOM*
G04 Layer:  VIA CLASS/BOTTOM*
G04 *
G04 Offset:    (0.00 0.00)*
G04 Mirror:    No*
G04 Mode:      Positive*
G04 Rotation:  0*
G04 FullContactRelief:  No*
G04 UndefLineWidth:     8.00*
G04 ================== end FILE IDENTIFICATION RECORD ====================*
%FSLAX55Y55*MOIN*%
%IR0*IPPOS*OFA0.00000B0.00000*MIA0B0*SFA1.00000B1.00000*%
%ADD12C,.06*%
%ADD11C,.024*%
%ADD10C,.025*%
%ADD14C,.08*%
%ADD13C,.065*%
%ADD15R,.06X.06*%
%ADD16C,.005*%
%ADD17C,.007*%
%ADD18C,.009*%
G75*
%LPD*%
G75*
G54D10*
X95000Y53000D03*
Y476000D03*
X421000Y53000D03*
Y476000D03*
G54D11*
X114300Y127000D03*
X137252Y117000D03*
Y127000D03*
X143851Y303747D03*
X124748Y329000D03*
X146000D03*
X163252Y170000D03*
X150748Y228000D03*
X159700Y301598D03*
X170000Y443648D03*
X167949Y440749D03*
X178348Y143300D03*
Y139700D03*
Y154800D03*
X187000Y310000D03*
X204801Y440252D03*
X177503Y457600D03*
X212902Y303748D03*
X210752Y320000D03*
Y340000D03*
X216000Y443648D03*
X236950Y440252D03*
X229300D03*
X222252Y430000D03*
Y450400D03*
X224598Y443151D03*
X246000Y214300D03*
X254800Y303748D03*
X265752Y321000D03*
X239252Y352000D03*
X265752Y341000D03*
X266700Y374000D03*
X243000Y440252D03*
X262000Y443648D03*
X267448Y135400D03*
X291050Y209000D03*
X267448Y219000D03*
X273613Y303748D03*
X290300Y313000D03*
X303300Y78748D03*
X303050Y135400D03*
X302300Y219000D03*
X316200Y254252D03*
X327000Y303748D03*
X298950D03*
X312000Y369300D03*
X322000D03*
X308000Y443648D03*
X302700Y454000D03*
X354450Y166500D03*
X338700Y183000D03*
X347051Y254252D03*
X356950Y247000D03*
X353000Y303748D03*
X330700D03*
X353000Y330700D03*
X333252Y323000D03*
X342000Y346000D03*
X333252Y351000D03*
X332000Y369300D03*
X354000Y443648D03*
X348700Y454000D03*
X360300Y78748D03*
X368700Y173000D03*
X363000Y320700D03*
Y331300D03*
X398387Y303748D03*
X395300Y364000D03*
Y410000D03*
X400000Y443648D03*
X403700Y440252D03*
X394700Y454000D03*
G54D12*
X131000Y117000D03*
X121000D03*
X131000Y107000D03*
X121000D03*
X131000Y97000D03*
X121000D03*
X131000Y127000D03*
X121000D03*
X131000Y153000D03*
X121000D03*
X131000Y183000D03*
Y173000D03*
X121000Y183000D03*
Y173000D03*
X131000Y163000D03*
X121000D03*
X131000Y209000D03*
X121000D03*
X131000Y239000D03*
Y229000D03*
X121000Y239000D03*
Y229000D03*
X131000Y219000D03*
X121000D03*
X131000Y265000D03*
X121000D03*
X131000Y295000D03*
Y285000D03*
X121000Y295000D03*
Y285000D03*
X131000Y275000D03*
X121000D03*
X131000Y329000D03*
Y339000D03*
X140000Y454000D03*
X156000Y329000D03*
Y339000D03*
X171000Y375000D03*
Y365000D03*
X150000Y454000D03*
X160000D03*
X170000D03*
X208300Y88000D03*
X200400D03*
X208300Y95900D03*
X200400D03*
X192500Y111700D03*
X184600D03*
X192500Y119600D03*
X184600D03*
X192500Y127500D03*
X184600D03*
X192500Y135400D03*
X184600D03*
X192500Y143300D03*
X184600D03*
X192500Y151200D03*
X184600D03*
X200400Y180200D03*
X208300D03*
X192500Y159100D03*
X184600D03*
X192500Y167000D03*
X184600D03*
X200400Y188100D03*
X208300D03*
X203000Y375000D03*
Y365000D03*
X186000Y454000D03*
X196000D03*
X206000D03*
X232000Y88000D03*
X224100D03*
X216200D03*
X232000Y95900D03*
X224100D03*
X216200D03*
Y180200D03*
X224100D03*
X232000D03*
X216200Y188100D03*
X224100D03*
X232000D03*
X235000Y375000D03*
Y365000D03*
X237000Y411000D03*
Y401000D03*
X233000Y433000D03*
X232000Y454000D03*
X216000D03*
X255700Y88000D03*
X247800D03*
X239900D03*
X255700Y95900D03*
X247800D03*
X239900D03*
Y180200D03*
X247800D03*
X255700D03*
X239900Y188100D03*
X247800D03*
X255700D03*
X246000Y209000D03*
Y219000D03*
X243000Y433000D03*
X262000Y434000D03*
X242000Y454000D03*
X252000D03*
X262000D03*
X273700Y119600D03*
X281600D03*
X273700Y111700D03*
X281600D03*
X273700Y151200D03*
X281600D03*
X273700Y143300D03*
X281600D03*
X273700Y135400D03*
X281600D03*
X273700Y127500D03*
X281600D03*
X273700Y167000D03*
X281600D03*
X273700Y159100D03*
X281600D03*
X274000Y209000D03*
Y219000D03*
X295000Y313000D03*
Y323000D03*
X292000Y374000D03*
X282000D03*
X272000D03*
Y434000D03*
X282000D03*
X292000D03*
X278000Y454000D03*
X288000D03*
X298000D03*
X307000Y85000D03*
Y95000D03*
Y120000D03*
Y149000D03*
Y130000D03*
Y159000D03*
Y181000D03*
Y191000D03*
Y209000D03*
Y219000D03*
X327000Y323000D03*
Y313000D03*
Y351000D03*
Y341000D03*
X322000Y374000D03*
X312000D03*
X302000D03*
Y434000D03*
X312000D03*
X322000D03*
X324000Y454000D03*
X308000D03*
X334000Y103000D03*
Y113000D03*
Y123000D03*
Y133000D03*
Y143000D03*
Y153000D03*
Y163000D03*
Y173000D03*
X343000Y206000D03*
Y196000D03*
Y220000D03*
Y230000D03*
X353000Y326000D03*
Y316000D03*
Y346000D03*
Y336000D03*
X352000Y374000D03*
X342000D03*
X332000D03*
Y434000D03*
X342000D03*
X352000D03*
X334000Y454000D03*
X344000D03*
X354000D03*
X364000Y103000D03*
Y113000D03*
Y123000D03*
X385000Y117000D03*
Y107000D03*
Y97000D03*
X364000Y133000D03*
Y143000D03*
Y153000D03*
X385000Y127000D03*
Y153000D03*
X364000Y163000D03*
Y173000D03*
Y183000D03*
X385000D03*
Y173000D03*
Y163000D03*
Y209000D03*
Y239000D03*
Y229000D03*
Y219000D03*
Y265000D03*
Y295000D03*
Y285000D03*
Y275000D03*
X363000Y326000D03*
Y316000D03*
Y346000D03*
Y336000D03*
X372000Y374000D03*
X362000D03*
Y434000D03*
X372000D03*
X370000Y454000D03*
X380000D03*
X395000Y117000D03*
Y107000D03*
Y97000D03*
Y127000D03*
Y153000D03*
Y183000D03*
Y173000D03*
Y163000D03*
Y209000D03*
Y239000D03*
Y229000D03*
Y219000D03*
Y265000D03*
Y295000D03*
Y285000D03*
Y275000D03*
X400000Y364000D03*
Y354000D03*
Y384000D03*
Y374000D03*
Y420000D03*
Y410000D03*
Y400000D03*
Y430000D03*
X390000Y454000D03*
X400000D03*
G54D13*
X157000Y130000D03*
Y170000D03*
Y188000D03*
Y228000D03*
X175000Y310000D03*
Y350000D03*
X233000Y312000D03*
Y352000D03*
X216000Y390000D03*
Y430000D03*
X312000Y247000D03*
X352000D03*
X367000Y208000D03*
Y248000D03*
G54D14*
X204000Y320000D03*
Y330000D03*
Y340000D03*
X259000Y331000D03*
Y321000D03*
Y341000D03*
G54D15*
X262000Y374000D03*
X334000Y183000D03*
G54D16*
G01X131000Y107000D02*
X185204D01*
X188350Y110146D01*
Y152354D01*
X192500Y156504D01*
Y159100D01*
G01X121000Y183000D02*
X117250Y179250D01*
Y115446D01*
X120996Y111700D01*
X184600D01*
G01X239900Y88000D02*
X236150Y91750D01*
X120946D01*
X116250Y96446D01*
Y270250D01*
X121000Y275000D01*
G01X157000Y130000D02*
X153000Y134000D01*
X142000D01*
X125750Y150250D01*
Y168250D01*
X121000Y173000D01*
G01X282000Y374000D02*
X214000Y306000D01*
X203585D01*
X188350Y290765D01*
Y162850D01*
X184600Y159100D01*
G01X192500D02*
X196250Y162850D01*
Y242250D01*
X251060Y297060D01*
Y297250D01*
X286750Y332940D01*
Y368750D01*
X292000Y374000D01*
G01X352000Y434000D02*
X337402Y448598D01*
X334098D01*
X328750Y453946D01*
Y454554D01*
X325554Y457750D01*
X189750D01*
X186000Y454000D01*
G01X385000Y285000D02*
X254735D01*
X220350Y250615D01*
Y184350D01*
X216200Y180200D01*
G01X385000Y295000D02*
X259000D01*
X208300Y244300D01*
Y188100D01*
G01X232000Y454000D02*
X239402Y446598D01*
X319402D01*
X332000Y434000D01*
G01X247800Y95900D02*
Y106904D01*
X272146Y131250D01*
X282754D01*
X285350Y133846D01*
Y144854D01*
X282754Y147450D01*
X267346D01*
X236150Y178646D01*
Y214454D01*
X286696Y265000D01*
X385000D01*
G01X255700Y95900D02*
X276800D01*
X281450Y91250D01*
X394554D01*
X399750Y96446D01*
Y265554D01*
X395554Y269750D01*
X390250D01*
X385000Y275000D01*
G01X395000Y173000D02*
X391250Y176750D01*
X298850D01*
X283750Y191850D01*
X243650D01*
X239900Y188100D01*
G01X385000Y107000D02*
X303950D01*
X291350Y119600D01*
X281600D01*
G01X395000Y107000D02*
X389750Y101750D01*
X377250D01*
X374750Y99250D01*
X288746D01*
X277450Y110546D01*
Y115850D01*
X273700Y119600D01*
G01X281600Y159100D02*
X288251D01*
X302101Y145250D01*
X318250D01*
X320750Y147750D01*
X389750D01*
X395000Y153000D01*
G01X272000Y434000D02*
X275750Y430250D01*
X363554D01*
X365750Y432446D01*
Y449750D01*
X370000Y454000D01*
G01X307000Y149000D02*
X330000D01*
X334000Y153000D01*
G01X307000Y130000D02*
X320000Y143000D01*
X334000D01*
G01X307000Y159000D02*
X321000Y173000D01*
X334000D01*
G01X395000Y163000D02*
X398750Y159250D01*
Y151446D01*
X385054Y137750D01*
X363446D01*
X338696Y113000D01*
X334000D01*
G01X352000Y374000D02*
X362000Y384000D01*
X400000D01*
G01X395000Y183000D02*
X382250Y195750D01*
X379250D01*
X367000Y208000D01*
G54D17*
G01X246000Y219000D02*
Y214300D01*
G01X262000Y374000D02*
X266700D01*
G01X322000D02*
Y369300D01*
G01X312000Y374000D02*
Y369300D01*
G01X298000Y454000D02*
X302700D01*
G01X344000D02*
X348700D01*
G01X400000Y364000D02*
X395300D01*
G01X400000Y410000D02*
X395300D01*
G01X390000Y454000D02*
X394700D01*
G54D18*
G01X131000Y153000D02*
X148600Y135400D01*
X184600D01*
G01X171000Y375000D02*
Y437698D01*
X167949Y440749D01*
G01X192500Y135400D02*
X196450Y139350D01*
X277650D01*
X281600Y143300D01*
G01X203000Y375000D02*
Y394250D01*
X204801Y396051D01*
Y440252D01*
G01X216000Y454000D02*
Y443648D01*
G01X295000Y323000D02*
X298950Y319050D01*
Y303748D01*
G01X307000Y181000D02*
X316200Y190200D01*
Y254252D01*
G01X395000Y229000D02*
X391050Y232950D01*
X345950D01*
X343000Y230000D01*
G01X327000Y313000D02*
Y303748D01*
G01X353000Y316000D02*
Y303748D01*
G01X400000Y454000D02*
Y443648D01*
M02*
