G04 ================== begin FILE IDENTIFICATION RECORD ==================*
G04 Layout Name:  C:/Cadence/Projects/i2c_switch/i2c_switch.brd*
G04 Film Name:    BOTTOM*
G04 File Format:  Gerber RS274X*
G04 File Origin:  Cadence Allegro 16.3-p003*
G04 Origin Date:  Sat Aug 08 14:24:34 2020*
G04 *
G04 Layer:  ETCH/BOTTOM*
G04 Layer:  PIN/BOTTOM*
G04 Layer:  VIA CLASS/BOTTOM*
G04 *
G04 Offset:    (0.00 0.00)*
G04 Mirror:    No*
G04 Mode:      Positive*
G04 Rotation:  0*
G04 FullContactRelief:  No*
G04 UndefLineWidth:     8.00*
G04 ================== end FILE IDENTIFICATION RECORD ====================*
%FSLAX55Y55*MOIN*%
%IR0*IPPOS*OFA0.00000B0.00000*MIA0B0*SFA1.00000B1.00000*%
%ADD12C,.024*%
%ADD11C,.06*%
%ADD10C,.025*%
%ADD14C,.08*%
%ADD13C,.065*%
%ADD15R,.06X.06*%
%ADD16C,.005*%
%ADD17C,.007*%
%ADD18C,.009*%
G75*
%LPD*%
G75*
G54D10*
X95000Y53000D03*
Y476000D03*
X421000Y53000D03*
Y476000D03*
G54D11*
X131000Y117000D03*
X121000D03*
X131000Y107000D03*
X121000D03*
X131000Y97000D03*
X121000D03*
X131000Y127000D03*
X121000D03*
X131000Y153000D03*
X121000D03*
X131000Y183000D03*
Y173000D03*
X121000Y183000D03*
Y173000D03*
X131000Y163000D03*
X121000D03*
X131000Y209000D03*
X121000D03*
X131000Y239000D03*
Y229000D03*
X121000Y239000D03*
Y229000D03*
X131000Y219000D03*
X121000D03*
X131000Y265000D03*
X121000D03*
X131000Y295000D03*
Y285000D03*
X121000Y295000D03*
Y285000D03*
X131000Y275000D03*
X121000D03*
X131000Y329000D03*
Y339000D03*
X140000Y454000D03*
X176000Y272000D03*
X166000D03*
X176000Y287000D03*
X166000D03*
X156000Y329000D03*
Y339000D03*
X171000Y375000D03*
Y365000D03*
X170000Y454000D03*
X160000D03*
X150000D03*
X208300Y88000D03*
X200400D03*
X208300Y95900D03*
X200400D03*
X192500Y111700D03*
X184600D03*
X192500Y119600D03*
X184600D03*
X192500Y127500D03*
X184600D03*
X192500Y135400D03*
X184600D03*
X192500Y143300D03*
X184600D03*
X192500Y151200D03*
X184600D03*
X200400Y180200D03*
X208300D03*
X192500Y159100D03*
X184600D03*
X192500Y167000D03*
X184600D03*
X200400Y188100D03*
X208300D03*
X196000Y272000D03*
X186000D03*
X196000Y287000D03*
X186000D03*
X203000Y375000D03*
Y365000D03*
X206000Y454000D03*
X196000D03*
X186000D03*
X232000Y88000D03*
X224100D03*
X216200D03*
X232000Y95900D03*
X224100D03*
X216200D03*
Y180200D03*
X224100D03*
X232000D03*
X216200Y188100D03*
X224100D03*
X232000D03*
X231000Y272000D03*
X221000D03*
X211000D03*
X231000Y287000D03*
X221000D03*
X211000D03*
X235000Y375000D03*
Y365000D03*
X237000Y411000D03*
Y401000D03*
X232000Y454000D03*
X216000D03*
X255700Y88000D03*
X247800D03*
X239900D03*
X255700Y95900D03*
X247800D03*
X239900D03*
Y180200D03*
X247800D03*
X255700D03*
X239900Y188100D03*
X247800D03*
X255700D03*
X246000Y209000D03*
Y219000D03*
X266000Y272000D03*
X256000D03*
X241000D03*
X266000Y287000D03*
X256000D03*
X241000D03*
X264000Y438000D03*
X262000Y454000D03*
X252000D03*
X242000D03*
X273700Y119600D03*
X281600D03*
X273700Y111700D03*
X281600D03*
X273700Y151200D03*
X281600D03*
X273700Y143300D03*
X281600D03*
X273700Y135400D03*
X281600D03*
X273700Y127500D03*
X281600D03*
X273700Y167000D03*
X281600D03*
X273700Y159100D03*
X281600D03*
X274000Y209000D03*
Y219000D03*
X286000Y272000D03*
X276000D03*
X286000Y287000D03*
X276000D03*
X295000Y313000D03*
Y323000D03*
X294000Y378000D03*
X284000D03*
X274000D03*
Y438000D03*
X284000D03*
X294000D03*
X298000Y454000D03*
X288000D03*
X278000D03*
X307000Y85000D03*
Y95000D03*
Y120000D03*
Y149000D03*
Y130000D03*
Y159000D03*
Y181000D03*
Y191000D03*
Y209000D03*
Y219000D03*
X321000Y272000D03*
X311000D03*
X301000D03*
X321000Y287000D03*
X311000D03*
X301000D03*
X327000Y323000D03*
Y313000D03*
Y351000D03*
Y341000D03*
X314000Y367000D03*
X304000D03*
X324000Y378000D03*
X314000D03*
X304000D03*
Y438000D03*
X314000D03*
X324000D03*
Y454000D03*
X308000D03*
X334000Y103000D03*
Y113000D03*
Y123000D03*
Y133000D03*
Y143000D03*
Y153000D03*
Y163000D03*
Y173000D03*
X343000Y206000D03*
Y196000D03*
Y220000D03*
Y230000D03*
X331000Y272000D03*
Y287000D03*
X353000Y316000D03*
X354000Y378000D03*
X344000D03*
X334000D03*
Y438000D03*
X344000D03*
X354000D03*
Y454000D03*
X344000D03*
X334000D03*
X364000Y103000D03*
Y113000D03*
Y123000D03*
X385000Y117000D03*
Y107000D03*
Y97000D03*
X364000Y133000D03*
Y143000D03*
Y153000D03*
X385000Y127000D03*
Y153000D03*
X364000Y163000D03*
Y173000D03*
Y183000D03*
X385000D03*
Y173000D03*
Y163000D03*
Y209000D03*
Y239000D03*
Y229000D03*
Y219000D03*
Y265000D03*
Y295000D03*
Y285000D03*
Y275000D03*
X383000Y316000D03*
X373000D03*
X363000D03*
X374000Y378000D03*
X364000D03*
Y438000D03*
X374000D03*
X380000Y454000D03*
X370000D03*
X395000Y117000D03*
Y107000D03*
Y97000D03*
Y127000D03*
Y153000D03*
Y183000D03*
Y173000D03*
Y163000D03*
Y209000D03*
Y239000D03*
Y229000D03*
Y219000D03*
Y265000D03*
Y295000D03*
Y285000D03*
Y275000D03*
X400000Y364000D03*
Y354000D03*
Y384000D03*
Y374000D03*
Y420000D03*
Y410000D03*
Y400000D03*
Y454000D03*
X390000D03*
X400000Y430000D03*
G54D12*
X135700Y117000D03*
X121000Y131700D03*
X131000D03*
X141949Y303653D03*
X144000Y305704D03*
X124748Y329000D03*
X140000Y445698D03*
X132801Y444252D03*
X171498Y130000D03*
X157000Y165050D03*
X175398Y181300D03*
X176000Y256748D03*
X173100D03*
X162050D03*
X166000Y267300D03*
X162252Y329000D03*
X164748Y310000D03*
X173700Y444252D03*
X150000Y458700D03*
X197200Y143300D03*
Y151200D03*
X183050Y188000D03*
X206100Y200750D03*
X179700Y256748D03*
X204150Y265950D03*
X186000Y445698D03*
X204801Y444252D03*
X200700Y454000D03*
X221000Y256748D03*
X217300D03*
X234200D03*
X211800Y247001D03*
X227700Y258698D03*
X211000Y277751D03*
X210752Y320000D03*
Y340000D03*
X237000Y396300D03*
X232000Y445698D03*
X220950Y430000D03*
X255700Y134900D03*
X255925Y219000D03*
X266000Y256748D03*
X260400D03*
X256000Y278001D03*
X259000Y315300D03*
X239252Y352000D03*
X252248Y341000D03*
X259300Y378000D03*
X242000Y460700D03*
X269851Y78748D03*
X291050Y209000D03*
X291300Y256748D03*
X296300Y272000D03*
X281500Y265950D03*
X296300Y287000D03*
X295000Y308300D03*
X280150Y444700D03*
X277250Y444800D03*
X288000Y460700D03*
X310950Y78748D03*
X311700Y219000D03*
X311000Y256748D03*
X307300D03*
X327000D03*
X303051Y254790D03*
X314000Y382700D03*
X324000Y444800D03*
X317700Y444700D03*
X354450Y166500D03*
X338700Y183000D03*
X339050Y254790D03*
X334700Y256748D03*
X353000Y320700D03*
X333252Y323000D03*
Y351000D03*
X334000Y367250D03*
Y460700D03*
X360301Y78748D03*
X359300Y173000D03*
X367949Y256748D03*
X362050Y248000D03*
X363000Y311300D03*
X368000Y334000D03*
X378050Y366000D03*
X370000Y445698D03*
X380000Y449300D03*
X396800Y256748D03*
X404700Y364000D03*
Y410000D03*
X406849Y444252D03*
G54D13*
X157000Y130000D03*
Y170000D03*
Y188000D03*
Y228000D03*
X175000Y310000D03*
Y350000D03*
X233000Y312000D03*
Y352000D03*
X216000Y390000D03*
Y430000D03*
X312000Y247000D03*
X352000D03*
X367000Y208000D03*
Y248000D03*
X363000Y263000D03*
Y303000D03*
X383000Y326000D03*
Y366000D03*
G54D14*
X204000Y320000D03*
Y330000D03*
Y340000D03*
X259000Y331000D03*
Y321000D03*
Y341000D03*
G54D15*
X264000Y378000D03*
X334000Y183000D03*
G54D16*
G01X239900Y88000D02*
X236150Y91750D01*
X120250D01*
X115250Y96750D01*
Y269250D01*
X121000Y275000D01*
G01X131000Y107000D02*
X185350D01*
X188350Y110000D01*
Y154950D01*
X192500Y159100D01*
G01X121000Y183000D02*
X117250Y179250D01*
Y114700D01*
X120250Y111700D01*
X184600D01*
G01X216200Y95900D02*
X210350Y101750D01*
X120250D01*
X116250Y105750D01*
Y220250D01*
X121250Y225250D01*
X127250D01*
X131000Y229000D01*
G01X121000Y173000D02*
X125750Y177750D01*
X171848D01*
X175398Y181300D01*
G01X131000Y275000D02*
X144302Y261698D01*
X178350D01*
X188350Y251698D01*
Y186649D01*
X202000Y172999D01*
X224799D01*
X232000Y180200D01*
G01X121000Y285000D02*
X124750Y281250D01*
X217750D01*
X225750Y273250D01*
Y189750D01*
X224100Y188100D01*
G01X183050Y188000D02*
X157000D01*
G01X364000Y438000D02*
Y449750D01*
X355000Y458750D01*
X164750D01*
X160000Y454000D01*
G01X200400Y180200D02*
X204150Y183950D01*
Y198800D01*
X206100Y200750D01*
G01X385000Y285000D02*
X380951Y280951D01*
X244150D01*
X236150Y272951D01*
Y185950D01*
X234150Y183950D01*
X219950D01*
X216200Y180200D01*
G01X354000Y438000D02*
X350250Y434250D01*
X302250D01*
X298750Y437750D01*
Y438750D01*
X295750Y441750D01*
X228250D01*
X216000Y454000D01*
G01X344000Y438000D02*
X338750Y443250D01*
Y454750D01*
X335750Y457750D01*
X209750D01*
X206000Y454000D01*
G01X255700Y95900D02*
Y134900D01*
G01X395000Y173000D02*
X391250Y176750D01*
X299850D01*
X283750Y192850D01*
X244650D01*
X239900Y188100D01*
G01X324000Y438000D02*
X319250Y442750D01*
X263250D01*
X252000Y454000D01*
G01X262000D02*
X269250Y446750D01*
X325250D01*
X334000Y438000D01*
G01X385000Y107000D02*
X294200D01*
X281600Y119600D01*
G01X395000Y107000D02*
X389750Y101750D01*
X377250D01*
X374750Y99250D01*
X287800D01*
X277450Y109600D01*
Y115850D01*
X273700Y119600D01*
G01X281600Y135400D02*
X308400D01*
X320750Y147750D01*
X395750D01*
X398750Y150750D01*
Y155250D01*
X395250Y158750D01*
X393250D01*
X391250Y160750D01*
Y164949D01*
X394750Y168449D01*
X396750D01*
X398750Y170449D01*
Y205250D01*
X395000Y209000D01*
G01X281600Y159100D02*
X285450Y155250D01*
X319250D01*
X320750Y156750D01*
X391250D01*
X395000Y153000D01*
G01X363000Y263000D02*
X284450D01*
X281500Y265950D01*
G01X331000Y272000D02*
X327250Y268250D01*
X289750D01*
X286000Y272000D01*
G01X321000D02*
X316250Y276750D01*
X280750D01*
X276000Y272000D01*
G01X400000Y454000D02*
X378250Y432250D01*
X279750D01*
X274000Y438000D01*
G01X307000Y149000D02*
X330000D01*
X334000Y153000D01*
G01X307000Y130000D02*
X320000Y143000D01*
X334000D01*
G01X307000Y159000D02*
X321000Y173000D01*
X334000D01*
G01X395000Y163000D02*
X396000D01*
X400750Y158250D01*
Y148250D01*
X390250Y137750D01*
X358750D01*
X334000Y113000D01*
G01X354000Y378000D02*
X360000Y384000D01*
X400000D01*
G01X395000Y183000D02*
X392000D01*
X367000Y208000D01*
G54D17*
G01X166000Y287000D02*
X149347Y303653D01*
X141949D01*
G01X157000Y170000D02*
Y165050D01*
G01X150000Y454000D02*
Y458700D01*
G01X192500Y151200D02*
X197200D01*
G01X196000Y454000D02*
X200700D01*
G01X216000Y430000D02*
X220950D01*
G01X264000Y378000D02*
X259300D01*
G01X273700Y135400D02*
X268650Y130350D01*
Y79949D01*
X269851Y78748D01*
G01X295000Y313000D02*
Y308300D01*
G01X307000Y219000D02*
X311700D01*
G01X301000Y287000D02*
X296300D01*
G01X301000Y272000D02*
X296300D01*
G01X314000Y378000D02*
Y382700D01*
G01X353000Y316000D02*
Y320700D01*
G01X364000Y173000D02*
X359300D01*
G01X383000Y366000D02*
X378050D01*
G01X380000Y454000D02*
Y449300D01*
G01X400000Y364000D02*
X404700D01*
G54D18*
G01X184600Y135400D02*
X148600D01*
X131000Y153000D01*
G01Y339000D02*
X132801Y340801D01*
Y444252D01*
G01X192500Y135400D02*
X196450Y139350D01*
X277650D01*
X281600Y143300D01*
G01X266000Y287000D02*
X261151Y282151D01*
X242950D01*
X234950Y274151D01*
Y257498D01*
X234200Y256748D01*
G01X221000Y272000D02*
Y256748D01*
G01X307000Y95000D02*
X310950Y91050D01*
Y78748D01*
G01X307000Y181000D02*
X301650Y186350D01*
Y253389D01*
X303051Y254790D01*
G01X343000Y206000D02*
X339050Y209950D01*
Y254790D01*
G01X395000Y229000D02*
X390050Y233950D01*
X346950D01*
X343000Y230000D01*
M02*
