G04 ================== begin FILE IDENTIFICATION RECORD ==================*
G04 Layout Name:  C:/Cadence/Projects/i2c_switch/i2c_switch.brd*
G04 Film Name:    GND*
G04 File Format:  Gerber RS274X*
G04 File Origin:  Cadence Allegro 16.3-p003*
G04 Origin Date:  Tue Jul 28 03:32:18 2020*
G04 *
G04 Layer:  ETCH/GND*
G04 Layer:  PIN/GND*
G04 Layer:  VIA CLASS/GND*
G04 *
G04 Offset:    (0.00 0.00)*
G04 Mirror:    No*
G04 Mode:      Positive*
G04 Rotation:  0*
G04 FullContactRelief:  No*
G04 UndefLineWidth:     8.00*
G04 ================== end FILE IDENTIFICATION RECORD ====================*
%FSLAX55Y55*MOIN*%
%IR0*IPPOS*OFA0.00000B0.00000*MIA0B0*SFA1.00000B1.00000*%
%ADD11C,.024*%
%ADD10C,.025*%
%ADD12C,.055*%
%ADD13C,.065*%
%ADD14C,.009*%
%ADD17C,.03404*%
%ADD15C,.06504*%
%ADD16C,.07504*%
G75*
%LPD*%
G75*
G36*
G01X105002Y63000D02*
Y63002D01*
X105000D01*
Y465998D01*
X105002D01*
Y466000D01*
X410998D01*
Y465998D01*
X411000D01*
Y63002D01*
X410998D01*
Y63000D01*
X105002D01*
G37*
%LPC*%
G75*
G36*
G01X396435Y411269D02*
G03X397063Y411395I267J298D01*
G02Y408605I2937J-1395D01*
G03X396435Y408731I-361J-172D01*
G02Y411269I-1135J1269D01*
G37*
G36*
G01X333395Y371063D02*
G03X333269Y370435I172J-361D01*
G02X330731I-1269J-1135D01*
G03X330605Y371063I-298J267D01*
G02X333395I1395J2937D01*
G37*
G36*
G01X323395D02*
G03X323269Y370435I172J-361D01*
G02X320731I-1269J-1135D01*
G03X320605Y371063I-298J267D01*
G02X323395I1395J2937D01*
G37*
G36*
G01X313395D02*
G03X313269Y370435I172J-361D01*
G02X310731I-1269J-1135D01*
G03X310605Y371063I-298J267D01*
G02X313395I1395J2937D01*
G37*
G36*
G01X396435Y365269D02*
G03X397063Y365395I267J298D01*
G02Y362605I2937J-1395D01*
G03X396435Y362731I-361J-172D01*
G02Y365269I-1135J1269D01*
G37*
G36*
G01X291435Y314269D02*
G03X292063Y314395I267J298D01*
G02Y311605I2937J-1395D01*
G03X291435Y311731I-361J-172D01*
G02Y314269I-1135J1269D01*
G37*
G36*
G01X355675Y245872D02*
G03X355006Y245760I-299J-265D01*
G02Y248240I-3006J1240D01*
G03X355675Y248128I370J153D01*
G02Y245872I1275J-1128D01*
G37*
G36*
G01X303435Y220269D02*
G03X304063Y220395I267J298D01*
G02Y217605I2937J-1395D01*
G03X303435Y217731I-361J-172D01*
G02Y220269I-1135J1269D01*
G37*
G36*
G01X337565Y181731D02*
G03X336937Y181605I-267J-298D01*
G02Y184395I-2937J1395D01*
G03X337565Y184269I361J172D01*
G02Y181731I1135J-1269D01*
G37*
G36*
G01X367565Y171731D02*
G03X366937Y171605I-267J-298D01*
G02Y174395I-2937J1395D01*
G03X367565Y174269I361J172D01*
G02Y171731I1135J-1269D01*
G37*
G36*
G01X392937Y452605D02*
G02Y455395I-2937J1395D01*
G03X393565Y455269I361J172D01*
G02X396164Y454867I1134J-1269D01*
G03X396891Y454954I344J204D01*
G02Y453046I3109J-954D01*
G03X396164Y453133I-383J-117D01*
G02X393565Y452731I-1465J867D01*
G03X392937Y452605I-267J-298D01*
G37*
G36*
G01X346937D02*
G02Y455395I-2937J1395D01*
G03X347565Y455269I361J172D01*
G02X350164Y454867I1134J-1269D01*
G03X350891Y454954I344J204D01*
G02Y453046I3109J-954D01*
G03X350164Y453133I-383J-117D01*
G02X347565Y452731I-1465J867D01*
G03X346937Y452605I-267J-298D01*
G37*
G36*
G01X300937D02*
G02Y455395I-2937J1395D01*
G03X301565Y455269I361J172D01*
G02X304164Y454867I1134J-1269D01*
G03X304891Y454954I344J204D01*
G02Y453046I3109J-954D01*
G03X304164Y453133I-383J-117D01*
G02X301565Y452731I-1465J867D01*
G03X300937Y452605I-267J-298D01*
G37*
G36*
G01X264937Y372605D02*
G02Y375395I-2937J1395D01*
G03X265565Y375269I361J172D01*
G02X268164Y374867I1134J-1269D01*
G03X268891Y374954I344J204D01*
G02Y373046I3109J-954D01*
G03X268164Y373133I-383J-117D01*
G02X265565Y372731I-1465J867D01*
G03X264937Y372605I-267J-298D01*
G37*
G36*
G01X354395Y328937D02*
G02X351605I-1395J-2937D01*
G03X351731Y329565I-172J361D01*
G02X352133Y332164I1269J1134D01*
G03X352046Y332891I-204J344D01*
G02X353954I954J3109D01*
G03X353867Y332164I117J-383D01*
G02X354269Y329565I-867J-1465D01*
G03X354395Y328937I298J-267D01*
G37*
G36*
G01X364395Y318937D02*
G02X361605I-1395J-2937D01*
G03X361731Y319565I-172J361D01*
G02X362133Y322164I1269J1134D01*
G03X362046Y322891I-204J344D01*
G02Y329109I954J3109D01*
G03X362133Y329836I-117J383D01*
G02X361731Y332435I867J1465D01*
G03X361605Y333063I-298J267D01*
G02X364395I1395J2937D01*
G03X364269Y332435I172J-361D01*
G02X363867Y329836I-1269J-1134D01*
G03X363954Y329109I204J-344D01*
G02Y322891I-954J-3109D01*
G03X363867Y322164I117J-383D01*
G02X364269Y319565I-867J-1465D01*
G03X364395Y318937I298J-267D01*
G37*
G36*
G01X246954Y212109D02*
G02X245046I-954J-3109D01*
G03X245133Y212836I-117J383D01*
G02X244731Y215435I867J1465D01*
G03X244605Y216063I-298J267D01*
G02X247395I1395J2937D01*
G03X247269Y215435I172J-361D01*
G02X246867Y212836I-1269J-1134D01*
G03X246954Y212109I204J-344D01*
G37*
G36*
G01X179227Y141157D02*
G02X177469I-879J-1457D01*
G03Y141843I-207J343D01*
G02X179227I879J1457D01*
G03Y141157I207J-343D01*
G37*
G54D17*
X354450Y166500D03*
X303050Y135400D03*
X224598Y443151D03*
X177503Y457600D03*
X222252Y450400D03*
X265752Y321000D03*
X267448Y219000D03*
X222252Y430000D03*
X150748Y228000D03*
X163252Y170000D03*
X114300Y127000D03*
X137252D03*
Y117000D03*
X178348Y154800D03*
X267448Y135400D03*
X265752Y341000D03*
X210752Y340000D03*
X333252Y351000D03*
Y323000D03*
X239252Y352000D03*
X342000Y346000D03*
X187000Y310000D03*
X146000Y329000D03*
X210752Y320000D03*
X124748Y329000D03*
X291050Y209000D03*
G54D15*
X156000Y329000D03*
X232000Y454000D03*
X262000D03*
X170000D03*
X272000Y434000D03*
X262000D03*
X121000Y117000D03*
X131000Y107000D03*
X121000D03*
X131000Y97000D03*
X121000D03*
Y127000D03*
X131000Y153000D03*
X121000D03*
X131000Y183000D03*
Y173000D03*
X121000Y183000D03*
Y173000D03*
X131000Y163000D03*
X121000D03*
X131000Y209000D03*
X121000D03*
X131000Y239000D03*
Y229000D03*
X121000Y239000D03*
Y229000D03*
X131000Y219000D03*
X121000D03*
X131000Y265000D03*
X121000D03*
X131000Y295000D03*
Y285000D03*
X121000Y295000D03*
Y285000D03*
X131000Y275000D03*
X121000D03*
X131000Y339000D03*
X140000Y454000D03*
X157000Y130000D03*
Y188000D03*
X175000Y310000D03*
X156000Y339000D03*
X175000Y350000D03*
X171000Y375000D03*
Y365000D03*
X150000Y454000D03*
X160000D03*
X200400Y88000D03*
X208300D03*
X192500Y119600D03*
X184600Y111700D03*
X192500D03*
X208300Y95900D03*
X184600Y119600D03*
X200400Y95900D03*
X184600Y127500D03*
X192500Y135400D03*
Y143300D03*
Y151200D03*
Y127500D03*
Y159100D03*
X184600Y167000D03*
X192500D03*
X208300Y180200D03*
X200400D03*
X208300Y188100D03*
X200400D03*
X203000Y375000D03*
Y365000D03*
X186000Y454000D03*
X196000D03*
X206000D03*
X224100Y88000D03*
X216200D03*
X232000D03*
X216200Y95900D03*
X224100D03*
X232000D03*
Y180200D03*
X224100D03*
X216200D03*
X232000Y188100D03*
X224100D03*
X216200D03*
X233000Y312000D03*
X216000Y390000D03*
X235000Y375000D03*
Y365000D03*
X237000Y411000D03*
Y401000D03*
X233000Y433000D03*
X239900Y88000D03*
X247800D03*
X255700D03*
X239900Y95900D03*
X247800D03*
X255700D03*
X239900Y180200D03*
X247800D03*
X255700D03*
X239900Y188100D03*
X247800D03*
X255700D03*
X243000Y433000D03*
X242000Y454000D03*
X252000D03*
X281600Y119600D03*
X273700D03*
X281600Y111700D03*
X273700D03*
Y143300D03*
X281600Y151200D03*
Y135400D03*
X273700Y151200D03*
X281600Y127500D03*
X273700D03*
X281600Y143300D03*
Y159100D03*
X273700D03*
X281600Y167000D03*
X273700D03*
X274000Y209000D03*
Y219000D03*
X295000Y323000D03*
X282000Y374000D03*
X292000D03*
X278000Y454000D03*
X288000D03*
X292000Y434000D03*
X282000D03*
X307000Y95000D03*
Y120000D03*
Y149000D03*
Y159000D03*
Y181000D03*
Y209000D03*
Y191000D03*
X312000Y247000D03*
X327000Y313000D03*
Y341000D03*
X302000Y374000D03*
X324000Y454000D03*
X322000Y434000D03*
X312000D03*
X302000D03*
X334000Y103000D03*
Y113000D03*
Y123000D03*
Y133000D03*
Y143000D03*
Y153000D03*
Y163000D03*
Y173000D03*
X343000Y206000D03*
Y196000D03*
Y220000D03*
Y230000D03*
X353000Y316000D03*
Y346000D03*
X342000Y374000D03*
X352000D03*
X334000Y454000D03*
X352000Y434000D03*
X342000D03*
X332000D03*
X364000Y103000D03*
Y113000D03*
Y123000D03*
X385000Y117000D03*
Y107000D03*
Y97000D03*
X364000Y133000D03*
Y143000D03*
Y153000D03*
X385000Y127000D03*
Y153000D03*
X364000Y163000D03*
Y183000D03*
X385000D03*
Y173000D03*
Y209000D03*
X367000Y208000D03*
X385000Y239000D03*
Y229000D03*
Y219000D03*
Y265000D03*
X367000Y248000D03*
X385000Y295000D03*
Y285000D03*
Y275000D03*
X363000Y346000D03*
X362000Y374000D03*
X372000D03*
X370000Y454000D03*
X380000D03*
X372000Y434000D03*
X362000D03*
X395000Y117000D03*
Y107000D03*
Y97000D03*
Y127000D03*
Y153000D03*
Y183000D03*
Y173000D03*
Y163000D03*
Y209000D03*
Y239000D03*
Y229000D03*
Y219000D03*
Y265000D03*
Y295000D03*
Y285000D03*
Y275000D03*
X400000Y354000D03*
Y384000D03*
Y374000D03*
Y420000D03*
Y400000D03*
Y430000D03*
X385000Y163000D03*
X307000Y85000D03*
Y130000D03*
X216000Y454000D03*
Y430000D03*
X157000Y228000D03*
Y170000D03*
X131000Y127000D03*
Y117000D03*
X184600Y151200D03*
Y159100D03*
Y143300D03*
Y135400D03*
X273700D03*
X327000Y351000D03*
Y323000D03*
X233000Y352000D03*
X131000Y329000D03*
G54D16*
X204000Y330000D03*
X259000Y331000D03*
Y321000D03*
Y341000D03*
X204000Y340000D03*
Y320000D03*
%LPD*%
G75*
G54D10*
X95000Y53000D03*
Y476000D03*
X421000Y53000D03*
Y476000D03*
G54D11*
X114300Y127000D03*
X137252Y117000D03*
Y127000D03*
X143851Y303747D03*
X124748Y329000D03*
X146000D03*
X163252Y170000D03*
X150748Y228000D03*
X159700Y301598D03*
X170000Y443648D03*
X167949Y440749D03*
X178348Y143300D03*
Y139700D03*
Y154800D03*
X187000Y310000D03*
X204801Y440252D03*
X177503Y457600D03*
X212902Y303748D03*
X210752Y320000D03*
Y340000D03*
X216000Y443648D03*
X236950Y440252D03*
X229300D03*
X222252Y430000D03*
Y450400D03*
X224598Y443151D03*
X246000Y214300D03*
X254800Y303748D03*
X265752Y321000D03*
X239252Y352000D03*
X265752Y341000D03*
X266700Y374000D03*
X243000Y440252D03*
X262000Y443648D03*
X267448Y135400D03*
X291050Y209000D03*
X267448Y219000D03*
X273613Y303748D03*
X290300Y313000D03*
X303300Y78748D03*
X303050Y135400D03*
X302300Y219000D03*
X316200Y254252D03*
X327000Y303748D03*
X298950D03*
X312000Y369300D03*
X322000D03*
X308000Y443648D03*
X302700Y454000D03*
X354450Y166500D03*
X338700Y183000D03*
X347051Y254252D03*
X356950Y247000D03*
X353000Y303748D03*
X330700D03*
X353000Y330700D03*
X333252Y323000D03*
X342000Y346000D03*
X333252Y351000D03*
X332000Y369300D03*
X354000Y443648D03*
X348700Y454000D03*
X360300Y78748D03*
X368700Y173000D03*
X363000Y320700D03*
Y331300D03*
X398387Y303748D03*
X395300Y364000D03*
Y410000D03*
X400000Y443648D03*
X403700Y440252D03*
X394700Y454000D03*
G54D12*
X131000Y117000D03*
X121000D03*
X131000Y107000D03*
X121000D03*
X131000Y97000D03*
X121000D03*
X131000Y127000D03*
X121000D03*
X131000Y153000D03*
X121000D03*
X131000Y183000D03*
Y173000D03*
X121000Y183000D03*
Y173000D03*
X131000Y163000D03*
X121000D03*
X131000Y209000D03*
X121000D03*
X131000Y239000D03*
Y229000D03*
X121000Y239000D03*
Y229000D03*
X131000Y219000D03*
X121000D03*
X131000Y265000D03*
X121000D03*
X131000Y295000D03*
Y285000D03*
X121000Y295000D03*
Y285000D03*
X131000Y275000D03*
X121000D03*
X131000Y329000D03*
Y339000D03*
X140000Y454000D03*
X157000Y130000D03*
Y170000D03*
Y188000D03*
Y228000D03*
X156000Y329000D03*
X175000Y310000D03*
X156000Y339000D03*
X175000Y350000D03*
X171000Y375000D03*
Y365000D03*
X150000Y454000D03*
X160000D03*
X170000D03*
X208300Y88000D03*
X200400D03*
X208300Y95900D03*
X200400D03*
X192500Y111700D03*
X184600D03*
X192500Y119600D03*
X184600D03*
X192500Y127500D03*
X184600D03*
X192500Y135400D03*
X184600D03*
X192500Y143300D03*
X184600D03*
X192500Y151200D03*
X184600D03*
X200400Y180200D03*
X208300D03*
X192500Y159100D03*
X184600D03*
X192500Y167000D03*
X184600D03*
X200400Y188100D03*
X208300D03*
X203000Y375000D03*
Y365000D03*
X186000Y454000D03*
X196000D03*
X206000D03*
X232000Y88000D03*
X224100D03*
X216200D03*
X232000Y95900D03*
X224100D03*
X216200D03*
Y180200D03*
X224100D03*
X232000D03*
X216200Y188100D03*
X224100D03*
X232000D03*
X233000Y312000D03*
Y352000D03*
X235000Y375000D03*
Y365000D03*
X216000Y390000D03*
X237000Y411000D03*
Y401000D03*
X233000Y433000D03*
X216000Y430000D03*
X232000Y454000D03*
X216000D03*
X255700Y88000D03*
X247800D03*
X239900D03*
X255700Y95900D03*
X247800D03*
X239900D03*
Y180200D03*
X247800D03*
X255700D03*
X239900Y188100D03*
X247800D03*
X255700D03*
X246000Y209000D03*
Y219000D03*
X262000Y374000D03*
X243000Y433000D03*
X262000Y434000D03*
X242000Y454000D03*
X252000D03*
X262000D03*
X273700Y119600D03*
X281600D03*
X273700Y111700D03*
X281600D03*
X273700Y151200D03*
X281600D03*
X273700Y143300D03*
X281600D03*
X273700Y135400D03*
X281600D03*
X273700Y127500D03*
X281600D03*
X273700Y167000D03*
X281600D03*
X273700Y159100D03*
X281600D03*
X274000Y209000D03*
Y219000D03*
X295000Y313000D03*
Y323000D03*
X292000Y374000D03*
X282000D03*
X272000D03*
Y434000D03*
X282000D03*
X292000D03*
X278000Y454000D03*
X288000D03*
X298000D03*
X307000Y85000D03*
Y95000D03*
Y120000D03*
Y149000D03*
Y130000D03*
Y159000D03*
Y181000D03*
Y191000D03*
Y209000D03*
Y219000D03*
X312000Y247000D03*
X327000Y323000D03*
Y313000D03*
Y351000D03*
Y341000D03*
X322000Y374000D03*
X312000D03*
X302000D03*
Y434000D03*
X312000D03*
X322000D03*
X324000Y454000D03*
X308000D03*
X334000Y103000D03*
Y113000D03*
Y123000D03*
Y133000D03*
Y143000D03*
Y153000D03*
Y163000D03*
Y173000D03*
Y183000D03*
X343000Y206000D03*
Y196000D03*
Y220000D03*
Y230000D03*
X352000Y247000D03*
X353000Y326000D03*
Y316000D03*
Y346000D03*
Y336000D03*
X352000Y374000D03*
X342000D03*
X332000D03*
Y434000D03*
X342000D03*
X352000D03*
X334000Y454000D03*
X344000D03*
X354000D03*
X364000Y103000D03*
Y113000D03*
Y123000D03*
X385000Y117000D03*
Y107000D03*
Y97000D03*
X364000Y133000D03*
Y143000D03*
Y153000D03*
X385000Y127000D03*
Y153000D03*
X364000Y163000D03*
Y173000D03*
Y183000D03*
X385000D03*
Y173000D03*
Y163000D03*
Y209000D03*
X367000Y208000D03*
X385000Y239000D03*
Y229000D03*
Y219000D03*
Y265000D03*
X367000Y248000D03*
X385000Y295000D03*
Y285000D03*
Y275000D03*
X363000Y326000D03*
Y316000D03*
Y346000D03*
Y336000D03*
X372000Y374000D03*
X362000D03*
Y434000D03*
X372000D03*
X370000Y454000D03*
X380000D03*
X395000Y117000D03*
Y107000D03*
Y97000D03*
Y127000D03*
Y153000D03*
Y183000D03*
Y173000D03*
Y163000D03*
Y209000D03*
Y239000D03*
Y229000D03*
Y219000D03*
Y265000D03*
Y295000D03*
Y285000D03*
Y275000D03*
X400000Y364000D03*
Y354000D03*
Y384000D03*
Y374000D03*
Y420000D03*
Y410000D03*
Y400000D03*
Y430000D03*
X390000Y454000D03*
X400000D03*
G54D13*
X204000Y320000D03*
Y330000D03*
Y340000D03*
X259000Y331000D03*
Y321000D03*
Y341000D03*
G54D14*
G01X131000Y335548D02*
Y339000D01*
G01D02*
Y342452D01*
G01X127548Y339000D02*
X131000D01*
G01D02*
X134452D01*
G01X156000Y335548D02*
Y339000D01*
G01D02*
Y342452D01*
G01X152548Y339000D02*
X156000D01*
G01D02*
X159452D01*
G01X171000Y371548D02*
Y375000D01*
G01D02*
Y378452D01*
G01X167548Y375000D02*
X171000D01*
G01D02*
X174452D01*
G01X170000Y450548D02*
Y454000D01*
G01D02*
Y457452D01*
G01X166548Y454000D02*
X170000D01*
G01D02*
X173452D01*
G01X204000Y326048D02*
Y330000D01*
G01D02*
Y333952D01*
G01X200048Y330000D02*
X204000D01*
G01D02*
X207952D01*
G01X203000Y371548D02*
Y375000D01*
G01D02*
Y378452D01*
G01X199548Y375000D02*
X203000D01*
G01D02*
X206452D01*
G01X235000Y371548D02*
Y375000D01*
G01D02*
Y378452D01*
G01X231548Y375000D02*
X235000D01*
G01D02*
X238452D01*
G01X233548Y401000D02*
X237000D01*
G01X216000Y450548D02*
Y454000D01*
G01D02*
Y457452D01*
G01X212548Y454000D02*
X216000D01*
G01D02*
X219452D01*
G01X259000Y327048D02*
Y331000D01*
G01D02*
Y334952D01*
G01X255048Y331000D02*
X259000D01*
G01D02*
X262952D01*
G01X237000Y397548D02*
Y401000D01*
G01D02*
Y404452D01*
G01Y401000D02*
X240452D01*
G01X243000Y429548D02*
Y433000D01*
G01D02*
Y436452D01*
G01X239548Y433000D02*
X243000D01*
G01D02*
X246452D01*
G01X262000Y450548D02*
Y454000D01*
G01D02*
Y457452D01*
G01X258548Y454000D02*
X262000D01*
G01D02*
X265452D01*
G01X295000Y319548D02*
Y323000D01*
G01D02*
Y326452D01*
G01X291548Y323000D02*
X295000D01*
G01D02*
X298452D01*
G01X272000Y370548D02*
Y374000D01*
G01D02*
Y377452D01*
G01Y374000D02*
X275452D01*
G01X307000Y91548D02*
Y95000D01*
G01D02*
Y98452D01*
G01X303548Y95000D02*
X307000D01*
G01D02*
X310452D01*
G01X307000Y177548D02*
Y181000D01*
G01D02*
Y184452D01*
G01X303548Y181000D02*
X307000D01*
G01D02*
X310452D01*
G01X323548Y313000D02*
X327000D01*
G01X323548Y341000D02*
X327000D01*
G01X308000Y450548D02*
Y454000D01*
G01D02*
Y457452D01*
G01Y454000D02*
X311452D01*
G01X343000Y202548D02*
Y206000D01*
G01D02*
Y209452D01*
G01X339548Y206000D02*
X343000D01*
G01D02*
X346452D01*
G01X353000Y312548D02*
Y316000D01*
G01D02*
Y319452D01*
G01X349548Y316000D02*
X353000D01*
G01D02*
X356452D01*
G01X327000Y309548D02*
Y313000D01*
G01D02*
Y316452D01*
G01Y313000D02*
X330452D01*
G01X327000Y337548D02*
Y341000D01*
G01D02*
Y344452D01*
G01Y341000D02*
X330452D01*
G01X354000Y450548D02*
Y454000D01*
G01D02*
Y457452D01*
G01Y454000D02*
X357452D01*
G01X364000Y159548D02*
Y163000D01*
G01D02*
Y166452D01*
G01X360548Y163000D02*
X364000D01*
G01D02*
X367452D01*
G01X400000Y350548D02*
Y354000D01*
G01D02*
Y357452D01*
G01X396548Y354000D02*
X400000D01*
G01D02*
X403452D01*
G01X400000Y396548D02*
Y400000D01*
G01D02*
Y403452D01*
G01X396548Y400000D02*
X400000D01*
G01D02*
X403452D01*
G01X400000Y450548D02*
Y454000D01*
G01D02*
Y457452D01*
G01Y454000D02*
X403452D01*
M02*
