M48
INCH,LZ
T01C.013
T02C.036
T03C.042
T04C.055
T05C.125
;LEADER: 12 
;HEADER: 
;CODE  : ASCII 
;FILE  : i2c_switch-1-5.drl for board i2c_switch.brd ... layers TOP and BOTTOM
;T01 Holesize 1. = 13.000000 Tolerance = +0.000000/-0.000000 PLATED MILS Quantity = 72
;T02 Holesize 2. = 36.000000 Tolerance = +0.000000/-0.000000 PLATED MILS Quantity = 184
;T03 Holesize 3. = 42.000000 Tolerance = +0.000000/-0.000000 PLATED MILS Quantity = 78
;T04 Holesize 4. = 55.000000 Tolerance = +0.000000/-0.000000 PLATED MILS Quantity = 6
%
G90
T01
X01143Y0127
X01373Y0127
X01373Y0117
X01783Y01397
X02674Y01354
X0303Y01354
X03033Y00787
X03603Y00787
X03687Y0173
X03544Y01665
X03387Y0183
X0291Y0209
X01783Y01433
X01783Y01548
X01633Y017
X01507Y0228
X0246Y02143
X02674Y0219
X03023Y0219
X03162Y02543
X03471Y02543
X0357Y0247
X03984Y03037
X0363Y03207
X0363Y03313
X0353Y03037
X0353Y03307
X0342Y0346
X03333Y0323
X03307Y03037
X0327Y03037
X0299Y03037
X02903Y0313
X02736Y03037
X02658Y0341
X02658Y0321
X02548Y03037
X02129Y03037
X02108Y032
X02108Y034
X0187Y031
X01597Y03016
X0146Y0329
X01439Y03037
X01247Y0329
X02393Y0352
X02667Y0374
X0312Y03693
X0322Y03693
X0332Y03693
X03333Y0351
X03953Y0364
X03953Y041
X04037Y04403
X04Y04436
X03947Y0454
X0354Y04436
X03487Y0454
X0308Y04436
X03027Y0454
X0262Y04436
X0243Y04403
X0237Y04403
X02293Y04403
X02246Y04432
X02223Y04504
X02223Y043
X0216Y04436
X02048Y04403
X01775Y04576
X017Y04436
X01679Y04407
T02
X0121Y0097
X0131Y0097
X0121Y0107
X0131Y0107
X0131Y0117
X0121Y0117
X0121Y0127
X0131Y0127
X0121Y0153
X0131Y0153
X0121Y0163
X0131Y0163
X0131Y0173
X0121Y0173
X0131Y0183
X0121Y0183
X0131Y0209
X0121Y0209
X0131Y0219
X0121Y0219
X0131Y0229
X0121Y0229
X0121Y0239
X0131Y0239
X0131Y0265
X0121Y0265
X0121Y0275
X0131Y0275
X0121Y0285
X0131Y0285
X0121Y0295
X0131Y0295
X0131Y0329
X0131Y0339
X014Y0454
X016Y0454
X015Y0454
X017Y0454
X0171Y0375
X0171Y0365
X0156Y0339
X0156Y0329
X0203Y0365
X0203Y0375
X0196Y0454
X0206Y0454
X0186Y0454
X0216Y0454
X0232Y0454
X0233Y0433
X0237Y0411
X0237Y0401
X0235Y0375
X0235Y0365
X0242Y0454
R02X001
X0262Y0434
X0243Y0433
X0262Y0374
X0246Y0219
X0246Y0209
X0274Y0209
X0274Y0219
X0295Y0313
X0295Y0323
X0282Y0374
X0272Y0374
X0292Y0374
X0272Y0434
X0292Y0434
X0282Y0434
X0278Y0454
X0288Y0454
R02X001
X0324Y0454
X0312Y0434
X0302Y0434
X0322Y0434
X0302Y0374
X0322Y0374
X0312Y0374
X0327Y0351
X0327Y0341
X0327Y0323
X0327Y0313
X0307Y0219
X0307Y0209
X0307Y0191
X0307Y0181
X0307Y0159
X0307Y0149
X0307Y013
X0307Y012
X0307Y0095
X0307Y0085
X0334Y0103
X0334Y0113
R07Y001
X0343Y0196
X0343Y0206
X0343Y022
X0343Y023
X0353Y0316
R03Y001
X0332Y0374
X0352Y0374
X0342Y0374
X0352Y0434
X0342Y0434
X0332Y0434
X0334Y0454
R02X001
X038Y0454
X037Y0454
X0362Y0434
X0372Y0434
X0372Y0374
X0362Y0374
X0363Y0346
R03Y-001
X0385Y0295
R03Y-001
X0385Y0239
R03Y-001
X0385Y0183
X0364Y0183
X0385Y0173
X0364Y0173
X0385Y0163
X0364Y0163
X0364Y0153
X0385Y0153
X0364Y0143
X0364Y0133
X0385Y0127
X0364Y0123
X0385Y0117
X0364Y0113
X0385Y0107
X0364Y0103
X0385Y0097
X0395Y0097
X0395Y0107
R02Y001
X0395Y0153
R03Y001
X0395Y0209
R03Y001
X0395Y0265
R03Y001
X04Y0354
R03Y001
X04Y04
R03Y001
X04Y0454
X039Y0454
T03
X0157Y013
X0157Y017
X0157Y0188
X0157Y0228
X0175Y031
X0175Y035
X0216Y043
X0216Y039
X0233Y0352
X0233Y0312
X02004Y01881
X02162Y01881
X02241Y01881
X0232Y01881
X02083Y01881
X02399Y01881
X02004Y01802
X0232Y01802
X02083Y01802
R02X00079
X02399Y01802
X01846Y0167
X01925Y0167
X01925Y01591
X01846Y01591
X01846Y01512
X01925Y01512
X01846Y01433
X01925Y01433
X01846Y01354
X01925Y01354
X01846Y01275
X01925Y01275
X01925Y01196
X01846Y01196
X01925Y01117
X01846Y01117
X0232Y00959
X02004Y00959
X02083Y00959
X02241Y00959
X02399Y00959
X02162Y00959
X0232Y0088
X02241Y0088
X02004Y0088
X02162Y0088
X02399Y0088
X02083Y0088
X02557Y0088
X02478Y0088
X02478Y00959
X02557Y00959
X02816Y01117
X02737Y01117
X02816Y01196
X02737Y01196
X02737Y01275
X02816Y01275
X02816Y01354
X02737Y01354
X02816Y01433
X02737Y01433
X02737Y01512
X02816Y01512
X02816Y01591
X02737Y01591
X02737Y0167
X02816Y0167
X02557Y01802
X02478Y01802
X02478Y01881
X02557Y01881
X0312Y0247
X0352Y0247
X0367Y0248
X0367Y0208
T04
X0204Y032
R02Y001
X0259Y0341
R02Y-001
M30
