M48
INCH,LZ
T01C.013
T02C.036
T03C.042
T04C.055
T05C.125
;LEADER: 12 
;HEADER: i2c_switch 
;CODE  : ASCII 
;FILE  : i2c_switch-1-5.drl for board i2c_switch.brd ... layers TOP and BOTTOM
;T01 Holesize 1. = 13.000000 Tolerance = +0.000000/-0.000000 PLATED MILS Quantity = 90
;T02 Holesize 2. = 36.000000 Tolerance = +0.000000/-0.000000 PLATED MILS Quantity = 212
;T03 Holesize 3. = 42.000000 Tolerance = +0.000000/-0.000000 PLATED MILS Quantity = 82
;T04 Holesize 4. = 55.000000 Tolerance = +0.000000/-0.000000 PLATED MILS Quantity = 6
%
G90
T01
X01357Y0117
X026985Y007875
X031095Y007875
X03603Y007875
X03593Y0173
X035445Y01665
X02557Y01349
X01972Y01512
X01972Y01433
X01715Y013
X0157Y016505
X0131Y01317
X0121Y01317
X01754Y01813
X018305Y0188
X02061Y020075
X025592Y0219
X029105Y0209
X03117Y0219
X03387Y0183
X03968Y025675
X036795Y025675
X036205Y0248
X033905Y025479
X03347Y025675
X0327Y025675
X0311Y025675
X03073Y025675
X030305Y025479
X02963Y0272
X02963Y0287
X02913Y025675
X02815Y026595
X0266Y025675
X02604Y025675
X0256Y0278
X02342Y025675
X02277Y02587
X0221Y025675
X02173Y025675
X02118Y0247
X0211Y027775
X020415Y026595
X01797Y025675
X0176Y025675
X01731Y025675
X0166Y02673
X016205Y025675
X012475Y0329
X014195Y030365
X0144Y03057
X016225Y0329
X016475Y031
X021075Y032
X021075Y034
X023925Y0352
X025225Y0341
X0259Y03153
X0295Y03083
X033325Y0351
X033325Y0323
X0353Y03207
X0363Y03113
X0368Y0334
X0237Y03963
X02593Y0378
X0314Y03827
X0334Y036725
X037805Y0366
X04047Y0364
X04047Y041
X040685Y044425
X038Y04493
X037Y04457
X0334Y04607
X0324Y04448
X03177Y04447
X0288Y04607
X028015Y04447
X027725Y04448
X0242Y04607
X0232Y04457
X022095Y043
X02048Y044425
X02007Y0454
X0186Y04457
X01737Y044425
X015Y04587
X014Y04457
X01328Y044425
T02
X0121Y0097
R02Y001
X0131Y0107
X0131Y0097
X0131Y0117
X0307Y0095
X0307Y0085
X0334Y0103
X0334Y0113
X0364Y0113
X0364Y0103
X0385Y0117
X0385Y0097
X0385Y0107
X0395Y0117
R02Y-001
X0395Y0127
X0395Y0153
X0385Y0153
X0385Y0127
X0364Y0143
R02Y-001
X0364Y0153
X0334Y0143
X0334Y0153
X0334Y0133
X0334Y0123
X0307Y012
X0307Y0159
X0307Y0149
X0307Y013
X0131Y0153
X0131Y0127
X0121Y0127
X0121Y0153
X0121Y0173
X0121Y0183
X0121Y0163
X0131Y0183
X0131Y0163
X0131Y0173
X0307Y0181
X0307Y0191
X0334Y0183
X0334Y0173
X0334Y0163
X0343Y0196
X0364Y0173
X0364Y0183
X0364Y0163
X0385Y0173
X0385Y0183
X0385Y0163
X0395Y0173
X0395Y0163
X0395Y0183
X0395Y0209
R03Y001
X0385Y0209
X0385Y0229
X0385Y0219
X0385Y0239
X0343Y022
X0343Y023
X0343Y0206
X0307Y0209
X0307Y0219
X0274Y0219
X0274Y0209
X0246Y0219
X0246Y0209
X0131Y0219
X0131Y0229
X0131Y0239
X0131Y0209
X0121Y0239
X0121Y0219
X0121Y0229
X0121Y0209
X0121Y0275
X0121Y0265
X0131Y0275
X0131Y0265
X0166Y0272
X0176Y0272
R02X001
X0211Y0272
R03X001
X0256Y0272
R03X001
X0301Y0272
R03X001
X0385Y0275
X0385Y0265
X0395Y0275
X0395Y0265
X0395Y0295
X0395Y0285
X0385Y0295
X0385Y0285
X0383Y0316
R03X-001
X0331Y0287
X0327Y0313
X0321Y0287
R02X-001
X0295Y0313
X0286Y0287
X0276Y0287
R02X-001
X0241Y0287
R03X-001
X0196Y0287
R03X-001
X0131Y0295
X0131Y0285
X0121Y0285
X0121Y0295
X0131Y0339
X0131Y0329
X0156Y0339
X0156Y0329
X0295Y0323
X0327Y0351
X0327Y0341
X0327Y0323
X04Y0354
X04Y0364
X04Y0384
X04Y0374
X0374Y0378
R06X-001
X0314Y0367
X0304Y0367
X0304Y0378
R04X-001
X0235Y0365
X0235Y0375
X0203Y0375
X0203Y0365
X0171Y0375
X0171Y0365
X0237Y0401
X0237Y0411
X0264Y0438
R11X001
X04Y04
R03Y001
X04Y0454
R03X-001
X0354Y0454
R03X-001
X0308Y0454
R03X-001
X0262Y0454
R03X-001
X0216Y0454
R03X-001
X017Y0454
R03X-001
T03
X0157Y013
X0157Y017
X0157Y0188
X0157Y0228
X0175Y031
X0175Y035
X0216Y043
X0216Y039
X0233Y0352
X0233Y0312
X0232Y01881
X02162Y01881
X02083Y01881
X02004Y01881
X02241Y01881
X02399Y01881
X02004Y01802
X02162Y01802
X02241Y01802
X02083Y01802
X0232Y01802
X02399Y01802
X01925Y0167
X01846Y0167
X01846Y01591
X01925Y01591
X01925Y01512
X01846Y01512
X01925Y01433
X01846Y01433
X01925Y01354
X01846Y01354
X01925Y01275
X01846Y01275
X01846Y01196
X01925Y01196
X01925Y01117
X01846Y01117
X02162Y00959
X02083Y00959
X0232Y00959
X02399Y00959
X02241Y00959
X02004Y00959
X02399Y0088
X02241Y0088
X02162Y0088
R02X-00079
X0232Y0088
X02478Y0088
X02557Y0088
X02557Y00959
X02478Y00959
X02816Y01117
X02737Y01117
X02737Y01196
X02816Y01196
X02816Y01275
X02737Y01275
X02737Y01354
X02816Y01354
X02816Y01433
X02737Y01433
X02816Y01512
X02737Y01512
X02737Y01591
X02816Y01591
X02737Y0167
X02816Y0167
X02478Y01802
X02557Y01802
X02557Y01881
X02478Y01881
X0312Y0247
X0352Y0247
X0367Y0208
X0367Y0248
X0363Y0263
X0363Y0303
X0383Y0326
X0383Y0366
T04
X0204Y032
R02Y001
X0259Y0341
R02Y-001
M30
