G04 ================== begin FILE IDENTIFICATION RECORD ==================*
G04 Layout Name:  C:/Cadence/Projects/i2c_switch/i2c_switch.brd*
G04 Film Name:    MIDDLE*
G04 File Format:  Gerber RS274X*
G04 File Origin:  Cadence Allegro 16.3-p003*
G04 Origin Date:  Sat Aug 08 14:24:34 2020*
G04 *
G04 Layer:  ETCH/MIDDLE*
G04 Layer:  PIN/MIDDLE*
G04 Layer:  VIA CLASS/MIDDLE*
G04 *
G04 Offset:    (0.00 0.00)*
G04 Mirror:    No*
G04 Mode:      Positive*
G04 Rotation:  0*
G04 FullContactRelief:  No*
G04 UndefLineWidth:     8.00*
G04 ================== end FILE IDENTIFICATION RECORD ====================*
%FSLAX55Y55*MOIN*%
%IR0*IPPOS*OFA0.00000B0.00000*MIA0B0*SFA1.00000B1.00000*%
%ADD12C,.024*%
%ADD10C,.025*%
%ADD11C,.055*%
%ADD13C,.065*%
%ADD14C,.005*%
%ADD15C,.007*%
%ADD16C,.009*%
G75*
%LPD*%
G75*
G54D10*
X95000Y53000D03*
Y476000D03*
X421000Y53000D03*
Y476000D03*
G54D11*
X131000Y117000D03*
X121000D03*
X131000Y107000D03*
X121000D03*
X131000Y97000D03*
X121000D03*
X131000Y127000D03*
X121000D03*
X131000Y153000D03*
X121000D03*
X131000Y183000D03*
Y173000D03*
X121000Y183000D03*
Y173000D03*
X131000Y163000D03*
X121000D03*
X131000Y209000D03*
X121000D03*
X131000Y239000D03*
Y229000D03*
X121000Y239000D03*
Y229000D03*
X131000Y219000D03*
X121000D03*
X131000Y265000D03*
X121000D03*
X131000Y295000D03*
Y285000D03*
X121000Y295000D03*
Y285000D03*
X131000Y275000D03*
X121000D03*
X131000Y329000D03*
Y339000D03*
X140000Y454000D03*
X157000Y130000D03*
Y170000D03*
Y188000D03*
Y228000D03*
X176000Y272000D03*
X166000D03*
X176000Y287000D03*
X166000D03*
X156000Y329000D03*
X175000Y310000D03*
X156000Y339000D03*
X175000Y350000D03*
X171000Y375000D03*
Y365000D03*
X170000Y454000D03*
X160000D03*
X150000D03*
X208300Y88000D03*
X200400D03*
X208300Y95900D03*
X200400D03*
X192500Y111700D03*
X184600D03*
X192500Y119600D03*
X184600D03*
X192500Y127500D03*
X184600D03*
X192500Y135400D03*
X184600D03*
X192500Y143300D03*
X184600D03*
X192500Y151200D03*
X184600D03*
X200400Y180200D03*
X208300D03*
X192500Y159100D03*
X184600D03*
X192500Y167000D03*
X184600D03*
X200400Y188100D03*
X208300D03*
X196000Y272000D03*
X186000D03*
X196000Y287000D03*
X186000D03*
X203000Y375000D03*
Y365000D03*
X206000Y454000D03*
X196000D03*
X186000D03*
X232000Y88000D03*
X224100D03*
X216200D03*
X232000Y95900D03*
X224100D03*
X216200D03*
Y180200D03*
X224100D03*
X232000D03*
X216200Y188100D03*
X224100D03*
X232000D03*
X231000Y272000D03*
X221000D03*
X211000D03*
X231000Y287000D03*
X221000D03*
X211000D03*
X233000Y312000D03*
Y352000D03*
X235000Y375000D03*
Y365000D03*
X216000Y390000D03*
X237000Y411000D03*
Y401000D03*
X216000Y430000D03*
X232000Y454000D03*
X216000D03*
X255700Y88000D03*
X247800D03*
X239900D03*
X255700Y95900D03*
X247800D03*
X239900D03*
Y180200D03*
X247800D03*
X255700D03*
X239900Y188100D03*
X247800D03*
X255700D03*
X246000Y209000D03*
Y219000D03*
X266000Y272000D03*
X256000D03*
X241000D03*
X266000Y287000D03*
X256000D03*
X241000D03*
X264000Y378000D03*
Y438000D03*
X262000Y454000D03*
X252000D03*
X242000D03*
X273700Y119600D03*
X281600D03*
X273700Y111700D03*
X281600D03*
X273700Y151200D03*
X281600D03*
X273700Y143300D03*
X281600D03*
X273700Y135400D03*
X281600D03*
X273700Y127500D03*
X281600D03*
X273700Y167000D03*
X281600D03*
X273700Y159100D03*
X281600D03*
X274000Y209000D03*
Y219000D03*
X286000Y272000D03*
X276000D03*
X286000Y287000D03*
X276000D03*
X295000Y313000D03*
Y323000D03*
X294000Y378000D03*
X284000D03*
X274000D03*
Y438000D03*
X284000D03*
X294000D03*
X298000Y454000D03*
X288000D03*
X278000D03*
X307000Y85000D03*
Y95000D03*
Y120000D03*
Y149000D03*
Y130000D03*
Y159000D03*
Y181000D03*
Y191000D03*
Y209000D03*
Y219000D03*
X312000Y247000D03*
X321000Y272000D03*
X311000D03*
X301000D03*
X321000Y287000D03*
X311000D03*
X301000D03*
X327000Y323000D03*
Y313000D03*
Y351000D03*
Y341000D03*
X314000Y367000D03*
X304000D03*
X324000Y378000D03*
X314000D03*
X304000D03*
Y438000D03*
X314000D03*
X324000D03*
Y454000D03*
X308000D03*
X334000Y103000D03*
Y113000D03*
Y123000D03*
Y133000D03*
Y143000D03*
Y153000D03*
Y163000D03*
Y173000D03*
Y183000D03*
X343000Y206000D03*
Y196000D03*
Y220000D03*
Y230000D03*
X352000Y247000D03*
X331000Y272000D03*
Y287000D03*
X353000Y316000D03*
X354000Y378000D03*
X344000D03*
X334000D03*
Y438000D03*
X344000D03*
X354000D03*
Y454000D03*
X344000D03*
X334000D03*
X364000Y103000D03*
Y113000D03*
Y123000D03*
X385000Y117000D03*
Y107000D03*
Y97000D03*
X364000Y133000D03*
Y143000D03*
Y153000D03*
X385000Y127000D03*
Y153000D03*
X364000Y163000D03*
Y173000D03*
Y183000D03*
X385000D03*
Y173000D03*
Y163000D03*
Y209000D03*
X367000Y208000D03*
X385000Y239000D03*
Y229000D03*
Y219000D03*
Y265000D03*
X367000Y248000D03*
X363000Y263000D03*
X385000Y295000D03*
Y285000D03*
Y275000D03*
X363000Y303000D03*
X383000Y326000D03*
Y316000D03*
X373000D03*
X363000D03*
X383000Y366000D03*
X374000Y378000D03*
X364000D03*
Y438000D03*
X374000D03*
X380000Y454000D03*
X370000D03*
X395000Y117000D03*
Y107000D03*
Y97000D03*
Y127000D03*
Y153000D03*
Y183000D03*
Y173000D03*
Y163000D03*
Y209000D03*
Y239000D03*
Y229000D03*
Y219000D03*
Y265000D03*
Y295000D03*
Y285000D03*
Y275000D03*
X400000Y364000D03*
Y354000D03*
Y384000D03*
Y374000D03*
Y420000D03*
Y410000D03*
Y400000D03*
Y454000D03*
X390000D03*
X400000Y430000D03*
G54D12*
X135700Y117000D03*
X121000Y131700D03*
X131000D03*
X141949Y303653D03*
X144000Y305704D03*
X124748Y329000D03*
X140000Y445698D03*
X132801Y444252D03*
X171498Y130000D03*
X157000Y165050D03*
X175398Y181300D03*
X176000Y256748D03*
X173100D03*
X162050D03*
X166000Y267300D03*
X162252Y329000D03*
X164748Y310000D03*
X173700Y444252D03*
X150000Y458700D03*
X197200Y143300D03*
Y151200D03*
X183050Y188000D03*
X206100Y200750D03*
X179700Y256748D03*
X204150Y265950D03*
X186000Y445698D03*
X204801Y444252D03*
X200700Y454000D03*
X221000Y256748D03*
X217300D03*
X234200D03*
X211800Y247001D03*
X227700Y258698D03*
X211000Y277751D03*
X210752Y320000D03*
Y340000D03*
X237000Y396300D03*
X232000Y445698D03*
X220950Y430000D03*
X255700Y134900D03*
X255925Y219000D03*
X266000Y256748D03*
X260400D03*
X256000Y278001D03*
X259000Y315300D03*
X239252Y352000D03*
X252248Y341000D03*
X259300Y378000D03*
X242000Y460700D03*
X269851Y78748D03*
X291050Y209000D03*
X291300Y256748D03*
X296300Y272000D03*
X281500Y265950D03*
X296300Y287000D03*
X295000Y308300D03*
X280150Y444700D03*
X277250Y444800D03*
X288000Y460700D03*
X310950Y78748D03*
X311700Y219000D03*
X311000Y256748D03*
X307300D03*
X327000D03*
X303051Y254790D03*
X314000Y382700D03*
X324000Y444800D03*
X317700Y444700D03*
X354450Y166500D03*
X338700Y183000D03*
X339050Y254790D03*
X334700Y256748D03*
X353000Y320700D03*
X333252Y323000D03*
Y351000D03*
X334000Y367250D03*
Y460700D03*
X360301Y78748D03*
X359300Y173000D03*
X367949Y256748D03*
X362050Y248000D03*
X363000Y311300D03*
X368000Y334000D03*
X378050Y366000D03*
X370000Y445698D03*
X380000Y449300D03*
X396800Y256748D03*
X404700Y364000D03*
Y410000D03*
X406849Y444252D03*
G54D13*
X204000Y320000D03*
Y330000D03*
Y340000D03*
X259000Y331000D03*
Y321000D03*
Y341000D03*
G54D14*
G01X121000Y209000D02*
X124500Y205500D01*
Y97000D01*
X133500Y88000D01*
X200400D01*
G01X121000Y239000D02*
X117500Y235500D01*
Y93500D01*
X126500Y84500D01*
X220600D01*
X224100Y88000D01*
G01X121000Y265000D02*
X116500Y260500D01*
Y83600D01*
X116600Y83500D01*
X227500D01*
X232000Y88000D01*
G01X131000Y183000D02*
X127500Y179500D01*
Y105500D01*
X130500Y102500D01*
X183300D01*
X192500Y111700D01*
G01X208300Y88000D02*
X204800Y91500D01*
X131500D01*
X126500Y96500D01*
Y213500D01*
X121000Y219000D01*
G01X192500Y119600D02*
X189000Y116100D01*
X159000D01*
X143650Y131450D01*
Y160350D01*
X131000Y173000D01*
G01Y219000D02*
X160500Y189500D01*
Y133100D01*
X170500Y123100D01*
X198300D01*
X208300Y113100D01*
Y95900D01*
G01X239900Y180200D02*
X236400Y183700D01*
Y287500D01*
X232400Y291500D01*
X124500D01*
X121000Y295000D01*
G01X273700Y127500D02*
X260200D01*
X252200Y135500D01*
Y283800D01*
X241000Y295000D01*
X131000D01*
G01X171498Y130000D02*
Y177400D01*
X175398Y181300D01*
G01X192500Y127500D02*
X189000Y131000D01*
X184000D01*
X180100Y134900D01*
Y185050D01*
X183050Y188000D01*
G01X204150Y265950D02*
Y172600D01*
X194150Y162600D01*
X188100D01*
X184600Y159100D01*
G01X227700Y258698D02*
Y174300D01*
X212500Y159100D01*
X192500D01*
G01X183050Y188000D02*
X196000Y200950D01*
Y272000D01*
G01X175398Y181300D02*
Y211348D01*
X186000Y221950D01*
Y272000D01*
G01X196000Y287000D02*
Y272000D01*
G01X208300Y180200D02*
X211800Y183700D01*
Y247001D01*
G01X235000Y365000D02*
X245000D01*
X270501Y339499D01*
Y268499D01*
X292000Y247000D01*
X312000D01*
G01X247800Y88000D02*
X251301Y91501D01*
X281301D01*
X303500Y113700D01*
Y210500D01*
X306500Y213500D01*
X389500D01*
X395000Y219000D01*
G01X385000D02*
X381500Y215500D01*
X306500D01*
X302500Y211500D01*
Y127800D01*
X289900Y115200D01*
X259200D01*
X239900Y95900D01*
G01X385000Y265000D02*
Y256100D01*
X369900Y241000D01*
X277200D01*
X269200Y233000D01*
Y134900D01*
X272200Y131900D01*
X275200D01*
X277200Y129900D01*
Y125900D01*
X274400Y123100D01*
X245400D01*
X236400Y114100D01*
Y93988D01*
X237988Y92400D01*
X244300D01*
X247800Y95900D01*
G01X385000Y275000D02*
X374500Y264500D01*
Y250000D01*
X367500Y243000D01*
X269200D01*
X259200Y233000D01*
Y138400D01*
X255700Y134900D01*
G01X241000Y287000D02*
Y272000D01*
G01X273700Y143300D02*
X277500Y147100D01*
Y217100D01*
X299400Y239000D01*
X385000D01*
G01Y229000D02*
X380500Y224500D01*
X307500D01*
X301500Y218500D01*
Y147400D01*
X281600Y127500D01*
G01Y151200D02*
X287100Y156700D01*
Y216700D01*
X303900Y233500D01*
X389500D01*
X395000Y239000D01*
G01X284000Y378000D02*
X281500Y375500D01*
Y265950D01*
G01X286000Y287000D02*
Y272000D01*
G01X284000Y438000D02*
X294648Y448648D01*
X338648D01*
X344000Y454000D01*
G01X294000Y438000D02*
X303648Y447648D01*
X347648D01*
X354000Y454000D01*
G01X307000Y85000D02*
X320500Y98500D01*
Y109500D01*
X334000Y123000D01*
G01X307000Y191000D02*
Y190000D01*
X334000Y163000D01*
G01X321000Y287000D02*
Y272000D01*
G01X334000Y103000D02*
X348100Y117100D01*
Y163450D01*
X354100Y169450D01*
X381450D01*
X385000Y173000D01*
G01Y127000D02*
Y148000D01*
X366500Y166500D01*
X354450D01*
G01X331000Y287000D02*
Y272000D01*
G01X385000Y97000D02*
X371500Y110500D01*
Y145500D01*
X364000Y153000D01*
G01X374000Y378000D02*
Y404000D01*
X400000Y430000D01*
G54D15*
G01X131000Y127000D02*
Y131700D01*
G01X166000Y272000D02*
Y267300D01*
G01X192500Y143300D02*
X197200D01*
G01X184600D02*
X192500D01*
G01X204000Y320000D02*
X210752D01*
G01X204000Y340000D02*
X210752D01*
G01X211000Y272000D02*
Y277751D01*
G01X256000Y272000D02*
Y278001D01*
G01X259000Y321000D02*
Y315300D01*
G01Y341000D02*
X252248D01*
G01X242000Y454000D02*
Y460700D01*
G01X288000Y454000D02*
Y460700D01*
G01X343000Y196000D02*
Y187300D01*
X338700Y183000D01*
G01X334000Y454000D02*
Y460700D01*
G01X368000Y334000D02*
X373000Y329000D01*
Y316000D01*
G01X400000Y410000D02*
X404700D01*
G54D16*
G01X121000Y163000D02*
Y153000D01*
G01X171000Y375000D02*
Y441552D01*
X173700Y444252D01*
G01X192500Y135400D02*
X184600D01*
G01X176000Y287000D02*
X179700Y283300D01*
Y256748D01*
G01X176000Y272000D02*
Y256748D01*
G01X186000Y454000D02*
Y445698D01*
G01X221000Y287000D02*
X217300Y283300D01*
Y256748D01*
G01X235000Y375000D02*
X237000Y377000D01*
Y396300D01*
G01X259000Y331000D02*
X254800Y326800D01*
Y307500D01*
X260400Y301900D01*
Y256748D01*
G01X291050Y209000D02*
Y152750D01*
X281600Y143300D01*
G01X295000Y323000D02*
X291300Y319300D01*
Y256748D01*
G01X266000Y272000D02*
Y256748D01*
G01X274000Y378000D02*
X280150Y384150D01*
Y444700D01*
G01X278000Y454000D02*
X277250Y453250D01*
Y444800D01*
G01X311000Y287000D02*
X307300Y283300D01*
Y256748D01*
G01X314000Y367000D02*
X317700Y370700D01*
Y444700D01*
G01X327000Y341000D02*
X330700Y337300D01*
Y310100D01*
X334700Y306100D01*
Y256748D01*
G01X327000Y313000D02*
Y256748D01*
G01X364000Y163000D02*
X358900Y157900D01*
Y80149D01*
X360301Y78748D01*
G01X383000Y316000D02*
X367949Y300949D01*
Y256748D01*
G01X400000Y354000D02*
Y259948D01*
X396800Y256748D01*
M02*
