G04 ================== begin FILE IDENTIFICATION RECORD ==================*
G04 Layout Name:  C:/Cadence/Projects/i2c_switch/i2c_switch.brd*
G04 Film Name:    POWER*
G04 File Format:  Gerber RS274X*
G04 File Origin:  Cadence Allegro 16.3-p003*
G04 Origin Date:  Tue Jul 28 03:32:18 2020*
G04 *
G04 Layer:  ETCH/POWER*
G04 Layer:  PIN/POWER*
G04 Layer:  VIA CLASS/POWER*
G04 *
G04 Offset:    (0.00 0.00)*
G04 Mirror:    No*
G04 Mode:      Positive*
G04 Rotation:  0*
G04 FullContactRelief:  No*
G04 UndefLineWidth:     8.00*
G04 ================== end FILE IDENTIFICATION RECORD ====================*
%FSLAX55Y55*MOIN*%
%IR0*IPPOS*OFA0.00000B0.00000*MIA0B0*SFA1.00000B1.00000*%
%ADD11C,.024*%
%ADD10C,.025*%
%ADD12C,.055*%
%ADD13C,.065*%
%ADD14C,.007*%
%ADD16C,.03404*%
%ADD15C,.06504*%
%ADD17C,.07504*%
G75*
%LPD*%
G75*
G36*
G01X105002Y63000D02*
Y63002D01*
X105000D01*
Y317000D01*
X147000D01*
Y298000D01*
X218000D01*
Y333000D01*
X252000D01*
Y326000D01*
X281000D01*
Y317000D01*
X346000D01*
Y339000D01*
X350435D01*
G02X350716Y338315I0J-400D01*
G03X355284I2284J-2315D01*
G02X355565Y339000I281J285D01*
G01X357000D01*
Y330000D01*
X361901D01*
G03X362133Y329836I1095J1303D01*
G02X362046Y329109I-204J-344D01*
G03X363954I954J-3109D01*
G02X363867Y329836I117J383D01*
G03X364099Y330000I-863J1467D01*
G01X373000D01*
Y359000D01*
X186000D01*
Y387000D01*
X105000D01*
Y465998D01*
X105002D01*
Y466000D01*
X410998D01*
Y465998D01*
X411000D01*
Y63002D01*
X410998D01*
Y63000D01*
X105002D01*
G37*
G36*
G01X149000Y300000D02*
Y320000D01*
X115000D01*
Y385000D01*
X184000D01*
Y325000D01*
X216000D01*
Y300000D01*
X161427D01*
G02X161099Y300628I0J400D01*
G03X158301I-1399J970D01*
G02X157973Y300000I-328J-228D01*
G01X149000D01*
G37*
G36*
G01X371000Y357000D02*
Y331000D01*
X358000D01*
Y341000D01*
X345000D01*
Y318000D01*
X283000D01*
Y335000D01*
X191000D01*
Y357000D01*
X371000D01*
G37*
%LPC*%
G75*
G36*
G01X169523Y441397D02*
G02X168036Y442449I-1574J-648D01*
G03X168426Y443000I20J399D01*
G02X169913Y441948I1574J648D01*
G03X169523Y441397I-20J-399D01*
G37*
G36*
G01X328498Y302940D02*
G02Y304556I-1498J808D01*
G03X329202I352J190D01*
G02Y302940I1498J-808D01*
G03X328498I-352J-190D01*
G37*
G54D16*
X143851Y303747D03*
X204801Y440252D03*
X216000Y443648D03*
X236950Y440252D03*
X229300D03*
X254800Y303748D03*
X243000Y440252D03*
X262000Y443648D03*
X291050Y209000D03*
X273613Y303748D03*
X303300Y78748D03*
X303050Y135400D03*
X316200Y254252D03*
X298950Y303748D03*
X308000Y443648D03*
X354450Y166500D03*
X347051Y254252D03*
X353000Y303748D03*
X354000Y443648D03*
X360300Y78748D03*
X398387Y303748D03*
X400000Y443648D03*
X403700Y440252D03*
X212902Y303748D03*
G54D15*
X131000Y117000D03*
X121000D03*
X131000Y107000D03*
X121000D03*
X131000Y97000D03*
X121000D03*
X131000Y127000D03*
X121000D03*
X131000Y153000D03*
X121000D03*
X131000Y183000D03*
Y173000D03*
X121000Y183000D03*
Y173000D03*
X131000Y163000D03*
X121000D03*
X131000Y209000D03*
X121000D03*
X131000Y239000D03*
Y229000D03*
X121000Y239000D03*
Y229000D03*
X131000Y219000D03*
X121000D03*
X131000Y265000D03*
X121000D03*
X131000Y295000D03*
Y285000D03*
X121000Y295000D03*
Y285000D03*
X131000Y275000D03*
X121000D03*
X140000Y454000D03*
X157000Y130000D03*
Y170000D03*
Y188000D03*
Y228000D03*
X150000Y454000D03*
X160000D03*
X170000D03*
X200400Y88000D03*
X208300D03*
X192500Y119600D03*
X184600Y111700D03*
X192500D03*
X208300Y95900D03*
X184600Y119600D03*
X200400Y95900D03*
X184600Y127500D03*
X192500Y135400D03*
X184600D03*
X192500Y143300D03*
X184600D03*
X192500Y151200D03*
X184600D03*
X192500Y127500D03*
X184600Y159100D03*
X192500D03*
X184600Y167000D03*
X192500D03*
X208300Y180200D03*
X200400D03*
X208300Y188100D03*
X200400D03*
X203000Y375000D03*
Y365000D03*
X186000Y454000D03*
X196000D03*
X206000D03*
X224100Y88000D03*
X216200D03*
X232000D03*
X216200Y95900D03*
X224100D03*
X232000D03*
Y180200D03*
X224100D03*
X216200D03*
X232000Y188100D03*
X224100D03*
X216200D03*
X233000Y312000D03*
X216000Y390000D03*
X235000Y375000D03*
Y365000D03*
X237000Y411000D03*
Y401000D03*
X233000Y433000D03*
X216000Y430000D03*
Y454000D03*
X232000D03*
X239900Y88000D03*
X247800D03*
X255700D03*
X239900Y95900D03*
X247800D03*
X255700D03*
X239900Y180200D03*
X247800D03*
X255700D03*
X239900Y188100D03*
X247800D03*
X255700D03*
X246000Y209000D03*
Y219000D03*
X262000Y374000D03*
X243000Y433000D03*
X242000Y454000D03*
X252000D03*
X262000D03*
Y434000D03*
X281600Y119600D03*
X273700D03*
X281600Y111700D03*
X273700D03*
Y135400D03*
Y143300D03*
X281600Y151200D03*
Y135400D03*
X273700Y151200D03*
X281600Y127500D03*
X273700D03*
X281600Y143300D03*
Y159100D03*
X273700D03*
X281600Y167000D03*
X273700D03*
X274000Y209000D03*
Y219000D03*
X295000Y313000D03*
X272000Y374000D03*
X282000D03*
X292000D03*
X278000Y454000D03*
X288000D03*
X298000D03*
X292000Y434000D03*
X282000D03*
X272000D03*
X307000Y85000D03*
Y95000D03*
Y120000D03*
Y149000D03*
Y130000D03*
Y159000D03*
Y181000D03*
Y209000D03*
Y191000D03*
Y219000D03*
X312000Y247000D03*
X327000Y313000D03*
X302000Y374000D03*
X312000D03*
X322000D03*
X324000Y454000D03*
X308000D03*
X322000Y434000D03*
X312000D03*
X302000D03*
X334000Y103000D03*
Y113000D03*
Y123000D03*
Y133000D03*
Y143000D03*
Y153000D03*
Y163000D03*
Y173000D03*
Y183000D03*
X343000Y206000D03*
Y196000D03*
Y220000D03*
Y230000D03*
X352000Y247000D03*
X353000Y326000D03*
Y316000D03*
X332000Y374000D03*
X342000D03*
X352000D03*
X334000Y454000D03*
X344000D03*
X354000D03*
X352000Y434000D03*
X342000D03*
X332000D03*
X364000Y103000D03*
Y113000D03*
Y123000D03*
X385000Y117000D03*
Y107000D03*
Y97000D03*
X364000Y133000D03*
Y143000D03*
Y153000D03*
X385000Y127000D03*
Y153000D03*
X364000Y163000D03*
Y173000D03*
Y183000D03*
X385000D03*
Y173000D03*
Y163000D03*
Y209000D03*
X367000Y208000D03*
X385000Y239000D03*
Y229000D03*
Y219000D03*
Y265000D03*
X367000Y248000D03*
X385000Y295000D03*
Y285000D03*
Y275000D03*
X363000Y316000D03*
X362000Y374000D03*
X372000D03*
X370000Y454000D03*
X380000D03*
X372000Y434000D03*
X362000D03*
X395000Y117000D03*
Y107000D03*
Y97000D03*
Y127000D03*
Y153000D03*
Y183000D03*
Y173000D03*
Y163000D03*
Y209000D03*
Y239000D03*
Y229000D03*
Y219000D03*
Y265000D03*
Y295000D03*
Y285000D03*
Y275000D03*
X400000Y364000D03*
Y354000D03*
Y384000D03*
Y374000D03*
Y420000D03*
Y410000D03*
Y400000D03*
X390000Y454000D03*
X400000D03*
Y430000D03*
X156000Y329000D03*
X171000Y365000D03*
Y375000D03*
X175000Y350000D03*
X156000Y339000D03*
X175000Y310000D03*
X131000Y339000D03*
Y329000D03*
X233000Y352000D03*
X295000Y323000D03*
X327000D03*
Y351000D03*
Y341000D03*
X353000Y346000D03*
X363000D03*
Y336000D03*
G54D17*
X259000Y321000D03*
X204000Y320000D03*
Y340000D03*
X259000Y341000D03*
%LPD*%
G75*
G54D10*
X95000Y53000D03*
Y476000D03*
X421000Y53000D03*
Y476000D03*
G54D11*
X114300Y127000D03*
X137252Y117000D03*
Y127000D03*
X143851Y303747D03*
X124748Y329000D03*
X146000D03*
X163252Y170000D03*
X150748Y228000D03*
X159700Y301598D03*
X170000Y443648D03*
X167949Y440749D03*
X178348Y143300D03*
Y139700D03*
Y154800D03*
X187000Y310000D03*
X204801Y440252D03*
X177503Y457600D03*
X212902Y303748D03*
X210752Y320000D03*
Y340000D03*
X216000Y443648D03*
X236950Y440252D03*
X229300D03*
X222252Y430000D03*
Y450400D03*
X224598Y443151D03*
X246000Y214300D03*
X254800Y303748D03*
X265752Y321000D03*
X239252Y352000D03*
X265752Y341000D03*
X266700Y374000D03*
X243000Y440252D03*
X262000Y443648D03*
X267448Y135400D03*
X291050Y209000D03*
X267448Y219000D03*
X273613Y303748D03*
X290300Y313000D03*
X303300Y78748D03*
X303050Y135400D03*
X302300Y219000D03*
X316200Y254252D03*
X327000Y303748D03*
X298950D03*
X312000Y369300D03*
X322000D03*
X308000Y443648D03*
X302700Y454000D03*
X354450Y166500D03*
X338700Y183000D03*
X347051Y254252D03*
X356950Y247000D03*
X353000Y303748D03*
X330700D03*
X353000Y330700D03*
X333252Y323000D03*
X342000Y346000D03*
X333252Y351000D03*
X332000Y369300D03*
X354000Y443648D03*
X348700Y454000D03*
X360300Y78748D03*
X368700Y173000D03*
X363000Y320700D03*
Y331300D03*
X398387Y303748D03*
X395300Y364000D03*
Y410000D03*
X400000Y443648D03*
X403700Y440252D03*
X394700Y454000D03*
G54D12*
X131000Y117000D03*
X121000D03*
X131000Y107000D03*
X121000D03*
X131000Y97000D03*
X121000D03*
X131000Y127000D03*
X121000D03*
X131000Y153000D03*
X121000D03*
X131000Y183000D03*
Y173000D03*
X121000Y183000D03*
Y173000D03*
X131000Y163000D03*
X121000D03*
X131000Y209000D03*
X121000D03*
X131000Y239000D03*
Y229000D03*
X121000Y239000D03*
Y229000D03*
X131000Y219000D03*
X121000D03*
X131000Y265000D03*
X121000D03*
X131000Y295000D03*
Y285000D03*
X121000Y295000D03*
Y285000D03*
X131000Y275000D03*
X121000D03*
X131000Y329000D03*
Y339000D03*
X140000Y454000D03*
X157000Y130000D03*
Y170000D03*
Y188000D03*
Y228000D03*
X156000Y329000D03*
X175000Y310000D03*
X156000Y339000D03*
X175000Y350000D03*
X171000Y375000D03*
Y365000D03*
X150000Y454000D03*
X160000D03*
X170000D03*
X208300Y88000D03*
X200400D03*
X208300Y95900D03*
X200400D03*
X192500Y111700D03*
X184600D03*
X192500Y119600D03*
X184600D03*
X192500Y127500D03*
X184600D03*
X192500Y135400D03*
X184600D03*
X192500Y143300D03*
X184600D03*
X192500Y151200D03*
X184600D03*
X200400Y180200D03*
X208300D03*
X192500Y159100D03*
X184600D03*
X192500Y167000D03*
X184600D03*
X200400Y188100D03*
X208300D03*
X203000Y375000D03*
Y365000D03*
X186000Y454000D03*
X196000D03*
X206000D03*
X232000Y88000D03*
X224100D03*
X216200D03*
X232000Y95900D03*
X224100D03*
X216200D03*
Y180200D03*
X224100D03*
X232000D03*
X216200Y188100D03*
X224100D03*
X232000D03*
X233000Y312000D03*
Y352000D03*
X235000Y375000D03*
Y365000D03*
X216000Y390000D03*
X237000Y411000D03*
Y401000D03*
X233000Y433000D03*
X216000Y430000D03*
X232000Y454000D03*
X216000D03*
X255700Y88000D03*
X247800D03*
X239900D03*
X255700Y95900D03*
X247800D03*
X239900D03*
Y180200D03*
X247800D03*
X255700D03*
X239900Y188100D03*
X247800D03*
X255700D03*
X246000Y209000D03*
Y219000D03*
X262000Y374000D03*
X243000Y433000D03*
X262000Y434000D03*
X242000Y454000D03*
X252000D03*
X262000D03*
X273700Y119600D03*
X281600D03*
X273700Y111700D03*
X281600D03*
X273700Y151200D03*
X281600D03*
X273700Y143300D03*
X281600D03*
X273700Y135400D03*
X281600D03*
X273700Y127500D03*
X281600D03*
X273700Y167000D03*
X281600D03*
X273700Y159100D03*
X281600D03*
X274000Y209000D03*
Y219000D03*
X295000Y313000D03*
Y323000D03*
X292000Y374000D03*
X282000D03*
X272000D03*
Y434000D03*
X282000D03*
X292000D03*
X278000Y454000D03*
X288000D03*
X298000D03*
X307000Y85000D03*
Y95000D03*
Y120000D03*
Y149000D03*
Y130000D03*
Y159000D03*
Y181000D03*
Y191000D03*
Y209000D03*
Y219000D03*
X312000Y247000D03*
X327000Y323000D03*
Y313000D03*
Y351000D03*
Y341000D03*
X322000Y374000D03*
X312000D03*
X302000D03*
Y434000D03*
X312000D03*
X322000D03*
X324000Y454000D03*
X308000D03*
X334000Y103000D03*
Y113000D03*
Y123000D03*
Y133000D03*
Y143000D03*
Y153000D03*
Y163000D03*
Y173000D03*
Y183000D03*
X343000Y206000D03*
Y196000D03*
Y220000D03*
Y230000D03*
X352000Y247000D03*
X353000Y326000D03*
Y316000D03*
Y346000D03*
Y336000D03*
X352000Y374000D03*
X342000D03*
X332000D03*
Y434000D03*
X342000D03*
X352000D03*
X334000Y454000D03*
X344000D03*
X354000D03*
X364000Y103000D03*
Y113000D03*
Y123000D03*
X385000Y117000D03*
Y107000D03*
Y97000D03*
X364000Y133000D03*
Y143000D03*
Y153000D03*
X385000Y127000D03*
Y153000D03*
X364000Y163000D03*
Y173000D03*
Y183000D03*
X385000D03*
Y173000D03*
Y163000D03*
Y209000D03*
X367000Y208000D03*
X385000Y239000D03*
Y229000D03*
Y219000D03*
Y265000D03*
X367000Y248000D03*
X385000Y295000D03*
Y285000D03*
Y275000D03*
X363000Y326000D03*
Y316000D03*
Y346000D03*
Y336000D03*
X372000Y374000D03*
X362000D03*
Y434000D03*
X372000D03*
X370000Y454000D03*
X380000D03*
X395000Y117000D03*
Y107000D03*
Y97000D03*
Y127000D03*
Y153000D03*
Y183000D03*
Y173000D03*
Y163000D03*
Y209000D03*
Y239000D03*
Y229000D03*
Y219000D03*
Y265000D03*
Y295000D03*
Y285000D03*
Y275000D03*
X400000Y364000D03*
Y354000D03*
Y384000D03*
Y374000D03*
Y420000D03*
Y410000D03*
Y400000D03*
Y430000D03*
X390000Y454000D03*
X400000D03*
G54D13*
X204000Y320000D03*
Y330000D03*
Y340000D03*
X259000Y331000D03*
Y321000D03*
Y341000D03*
G54D14*
G01X131000Y113548D02*
Y117000D01*
G01D02*
Y120452D01*
G01X127548Y117000D02*
X131000D01*
G01D02*
X134452D01*
G01X121000Y123548D02*
Y127000D01*
G01D02*
Y130452D01*
G01X117548Y127000D02*
X121000D01*
G01D02*
X124452D01*
G01X131000Y123548D02*
Y127000D01*
G01D02*
Y130452D01*
G01X127548Y127000D02*
X131000D01*
G01D02*
X134452D01*
G01X131000Y325548D02*
Y329000D01*
G01D02*
Y332452D01*
G01X127548Y329000D02*
X131000D01*
G01D02*
X134452D01*
G01X157000Y166548D02*
Y170000D01*
G01D02*
Y173452D01*
G01X153548Y170000D02*
X157000D01*
G01D02*
X160452D01*
G01X157000Y224548D02*
Y228000D01*
G01D02*
Y231452D01*
G01X153548Y228000D02*
X157000D01*
G01D02*
X160452D01*
G01X175000Y306548D02*
Y310000D01*
G01D02*
Y313452D01*
G01X171548Y310000D02*
X175000D01*
G01D02*
X178452D01*
G01X156000Y325548D02*
Y329000D01*
G01D02*
Y332452D01*
G01X152548Y329000D02*
X156000D01*
G01D02*
X159452D01*
G01X160000Y450548D02*
Y454000D01*
G01D02*
Y457452D01*
G01X156548Y454000D02*
X160000D01*
G01D02*
X163452D01*
G01X192500Y147748D02*
Y151200D01*
G01X184600Y139848D02*
Y143300D01*
G01D02*
Y146752D01*
G01X181148Y143300D02*
X184600D01*
G01D02*
X188052D01*
G01X192500Y139848D02*
Y143300D01*
G01D02*
Y146752D01*
G01X189048Y143300D02*
X192500D01*
G01D02*
X195952D01*
G01X192500Y151200D02*
Y154652D01*
G01X189048Y151200D02*
X192500D01*
G01D02*
X195952D01*
G01X204000Y316048D02*
Y320000D01*
G01D02*
Y323952D01*
G01X200048Y320000D02*
X204000D01*
G01D02*
X207952D01*
G01X204000Y336048D02*
Y340000D01*
G01D02*
Y343952D01*
G01X200048Y340000D02*
X204000D01*
G01D02*
X207952D01*
G01X202548Y454000D02*
X206000D01*
G01X233000Y348548D02*
Y352000D01*
G01D02*
Y355452D01*
G01X229548Y352000D02*
X233000D01*
G01D02*
X236452D01*
G01X216000Y426548D02*
Y430000D01*
G01D02*
Y433452D01*
G01X212548Y430000D02*
X216000D01*
G01D02*
X219452D01*
G01X206000Y450548D02*
Y454000D01*
G01D02*
Y457452D01*
G01Y454000D02*
X209452D01*
G01X246000Y215548D02*
Y219000D01*
G01D02*
Y222452D01*
G01X242548Y219000D02*
X246000D01*
G01D02*
X249452D01*
G01X259000Y317048D02*
Y321000D01*
G01D02*
Y324952D01*
G01X255048Y321000D02*
X259000D01*
G01D02*
X262952D01*
G01X259000Y337048D02*
Y341000D01*
G01D02*
Y344952D01*
G01X255048Y341000D02*
X259000D01*
G01D02*
X262952D01*
G01X262000Y370548D02*
Y374000D01*
G01D02*
Y377452D01*
G01X258548Y374000D02*
X262000D01*
G01D02*
X265452D01*
G01X252000Y450548D02*
Y454000D01*
G01D02*
Y457452D01*
G01X248548Y454000D02*
X252000D01*
G01D02*
X255452D01*
G01X273700Y131948D02*
Y135400D01*
G01D02*
Y138852D01*
G01X270248Y135400D02*
X273700D01*
G01D02*
X277152D01*
G01X274000Y215548D02*
Y219000D01*
G01D02*
Y222452D01*
G01X270548Y219000D02*
X274000D01*
G01D02*
X277452D01*
G01X295000Y309548D02*
Y313000D01*
G01D02*
Y316452D01*
G01X291548Y313000D02*
X295000D01*
G01D02*
X298452D01*
G01X294548Y454000D02*
X298000D01*
G01X307000Y215548D02*
Y219000D01*
G01D02*
Y222452D01*
G01X303548Y219000D02*
X307000D01*
G01D02*
X310452D01*
G01X323548Y323000D02*
X327000D01*
G01X323548Y351000D02*
X327000D01*
G01X322000Y370548D02*
Y374000D01*
G01D02*
Y377452D01*
G01X318548Y374000D02*
X322000D01*
G01D02*
X325452D01*
G01X312000Y370548D02*
Y374000D01*
G01D02*
Y377452D01*
G01X308548Y374000D02*
X312000D01*
G01D02*
X315452D01*
G01X298000Y450548D02*
Y454000D01*
G01D02*
Y457452D01*
G01Y454000D02*
X301452D01*
G01X334000Y179548D02*
Y183000D01*
G01X343000Y192548D02*
Y196000D01*
G01D02*
Y199452D01*
G01X339548Y196000D02*
X343000D01*
G01D02*
X346452D01*
G01X334000Y183000D02*
Y186452D01*
G01X330548Y183000D02*
X334000D01*
G01D02*
X337452D01*
G01X352000Y243548D02*
Y247000D01*
G01D02*
Y250452D01*
G01X348548Y247000D02*
X352000D01*
G01D02*
X355452D01*
G01X353000Y322548D02*
Y326000D01*
G01D02*
Y329452D01*
G01X349548Y326000D02*
X353000D01*
G01D02*
X356452D01*
G01X327000Y319548D02*
Y323000D01*
G01D02*
Y326452D01*
G01Y323000D02*
X330452D01*
G01X353000Y332548D02*
Y336000D01*
G01X349548D02*
X353000D01*
G01D02*
X356452D01*
G01X353000Y342548D02*
Y346000D01*
G01D02*
Y349452D01*
G01X349548Y346000D02*
X353000D01*
G01D02*
X356452D01*
G01X327000Y347548D02*
Y351000D01*
G01D02*
Y354452D01*
G01Y351000D02*
X330452D01*
G01X332000Y370548D02*
Y374000D01*
G01D02*
Y377452D01*
G01X328548Y374000D02*
X332000D01*
G01D02*
X335452D01*
G01X344000Y450548D02*
Y454000D01*
G01D02*
Y457452D01*
G01X340548Y454000D02*
X344000D01*
G01D02*
X347452D01*
G01X364000Y179548D02*
Y183000D01*
G01Y169548D02*
Y173000D01*
G01D02*
Y176452D01*
G01X360548Y173000D02*
X364000D01*
G01D02*
X367452D01*
G01X364000Y183000D02*
Y186452D01*
G01X360548Y183000D02*
X364000D01*
G01D02*
X367452D01*
G01X367000Y244548D02*
Y248000D01*
G01D02*
Y251452D01*
G01X363548Y248000D02*
X367000D01*
G01D02*
X370452D01*
G01X363000Y312548D02*
Y316000D01*
G01D02*
Y319452D01*
G01X359548Y316000D02*
X363000D01*
G01D02*
X366452D01*
G01X363000Y322548D02*
Y326000D01*
G01X359548D02*
X363000D01*
G01D02*
X366452D01*
G01X363000Y332548D02*
Y336000D01*
G01D02*
Y339452D01*
G01X359548Y336000D02*
X363000D01*
G01D02*
X366452D01*
G01X363000Y342548D02*
Y346000D01*
G01D02*
Y349452D01*
G01X359548Y346000D02*
X363000D01*
G01D02*
X366452D01*
G01X400000Y360548D02*
Y364000D01*
G01D02*
Y367452D01*
G01X396548Y364000D02*
X400000D01*
G01D02*
X403452D01*
G01X400000Y406548D02*
Y410000D01*
G01D02*
Y413452D01*
G01X396548Y410000D02*
X400000D01*
G01D02*
X403452D01*
G01X390000Y450548D02*
Y454000D01*
G01D02*
Y457452D01*
G01X386548Y454000D02*
X390000D01*
G01D02*
X393452D01*
M02*
