G04 ================== begin FILE IDENTIFICATION RECORD ==================*
G04 Layout Name:  C:/Cadence/Projects/i2c_switch/i2c_switch.brd*
G04 Film Name:    silkscreen_top*
G04 File Format:  Gerber RS274X*
G04 File Origin:  Cadence Allegro 16.3-p003*
G04 Origin Date:  Sat Aug 08 14:24:34 2020*
G04 *
G04 Layer:  PACKAGE GEOMETRY/PIN_NUMBER*
G04 Layer:  PACKAGE GEOMETRY/SILKSCREEN_TOP*
G04 Layer:  MANUFACTURING/AUTOSILK_TOP*
G04 *
G04 Offset:    (0.00 0.00)*
G04 Mirror:    No*
G04 Mode:      Positive*
G04 Rotation:  0*
G04 FullContactRelief:  No*
G04 UndefLineWidth:     8.00*
G04 ================== end FILE IDENTIFICATION RECORD ====================*
%FSLAX55Y55*MOIN*%
%IR0*IPPOS*OFA0.00000B0.00000*MIA0B0*SFA1.00000B1.00000*%
%ADD10C,.01969*%
%ADD11C,.008*%
G75*
%LPD*%
G75*
G54D10*
G01X176700Y179547D02*
Y80100D01*
X268136D01*
G01X184600Y198600D02*
X176700Y190700D01*
Y183053D01*
G01X205719Y198600D02*
X184600D01*
G01X271566Y80100D02*
X287300D01*
Y198600D01*
X206481D01*
G54D11*
G01X112350Y97000D02*
Y100100D01*
X111890Y99480D01*
G01Y97000D02*
X112810D01*
G01X112647Y127000D02*
X112700Y127542D01*
X112780Y128000D01*
X112887Y128417D01*
X113020Y128875D01*
X113233Y129500D01*
X112167D01*
G01X112350Y153000D02*
Y156100D01*
X111890Y155480D01*
G01Y153000D02*
X112810D01*
G01X112647Y183000D02*
X112700Y183542D01*
X112780Y184000D01*
X112887Y184417D01*
X113020Y184875D01*
X113233Y185500D01*
X112167D01*
G01X112350Y209000D02*
Y212100D01*
X111890Y211480D01*
G01Y209000D02*
X112810D01*
G01X112647Y239000D02*
X112700Y239542D01*
X112780Y240000D01*
X112887Y240417D01*
X113020Y240875D01*
X113233Y241500D01*
X112167D01*
G01X112350Y265000D02*
Y268100D01*
X111890Y267480D01*
G01Y265000D02*
X112810D01*
G01X112647Y295000D02*
X112700Y295542D01*
X112780Y296000D01*
X112887Y296417D01*
X113020Y296875D01*
X113233Y297500D01*
X112167D01*
G01X116000Y92000D02*
Y132000D01*
X136000D01*
Y92000D01*
X116000D01*
G01D02*
X136000D01*
Y115839D01*
G01Y118161D02*
Y132000D01*
X132161D01*
G01X119839D02*
X116000D01*
Y92000D01*
G01X136622Y99583D02*
X136852Y99893D01*
X137120Y100048D01*
X137427Y100100D01*
X137810Y99997D01*
X138078Y99738D01*
X138155Y99428D01*
X138117Y99118D01*
X137963Y98860D01*
X137197Y98343D01*
X136852Y97982D01*
X136622Y97465D01*
X136545Y97000D01*
X138155D01*
G01X127183Y135000D02*
X127500Y134500D01*
X127880Y134167D01*
X128323Y134000D01*
X128830Y134167D01*
X129210Y134500D01*
X129590Y135000D01*
X129717Y135667D01*
Y139000D01*
G01X132347Y138167D02*
X132727Y138667D01*
X133170Y138917D01*
X133677Y139000D01*
X134310Y138833D01*
X134753Y138417D01*
X134880Y137917D01*
X134817Y137417D01*
X134563Y137000D01*
X133297Y136167D01*
X132727Y135583D01*
X132347Y134750D01*
X132220Y134000D01*
X134880D01*
G01X129839Y132000D02*
X122161D01*
G01X137700Y127000D02*
X137887Y127042D01*
X138100Y127167D01*
X138233Y127375D01*
X138287Y127667D01*
X138233Y127958D01*
X138073Y128208D01*
X137833Y128333D01*
X137567D01*
X137407Y128417D01*
X137273Y128625D01*
X137220Y128917D01*
X137300Y129208D01*
X137487Y129417D01*
X137700Y129500D01*
X137913Y129417D01*
X138100Y129208D01*
X138180Y128917D01*
X138127Y128625D01*
X137993Y128417D01*
X137833Y128333D01*
X137567D01*
X137327Y128208D01*
X137167Y127958D01*
X137113Y127667D01*
X137167Y127375D01*
X137300Y127167D01*
X137513Y127042D01*
X137700Y127000D01*
G01X116000Y148000D02*
Y188000D01*
X136000D01*
Y148000D01*
X116000D01*
G01D02*
X136000D01*
Y188000D01*
X116000D01*
Y148000D01*
G01X150867Y149000D02*
Y145900D01*
X149908D01*
X149602Y146055D01*
X149410Y146262D01*
X149333Y146675D01*
X149410Y147088D01*
X149640Y147347D01*
X149908Y147502D01*
X150867D01*
G01X149908D02*
X149333Y149000D01*
G01X147000D02*
Y145900D01*
X147460Y146520D01*
G01Y149000D02*
X146540D01*
G01X143900Y145900D02*
X144207Y146003D01*
X144437Y146262D01*
X144590Y146572D01*
X144705Y146985D01*
X144743Y147450D01*
X144705Y147915D01*
X144590Y148328D01*
X144437Y148638D01*
X144207Y148897D01*
X143900Y149000D01*
X143593Y148897D01*
X143363Y148638D01*
X143210Y148328D01*
X143095Y147915D01*
X143057Y147450D01*
X143095Y146985D01*
X143210Y146572D01*
X143363Y146262D01*
X143593Y146003D01*
X143900Y145900D01*
G01X136622Y155583D02*
X136852Y155893D01*
X137120Y156048D01*
X137427Y156100D01*
X137810Y155997D01*
X138078Y155738D01*
X138155Y155428D01*
X138117Y155118D01*
X137963Y154860D01*
X137197Y154343D01*
X136852Y153982D01*
X136622Y153465D01*
X136545Y153000D01*
X138155D01*
G01X127183Y191000D02*
X127500Y190500D01*
X127880Y190167D01*
X128323Y190000D01*
X128830Y190167D01*
X129210Y190500D01*
X129590Y191000D01*
X129717Y191667D01*
Y195000D01*
G01X132157Y191000D02*
X132537Y190417D01*
X133043Y190083D01*
X133613Y190000D01*
X134120Y190083D01*
X134627Y190500D01*
X134943Y191000D01*
X135007Y191500D01*
X134880Y192083D01*
X134437Y192500D01*
X133993Y192667D01*
X133423D01*
G01X133993D02*
X134373Y192917D01*
X134690Y193333D01*
X134817Y193833D01*
X134690Y194333D01*
X134373Y194750D01*
X133803Y195000D01*
X133233Y194917D01*
X132663Y194583D01*
G01X137700Y183000D02*
X137887Y183042D01*
X138100Y183167D01*
X138233Y183375D01*
X138287Y183667D01*
X138233Y183958D01*
X138073Y184208D01*
X137833Y184333D01*
X137567D01*
X137407Y184417D01*
X137273Y184625D01*
X137220Y184917D01*
X137300Y185208D01*
X137487Y185417D01*
X137700Y185500D01*
X137913Y185417D01*
X138100Y185208D01*
X138180Y184917D01*
X138127Y184625D01*
X137993Y184417D01*
X137833Y184333D01*
X137567D01*
X137327Y184208D01*
X137167Y183958D01*
X137113Y183667D01*
X137167Y183375D01*
X137300Y183167D01*
X137513Y183042D01*
X137700Y183000D01*
G01X116000Y204000D02*
Y244000D01*
X136000D01*
Y204000D01*
X116000D01*
G01D02*
X136000D01*
Y244000D01*
X116000D01*
Y204000D01*
G01X136622Y211583D02*
X136852Y211893D01*
X137120Y212048D01*
X137427Y212100D01*
X137810Y211997D01*
X138078Y211738D01*
X138155Y211428D01*
X138117Y211118D01*
X137963Y210860D01*
X137197Y210343D01*
X136852Y209982D01*
X136622Y209465D01*
X136545Y209000D01*
X138155D01*
G01X137700Y239000D02*
X137887Y239042D01*
X138100Y239167D01*
X138233Y239375D01*
X138287Y239667D01*
X138233Y239958D01*
X138073Y240208D01*
X137833Y240333D01*
X137567D01*
X137407Y240417D01*
X137273Y240625D01*
X137220Y240917D01*
X137300Y241208D01*
X137487Y241417D01*
X137700Y241500D01*
X137913Y241417D01*
X138100Y241208D01*
X138180Y240917D01*
X138127Y240625D01*
X137993Y240417D01*
X137833Y240333D01*
X137567D01*
X137327Y240208D01*
X137167Y239958D01*
X137113Y239667D01*
X137167Y239375D01*
X137300Y239167D01*
X137513Y239042D01*
X137700Y239000D01*
G01X127183Y247000D02*
X127500Y246500D01*
X127880Y246167D01*
X128323Y246000D01*
X128830Y246167D01*
X129210Y246500D01*
X129590Y247000D01*
X129717Y247667D01*
Y251000D01*
G01X134310Y246000D02*
Y251000D01*
X131967Y247417D01*
X135133D01*
G01X116000Y260000D02*
Y300000D01*
X136000D01*
Y260000D01*
X116000D01*
G01D02*
X136000D01*
Y300000D01*
X116000D01*
Y260000D01*
G01X136622Y267583D02*
X136852Y267893D01*
X137120Y268048D01*
X137427Y268100D01*
X137810Y267997D01*
X138078Y267738D01*
X138155Y267428D01*
X138117Y267118D01*
X137963Y266860D01*
X137197Y266343D01*
X136852Y265982D01*
X136622Y265465D01*
X136545Y265000D01*
X138155D01*
G01X137700Y295000D02*
X137887Y295042D01*
X138100Y295167D01*
X138233Y295375D01*
X138287Y295667D01*
X138233Y295958D01*
X138073Y296208D01*
X137833Y296333D01*
X137567D01*
X137407Y296417D01*
X137273Y296625D01*
X137220Y296917D01*
X137300Y297208D01*
X137487Y297417D01*
X137700Y297500D01*
X137913Y297417D01*
X138100Y297208D01*
X138180Y296917D01*
X138127Y296625D01*
X137993Y296417D01*
X137833Y296333D01*
X137567D01*
X137327Y296208D01*
X137167Y295958D01*
X137113Y295667D01*
X137167Y295375D01*
X137300Y295167D01*
X137513Y295042D01*
X137700Y295000D01*
G01X121183Y304000D02*
X121500Y303500D01*
X121880Y303167D01*
X122323Y303000D01*
X122830Y303167D01*
X123210Y303500D01*
X123590Y304000D01*
X123717Y304667D01*
Y308000D01*
G01X126157Y303750D02*
X126537Y303333D01*
X126980Y303083D01*
X127550Y303000D01*
X128120Y303167D01*
X128563Y303500D01*
X128880Y304083D01*
X128943Y304750D01*
X128817Y305417D01*
X128500Y305833D01*
X128057Y306167D01*
X127613Y306250D01*
X127170Y306167D01*
X126600Y305833D01*
X126790Y308000D01*
X128500D01*
G01X141000Y334000D02*
G03I-10000J0D01*
G01X121000D02*
G03X131000Y324000I10000J0D01*
G01D02*
G03X141000Y334000I0J10000D01*
G01X137878Y326417D02*
X137648Y326107D01*
X137380Y325952D01*
X137073Y325900D01*
X136690Y326003D01*
X136422Y326262D01*
X136345Y326572D01*
X136383Y326882D01*
X136537Y327140D01*
X137303Y327657D01*
X137648Y328018D01*
X137878Y328535D01*
X137955Y329000D01*
X136345D01*
G01X134707Y349417D02*
X135087Y349167D01*
X135530Y349000D01*
X136037D01*
X136607Y349250D01*
X137050Y349667D01*
X137367Y350167D01*
X137620Y351000D01*
X137683Y351750D01*
X137557Y352500D01*
X137367Y353000D01*
X136987Y353500D01*
X136543Y353833D01*
X136100Y354000D01*
X135657D01*
X135213Y353833D01*
X134833Y353583D01*
X134517Y353250D01*
G01X131000Y354000D02*
Y349000D01*
X131760Y350000D01*
G01Y354000D02*
X130240D01*
G01X125140D02*
Y349000D01*
X127483Y352583D01*
X124317D01*
G01X141000Y334000D02*
G03X131000Y344000I-10000J0D01*
G01D02*
G03X121000Y334000I0J-10000D01*
G01X137150Y339000D02*
Y335900D01*
X137610Y336520D01*
G01Y339000D02*
X136690D01*
G01X135000Y449000D02*
Y459000D01*
X175000D01*
Y449000D01*
X135000D01*
G01D02*
X175000D01*
Y459000D01*
X151161D01*
G01X148839D02*
X135000D01*
Y449000D01*
G01X132933Y461200D02*
X133250Y460700D01*
X133630Y460367D01*
X134073Y460200D01*
X134580Y460367D01*
X134960Y460700D01*
X135340Y461200D01*
X135467Y461867D01*
Y465200D01*
G01X139300Y460200D02*
Y465200D01*
X138540Y464200D01*
G01Y460200D02*
X140060D01*
G01X144400D02*
X144843Y460283D01*
X145350Y460533D01*
X145667Y460950D01*
X145793Y461533D01*
X145667Y462117D01*
X145287Y462617D01*
X144717Y462867D01*
X144083D01*
X143703Y463033D01*
X143387Y463450D01*
X143260Y464033D01*
X143450Y464617D01*
X143893Y465033D01*
X144400Y465200D01*
X144907Y465033D01*
X145350Y464617D01*
X145540Y464033D01*
X145413Y463450D01*
X145097Y463033D01*
X144717Y462867D01*
X144083D01*
X143513Y462617D01*
X143133Y462117D01*
X143007Y461533D01*
X143133Y460950D01*
X143450Y460533D01*
X143957Y460283D01*
X144400Y460200D01*
G01X137050Y455600D02*
Y458700D01*
X136590Y458080D01*
G01Y455600D02*
X137510D01*
G01X162000Y164000D02*
Y136000D01*
X152000D01*
Y164000D01*
X162000D01*
G01X156421D02*
X152000D01*
Y136000D01*
X162000D01*
Y164000D01*
G01X163878Y127417D02*
X163648Y127107D01*
X163380Y126952D01*
X163073Y126900D01*
X162690Y127003D01*
X162422Y127262D01*
X162345Y127572D01*
X162383Y127882D01*
X162537Y128140D01*
X163303Y128657D01*
X163648Y129018D01*
X163878Y129535D01*
X163955Y130000D01*
X162345D01*
G01X162000Y164000D02*
X157579D01*
G01X163150Y170000D02*
Y166900D01*
X163610Y167520D01*
G01Y170000D02*
X162690D01*
G01X162000Y222000D02*
Y194000D01*
X152000D01*
Y222000D01*
X162000D01*
G01D02*
X152000D01*
Y194000D01*
X162000D01*
Y222000D01*
G01X163878Y185417D02*
X163648Y185107D01*
X163380Y184952D01*
X163073Y184900D01*
X162690Y185003D01*
X162422Y185262D01*
X162345Y185572D01*
X162383Y185882D01*
X162537Y186140D01*
X163303Y186657D01*
X163648Y187018D01*
X163878Y187535D01*
X163955Y188000D01*
X162345D01*
G01X160867Y237000D02*
Y233900D01*
X159908D01*
X159602Y234055D01*
X159410Y234262D01*
X159333Y234675D01*
X159410Y235088D01*
X159640Y235347D01*
X159908Y235502D01*
X160867D01*
G01X159908D02*
X159333Y237000D01*
G01X157000D02*
Y233900D01*
X157460Y234520D01*
G01Y237000D02*
X156540D01*
G01X153900D02*
Y233900D01*
X154360Y234520D01*
G01Y237000D02*
X153440D01*
G01X163150Y228000D02*
Y224900D01*
X163610Y225520D01*
G01Y228000D02*
X162690D01*
G01X161000Y267000D02*
Y277000D01*
X201000D01*
Y267000D01*
X161000D01*
G01D02*
X164839D01*
G01X167161D02*
X201000D01*
Y277000D01*
X161000D01*
Y267000D01*
G01X162433Y297700D02*
X162750Y297200D01*
X163130Y296867D01*
X163573Y296700D01*
X164080Y296867D01*
X164460Y297200D01*
X164840Y297700D01*
X164967Y298367D01*
Y301700D01*
G01X167597Y300867D02*
X167977Y301367D01*
X168420Y301617D01*
X168927Y301700D01*
X169560Y301533D01*
X170003Y301117D01*
X170130Y300617D01*
X170067Y300117D01*
X169813Y299700D01*
X168547Y298867D01*
X167977Y298283D01*
X167597Y297450D01*
X167470Y296700D01*
X170130D01*
G01X172697Y300867D02*
X173077Y301367D01*
X173520Y301617D01*
X174027Y301700D01*
X174660Y301533D01*
X175103Y301117D01*
X175230Y300617D01*
X175167Y300117D01*
X174913Y299700D01*
X173647Y298867D01*
X173077Y298283D01*
X172697Y297450D01*
X172570Y296700D01*
X175230D01*
G01X161000Y282000D02*
Y292000D01*
X201000D01*
Y282000D01*
X161000D01*
G01D02*
X201000D01*
Y292000D01*
X161000D01*
Y282000D01*
G01X172322Y291183D02*
X172552Y291493D01*
X172820Y291648D01*
X173127Y291700D01*
X173510Y291597D01*
X173778Y291338D01*
X173855Y291028D01*
X173817Y290718D01*
X173663Y290460D01*
X172897Y289943D01*
X172552Y289582D01*
X172322Y289065D01*
X172245Y288600D01*
X173855D01*
G01X163050D02*
Y291700D01*
X162590Y291080D01*
G01Y288600D02*
X163510D01*
G01X158933Y279200D02*
X159250Y278700D01*
X159630Y278367D01*
X160073Y278200D01*
X160580Y278367D01*
X160960Y278700D01*
X161340Y279200D01*
X161467Y279867D01*
Y283200D01*
G01X164097Y282367D02*
X164477Y282867D01*
X164920Y283117D01*
X165427Y283200D01*
X166060Y283033D01*
X166503Y282617D01*
X166630Y282117D01*
X166567Y281617D01*
X166313Y281200D01*
X165047Y280367D01*
X164477Y279783D01*
X164097Y278950D01*
X163970Y278200D01*
X166630D01*
G01X169197Y280283D02*
X169640Y280867D01*
X170020Y281200D01*
X170527Y281367D01*
X170970Y281200D01*
X171287Y280867D01*
X171540Y280367D01*
X171603Y279783D01*
X171540Y279283D01*
X171287Y278783D01*
X170907Y278367D01*
X170463Y278200D01*
X169957Y278367D01*
X169513Y278867D01*
X169260Y279617D01*
X169197Y280450D01*
X169323Y281533D01*
X169513Y282117D01*
X169830Y282700D01*
X170273Y283117D01*
X170717Y283200D01*
X171160Y283033D01*
X171477Y282617D01*
G01X172322Y276183D02*
X172552Y276493D01*
X172820Y276648D01*
X173127Y276700D01*
X173510Y276597D01*
X173778Y276338D01*
X173855Y276028D01*
X173817Y275718D01*
X173663Y275460D01*
X172897Y274943D01*
X172552Y274582D01*
X172322Y274065D01*
X172245Y273600D01*
X173855D01*
G01X163050D02*
Y276700D01*
X162590Y276080D01*
G01Y273600D02*
X163510D01*
G01X161000Y324000D02*
X151000D01*
Y344000D01*
X161000D01*
Y324000D01*
G01D02*
Y344000D01*
X151000D01*
Y324000D01*
X161000D01*
G01X155400Y326750D02*
X152300D01*
X152920Y326290D01*
G01X155400D02*
Y327210D01*
G01X165034Y308099D02*
X161934D01*
Y309058D01*
X162089Y309364D01*
X162296Y309556D01*
X162709Y309633D01*
X163122Y309556D01*
X163381Y309326D01*
X163536Y309058D01*
Y308099D01*
G01Y309058D02*
X165034Y309633D01*
G01Y311966D02*
X161934D01*
X162554Y311506D01*
G01X165034D02*
Y312426D01*
G01Y314989D02*
X164362Y315066D01*
X163794Y315181D01*
X163277Y315334D01*
X162709Y315526D01*
X161934Y315833D01*
Y314299D01*
G01X180000Y344000D02*
Y316000D01*
X170000D01*
Y344000D01*
X180000D01*
G01D02*
X170000D01*
Y316000D01*
X180000D01*
Y344000D01*
G01X151380Y345683D02*
X151690Y345875D01*
X151897Y346105D01*
X152000Y346373D01*
X151897Y346680D01*
X151690Y346910D01*
X151380Y347140D01*
X150967Y347217D01*
X148900D01*
G01X152000Y349550D02*
X148900D01*
X149520Y349090D01*
G01X152000D02*
Y350010D01*
G01X152817Y335893D02*
X152567Y336053D01*
X152442Y336240D01*
X152400Y336453D01*
X152483Y336720D01*
X152692Y336907D01*
X152942Y336960D01*
X153192Y336933D01*
X153400Y336827D01*
X153817Y336293D01*
X154108Y336053D01*
X154525Y335893D01*
X154900Y335840D01*
Y336960D01*
G01X173057Y382000D02*
Y387000D01*
X174323D01*
X174830Y386750D01*
X175210Y386417D01*
X175527Y385917D01*
X175780Y385333D01*
X175843Y384500D01*
X175780Y383667D01*
X175527Y383083D01*
X175210Y382583D01*
X174830Y382250D01*
X174323Y382000D01*
X173057D01*
G01X180310D02*
Y387000D01*
X177967Y383417D01*
X181133D01*
G01X181000Y370000D02*
G03I-10000J0D01*
G01D02*
G03X171000Y380000I-10000J0D01*
G01D02*
G03X161000Y370000I0J-10000D01*
G01D02*
G03X171000Y360000I10000J0D01*
G01D02*
G03X181000Y370000I0J10000D01*
G01X164122Y377583D02*
X164352Y377893D01*
X164620Y378048D01*
X164927Y378100D01*
X165310Y377997D01*
X165578Y377738D01*
X165655Y377428D01*
X165617Y377118D01*
X165463Y376860D01*
X164697Y376343D01*
X164352Y375982D01*
X164122Y375465D01*
X164045Y375000D01*
X165655D01*
G01X164850Y365000D02*
Y368100D01*
X164390Y367480D01*
G01Y365000D02*
X165310D01*
G01X167510Y455600D02*
Y458700D01*
X166092Y456478D01*
X168008D01*
G01X156207Y456220D02*
X156437Y455858D01*
X156743Y455652D01*
X157088Y455600D01*
X157395Y455652D01*
X157702Y455910D01*
X157893Y456220D01*
X157932Y456530D01*
X157855Y456892D01*
X157587Y457150D01*
X157318Y457253D01*
X156973D01*
G01X157318D02*
X157548Y457408D01*
X157740Y457667D01*
X157817Y457977D01*
X157740Y458287D01*
X157548Y458545D01*
X157203Y458700D01*
X156858Y458648D01*
X156513Y458442D01*
G01X146322Y458183D02*
X146552Y458493D01*
X146820Y458648D01*
X147127Y458700D01*
X147510Y458597D01*
X147778Y458338D01*
X147855Y458028D01*
X147817Y457718D01*
X147663Y457460D01*
X146897Y456943D01*
X146552Y456582D01*
X146322Y456065D01*
X146245Y455600D01*
X147855D01*
G01X200305Y88000D02*
Y90500D01*
X199985Y90000D01*
G01Y88000D02*
X200625D01*
G01X202048Y88292D02*
X202235Y88083D01*
X202448Y88000D01*
X202661Y88083D01*
X202847Y88333D01*
X202980Y88708D01*
X203034Y89083D01*
Y89542D01*
X202980Y89917D01*
X202847Y90250D01*
X202687Y90417D01*
X202501Y90500D01*
X202288Y90417D01*
X202128Y90250D01*
X202022Y90000D01*
X201968Y89667D01*
X202022Y89375D01*
X202155Y89083D01*
X202315Y88917D01*
X202501Y88875D01*
X202714Y88958D01*
X202874Y89167D01*
X203034Y89542D01*
G01X192405Y88000D02*
Y90500D01*
X192085Y90000D01*
G01Y88000D02*
X192725D01*
G01X194548D02*
X194601Y88542D01*
X194681Y89000D01*
X194787Y89417D01*
X194921Y89875D01*
X195134Y90500D01*
X194068D01*
G01X199799Y97983D02*
X199959Y98233D01*
X200145Y98358D01*
X200358Y98400D01*
X200625Y98317D01*
X200811Y98108D01*
X200864Y97858D01*
X200838Y97608D01*
X200731Y97400D01*
X200198Y96983D01*
X199959Y96692D01*
X199799Y96275D01*
X199746Y95900D01*
X200864D01*
G01X202501Y98400D02*
X202288Y98317D01*
X202128Y98108D01*
X202022Y97858D01*
X201942Y97525D01*
X201915Y97150D01*
X201942Y96775D01*
X202022Y96442D01*
X202128Y96192D01*
X202288Y95983D01*
X202501Y95900D01*
X202714Y95983D01*
X202874Y96192D01*
X202980Y96442D01*
X203060Y96775D01*
X203087Y97150D01*
X203060Y97525D01*
X202980Y97858D01*
X202874Y98108D01*
X202714Y98317D01*
X202501Y98400D01*
G01X192405Y95900D02*
Y98400D01*
X192085Y97900D01*
G01Y95900D02*
X192725D01*
G01X194601D02*
X194787Y95942D01*
X195000Y96067D01*
X195134Y96275D01*
X195187Y96567D01*
X195134Y96858D01*
X194974Y97108D01*
X194734Y97233D01*
X194468D01*
X194308Y97317D01*
X194175Y97525D01*
X194122Y97817D01*
X194202Y98108D01*
X194388Y98317D01*
X194601Y98400D01*
X194814Y98317D01*
X195000Y98108D01*
X195080Y97817D01*
X195027Y97525D01*
X194894Y97317D01*
X194734Y97233D01*
X194468D01*
X194228Y97108D01*
X194068Y96858D01*
X194015Y96567D01*
X194068Y96275D01*
X194202Y96067D01*
X194415Y95942D01*
X194601Y95900D01*
G01X184505Y111700D02*
Y114200D01*
X184185Y113700D01*
G01Y111700D02*
X184825D01*
G01X186195Y112742D02*
X186381Y113033D01*
X186541Y113200D01*
X186754Y113283D01*
X186941Y113200D01*
X187074Y113033D01*
X187180Y112783D01*
X187207Y112492D01*
X187180Y112242D01*
X187074Y111992D01*
X186914Y111783D01*
X186728Y111700D01*
X186515Y111783D01*
X186328Y112033D01*
X186222Y112408D01*
X186195Y112825D01*
X186248Y113367D01*
X186328Y113658D01*
X186461Y113950D01*
X186648Y114158D01*
X186834Y114200D01*
X187021Y114117D01*
X187154Y113908D01*
G01X176605Y111700D02*
Y114200D01*
X176285Y113700D01*
G01Y111700D02*
X176925D01*
G01X178215Y112075D02*
X178375Y111867D01*
X178561Y111742D01*
X178801Y111700D01*
X179041Y111783D01*
X179227Y111950D01*
X179360Y112242D01*
X179387Y112575D01*
X179334Y112908D01*
X179200Y113117D01*
X179014Y113283D01*
X178828Y113325D01*
X178641Y113283D01*
X178402Y113117D01*
X178481Y114200D01*
X179200D01*
G01X184505Y119600D02*
Y122100D01*
X184185Y121600D01*
G01Y119600D02*
X184825D01*
G01X187021D02*
Y122100D01*
X186035Y120308D01*
X187367D01*
G01X176605Y119600D02*
Y122100D01*
X176285Y121600D01*
G01Y119600D02*
X176925D01*
G01X178215Y120100D02*
X178375Y119808D01*
X178588Y119642D01*
X178828Y119600D01*
X179041Y119642D01*
X179254Y119850D01*
X179387Y120100D01*
X179414Y120350D01*
X179360Y120642D01*
X179174Y120850D01*
X178987Y120933D01*
X178748D01*
G01X178987D02*
X179147Y121058D01*
X179280Y121267D01*
X179334Y121517D01*
X179280Y121767D01*
X179147Y121975D01*
X178908Y122100D01*
X178668Y122058D01*
X178428Y121892D01*
G01X184505Y127500D02*
Y130000D01*
X184185Y129500D01*
G01Y127500D02*
X184825D01*
G01X186195Y129583D02*
X186355Y129833D01*
X186541Y129958D01*
X186754Y130000D01*
X187021Y129917D01*
X187207Y129708D01*
X187260Y129458D01*
X187234Y129208D01*
X187127Y129000D01*
X186594Y128583D01*
X186355Y128292D01*
X186195Y127875D01*
X186142Y127500D01*
X187260D01*
G01X176605D02*
Y130000D01*
X176285Y129500D01*
G01Y127500D02*
X176925D01*
G01X178801D02*
Y130000D01*
X178481Y129500D01*
G01Y127500D02*
X179121D01*
G01X184505Y135400D02*
Y137900D01*
X184185Y137400D01*
G01Y135400D02*
X184825D01*
G01X186701Y137900D02*
X186488Y137817D01*
X186328Y137608D01*
X186222Y137358D01*
X186142Y137025D01*
X186115Y136650D01*
X186142Y136275D01*
X186222Y135942D01*
X186328Y135692D01*
X186488Y135483D01*
X186701Y135400D01*
X186914Y135483D01*
X187074Y135692D01*
X187180Y135942D01*
X187260Y136275D01*
X187287Y136650D01*
X187260Y137025D01*
X187180Y137358D01*
X187074Y137608D01*
X186914Y137817D01*
X186701Y137900D01*
G01X178348Y135692D02*
X178535Y135483D01*
X178748Y135400D01*
X178961Y135483D01*
X179147Y135733D01*
X179280Y136108D01*
X179334Y136483D01*
Y136942D01*
X179280Y137317D01*
X179147Y137650D01*
X178987Y137817D01*
X178801Y137900D01*
X178588Y137817D01*
X178428Y137650D01*
X178322Y137400D01*
X178268Y137067D01*
X178322Y136775D01*
X178455Y136483D01*
X178615Y136317D01*
X178801Y136275D01*
X179014Y136358D01*
X179174Y136567D01*
X179334Y136942D01*
G01X186701Y143300D02*
X186887Y143342D01*
X187100Y143467D01*
X187234Y143675D01*
X187287Y143967D01*
X187234Y144258D01*
X187074Y144508D01*
X186834Y144633D01*
X186568D01*
X186408Y144717D01*
X186275Y144925D01*
X186222Y145217D01*
X186302Y145508D01*
X186488Y145717D01*
X186701Y145800D01*
X186914Y145717D01*
X187100Y145508D01*
X187180Y145217D01*
X187127Y144925D01*
X186994Y144717D01*
X186834Y144633D01*
X186568D01*
X186328Y144508D01*
X186168Y144258D01*
X186115Y143967D01*
X186168Y143675D01*
X186302Y143467D01*
X186515Y143342D01*
X186701Y143300D01*
G01X178748D02*
X178801Y143842D01*
X178881Y144300D01*
X178987Y144717D01*
X179121Y145175D01*
X179334Y145800D01*
X178268D01*
G01X188407Y173598D02*
Y171378D01*
X188560Y170913D01*
X188866Y170603D01*
X189249Y170500D01*
X189633Y170603D01*
X189939Y170913D01*
X190092Y171378D01*
Y173598D01*
G01X191619Y173082D02*
X191849Y173391D01*
X192118Y173546D01*
X192424Y173598D01*
X192807Y173495D01*
X193076Y173237D01*
X193152Y172927D01*
X193114Y172617D01*
X192961Y172359D01*
X192194Y171842D01*
X191849Y171481D01*
X191619Y170965D01*
X191543Y170500D01*
X193152D01*
G01X191899Y181242D02*
X192085Y181533D01*
X192245Y181700D01*
X192458Y181783D01*
X192645Y181700D01*
X192778Y181533D01*
X192884Y181283D01*
X192911Y180992D01*
X192884Y180742D01*
X192778Y180492D01*
X192618Y180283D01*
X192432Y180200D01*
X192219Y180283D01*
X192032Y180533D01*
X191926Y180908D01*
X191899Y181325D01*
X191952Y181867D01*
X192032Y182158D01*
X192165Y182450D01*
X192352Y182658D01*
X192538Y182700D01*
X192725Y182617D01*
X192858Y182408D01*
G01X194921Y180200D02*
Y182700D01*
X193935Y180908D01*
X195267D01*
G01X199799Y181242D02*
X199985Y181533D01*
X200145Y181700D01*
X200358Y181783D01*
X200545Y181700D01*
X200678Y181533D01*
X200784Y181283D01*
X200811Y180992D01*
X200784Y180742D01*
X200678Y180492D01*
X200518Y180283D01*
X200332Y180200D01*
X200119Y180283D01*
X199932Y180533D01*
X199826Y180908D01*
X199799Y181325D01*
X199852Y181867D01*
X199932Y182158D01*
X200065Y182450D01*
X200252Y182658D01*
X200438Y182700D01*
X200625Y182617D01*
X200758Y182408D01*
G01X201995Y182283D02*
X202155Y182533D01*
X202341Y182658D01*
X202554Y182700D01*
X202821Y182617D01*
X203007Y182408D01*
X203060Y182158D01*
X203034Y181908D01*
X202927Y181700D01*
X202394Y181283D01*
X202155Y180992D01*
X201995Y180575D01*
X201942Y180200D01*
X203060D01*
G01X186195Y152242D02*
X186381Y152533D01*
X186541Y152700D01*
X186754Y152783D01*
X186941Y152700D01*
X187074Y152533D01*
X187180Y152283D01*
X187207Y151992D01*
X187180Y151742D01*
X187074Y151492D01*
X186914Y151283D01*
X186728Y151200D01*
X186515Y151283D01*
X186328Y151533D01*
X186222Y151908D01*
X186195Y152325D01*
X186248Y152867D01*
X186328Y153158D01*
X186461Y153450D01*
X186648Y153658D01*
X186834Y153700D01*
X187021Y153617D01*
X187154Y153408D01*
G01X178215Y151575D02*
X178375Y151367D01*
X178561Y151242D01*
X178801Y151200D01*
X179041Y151283D01*
X179227Y151450D01*
X179360Y151742D01*
X179387Y152075D01*
X179334Y152408D01*
X179200Y152617D01*
X179014Y152783D01*
X178828Y152825D01*
X178641Y152783D01*
X178402Y152617D01*
X178481Y153700D01*
X179200D01*
G01X187021Y159100D02*
Y161600D01*
X186035Y159808D01*
X187367D01*
G01X178215Y159600D02*
X178375Y159308D01*
X178588Y159142D01*
X178828Y159100D01*
X179041Y159142D01*
X179254Y159350D01*
X179387Y159600D01*
X179414Y159850D01*
X179360Y160142D01*
X179174Y160350D01*
X178987Y160433D01*
X178748D01*
G01X178987D02*
X179147Y160558D01*
X179280Y160767D01*
X179334Y161017D01*
X179280Y161267D01*
X179147Y161475D01*
X178908Y161600D01*
X178668Y161558D01*
X178428Y161392D01*
G01X186195Y169083D02*
X186355Y169333D01*
X186541Y169458D01*
X186754Y169500D01*
X187021Y169417D01*
X187207Y169208D01*
X187260Y168958D01*
X187234Y168708D01*
X187127Y168500D01*
X186594Y168083D01*
X186355Y167792D01*
X186195Y167375D01*
X186142Y167000D01*
X187260D01*
G01X178801D02*
Y169500D01*
X178481Y169000D01*
G01Y167000D02*
X179121D01*
G01X191899Y189142D02*
X192085Y189433D01*
X192245Y189600D01*
X192458Y189683D01*
X192645Y189600D01*
X192778Y189433D01*
X192884Y189183D01*
X192911Y188892D01*
X192884Y188642D01*
X192778Y188392D01*
X192618Y188183D01*
X192432Y188100D01*
X192219Y188183D01*
X192032Y188433D01*
X191926Y188808D01*
X191899Y189225D01*
X191952Y189767D01*
X192032Y190058D01*
X192165Y190350D01*
X192352Y190558D01*
X192538Y190600D01*
X192725Y190517D01*
X192858Y190308D01*
G01X194015Y188600D02*
X194175Y188308D01*
X194388Y188142D01*
X194628Y188100D01*
X194841Y188142D01*
X195054Y188350D01*
X195187Y188600D01*
X195214Y188850D01*
X195160Y189142D01*
X194974Y189350D01*
X194787Y189433D01*
X194548D01*
G01X194787D02*
X194947Y189558D01*
X195080Y189767D01*
X195134Y190017D01*
X195080Y190267D01*
X194947Y190475D01*
X194708Y190600D01*
X194468Y190558D01*
X194228Y190392D01*
G01X199799Y189142D02*
X199985Y189433D01*
X200145Y189600D01*
X200358Y189683D01*
X200545Y189600D01*
X200678Y189433D01*
X200784Y189183D01*
X200811Y188892D01*
X200784Y188642D01*
X200678Y188392D01*
X200518Y188183D01*
X200332Y188100D01*
X200119Y188183D01*
X199932Y188433D01*
X199826Y188808D01*
X199799Y189225D01*
X199852Y189767D01*
X199932Y190058D01*
X200065Y190350D01*
X200252Y190558D01*
X200438Y190600D01*
X200625Y190517D01*
X200758Y190308D01*
G01X202501Y188100D02*
Y190600D01*
X202181Y190100D01*
G01Y188100D02*
X202821D01*
G01X193510Y288600D02*
Y291700D01*
X192092Y289478D01*
X194008D01*
G01X182207Y289220D02*
X182437Y288858D01*
X182743Y288652D01*
X183088Y288600D01*
X183395Y288652D01*
X183702Y288910D01*
X183893Y289220D01*
X183932Y289530D01*
X183855Y289892D01*
X183587Y290150D01*
X183318Y290253D01*
X182973D01*
G01X183318D02*
X183548Y290408D01*
X183740Y290667D01*
X183817Y290977D01*
X183740Y291287D01*
X183548Y291545D01*
X183203Y291700D01*
X182858Y291648D01*
X182513Y291442D01*
G01X203933Y279200D02*
X204250Y278700D01*
X204630Y278367D01*
X205073Y278200D01*
X205580Y278367D01*
X205960Y278700D01*
X206340Y279200D01*
X206467Y279867D01*
Y283200D01*
G01X209097Y282367D02*
X209477Y282867D01*
X209920Y283117D01*
X210427Y283200D01*
X211060Y283033D01*
X211503Y282617D01*
X211630Y282117D01*
X211567Y281617D01*
X211313Y281200D01*
X210047Y280367D01*
X209477Y279783D01*
X209097Y278950D01*
X208970Y278200D01*
X211630D01*
G01X214007Y278950D02*
X214387Y278533D01*
X214830Y278283D01*
X215400Y278200D01*
X215970Y278367D01*
X216413Y278700D01*
X216730Y279283D01*
X216793Y279950D01*
X216667Y280617D01*
X216350Y281033D01*
X215907Y281367D01*
X215463Y281450D01*
X215020Y281367D01*
X214450Y281033D01*
X214640Y283200D01*
X216350D01*
G01X193510Y273600D02*
Y276700D01*
X192092Y274478D01*
X194008D01*
G01X182207Y274220D02*
X182437Y273858D01*
X182743Y273652D01*
X183088Y273600D01*
X183395Y273652D01*
X183702Y273910D01*
X183893Y274220D01*
X183932Y274530D01*
X183855Y274892D01*
X183587Y275150D01*
X183318Y275253D01*
X182973D01*
G01X183318D02*
X183548Y275408D01*
X183740Y275667D01*
X183817Y275977D01*
X183740Y276287D01*
X183548Y276545D01*
X183203Y276700D01*
X182858Y276648D01*
X182513Y276442D01*
G01X190000Y333493D02*
X186417D01*
X185667Y333240D01*
X185167Y332733D01*
X185000Y332100D01*
X185167Y331467D01*
X185667Y330960D01*
X186417Y330707D01*
X190000D01*
G01X185000Y326240D02*
X190000D01*
X186417Y328583D01*
Y325417D01*
G01X194000Y350000D02*
X211500D01*
Y310000D01*
X194000D01*
Y350000D01*
G01D02*
Y310000D01*
X211500D01*
Y319063D01*
G01X181878Y307417D02*
X181648Y307107D01*
X181380Y306952D01*
X181073Y306900D01*
X180690Y307003D01*
X180422Y307262D01*
X180345Y307572D01*
X180383Y307882D01*
X180537Y308140D01*
X181303Y308657D01*
X181648Y309018D01*
X181878Y309535D01*
X181955Y310000D01*
X180345D01*
G01X211500Y340937D02*
Y350000D01*
X194000D01*
G01X181150D02*
Y346900D01*
X181610Y347520D01*
G01Y350000D02*
X180690D01*
G01X205057Y382000D02*
Y387000D01*
X206323D01*
X206830Y386750D01*
X207210Y386417D01*
X207527Y385917D01*
X207780Y385333D01*
X207843Y384500D01*
X207780Y383667D01*
X207527Y383083D01*
X207210Y382583D01*
X206830Y382250D01*
X206323Y382000D01*
X205057D01*
G01X210157Y382750D02*
X210537Y382333D01*
X210980Y382083D01*
X211550Y382000D01*
X212120Y382167D01*
X212563Y382500D01*
X212880Y383083D01*
X212943Y383750D01*
X212817Y384417D01*
X212500Y384833D01*
X212057Y385167D01*
X211613Y385250D01*
X211170Y385167D01*
X210600Y384833D01*
X210790Y387000D01*
X212500D01*
G01X213000Y370000D02*
G03I-10000J0D01*
G01D02*
G03X203000Y380000I-10000J0D01*
G01D02*
G03X193000Y370000I0J-10000D01*
G01D02*
G03X203000Y360000I10000J0D01*
G01D02*
G03X213000Y370000I0J10000D01*
G01X196122Y377583D02*
X196352Y377893D01*
X196620Y378048D01*
X196927Y378100D01*
X197310Y377997D01*
X197578Y377738D01*
X197655Y377428D01*
X197617Y377118D01*
X197463Y376860D01*
X196697Y376343D01*
X196352Y375982D01*
X196122Y375465D01*
X196045Y375000D01*
X197655D01*
G01X196850Y365000D02*
Y368100D01*
X196390Y367480D01*
G01Y365000D02*
X197310D01*
G01X181000Y449000D02*
Y459000D01*
X221000D01*
Y449000D01*
X181000D01*
G01D02*
X221000D01*
Y459000D01*
X181000D01*
Y449000D01*
G01X178933Y461200D02*
X179250Y460700D01*
X179630Y460367D01*
X180073Y460200D01*
X180580Y460367D01*
X180960Y460700D01*
X181340Y461200D01*
X181467Y461867D01*
Y465200D01*
G01X185300Y460200D02*
Y465200D01*
X184540Y464200D01*
G01Y460200D02*
X186060D01*
G01X190273D02*
X190400Y461283D01*
X190590Y462200D01*
X190843Y463033D01*
X191160Y463950D01*
X191667Y465200D01*
X189133D01*
G01X202207Y456220D02*
X202437Y455858D01*
X202743Y455652D01*
X203088Y455600D01*
X203395Y455652D01*
X203702Y455910D01*
X203893Y456220D01*
X203932Y456530D01*
X203855Y456892D01*
X203587Y457150D01*
X203318Y457253D01*
X202973D01*
G01X203318D02*
X203548Y457408D01*
X203740Y457667D01*
X203817Y457977D01*
X203740Y458287D01*
X203548Y458545D01*
X203203Y458700D01*
X202858Y458648D01*
X202513Y458442D01*
G01X192322Y458183D02*
X192552Y458493D01*
X192820Y458648D01*
X193127Y458700D01*
X193510Y458597D01*
X193778Y458338D01*
X193855Y458028D01*
X193817Y457718D01*
X193663Y457460D01*
X192897Y456943D01*
X192552Y456582D01*
X192322Y456065D01*
X192245Y455600D01*
X193855D01*
G01X183050D02*
Y458700D01*
X182590Y458080D01*
G01Y455600D02*
X183510D01*
G01X231399Y90083D02*
X231559Y90333D01*
X231745Y90458D01*
X231958Y90500D01*
X232225Y90417D01*
X232411Y90208D01*
X232464Y89958D01*
X232438Y89708D01*
X232331Y89500D01*
X231798Y89083D01*
X231559Y88792D01*
X231399Y88375D01*
X231346Y88000D01*
X232464D01*
G01X234048D02*
X234101Y88542D01*
X234181Y89000D01*
X234287Y89417D01*
X234421Y89875D01*
X234634Y90500D01*
X233568D01*
G01X223499Y90083D02*
X223659Y90333D01*
X223845Y90458D01*
X224058Y90500D01*
X224325Y90417D01*
X224511Y90208D01*
X224564Y89958D01*
X224538Y89708D01*
X224431Y89500D01*
X223898Y89083D01*
X223659Y88792D01*
X223499Y88375D01*
X223446Y88000D01*
X224564D01*
G01X225615Y88375D02*
X225775Y88167D01*
X225961Y88042D01*
X226201Y88000D01*
X226441Y88083D01*
X226627Y88250D01*
X226760Y88542D01*
X226787Y88875D01*
X226734Y89208D01*
X226600Y89417D01*
X226414Y89583D01*
X226228Y89625D01*
X226041Y89583D01*
X225802Y89417D01*
X225881Y90500D01*
X226600D01*
G01X215599Y90083D02*
X215759Y90333D01*
X215945Y90458D01*
X216158Y90500D01*
X216425Y90417D01*
X216611Y90208D01*
X216664Y89958D01*
X216638Y89708D01*
X216531Y89500D01*
X215998Y89083D01*
X215759Y88792D01*
X215599Y88375D01*
X215546Y88000D01*
X216664D01*
G01X217715Y88500D02*
X217875Y88208D01*
X218088Y88042D01*
X218328Y88000D01*
X218541Y88042D01*
X218754Y88250D01*
X218887Y88500D01*
X218914Y88750D01*
X218860Y89042D01*
X218674Y89250D01*
X218487Y89333D01*
X218248D01*
G01X218487D02*
X218647Y89458D01*
X218780Y89667D01*
X218834Y89917D01*
X218780Y90167D01*
X218647Y90375D01*
X218408Y90500D01*
X218168Y90458D01*
X217928Y90292D01*
G01X207699Y90083D02*
X207859Y90333D01*
X208045Y90458D01*
X208258Y90500D01*
X208525Y90417D01*
X208711Y90208D01*
X208764Y89958D01*
X208738Y89708D01*
X208631Y89500D01*
X208098Y89083D01*
X207859Y88792D01*
X207699Y88375D01*
X207646Y88000D01*
X208764D01*
G01X210401D02*
Y90500D01*
X210081Y90000D01*
G01Y88000D02*
X210721D01*
G01X231399Y97983D02*
X231559Y98233D01*
X231745Y98358D01*
X231958Y98400D01*
X232225Y98317D01*
X232411Y98108D01*
X232464Y97858D01*
X232438Y97608D01*
X232331Y97400D01*
X231798Y96983D01*
X231559Y96692D01*
X231399Y96275D01*
X231346Y95900D01*
X232464D01*
G01X234101D02*
X234287Y95942D01*
X234500Y96067D01*
X234634Y96275D01*
X234687Y96567D01*
X234634Y96858D01*
X234474Y97108D01*
X234234Y97233D01*
X233968D01*
X233808Y97317D01*
X233675Y97525D01*
X233622Y97817D01*
X233702Y98108D01*
X233888Y98317D01*
X234101Y98400D01*
X234314Y98317D01*
X234500Y98108D01*
X234580Y97817D01*
X234527Y97525D01*
X234394Y97317D01*
X234234Y97233D01*
X233968D01*
X233728Y97108D01*
X233568Y96858D01*
X233515Y96567D01*
X233568Y96275D01*
X233702Y96067D01*
X233915Y95942D01*
X234101Y95900D01*
G01X223499Y97983D02*
X223659Y98233D01*
X223845Y98358D01*
X224058Y98400D01*
X224325Y98317D01*
X224511Y98108D01*
X224564Y97858D01*
X224538Y97608D01*
X224431Y97400D01*
X223898Y96983D01*
X223659Y96692D01*
X223499Y96275D01*
X223446Y95900D01*
X224564D01*
G01X225695Y96942D02*
X225881Y97233D01*
X226041Y97400D01*
X226254Y97483D01*
X226441Y97400D01*
X226574Y97233D01*
X226680Y96983D01*
X226707Y96692D01*
X226680Y96442D01*
X226574Y96192D01*
X226414Y95983D01*
X226228Y95900D01*
X226015Y95983D01*
X225828Y96233D01*
X225722Y96608D01*
X225695Y97025D01*
X225748Y97567D01*
X225828Y97858D01*
X225961Y98150D01*
X226148Y98358D01*
X226334Y98400D01*
X226521Y98317D01*
X226654Y98108D01*
G01X215599Y97983D02*
X215759Y98233D01*
X215945Y98358D01*
X216158Y98400D01*
X216425Y98317D01*
X216611Y98108D01*
X216664Y97858D01*
X216638Y97608D01*
X216531Y97400D01*
X215998Y96983D01*
X215759Y96692D01*
X215599Y96275D01*
X215546Y95900D01*
X216664D01*
G01X218621D02*
Y98400D01*
X217635Y96608D01*
X218967D01*
G01X207699Y97983D02*
X207859Y98233D01*
X208045Y98358D01*
X208258Y98400D01*
X208525Y98317D01*
X208711Y98108D01*
X208764Y97858D01*
X208738Y97608D01*
X208631Y97400D01*
X208098Y96983D01*
X207859Y96692D01*
X207699Y96275D01*
X207646Y95900D01*
X208764D01*
G01X209895Y97983D02*
X210055Y98233D01*
X210241Y98358D01*
X210454Y98400D01*
X210721Y98317D01*
X210907Y98108D01*
X210960Y97858D01*
X210934Y97608D01*
X210827Y97400D01*
X210294Y96983D01*
X210055Y96692D01*
X209895Y96275D01*
X209842Y95900D01*
X210960D01*
G01X207699Y181242D02*
X207885Y181533D01*
X208045Y181700D01*
X208258Y181783D01*
X208445Y181700D01*
X208578Y181533D01*
X208684Y181283D01*
X208711Y180992D01*
X208684Y180742D01*
X208578Y180492D01*
X208418Y180283D01*
X208232Y180200D01*
X208019Y180283D01*
X207832Y180533D01*
X207726Y180908D01*
X207699Y181325D01*
X207752Y181867D01*
X207832Y182158D01*
X207965Y182450D01*
X208152Y182658D01*
X208338Y182700D01*
X208525Y182617D01*
X208658Y182408D01*
G01X210401Y182700D02*
X210188Y182617D01*
X210028Y182408D01*
X209922Y182158D01*
X209842Y181825D01*
X209815Y181450D01*
X209842Y181075D01*
X209922Y180742D01*
X210028Y180492D01*
X210188Y180283D01*
X210401Y180200D01*
X210614Y180283D01*
X210774Y180492D01*
X210880Y180742D01*
X210960Y181075D01*
X210987Y181450D01*
X210960Y181825D01*
X210880Y182158D01*
X210774Y182408D01*
X210614Y182617D01*
X210401Y182700D01*
G01X215519Y180575D02*
X215679Y180367D01*
X215865Y180242D01*
X216105Y180200D01*
X216345Y180283D01*
X216531Y180450D01*
X216664Y180742D01*
X216691Y181075D01*
X216638Y181408D01*
X216504Y181617D01*
X216318Y181783D01*
X216132Y181825D01*
X215945Y181783D01*
X215706Y181617D01*
X215785Y182700D01*
X216504D01*
G01X218301Y180200D02*
X218487Y180242D01*
X218700Y180367D01*
X218834Y180575D01*
X218887Y180867D01*
X218834Y181158D01*
X218674Y181408D01*
X218434Y181533D01*
X218168D01*
X218008Y181617D01*
X217875Y181825D01*
X217822Y182117D01*
X217902Y182408D01*
X218088Y182617D01*
X218301Y182700D01*
X218514Y182617D01*
X218700Y182408D01*
X218780Y182117D01*
X218727Y181825D01*
X218594Y181617D01*
X218434Y181533D01*
X218168D01*
X217928Y181408D01*
X217768Y181158D01*
X217715Y180867D01*
X217768Y180575D01*
X217902Y180367D01*
X218115Y180242D01*
X218301Y180200D01*
G01X223419Y180575D02*
X223579Y180367D01*
X223765Y180242D01*
X224005Y180200D01*
X224245Y180283D01*
X224431Y180450D01*
X224564Y180742D01*
X224591Y181075D01*
X224538Y181408D01*
X224404Y181617D01*
X224218Y181783D01*
X224032Y181825D01*
X223845Y181783D01*
X223606Y181617D01*
X223685Y182700D01*
X224404D01*
G01X225695Y181242D02*
X225881Y181533D01*
X226041Y181700D01*
X226254Y181783D01*
X226441Y181700D01*
X226574Y181533D01*
X226680Y181283D01*
X226707Y180992D01*
X226680Y180742D01*
X226574Y180492D01*
X226414Y180283D01*
X226228Y180200D01*
X226015Y180283D01*
X225828Y180533D01*
X225722Y180908D01*
X225695Y181325D01*
X225748Y181867D01*
X225828Y182158D01*
X225961Y182450D01*
X226148Y182658D01*
X226334Y182700D01*
X226521Y182617D01*
X226654Y182408D01*
G01X231319Y180575D02*
X231479Y180367D01*
X231665Y180242D01*
X231905Y180200D01*
X232145Y180283D01*
X232331Y180450D01*
X232464Y180742D01*
X232491Y181075D01*
X232438Y181408D01*
X232304Y181617D01*
X232118Y181783D01*
X231932Y181825D01*
X231745Y181783D01*
X231506Y181617D01*
X231585Y182700D01*
X232304D01*
G01X234421Y180200D02*
Y182700D01*
X233435Y180908D01*
X234767D01*
G01X207619Y188475D02*
X207779Y188267D01*
X207965Y188142D01*
X208205Y188100D01*
X208445Y188183D01*
X208631Y188350D01*
X208764Y188642D01*
X208791Y188975D01*
X208738Y189308D01*
X208604Y189517D01*
X208418Y189683D01*
X208232Y189725D01*
X208045Y189683D01*
X207806Y189517D01*
X207885Y190600D01*
X208604D01*
G01X209948Y188392D02*
X210135Y188183D01*
X210348Y188100D01*
X210561Y188183D01*
X210747Y188433D01*
X210880Y188808D01*
X210934Y189183D01*
Y189642D01*
X210880Y190017D01*
X210747Y190350D01*
X210587Y190517D01*
X210401Y190600D01*
X210188Y190517D01*
X210028Y190350D01*
X209922Y190100D01*
X209868Y189767D01*
X209922Y189475D01*
X210055Y189183D01*
X210215Y189017D01*
X210401Y188975D01*
X210614Y189058D01*
X210774Y189267D01*
X210934Y189642D01*
G01X215519Y188475D02*
X215679Y188267D01*
X215865Y188142D01*
X216105Y188100D01*
X216345Y188183D01*
X216531Y188350D01*
X216664Y188642D01*
X216691Y188975D01*
X216638Y189308D01*
X216504Y189517D01*
X216318Y189683D01*
X216132Y189725D01*
X215945Y189683D01*
X215706Y189517D01*
X215785Y190600D01*
X216504D01*
G01X218248Y188100D02*
X218301Y188642D01*
X218381Y189100D01*
X218487Y189517D01*
X218621Y189975D01*
X218834Y190600D01*
X217768D01*
G01X223419Y188475D02*
X223579Y188267D01*
X223765Y188142D01*
X224005Y188100D01*
X224245Y188183D01*
X224431Y188350D01*
X224564Y188642D01*
X224591Y188975D01*
X224538Y189308D01*
X224404Y189517D01*
X224218Y189683D01*
X224032Y189725D01*
X223845Y189683D01*
X223606Y189517D01*
X223685Y190600D01*
X224404D01*
G01X225615Y188475D02*
X225775Y188267D01*
X225961Y188142D01*
X226201Y188100D01*
X226441Y188183D01*
X226627Y188350D01*
X226760Y188642D01*
X226787Y188975D01*
X226734Y189308D01*
X226600Y189517D01*
X226414Y189683D01*
X226228Y189725D01*
X226041Y189683D01*
X225802Y189517D01*
X225881Y190600D01*
X226600D01*
G01X206000Y267000D02*
Y277000D01*
X246000D01*
Y267000D01*
X206000D01*
G01D02*
X246000D01*
Y277000D01*
X211935D01*
G01X210065D02*
X206000D01*
Y267000D01*
G01X207433Y297700D02*
X207750Y297200D01*
X208130Y296867D01*
X208573Y296700D01*
X209080Y296867D01*
X209460Y297200D01*
X209840Y297700D01*
X209967Y298367D01*
Y301700D01*
G01X212597Y300867D02*
X212977Y301367D01*
X213420Y301617D01*
X213927Y301700D01*
X214560Y301533D01*
X215003Y301117D01*
X215130Y300617D01*
X215067Y300117D01*
X214813Y299700D01*
X213547Y298867D01*
X212977Y298283D01*
X212597Y297450D01*
X212470Y296700D01*
X215130D01*
G01X218900D02*
Y301700D01*
X218140Y300700D01*
G01Y296700D02*
X219660D01*
G01X206000Y282000D02*
Y292000D01*
X246000D01*
Y282000D01*
X206000D01*
G01D02*
X246000D01*
Y292000D01*
X206000D01*
Y282000D01*
G01X227207Y289220D02*
X227437Y288858D01*
X227743Y288652D01*
X228088Y288600D01*
X228395Y288652D01*
X228702Y288910D01*
X228893Y289220D01*
X228932Y289530D01*
X228855Y289892D01*
X228587Y290150D01*
X228318Y290253D01*
X227973D01*
G01X228318D02*
X228548Y290408D01*
X228740Y290667D01*
X228817Y290977D01*
X228740Y291287D01*
X228548Y291545D01*
X228203Y291700D01*
X227858Y291648D01*
X227513Y291442D01*
G01X217322Y291183D02*
X217552Y291493D01*
X217820Y291648D01*
X218127Y291700D01*
X218510Y291597D01*
X218778Y291338D01*
X218855Y291028D01*
X218817Y290718D01*
X218663Y290460D01*
X217897Y289943D01*
X217552Y289582D01*
X217322Y289065D01*
X217245Y288600D01*
X218855D01*
G01X208050D02*
Y291700D01*
X207590Y291080D01*
G01Y288600D02*
X208510D01*
G01X227207Y274220D02*
X227437Y273858D01*
X227743Y273652D01*
X228088Y273600D01*
X228395Y273652D01*
X228702Y273910D01*
X228893Y274220D01*
X228932Y274530D01*
X228855Y274892D01*
X228587Y275150D01*
X228318Y275253D01*
X227973D01*
G01X228318D02*
X228548Y275408D01*
X228740Y275667D01*
X228817Y275977D01*
X228740Y276287D01*
X228548Y276545D01*
X228203Y276700D01*
X227858Y276648D01*
X227513Y276442D01*
G01X217322Y276183D02*
X217552Y276493D01*
X217820Y276648D01*
X218127Y276700D01*
X218510Y276597D01*
X218778Y276338D01*
X218855Y276028D01*
X218817Y275718D01*
X218663Y275460D01*
X217897Y274943D01*
X217552Y274582D01*
X217322Y274065D01*
X217245Y273600D01*
X218855D01*
G01X208050D02*
Y276700D01*
X207590Y276080D01*
G01Y273600D02*
X208510D01*
G01X211500Y320937D02*
Y339063D01*
G01X207000Y324800D02*
X209500D01*
X209000Y325120D01*
G01X207000D02*
Y324480D01*
G01X220683Y315000D02*
Y318100D01*
X221642D01*
X221948Y317945D01*
X222140Y317738D01*
X222217Y317325D01*
X222140Y316912D01*
X221910Y316653D01*
X221642Y316498D01*
X220683D01*
G01X221642D02*
X222217Y315000D01*
G01X225010D02*
Y318100D01*
X223592Y315878D01*
X225508D01*
G01X228000Y318000D02*
Y346000D01*
X238000D01*
Y318000D01*
X228000D01*
G01D02*
X238000D01*
Y346000D01*
X228000D01*
Y318000D01*
G01X226850Y312000D02*
Y315100D01*
X226390Y314480D01*
G01Y312000D02*
X227310D01*
G01X209083Y335307D02*
X209333Y335147D01*
X209458Y334960D01*
X209500Y334747D01*
X209417Y334480D01*
X209208Y334293D01*
X208958Y334240D01*
X208708Y334267D01*
X208500Y334373D01*
X208083Y334907D01*
X207792Y335147D01*
X207375Y335307D01*
X207000Y335360D01*
Y334240D01*
G01X207500Y345387D02*
X207208Y345227D01*
X207042Y345013D01*
X207000Y344773D01*
X207042Y344560D01*
X207250Y344347D01*
X207500Y344213D01*
X207750Y344187D01*
X208042Y344240D01*
X208250Y344427D01*
X208333Y344613D01*
Y344853D01*
G01Y344613D02*
X208458Y344453D01*
X208667Y344320D01*
X208917Y344267D01*
X209167Y344320D01*
X209375Y344453D01*
X209500Y344693D01*
X209458Y344933D01*
X209292Y345173D01*
G01X226122Y354583D02*
X226352Y354893D01*
X226620Y355048D01*
X226927Y355100D01*
X227310Y354997D01*
X227578Y354738D01*
X227655Y354428D01*
X227617Y354118D01*
X227463Y353860D01*
X226697Y353343D01*
X226352Y352982D01*
X226122Y352465D01*
X226045Y352000D01*
X227655D01*
G01X245000Y370000D02*
G03I-10000J0D01*
G01X235000Y380000D02*
G03X225000Y370000I0J-10000D01*
G01D02*
G03X235000Y360000I10000J0D01*
G01X228122Y377583D02*
X228352Y377893D01*
X228620Y378048D01*
X228927Y378100D01*
X229310Y377997D01*
X229578Y377738D01*
X229655Y377428D01*
X229617Y377118D01*
X229463Y376860D01*
X228697Y376343D01*
X228352Y375982D01*
X228122Y375465D01*
X228045Y375000D01*
X229655D01*
G01X228850Y365000D02*
Y368100D01*
X228390Y367480D01*
G01Y365000D02*
X229310D01*
G01X222878Y387417D02*
X222648Y387107D01*
X222380Y386952D01*
X222073Y386900D01*
X221690Y387003D01*
X221422Y387262D01*
X221345Y387572D01*
X221383Y387882D01*
X221537Y388140D01*
X222303Y388657D01*
X222648Y389018D01*
X222878Y389535D01*
X222955Y390000D01*
X221345D01*
G01X219916Y417824D02*
X220166Y418204D01*
X220333Y418647D01*
Y419154D01*
X220083Y419724D01*
X219666Y420167D01*
X219166Y420484D01*
X218333Y420737D01*
X217583Y420800D01*
X216833Y420674D01*
X216333Y420484D01*
X215833Y420104D01*
X215500Y419660D01*
X215333Y419217D01*
Y418774D01*
X215500Y418330D01*
X215750Y417950D01*
X216083Y417634D01*
G01X215916Y415194D02*
X215500Y414750D01*
X215333Y414244D01*
X215500Y413737D01*
X216000Y413294D01*
X216750Y412977D01*
X217500Y412850D01*
X218416D01*
X219166Y412977D01*
X219833Y413294D01*
X220166Y413674D01*
X220333Y414117D01*
X220166Y414624D01*
X219833Y415004D01*
X219333Y415257D01*
X218666Y415384D01*
X218083Y415257D01*
X217500Y414940D01*
X217166Y414560D01*
X217083Y414117D01*
X217250Y413610D01*
X217666Y413230D01*
X218416Y412850D01*
G01X247000Y406000D02*
G03I-10000J0D01*
G01X237000Y416000D02*
G03X227000Y406000I0J-10000D01*
G01D02*
G03X235823Y396069I10001J0D01*
G01X230122Y413583D02*
X230352Y413893D01*
X230620Y414048D01*
X230927Y414100D01*
X231310Y413997D01*
X231578Y413738D01*
X231655Y413428D01*
X231617Y413118D01*
X231463Y412860D01*
X230697Y412343D01*
X230352Y411982D01*
X230122Y411465D01*
X230045Y411000D01*
X231655D01*
G01X230850Y401000D02*
Y404100D01*
X230390Y403480D01*
G01Y401000D02*
X231310D01*
G01X208834Y400599D02*
X205734D01*
Y401558D01*
X205889Y401864D01*
X206096Y402056D01*
X206509Y402133D01*
X206922Y402056D01*
X207181Y401826D01*
X207336Y401558D01*
Y400599D01*
G01Y401558D02*
X208834Y402133D01*
G01Y404466D02*
X205734D01*
X206354Y404006D01*
G01X208834D02*
Y404926D01*
G01X208369Y406723D02*
X208627Y406953D01*
X208782Y407221D01*
X208834Y407566D01*
X208731Y407911D01*
X208524Y408179D01*
X208162Y408371D01*
X207749Y408409D01*
X207336Y408333D01*
X207077Y408141D01*
X206871Y407873D01*
X206819Y407604D01*
X206871Y407336D01*
X207077Y406991D01*
X205734Y407106D01*
Y408141D01*
G01X221000Y424000D02*
Y396000D01*
X211000D01*
Y424000D01*
X221000D01*
G01D02*
X211000D01*
Y396000D01*
X221000D01*
Y424000D01*
G01X222150Y430000D02*
Y426900D01*
X222610Y427520D01*
G01Y430000D02*
X221690D01*
G01X227000Y449000D02*
Y459000D01*
X267000D01*
Y449000D01*
X227000D01*
G01D02*
X267000D01*
Y459000D01*
X227000D01*
Y449000D01*
G01X224933Y461200D02*
X225250Y460700D01*
X225630Y460367D01*
X226073Y460200D01*
X226580Y460367D01*
X226960Y460700D01*
X227340Y461200D01*
X227467Y461867D01*
Y465200D01*
G01X231300Y460200D02*
Y465200D01*
X230540Y464200D01*
G01Y460200D02*
X232060D01*
G01X235197Y462283D02*
X235640Y462867D01*
X236020Y463200D01*
X236527Y463367D01*
X236970Y463200D01*
X237287Y462867D01*
X237540Y462367D01*
X237603Y461783D01*
X237540Y461283D01*
X237287Y460783D01*
X236907Y460367D01*
X236463Y460200D01*
X235957Y460367D01*
X235513Y460867D01*
X235260Y461617D01*
X235197Y462450D01*
X235323Y463533D01*
X235513Y464117D01*
X235830Y464700D01*
X236273Y465117D01*
X236717Y465200D01*
X237160Y465033D01*
X237477Y464617D01*
G01X229050Y455600D02*
Y458700D01*
X228590Y458080D01*
G01Y455600D02*
X229510D01*
G01X213510D02*
Y458700D01*
X212092Y456478D01*
X214008D01*
G01X247119Y88500D02*
X247279Y88208D01*
X247492Y88042D01*
X247732Y88000D01*
X247945Y88042D01*
X248158Y88250D01*
X248291Y88500D01*
X248318Y88750D01*
X248264Y89042D01*
X248078Y89250D01*
X247891Y89333D01*
X247652D01*
G01X247891D02*
X248051Y89458D01*
X248184Y89667D01*
X248238Y89917D01*
X248184Y90167D01*
X248051Y90375D01*
X247812Y90500D01*
X247572Y90458D01*
X247332Y90292D01*
G01X249901Y88000D02*
Y90500D01*
X249581Y90000D01*
G01Y88000D02*
X250221D01*
G01X239299Y90083D02*
X239459Y90333D01*
X239645Y90458D01*
X239858Y90500D01*
X240125Y90417D01*
X240311Y90208D01*
X240364Y89958D01*
X240338Y89708D01*
X240231Y89500D01*
X239698Y89083D01*
X239459Y88792D01*
X239299Y88375D01*
X239246Y88000D01*
X240364D01*
G01X241548Y88292D02*
X241735Y88083D01*
X241948Y88000D01*
X242161Y88083D01*
X242347Y88333D01*
X242480Y88708D01*
X242534Y89083D01*
Y89542D01*
X242480Y89917D01*
X242347Y90250D01*
X242187Y90417D01*
X242001Y90500D01*
X241788Y90417D01*
X241628Y90250D01*
X241522Y90000D01*
X241468Y89667D01*
X241522Y89375D01*
X241655Y89083D01*
X241815Y88917D01*
X242001Y88875D01*
X242214Y88958D01*
X242374Y89167D01*
X242534Y89542D01*
G01X265119Y120100D02*
X265279Y119808D01*
X265492Y119642D01*
X265732Y119600D01*
X265945Y119642D01*
X266158Y119850D01*
X266291Y120100D01*
X266318Y120350D01*
X266264Y120642D01*
X266078Y120850D01*
X265891Y120933D01*
X265652D01*
G01X265891D02*
X266051Y121058D01*
X266184Y121267D01*
X266238Y121517D01*
X266184Y121767D01*
X266051Y121975D01*
X265812Y122100D01*
X265572Y122058D01*
X265332Y121892D01*
G01X267395Y120642D02*
X267581Y120933D01*
X267741Y121100D01*
X267954Y121183D01*
X268141Y121100D01*
X268274Y120933D01*
X268380Y120683D01*
X268407Y120392D01*
X268380Y120142D01*
X268274Y119892D01*
X268114Y119683D01*
X267928Y119600D01*
X267715Y119683D01*
X267528Y119933D01*
X267422Y120308D01*
X267395Y120725D01*
X267448Y121267D01*
X267528Y121558D01*
X267661Y121850D01*
X267848Y122058D01*
X268034Y122100D01*
X268221Y122017D01*
X268354Y121808D01*
G01X265119Y112200D02*
X265279Y111908D01*
X265492Y111742D01*
X265732Y111700D01*
X265945Y111742D01*
X266158Y111950D01*
X266291Y112200D01*
X266318Y112450D01*
X266264Y112742D01*
X266078Y112950D01*
X265891Y113033D01*
X265652D01*
G01X265891D02*
X266051Y113158D01*
X266184Y113367D01*
X266238Y113617D01*
X266184Y113867D01*
X266051Y114075D01*
X265812Y114200D01*
X265572Y114158D01*
X265332Y113992D01*
G01X268221Y111700D02*
Y114200D01*
X267235Y112408D01*
X268567D01*
G01X247119Y96400D02*
X247279Y96108D01*
X247492Y95942D01*
X247732Y95900D01*
X247945Y95942D01*
X248158Y96150D01*
X248291Y96400D01*
X248318Y96650D01*
X248264Y96942D01*
X248078Y97150D01*
X247891Y97233D01*
X247652D01*
G01X247891D02*
X248051Y97358D01*
X248184Y97567D01*
X248238Y97817D01*
X248184Y98067D01*
X248051Y98275D01*
X247812Y98400D01*
X247572Y98358D01*
X247332Y98192D01*
G01X249395Y97983D02*
X249555Y98233D01*
X249741Y98358D01*
X249954Y98400D01*
X250221Y98317D01*
X250407Y98108D01*
X250460Y97858D01*
X250434Y97608D01*
X250327Y97400D01*
X249794Y96983D01*
X249555Y96692D01*
X249395Y96275D01*
X249342Y95900D01*
X250460D01*
G01X239219Y96400D02*
X239379Y96108D01*
X239592Y95942D01*
X239832Y95900D01*
X240045Y95942D01*
X240258Y96150D01*
X240391Y96400D01*
X240418Y96650D01*
X240364Y96942D01*
X240178Y97150D01*
X239991Y97233D01*
X239752D01*
G01X239991D02*
X240151Y97358D01*
X240284Y97567D01*
X240338Y97817D01*
X240284Y98067D01*
X240151Y98275D01*
X239912Y98400D01*
X239672Y98358D01*
X239432Y98192D01*
G01X242001Y98400D02*
X241788Y98317D01*
X241628Y98108D01*
X241522Y97858D01*
X241442Y97525D01*
X241415Y97150D01*
X241442Y96775D01*
X241522Y96442D01*
X241628Y96192D01*
X241788Y95983D01*
X242001Y95900D01*
X242214Y95983D01*
X242374Y96192D01*
X242480Y96442D01*
X242560Y96775D01*
X242587Y97150D01*
X242560Y97525D01*
X242480Y97858D01*
X242374Y98108D01*
X242214Y98317D01*
X242001Y98400D01*
G01X266025Y143300D02*
Y145800D01*
X265039Y144008D01*
X266371D01*
G01X267395Y145383D02*
X267555Y145633D01*
X267741Y145758D01*
X267954Y145800D01*
X268221Y145717D01*
X268407Y145508D01*
X268460Y145258D01*
X268434Y145008D01*
X268327Y144800D01*
X267794Y144383D01*
X267555Y144092D01*
X267395Y143675D01*
X267342Y143300D01*
X268460D01*
G01X266025Y135400D02*
Y137900D01*
X265039Y136108D01*
X266371D01*
G01X267901Y137900D02*
X267688Y137817D01*
X267528Y137608D01*
X267422Y137358D01*
X267342Y137025D01*
X267315Y136650D01*
X267342Y136275D01*
X267422Y135942D01*
X267528Y135692D01*
X267688Y135483D01*
X267901Y135400D01*
X268114Y135483D01*
X268274Y135692D01*
X268380Y135942D01*
X268460Y136275D01*
X268487Y136650D01*
X268460Y137025D01*
X268380Y137358D01*
X268274Y137608D01*
X268114Y137817D01*
X267901Y137900D01*
G01X265119Y128000D02*
X265279Y127708D01*
X265492Y127542D01*
X265732Y127500D01*
X265945Y127542D01*
X266158Y127750D01*
X266291Y128000D01*
X266318Y128250D01*
X266264Y128542D01*
X266078Y128750D01*
X265891Y128833D01*
X265652D01*
G01X265891D02*
X266051Y128958D01*
X266184Y129167D01*
X266238Y129417D01*
X266184Y129667D01*
X266051Y129875D01*
X265812Y130000D01*
X265572Y129958D01*
X265332Y129792D01*
G01X267901Y127500D02*
X268087Y127542D01*
X268300Y127667D01*
X268434Y127875D01*
X268487Y128167D01*
X268434Y128458D01*
X268274Y128708D01*
X268034Y128833D01*
X267768D01*
X267608Y128917D01*
X267475Y129125D01*
X267422Y129417D01*
X267502Y129708D01*
X267688Y129917D01*
X267901Y130000D01*
X268114Y129917D01*
X268300Y129708D01*
X268380Y129417D01*
X268327Y129125D01*
X268194Y128917D01*
X268034Y128833D01*
X267768D01*
X267528Y128708D01*
X267368Y128458D01*
X267315Y128167D01*
X267368Y127875D01*
X267502Y127667D01*
X267715Y127542D01*
X267901Y127500D01*
G01X244219Y180575D02*
X244379Y180367D01*
X244565Y180242D01*
X244805Y180200D01*
X245045Y180283D01*
X245231Y180450D01*
X245364Y180742D01*
X245391Y181075D01*
X245338Y181408D01*
X245204Y181617D01*
X245018Y181783D01*
X244832Y181825D01*
X244645Y181783D01*
X244406Y181617D01*
X244485Y182700D01*
X245204D01*
G01X246495Y182283D02*
X246655Y182533D01*
X246841Y182658D01*
X247054Y182700D01*
X247321Y182617D01*
X247507Y182408D01*
X247560Y182158D01*
X247534Y181908D01*
X247427Y181700D01*
X246894Y181283D01*
X246655Y180992D01*
X246495Y180575D01*
X246442Y180200D01*
X247560D01*
G01X252119Y180575D02*
X252279Y180367D01*
X252465Y180242D01*
X252705Y180200D01*
X252945Y180283D01*
X253131Y180450D01*
X253264Y180742D01*
X253291Y181075D01*
X253238Y181408D01*
X253104Y181617D01*
X252918Y181783D01*
X252732Y181825D01*
X252545Y181783D01*
X252306Y181617D01*
X252385Y182700D01*
X253104D01*
G01X254901D02*
X254688Y182617D01*
X254528Y182408D01*
X254422Y182158D01*
X254342Y181825D01*
X254315Y181450D01*
X254342Y181075D01*
X254422Y180742D01*
X254528Y180492D01*
X254688Y180283D01*
X254901Y180200D01*
X255114Y180283D01*
X255274Y180492D01*
X255380Y180742D01*
X255460Y181075D01*
X255487Y181450D01*
X255460Y181825D01*
X255380Y182158D01*
X255274Y182408D01*
X255114Y182617D01*
X254901Y182700D01*
G01X266025Y167000D02*
Y169500D01*
X265039Y167708D01*
X266371D01*
G01X267901Y167000D02*
X268087Y167042D01*
X268300Y167167D01*
X268434Y167375D01*
X268487Y167667D01*
X268434Y167958D01*
X268274Y168208D01*
X268034Y168333D01*
X267768D01*
X267608Y168417D01*
X267475Y168625D01*
X267422Y168917D01*
X267502Y169208D01*
X267688Y169417D01*
X267901Y169500D01*
X268114Y169417D01*
X268300Y169208D01*
X268380Y168917D01*
X268327Y168625D01*
X268194Y168417D01*
X268034Y168333D01*
X267768D01*
X267528Y168208D01*
X267368Y167958D01*
X267315Y167667D01*
X267368Y167375D01*
X267502Y167167D01*
X267715Y167042D01*
X267901Y167000D01*
G01X266025Y159100D02*
Y161600D01*
X265039Y159808D01*
X266371D01*
G01X267395Y160142D02*
X267581Y160433D01*
X267741Y160600D01*
X267954Y160683D01*
X268141Y160600D01*
X268274Y160433D01*
X268380Y160183D01*
X268407Y159892D01*
X268380Y159642D01*
X268274Y159392D01*
X268114Y159183D01*
X267928Y159100D01*
X267715Y159183D01*
X267528Y159433D01*
X267422Y159808D01*
X267395Y160225D01*
X267448Y160767D01*
X267528Y161058D01*
X267661Y161350D01*
X267848Y161558D01*
X268034Y161600D01*
X268221Y161517D01*
X268354Y161308D01*
G01X266025Y151200D02*
Y153700D01*
X265039Y151908D01*
X266371D01*
G01X268221Y151200D02*
Y153700D01*
X267235Y151908D01*
X268567D01*
G01X236319Y188475D02*
X236479Y188267D01*
X236665Y188142D01*
X236905Y188100D01*
X237145Y188183D01*
X237331Y188350D01*
X237464Y188642D01*
X237491Y188975D01*
X237438Y189308D01*
X237304Y189517D01*
X237118Y189683D01*
X236932Y189725D01*
X236745Y189683D01*
X236506Y189517D01*
X236585Y190600D01*
X237304D01*
G01X238515Y188600D02*
X238675Y188308D01*
X238888Y188142D01*
X239128Y188100D01*
X239341Y188142D01*
X239554Y188350D01*
X239687Y188600D01*
X239714Y188850D01*
X239660Y189142D01*
X239474Y189350D01*
X239287Y189433D01*
X239048D01*
G01X239287D02*
X239447Y189558D01*
X239580Y189767D01*
X239634Y190017D01*
X239580Y190267D01*
X239447Y190475D01*
X239208Y190600D01*
X238968Y190558D01*
X238728Y190392D01*
G01X244219Y188475D02*
X244379Y188267D01*
X244565Y188142D01*
X244805Y188100D01*
X245045Y188183D01*
X245231Y188350D01*
X245364Y188642D01*
X245391Y188975D01*
X245338Y189308D01*
X245204Y189517D01*
X245018Y189683D01*
X244832Y189725D01*
X244645Y189683D01*
X244406Y189517D01*
X244485Y190600D01*
X245204D01*
G01X247001Y188100D02*
Y190600D01*
X246681Y190100D01*
G01Y188100D02*
X247321D01*
G01X253025D02*
Y190600D01*
X252039Y188808D01*
X253371D01*
G01X254448Y188392D02*
X254635Y188183D01*
X254848Y188100D01*
X255061Y188183D01*
X255247Y188433D01*
X255380Y188808D01*
X255434Y189183D01*
Y189642D01*
X255380Y190017D01*
X255247Y190350D01*
X255087Y190517D01*
X254901Y190600D01*
X254688Y190517D01*
X254528Y190350D01*
X254422Y190100D01*
X254368Y189767D01*
X254422Y189475D01*
X254555Y189183D01*
X254715Y189017D01*
X254901Y188975D01*
X255114Y189058D01*
X255274Y189267D01*
X255434Y189642D01*
G01X256000Y214000D02*
G03I-10000J0D01*
G01X236000D02*
G03X246000Y204000I10000J0D01*
G01D02*
G03X256000Y214000I0J10000D01*
G01X239850Y209000D02*
Y212100D01*
X239390Y211480D01*
G01Y209000D02*
X240310D01*
G01X284000Y214000D02*
G03I-10000J0D01*
G01X264000D02*
G03X274000Y204000I10000J0D01*
G01X248843Y230583D02*
X248463Y230833D01*
X248020Y231000D01*
X247513D01*
X246943Y230750D01*
X246500Y230333D01*
X246183Y229833D01*
X245930Y229000D01*
X245867Y228250D01*
X245993Y227500D01*
X246183Y227000D01*
X246563Y226500D01*
X247007Y226167D01*
X247450Y226000D01*
X247893D01*
X248337Y226167D01*
X248717Y226417D01*
X249033Y226750D01*
G01X252423Y226000D02*
X252550Y227083D01*
X252740Y228000D01*
X252993Y228833D01*
X253310Y229750D01*
X253817Y231000D01*
X251283D01*
G01X256000Y214000D02*
G03X255113Y218118I-10003J0D01*
G01X254733Y218872D02*
G03X246000Y224000I-8734J-4873D01*
G01D02*
G03X236000Y214000I1J-10001D01*
G01X239122Y221583D02*
X239352Y221893D01*
X239620Y222048D01*
X239927Y222100D01*
X240310Y221997D01*
X240578Y221738D01*
X240655Y221428D01*
X240617Y221118D01*
X240463Y220860D01*
X239697Y220343D01*
X239352Y219982D01*
X239122Y219465D01*
X239045Y219000D01*
X240655D01*
G01X274000Y224000D02*
G03X264000Y214000I0J-10000D01*
G01X251000Y267000D02*
Y277000D01*
X291000D01*
Y267000D01*
X251000D01*
G01D02*
X280921D01*
G01X255340Y277000D02*
X251000D01*
Y267000D01*
G01X252433Y297700D02*
X252750Y297200D01*
X253130Y296867D01*
X253573Y296700D01*
X254080Y296867D01*
X254460Y297200D01*
X254840Y297700D01*
X254967Y298367D01*
Y301700D01*
G01X257597Y300867D02*
X257977Y301367D01*
X258420Y301617D01*
X258927Y301700D01*
X259560Y301533D01*
X260003Y301117D01*
X260130Y300617D01*
X260067Y300117D01*
X259813Y299700D01*
X258547Y298867D01*
X257977Y298283D01*
X257597Y297450D01*
X257470Y296700D01*
X260130D01*
G01X263900Y301700D02*
X263393Y301533D01*
X263013Y301117D01*
X262760Y300617D01*
X262570Y299950D01*
X262507Y299200D01*
X262570Y298450D01*
X262760Y297783D01*
X263013Y297283D01*
X263393Y296867D01*
X263900Y296700D01*
X264407Y296867D01*
X264787Y297283D01*
X265040Y297783D01*
X265230Y298450D01*
X265293Y299200D01*
X265230Y299950D01*
X265040Y300617D01*
X264787Y301117D01*
X264407Y301533D01*
X263900Y301700D01*
G01X251000Y282000D02*
Y292000D01*
X291000D01*
Y282000D01*
X251000D01*
G01D02*
X291000D01*
Y292000D01*
X251000D01*
Y282000D01*
G01X262322Y291183D02*
X262552Y291493D01*
X262820Y291648D01*
X263127Y291700D01*
X263510Y291597D01*
X263778Y291338D01*
X263855Y291028D01*
X263817Y290718D01*
X263663Y290460D01*
X262897Y289943D01*
X262552Y289582D01*
X262322Y289065D01*
X262245Y288600D01*
X263855D01*
G01X253050D02*
Y291700D01*
X252590Y291080D01*
G01Y288600D02*
X253510D01*
G01X238510D02*
Y291700D01*
X237092Y289478D01*
X239008D01*
G01X248933Y279200D02*
X249250Y278700D01*
X249630Y278367D01*
X250073Y278200D01*
X250580Y278367D01*
X250960Y278700D01*
X251340Y279200D01*
X251467Y279867D01*
Y283200D01*
G01X254097Y282367D02*
X254477Y282867D01*
X254920Y283117D01*
X255427Y283200D01*
X256060Y283033D01*
X256503Y282617D01*
X256630Y282117D01*
X256567Y281617D01*
X256313Y281200D01*
X255047Y280367D01*
X254477Y279783D01*
X254097Y278950D01*
X253970Y278200D01*
X256630D01*
G01X261160D02*
Y283200D01*
X258817Y279617D01*
X261983D01*
G01X282079Y267000D02*
X291000D01*
Y277000D01*
X256660D01*
G01X262322Y276183D02*
X262552Y276493D01*
X262820Y276648D01*
X263127Y276700D01*
X263510Y276597D01*
X263778Y276338D01*
X263855Y276028D01*
X263817Y275718D01*
X263663Y275460D01*
X262897Y274943D01*
X262552Y274582D01*
X262322Y274065D01*
X262245Y273600D01*
X263855D01*
G01X253050D02*
Y276700D01*
X252590Y276080D01*
G01Y273600D02*
X253510D01*
G01X238510D02*
Y276700D01*
X237092Y274478D01*
X239008D01*
G01X269000Y311000D02*
X251500D01*
Y351000D01*
X269000D01*
Y311000D01*
G01X251500Y340063D02*
Y311000D01*
X269000D01*
G01X253917Y325693D02*
X253667Y325853D01*
X253542Y326040D01*
X253500Y326253D01*
X253583Y326520D01*
X253792Y326707D01*
X254042Y326760D01*
X254292Y326733D01*
X254500Y326627D01*
X254917Y326093D01*
X255208Y325853D01*
X255625Y325693D01*
X256000Y325640D01*
Y326760D01*
G01X255500Y315613D02*
X255792Y315773D01*
X255958Y315987D01*
X256000Y316227D01*
X255958Y316440D01*
X255750Y316653D01*
X255500Y316787D01*
X255250Y316813D01*
X254958Y316760D01*
X254750Y316573D01*
X254667Y316387D01*
Y316147D01*
G01Y316387D02*
X254542Y316547D01*
X254333Y316680D01*
X254083Y316733D01*
X253833Y316680D01*
X253625Y316547D01*
X253500Y316307D01*
X253542Y316067D01*
X253708Y315827D01*
G01X269000Y311000D02*
Y351000D01*
X251500D01*
Y341937D01*
G01X256000Y336200D02*
X253500D01*
X254000Y335880D01*
G01X256000D02*
Y336520D01*
G01X240057Y382000D02*
Y387000D01*
X241323D01*
X241830Y386750D01*
X242210Y386417D01*
X242527Y385917D01*
X242780Y385333D01*
X242843Y384500D01*
X242780Y383667D01*
X242527Y383083D01*
X242210Y382583D01*
X241830Y382250D01*
X241323Y382000D01*
X240057D01*
G01X245347Y384083D02*
X245790Y384667D01*
X246170Y385000D01*
X246677Y385167D01*
X247120Y385000D01*
X247437Y384667D01*
X247690Y384167D01*
X247753Y383583D01*
X247690Y383083D01*
X247437Y382583D01*
X247057Y382167D01*
X246613Y382000D01*
X246107Y382167D01*
X245663Y382667D01*
X245410Y383417D01*
X245347Y384250D01*
X245473Y385333D01*
X245663Y385917D01*
X245980Y386500D01*
X246423Y386917D01*
X246867Y387000D01*
X247310Y386833D01*
X247627Y386417D01*
G01X245000Y370000D02*
G03X235000Y380000I-10000J0D01*
G01Y360000D02*
G03X245000Y370000I0J10000D01*
G01X256500Y382000D02*
Y403000D01*
X259000Y405500D01*
Y410500D01*
X256500Y413000D01*
Y434000D01*
X381500D01*
Y382000D01*
X256500D01*
G01D02*
Y403000D01*
X259000Y405500D01*
Y410500D01*
X256500Y413000D01*
Y434000D01*
X381500D01*
Y382000D01*
X314973D01*
G01X313027D02*
X256500D01*
G01X264000Y377100D02*
X261500D01*
X262000Y376780D01*
G01X264000D02*
Y377420D01*
G01X247000Y406000D02*
G03X237000Y416000I-10000J0D01*
G01X238176Y396069D02*
G03X247000Y406000I-1176J9931D01*
G01X261917Y434393D02*
X261667Y434553D01*
X261542Y434740D01*
X261500Y434953D01*
X261583Y435220D01*
X261792Y435407D01*
X262042Y435460D01*
X262292Y435433D01*
X262500Y435327D01*
X262917Y434793D01*
X263208Y434553D01*
X263625Y434393D01*
X264000Y434340D01*
Y435460D01*
G01Y437420D02*
X261500D01*
X263292Y436433D01*
Y437767D01*
G01X259510Y455600D02*
Y458700D01*
X258092Y456478D01*
X260008D01*
G01X248207Y456220D02*
X248437Y455858D01*
X248743Y455652D01*
X249088Y455600D01*
X249395Y455652D01*
X249702Y455910D01*
X249893Y456220D01*
X249932Y456530D01*
X249855Y456892D01*
X249587Y457150D01*
X249318Y457253D01*
X248973D01*
G01X249318D02*
X249548Y457408D01*
X249740Y457667D01*
X249817Y457977D01*
X249740Y458287D01*
X249548Y458545D01*
X249203Y458700D01*
X248858Y458648D01*
X248513Y458442D01*
G01X238322Y458183D02*
X238552Y458493D01*
X238820Y458648D01*
X239127Y458700D01*
X239510Y458597D01*
X239778Y458338D01*
X239855Y458028D01*
X239817Y457718D01*
X239663Y457460D01*
X238897Y456943D01*
X238552Y456582D01*
X238322Y456065D01*
X238245Y455600D01*
X239855D01*
G01X273019Y120100D02*
X273179Y119808D01*
X273392Y119642D01*
X273632Y119600D01*
X273845Y119642D01*
X274058Y119850D01*
X274191Y120100D01*
X274218Y120350D01*
X274164Y120642D01*
X273978Y120850D01*
X273791Y120933D01*
X273552D01*
G01X273791D02*
X273951Y121058D01*
X274084Y121267D01*
X274138Y121517D01*
X274084Y121767D01*
X273951Y121975D01*
X273712Y122100D01*
X273472Y122058D01*
X273232Y121892D01*
G01X275215Y119975D02*
X275375Y119767D01*
X275561Y119642D01*
X275801Y119600D01*
X276041Y119683D01*
X276227Y119850D01*
X276360Y120142D01*
X276387Y120475D01*
X276334Y120808D01*
X276200Y121017D01*
X276014Y121183D01*
X275828Y121225D01*
X275641Y121183D01*
X275402Y121017D01*
X275481Y122100D01*
X276200D01*
G01X273019Y112200D02*
X273179Y111908D01*
X273392Y111742D01*
X273632Y111700D01*
X273845Y111742D01*
X274058Y111950D01*
X274191Y112200D01*
X274218Y112450D01*
X274164Y112742D01*
X273978Y112950D01*
X273791Y113033D01*
X273552D01*
G01X273791D02*
X273951Y113158D01*
X274084Y113367D01*
X274138Y113617D01*
X274084Y113867D01*
X273951Y114075D01*
X273712Y114200D01*
X273472Y114158D01*
X273232Y113992D01*
G01X275215Y112200D02*
X275375Y111908D01*
X275588Y111742D01*
X275828Y111700D01*
X276041Y111742D01*
X276254Y111950D01*
X276387Y112200D01*
X276414Y112450D01*
X276360Y112742D01*
X276174Y112950D01*
X275987Y113033D01*
X275748D01*
G01X275987D02*
X276147Y113158D01*
X276280Y113367D01*
X276334Y113617D01*
X276280Y113867D01*
X276147Y114075D01*
X275908Y114200D01*
X275668Y114158D01*
X275428Y113992D01*
G01X273925Y143300D02*
Y145800D01*
X272939Y144008D01*
X274271D01*
G01X275801Y143300D02*
Y145800D01*
X275481Y145300D01*
G01Y143300D02*
X276121D01*
G01X273019Y135900D02*
X273179Y135608D01*
X273392Y135442D01*
X273632Y135400D01*
X273845Y135442D01*
X274058Y135650D01*
X274191Y135900D01*
X274218Y136150D01*
X274164Y136442D01*
X273978Y136650D01*
X273791Y136733D01*
X273552D01*
G01X273791D02*
X273951Y136858D01*
X274084Y137067D01*
X274138Y137317D01*
X274084Y137567D01*
X273951Y137775D01*
X273712Y137900D01*
X273472Y137858D01*
X273232Y137692D01*
G01X275348Y135692D02*
X275535Y135483D01*
X275748Y135400D01*
X275961Y135483D01*
X276147Y135733D01*
X276280Y136108D01*
X276334Y136483D01*
Y136942D01*
X276280Y137317D01*
X276147Y137650D01*
X275987Y137817D01*
X275801Y137900D01*
X275588Y137817D01*
X275428Y137650D01*
X275322Y137400D01*
X275268Y137067D01*
X275322Y136775D01*
X275455Y136483D01*
X275615Y136317D01*
X275801Y136275D01*
X276014Y136358D01*
X276174Y136567D01*
X276334Y136942D01*
G01X273019Y128000D02*
X273179Y127708D01*
X273392Y127542D01*
X273632Y127500D01*
X273845Y127542D01*
X274058Y127750D01*
X274191Y128000D01*
X274218Y128250D01*
X274164Y128542D01*
X273978Y128750D01*
X273791Y128833D01*
X273552D01*
G01X273791D02*
X273951Y128958D01*
X274084Y129167D01*
X274138Y129417D01*
X274084Y129667D01*
X273951Y129875D01*
X273712Y130000D01*
X273472Y129958D01*
X273232Y129792D01*
G01X275748Y127500D02*
X275801Y128042D01*
X275881Y128500D01*
X275987Y128917D01*
X276121Y129375D01*
X276334Y130000D01*
X275268D01*
G01X273925Y167000D02*
Y169500D01*
X272939Y167708D01*
X274271D01*
G01X275748Y167000D02*
X275801Y167542D01*
X275881Y168000D01*
X275987Y168417D01*
X276121Y168875D01*
X276334Y169500D01*
X275268D01*
G01X273925Y159100D02*
Y161600D01*
X272939Y159808D01*
X274271D01*
G01X275215Y159475D02*
X275375Y159267D01*
X275561Y159142D01*
X275801Y159100D01*
X276041Y159183D01*
X276227Y159350D01*
X276360Y159642D01*
X276387Y159975D01*
X276334Y160308D01*
X276200Y160517D01*
X276014Y160683D01*
X275828Y160725D01*
X275641Y160683D01*
X275402Y160517D01*
X275481Y161600D01*
X276200D01*
G01X273925Y151200D02*
Y153700D01*
X272939Y151908D01*
X274271D01*
G01X275215Y151700D02*
X275375Y151408D01*
X275588Y151242D01*
X275828Y151200D01*
X276041Y151242D01*
X276254Y151450D01*
X276387Y151700D01*
X276414Y151950D01*
X276360Y152242D01*
X276174Y152450D01*
X275987Y152533D01*
X275748D01*
G01X275987D02*
X276147Y152658D01*
X276280Y152867D01*
X276334Y153117D01*
X276280Y153367D01*
X276147Y153575D01*
X275908Y153700D01*
X275668Y153658D01*
X275428Y153492D01*
G01X274000Y204000D02*
G03X284000Y214000I0J10000D01*
G01X267850Y209000D02*
Y212100D01*
X267390Y211480D01*
G01Y209000D02*
X268310D01*
G01X273293Y230583D02*
X272913Y230833D01*
X272470Y231000D01*
X271963D01*
X271393Y230750D01*
X270950Y230333D01*
X270633Y229833D01*
X270380Y229000D01*
X270317Y228250D01*
X270443Y227500D01*
X270633Y227000D01*
X271013Y226500D01*
X271457Y226167D01*
X271900Y226000D01*
X272343D01*
X272787Y226167D01*
X273167Y226417D01*
X273483Y226750D01*
G01X275797Y230167D02*
X276177Y230667D01*
X276620Y230917D01*
X277127Y231000D01*
X277760Y230833D01*
X278203Y230417D01*
X278330Y229917D01*
X278267Y229417D01*
X278013Y229000D01*
X276747Y228167D01*
X276177Y227583D01*
X275797Y226750D01*
X275670Y226000D01*
X278330D01*
G01X280897Y230167D02*
X281277Y230667D01*
X281720Y230917D01*
X282227Y231000D01*
X282860Y230833D01*
X283303Y230417D01*
X283430Y229917D01*
X283367Y229417D01*
X283113Y229000D01*
X281847Y228167D01*
X281277Y227583D01*
X280897Y226750D01*
X280770Y226000D01*
X283430D01*
G01X284000Y214000D02*
G03X274000Y224000I-10000J0D01*
G01X267122Y221583D02*
X267352Y221893D01*
X267620Y222048D01*
X267927Y222100D01*
X268310Y221997D01*
X268578Y221738D01*
X268655Y221428D01*
X268617Y221118D01*
X268463Y220860D01*
X267697Y220343D01*
X267352Y219982D01*
X267122Y219465D01*
X267045Y219000D01*
X268655D01*
G01X291707Y299417D02*
X292087Y299167D01*
X292530Y299000D01*
X293037D01*
X293607Y299250D01*
X294050Y299667D01*
X294367Y300167D01*
X294620Y301000D01*
X294683Y301750D01*
X294557Y302500D01*
X294367Y303000D01*
X293987Y303500D01*
X293543Y303833D01*
X293100Y304000D01*
X292657D01*
X292213Y303833D01*
X291833Y303583D01*
X291517Y303250D01*
G01X289203Y299833D02*
X288823Y299333D01*
X288380Y299083D01*
X287873Y299000D01*
X287240Y299167D01*
X286797Y299583D01*
X286670Y300083D01*
X286733Y300583D01*
X286987Y301000D01*
X288253Y301833D01*
X288823Y302417D01*
X289203Y303250D01*
X289330Y304000D01*
X286670D01*
G01X282900D02*
X282457Y303917D01*
X281950Y303667D01*
X281633Y303250D01*
X281507Y302667D01*
X281633Y302083D01*
X282013Y301583D01*
X282583Y301333D01*
X283217D01*
X283597Y301167D01*
X283913Y300750D01*
X284040Y300167D01*
X283850Y299583D01*
X283407Y299167D01*
X282900Y299000D01*
X282393Y299167D01*
X281950Y299583D01*
X281760Y300167D01*
X281887Y300750D01*
X282203Y301167D01*
X282583Y301333D01*
X283217D01*
X283787Y301583D01*
X284167Y302083D01*
X284293Y302667D01*
X284167Y303250D01*
X283850Y303667D01*
X283343Y303917D01*
X282900Y304000D01*
G01X283510Y288600D02*
Y291700D01*
X282092Y289478D01*
X284008D01*
G01X272207Y289220D02*
X272437Y288858D01*
X272743Y288652D01*
X273088Y288600D01*
X273395Y288652D01*
X273702Y288910D01*
X273893Y289220D01*
X273932Y289530D01*
X273855Y289892D01*
X273587Y290150D01*
X273318Y290253D01*
X272973D01*
G01X273318D02*
X273548Y290408D01*
X273740Y290667D01*
X273817Y290977D01*
X273740Y291287D01*
X273548Y291545D01*
X273203Y291700D01*
X272858Y291648D01*
X272513Y291442D01*
G01X293933Y279200D02*
X294250Y278700D01*
X294630Y278367D01*
X295073Y278200D01*
X295580Y278367D01*
X295960Y278700D01*
X296340Y279200D01*
X296467Y279867D01*
Y283200D01*
G01X299097Y282367D02*
X299477Y282867D01*
X299920Y283117D01*
X300427Y283200D01*
X301060Y283033D01*
X301503Y282617D01*
X301630Y282117D01*
X301567Y281617D01*
X301313Y281200D01*
X300047Y280367D01*
X299477Y279783D01*
X299097Y278950D01*
X298970Y278200D01*
X301630D01*
G01X304007Y279200D02*
X304387Y278617D01*
X304893Y278283D01*
X305463Y278200D01*
X305970Y278283D01*
X306477Y278700D01*
X306793Y279200D01*
X306857Y279700D01*
X306730Y280283D01*
X306287Y280700D01*
X305843Y280867D01*
X305273D01*
G01X305843D02*
X306223Y281117D01*
X306540Y281533D01*
X306667Y282033D01*
X306540Y282533D01*
X306223Y282950D01*
X305653Y283200D01*
X305083Y283117D01*
X304513Y282783D01*
G01X283510Y273600D02*
Y276700D01*
X282092Y274478D01*
X284008D01*
G01X272207Y274220D02*
X272437Y273858D01*
X272743Y273652D01*
X273088Y273600D01*
X273395Y273652D01*
X273702Y273910D01*
X273893Y274220D01*
X273932Y274530D01*
X273855Y274892D01*
X273587Y275150D01*
X273318Y275253D01*
X272973D01*
G01X273318D02*
X273548Y275408D01*
X273740Y275667D01*
X273817Y275977D01*
X273740Y276287D01*
X273548Y276545D01*
X273203Y276700D01*
X272858Y276648D01*
X272513Y276442D01*
G01X305000Y318000D02*
G03I-10000J0D01*
G01X295000Y328000D02*
G03X285000Y318000I0J-10000D01*
G01D02*
G03X293823Y308069I10001J0D01*
G01X265000Y355507D02*
X268583D01*
X269333Y355760D01*
X269833Y356267D01*
X270000Y356900D01*
X269833Y357533D01*
X269333Y358040D01*
X268583Y358293D01*
X265000D01*
G01X269250Y360607D02*
X269667Y360987D01*
X269917Y361430D01*
X270000Y362000D01*
X269833Y362570D01*
X269500Y363013D01*
X268917Y363330D01*
X268250Y363393D01*
X267583Y363267D01*
X267167Y362950D01*
X266833Y362507D01*
X266750Y362063D01*
X266833Y361620D01*
X267167Y361050D01*
X265000Y361240D01*
Y362950D01*
G01X290333Y366120D02*
X290525Y365810D01*
X290755Y365603D01*
X291023Y365500D01*
X291330Y365603D01*
X291560Y365810D01*
X291790Y366120D01*
X291867Y366533D01*
Y368600D01*
G01X293472Y368083D02*
X293702Y368393D01*
X293970Y368548D01*
X294277Y368600D01*
X294660Y368497D01*
X294928Y368238D01*
X295005Y367928D01*
X294967Y367618D01*
X294813Y367360D01*
X294047Y366843D01*
X293702Y366482D01*
X293472Y365965D01*
X293395Y365500D01*
X295005D01*
G01X297223D02*
X297300Y366172D01*
X297415Y366740D01*
X297568Y367257D01*
X297760Y367825D01*
X298067Y368600D01*
X296533D01*
G01X294000Y377420D02*
X291500D01*
X293292Y376433D01*
Y377767D01*
G01X283500Y376513D02*
X283792Y376673D01*
X283958Y376887D01*
X284000Y377127D01*
X283958Y377340D01*
X283750Y377553D01*
X283500Y377687D01*
X283250Y377713D01*
X282958Y377660D01*
X282750Y377473D01*
X282667Y377287D01*
Y377047D01*
G01Y377287D02*
X282542Y377447D01*
X282333Y377580D01*
X282083Y377633D01*
X281833Y377580D01*
X281625Y377447D01*
X281500Y377207D01*
X281542Y376967D01*
X281708Y376727D01*
G01X271917Y376593D02*
X271667Y376753D01*
X271542Y376940D01*
X271500Y377153D01*
X271583Y377420D01*
X271792Y377607D01*
X272042Y377660D01*
X272292Y377633D01*
X272500Y377527D01*
X272917Y376993D01*
X273208Y376753D01*
X273625Y376593D01*
X274000Y376540D01*
Y377660D01*
G01X271917Y434393D02*
X271667Y434553D01*
X271542Y434740D01*
X271500Y434953D01*
X271583Y435220D01*
X271792Y435407D01*
X272042Y435460D01*
X272292Y435433D01*
X272500Y435327D01*
X272917Y434793D01*
X273208Y434553D01*
X273625Y434393D01*
X274000Y434340D01*
Y435460D01*
G01X273500Y436513D02*
X273792Y436673D01*
X273958Y436887D01*
X274000Y437127D01*
X273958Y437340D01*
X273750Y437553D01*
X273500Y437687D01*
X273250Y437713D01*
X272958Y437660D01*
X272750Y437473D01*
X272667Y437287D01*
Y437047D01*
G01Y437287D02*
X272542Y437447D01*
X272333Y437580D01*
X272083Y437633D01*
X271833Y437580D01*
X271625Y437447D01*
X271500Y437207D01*
X271542Y436967D01*
X271708Y436727D01*
G01X281917Y434393D02*
X281667Y434553D01*
X281542Y434740D01*
X281500Y434953D01*
X281583Y435220D01*
X281792Y435407D01*
X282042Y435460D01*
X282292Y435433D01*
X282500Y435327D01*
X282917Y434793D01*
X283208Y434553D01*
X283625Y434393D01*
X284000Y434340D01*
Y435460D01*
G01X281917Y436593D02*
X281667Y436753D01*
X281542Y436940D01*
X281500Y437153D01*
X281583Y437420D01*
X281792Y437607D01*
X282042Y437660D01*
X282292Y437633D01*
X282500Y437527D01*
X282917Y436993D01*
X283208Y436753D01*
X283625Y436593D01*
X284000Y436540D01*
Y437660D01*
G01X291917Y434393D02*
X291667Y434553D01*
X291542Y434740D01*
X291500Y434953D01*
X291583Y435220D01*
X291792Y435407D01*
X292042Y435460D01*
X292292Y435433D01*
X292500Y435327D01*
X292917Y434793D01*
X293208Y434553D01*
X293625Y434393D01*
X294000Y434340D01*
Y435460D01*
G01Y437100D02*
X291500D01*
X292000Y436780D01*
G01X294000D02*
Y437420D01*
G01X273000Y449000D02*
Y459000D01*
X313000D01*
Y449000D01*
X273000D01*
G01D02*
X313000D01*
Y459000D01*
X273000D01*
Y449000D01*
G01X270933Y461200D02*
X271250Y460700D01*
X271630Y460367D01*
X272073Y460200D01*
X272580Y460367D01*
X272960Y460700D01*
X273340Y461200D01*
X273467Y461867D01*
Y465200D01*
G01X277300Y460200D02*
Y465200D01*
X276540Y464200D01*
G01Y460200D02*
X278060D01*
G01X281007Y460950D02*
X281387Y460533D01*
X281830Y460283D01*
X282400Y460200D01*
X282970Y460367D01*
X283413Y460700D01*
X283730Y461283D01*
X283793Y461950D01*
X283667Y462617D01*
X283350Y463033D01*
X282907Y463367D01*
X282463Y463450D01*
X282020Y463367D01*
X281450Y463033D01*
X281640Y465200D01*
X283350D01*
G01X294207Y456220D02*
X294437Y455858D01*
X294743Y455652D01*
X295088Y455600D01*
X295395Y455652D01*
X295702Y455910D01*
X295893Y456220D01*
X295932Y456530D01*
X295855Y456892D01*
X295587Y457150D01*
X295318Y457253D01*
X294973D01*
G01X295318D02*
X295548Y457408D01*
X295740Y457667D01*
X295817Y457977D01*
X295740Y458287D01*
X295548Y458545D01*
X295203Y458700D01*
X294858Y458648D01*
X294513Y458442D01*
G01X284322Y458183D02*
X284552Y458493D01*
X284820Y458648D01*
X285127Y458700D01*
X285510Y458597D01*
X285778Y458338D01*
X285855Y458028D01*
X285817Y457718D01*
X285663Y457460D01*
X284897Y456943D01*
X284552Y456582D01*
X284322Y456065D01*
X284245Y455600D01*
X285855D01*
G01X275050D02*
Y458700D01*
X274590Y458080D01*
G01Y455600D02*
X275510D01*
G01X305293Y75583D02*
X304913Y75833D01*
X304470Y76000D01*
X303963D01*
X303393Y75750D01*
X302950Y75333D01*
X302633Y74833D01*
X302380Y74000D01*
X302317Y73250D01*
X302443Y72500D01*
X302633Y72000D01*
X303013Y71500D01*
X303457Y71167D01*
X303900Y71000D01*
X304343D01*
X304787Y71167D01*
X305167Y71417D01*
X305483Y71750D01*
G01X307607Y72000D02*
X307987Y71417D01*
X308493Y71083D01*
X309063Y71000D01*
X309570Y71083D01*
X310077Y71500D01*
X310393Y72000D01*
X310457Y72500D01*
X310330Y73083D01*
X309887Y73500D01*
X309443Y73667D01*
X308873D01*
G01X309443D02*
X309823Y73917D01*
X310140Y74333D01*
X310267Y74833D01*
X310140Y75333D01*
X309823Y75750D01*
X309253Y76000D01*
X308683Y75917D01*
X308113Y75583D01*
G01X312897Y75167D02*
X313277Y75667D01*
X313720Y75917D01*
X314227Y76000D01*
X314860Y75833D01*
X315303Y75417D01*
X315430Y74917D01*
X315367Y74417D01*
X315113Y74000D01*
X313847Y73167D01*
X313277Y72583D01*
X312897Y71750D01*
X312770Y71000D01*
X315430D01*
G01X317000Y90000D02*
G03I-10000J0D01*
G01X297000D02*
G03X307000Y80000I10000J0D01*
G01D02*
G03X317000Y90000I0J10000D01*
G01X300850Y85000D02*
Y88100D01*
X300390Y87480D01*
G01Y85000D02*
X301310D01*
G01X317000Y90000D02*
G03X307000Y100000I-10000J0D01*
G01D02*
G03X297000Y90000I0J-10000D01*
G01X300122Y97583D02*
X300352Y97893D01*
X300620Y98048D01*
X300927Y98100D01*
X301310Y97997D01*
X301578Y97738D01*
X301655Y97428D01*
X301617Y97118D01*
X301463Y96860D01*
X300697Y96343D01*
X300352Y95982D01*
X300122Y95465D01*
X300045Y95000D01*
X301655D01*
G01X324084Y110626D02*
X323834Y110246D01*
X323667Y109803D01*
Y109296D01*
X323917Y108726D01*
X324334Y108283D01*
X324834Y107966D01*
X325667Y107713D01*
X326417Y107650D01*
X327167Y107776D01*
X327667Y107966D01*
X328167Y108346D01*
X328500Y108790D01*
X328667Y109233D01*
Y109676D01*
X328500Y110120D01*
X328250Y110500D01*
X327917Y110816D01*
G01X327667Y112940D02*
X328250Y113320D01*
X328584Y113826D01*
X328667Y114396D01*
X328584Y114903D01*
X328167Y115410D01*
X327667Y115726D01*
X327167Y115790D01*
X326584Y115663D01*
X326167Y115220D01*
X326000Y114776D01*
Y114206D01*
G01Y114776D02*
X325750Y115156D01*
X325334Y115473D01*
X324834Y115600D01*
X324334Y115473D01*
X323917Y115156D01*
X323667Y114586D01*
X323750Y114016D01*
X324084Y113446D01*
G01X323667Y119433D02*
X323834Y118926D01*
X324250Y118546D01*
X324750Y118293D01*
X325417Y118103D01*
X326167Y118040D01*
X326917Y118103D01*
X327584Y118293D01*
X328084Y118546D01*
X328500Y118926D01*
X328667Y119433D01*
X328500Y119940D01*
X328084Y120320D01*
X327584Y120573D01*
X326917Y120763D01*
X326167Y120826D01*
X325417Y120763D01*
X324750Y120573D01*
X324250Y120320D01*
X323834Y119940D01*
X323667Y119433D01*
G01X297000Y125000D02*
G03I10000J0D01*
G01D02*
G03X307000Y115000I10000J0D01*
G01D02*
G03X317000Y125000I0J10000D01*
G01X313878Y117417D02*
X313648Y117107D01*
X313380Y116952D01*
X313073Y116900D01*
X312690Y117003D01*
X312422Y117262D01*
X312345Y117572D01*
X312383Y117882D01*
X312537Y118140D01*
X313303Y118657D01*
X313648Y119018D01*
X313878Y119535D01*
X313955Y120000D01*
X312345D01*
G01X317000Y154000D02*
G03I-10000J0D01*
G01X297000D02*
G03X307000Y144000I10000J0D01*
G01D02*
G03X317000Y154000I0J10000D01*
G01X313878Y146417D02*
X313648Y146107D01*
X313380Y145952D01*
X313073Y145900D01*
X312690Y146003D01*
X312422Y146262D01*
X312345Y146572D01*
X312383Y146882D01*
X312537Y147140D01*
X313303Y147657D01*
X313648Y148018D01*
X313878Y148535D01*
X313955Y149000D01*
X312345D01*
G01X317000Y125000D02*
G03X307000Y135000I-10000J0D01*
G01D02*
G03X297000Y125000I0J-10000D01*
G01X313150Y130000D02*
Y126900D01*
X313610Y127520D01*
G01Y130000D02*
X312690D01*
G01X312707Y166417D02*
X313087Y166167D01*
X313530Y166000D01*
X314037D01*
X314607Y166250D01*
X315050Y166667D01*
X315367Y167167D01*
X315620Y168000D01*
X315683Y168750D01*
X315557Y169500D01*
X315367Y170000D01*
X314987Y170500D01*
X314543Y170833D01*
X314100Y171000D01*
X313657D01*
X313213Y170833D01*
X312833Y170583D01*
X312517Y170250D01*
G01X310203Y166833D02*
X309823Y166333D01*
X309380Y166083D01*
X308873Y166000D01*
X308240Y166167D01*
X307797Y166583D01*
X307670Y167083D01*
X307733Y167583D01*
X307987Y168000D01*
X309253Y168833D01*
X309823Y169417D01*
X310203Y170250D01*
X310330Y171000D01*
X307670D01*
G01X304977Y170417D02*
X304533Y170833D01*
X304027Y171000D01*
X303520Y170833D01*
X303077Y170333D01*
X302760Y169583D01*
X302633Y168833D01*
Y167917D01*
X302760Y167167D01*
X303077Y166500D01*
X303457Y166167D01*
X303900Y166000D01*
X304407Y166167D01*
X304787Y166500D01*
X305040Y167000D01*
X305167Y167667D01*
X305040Y168250D01*
X304723Y168833D01*
X304343Y169167D01*
X303900Y169250D01*
X303393Y169083D01*
X303013Y168667D01*
X302633Y167917D01*
G01X317000Y154000D02*
G03X307000Y164000I-10000J0D01*
G01D02*
G03X297000Y154000I0J-10000D01*
G01X313150Y159000D02*
Y155900D01*
X313610Y156520D01*
G01Y159000D02*
X312690D01*
G01X317000Y186000D02*
G03I-10000J0D01*
G01X297000D02*
G03X307000Y176000I10000J0D01*
G01D02*
G03X317000Y186000I0J10000D01*
G01X313878Y178417D02*
X313648Y178107D01*
X313380Y177952D01*
X313073Y177900D01*
X312690Y178003D01*
X312422Y178262D01*
X312345Y178572D01*
X312383Y178882D01*
X312537Y179140D01*
X313303Y179657D01*
X313648Y180018D01*
X313878Y180535D01*
X313955Y181000D01*
X312345D01*
G01X317084Y194126D02*
X316834Y193746D01*
X316667Y193303D01*
Y192796D01*
X316917Y192226D01*
X317334Y191783D01*
X317834Y191466D01*
X318667Y191213D01*
X319417Y191150D01*
X320167Y191276D01*
X320667Y191466D01*
X321167Y191846D01*
X321500Y192290D01*
X321667Y192733D01*
Y193176D01*
X321500Y193620D01*
X321250Y194000D01*
X320917Y194316D01*
G01X320667Y196440D02*
X321250Y196820D01*
X321584Y197326D01*
X321667Y197896D01*
X321584Y198403D01*
X321167Y198910D01*
X320667Y199226D01*
X320167Y199290D01*
X319584Y199163D01*
X319167Y198720D01*
X319000Y198276D01*
Y197706D01*
G01Y198276D02*
X318750Y198656D01*
X318334Y198973D01*
X317834Y199100D01*
X317334Y198973D01*
X316917Y198656D01*
X316667Y198086D01*
X316750Y197516D01*
X317084Y196946D01*
G01X321667Y202933D02*
X316667D01*
X317667Y202173D01*
G01X321667D02*
Y203693D01*
G01X317000Y186000D02*
G03X307000Y196000I-10000J0D01*
G01D02*
G03X297000Y186000I0J-10000D01*
G01X313150Y191000D02*
Y187900D01*
X313610Y188520D01*
G01Y191000D02*
X312690D01*
G01X324084Y199626D02*
X323834Y199246D01*
X323667Y198803D01*
Y198296D01*
X323917Y197726D01*
X324334Y197283D01*
X324834Y196966D01*
X325667Y196713D01*
X326417Y196650D01*
X327167Y196776D01*
X327667Y196966D01*
X328167Y197346D01*
X328500Y197790D01*
X328667Y198233D01*
Y198676D01*
X328500Y199120D01*
X328250Y199500D01*
X327917Y199816D01*
G01X327667Y201940D02*
X328250Y202320D01*
X328584Y202826D01*
X328667Y203396D01*
X328584Y203903D01*
X328167Y204410D01*
X327667Y204726D01*
X327167Y204790D01*
X326584Y204663D01*
X326167Y204220D01*
X326000Y203776D01*
Y203206D01*
G01Y203776D02*
X325750Y204156D01*
X325334Y204473D01*
X324834Y204600D01*
X324334Y204473D01*
X323917Y204156D01*
X323667Y203586D01*
X323750Y203016D01*
X324084Y202446D01*
G01X328667Y209193D02*
X323667D01*
X327250Y206850D01*
Y210016D01*
G01X317000Y214000D02*
G03I-10000J0D01*
G01X297000D02*
G03X307000Y204000I10000J0D01*
G01D02*
G03X317000Y214000I0J10000D01*
G01X313878Y206417D02*
X313648Y206107D01*
X313380Y205952D01*
X313073Y205900D01*
X312690Y206003D01*
X312422Y206262D01*
X312345Y206572D01*
X312383Y206882D01*
X312537Y207140D01*
X313303Y207657D01*
X313648Y208018D01*
X313878Y208535D01*
X313955Y209000D01*
X312345D01*
G01X322793Y218083D02*
X322413Y218333D01*
X321970Y218500D01*
X321463D01*
X320893Y218250D01*
X320450Y217833D01*
X320133Y217333D01*
X319880Y216500D01*
X319817Y215750D01*
X319943Y215000D01*
X320133Y214500D01*
X320513Y214000D01*
X320957Y213667D01*
X321400Y213500D01*
X321843D01*
X322287Y213667D01*
X322667Y213917D01*
X322983Y214250D01*
G01X325107Y214500D02*
X325487Y213917D01*
X325993Y213583D01*
X326563Y213500D01*
X327070Y213583D01*
X327577Y214000D01*
X327893Y214500D01*
X327957Y215000D01*
X327830Y215583D01*
X327387Y216000D01*
X326943Y216167D01*
X326373D01*
G01X326943D02*
X327323Y216417D01*
X327640Y216833D01*
X327767Y217333D01*
X327640Y217833D01*
X327323Y218250D01*
X326753Y218500D01*
X326183Y218417D01*
X325613Y218083D01*
G01X330207Y214500D02*
X330587Y213917D01*
X331093Y213583D01*
X331663Y213500D01*
X332170Y213583D01*
X332677Y214000D01*
X332993Y214500D01*
X333057Y215000D01*
X332930Y215583D01*
X332487Y216000D01*
X332043Y216167D01*
X331473D01*
G01X332043D02*
X332423Y216417D01*
X332740Y216833D01*
X332867Y217333D01*
X332740Y217833D01*
X332423Y218250D01*
X331853Y218500D01*
X331283Y218417D01*
X330713Y218083D01*
G01X317000Y214000D02*
G03X307000Y224000I-10000J0D01*
G01D02*
G03X297000Y214000I0J-10000D01*
G01X313150Y219000D02*
Y215900D01*
X313610Y216520D01*
G01Y219000D02*
X312690D01*
G01X315000Y261867D02*
X318100D01*
Y260908D01*
X317945Y260602D01*
X317738Y260410D01*
X317325Y260333D01*
X316912Y260410D01*
X316653Y260640D01*
X316498Y260908D01*
Y261867D01*
G01Y260908D02*
X315000Y260333D01*
G01Y258000D02*
X318100D01*
X317480Y258460D01*
G01X315000D02*
Y257540D01*
G01X316292Y255628D02*
X316653Y255360D01*
X316860Y255130D01*
X316963Y254823D01*
X316860Y254555D01*
X316653Y254363D01*
X316343Y254210D01*
X315982Y254172D01*
X315672Y254210D01*
X315362Y254363D01*
X315103Y254593D01*
X315000Y254862D01*
X315103Y255168D01*
X315413Y255437D01*
X315878Y255590D01*
X316395Y255628D01*
X317067Y255552D01*
X317428Y255437D01*
X317790Y255245D01*
X318048Y254977D01*
X318100Y254708D01*
X317997Y254440D01*
X317738Y254248D01*
G01X318000Y252000D02*
X346000D01*
Y242000D01*
X318000D01*
Y252000D01*
G01D02*
Y242000D01*
X346000D01*
Y252000D01*
X318000D01*
G01X312000Y253150D02*
X315100D01*
X314480Y253610D01*
G01X312000D02*
Y252690D01*
G01X296000Y267000D02*
Y277000D01*
X336000D01*
Y267000D01*
X296000D01*
G01D02*
X336000D01*
Y277000D01*
X296000D01*
Y273161D01*
G01Y270839D02*
Y267000D01*
G01X325293Y304583D02*
X324913Y304833D01*
X324470Y305000D01*
X323963D01*
X323393Y304750D01*
X322950Y304333D01*
X322633Y303833D01*
X322380Y303000D01*
X322317Y302250D01*
X322443Y301500D01*
X322633Y301000D01*
X323013Y300500D01*
X323457Y300167D01*
X323900Y300000D01*
X324343D01*
X324787Y300167D01*
X325167Y300417D01*
X325483Y300750D01*
G01X327797Y304167D02*
X328177Y304667D01*
X328620Y304917D01*
X329127Y305000D01*
X329760Y304833D01*
X330203Y304417D01*
X330330Y303917D01*
X330267Y303417D01*
X330013Y303000D01*
X328747Y302167D01*
X328177Y301583D01*
X327797Y300750D01*
X327670Y300000D01*
X330330D01*
G01X333973D02*
X334100Y301083D01*
X334290Y302000D01*
X334543Y302833D01*
X334860Y303750D01*
X335367Y305000D01*
X332833D01*
G01X297433Y297700D02*
X297750Y297200D01*
X298130Y296867D01*
X298573Y296700D01*
X299080Y296867D01*
X299460Y297200D01*
X299840Y297700D01*
X299967Y298367D01*
Y301700D01*
G01X303800Y296700D02*
Y301700D01*
X303040Y300700D01*
G01Y296700D02*
X304560D01*
G01X307823Y297283D02*
X308267Y296867D01*
X308773Y296700D01*
X309280Y296867D01*
X309723Y297367D01*
X310040Y298117D01*
X310167Y298867D01*
Y299783D01*
X310040Y300533D01*
X309723Y301200D01*
X309343Y301533D01*
X308900Y301700D01*
X308393Y301533D01*
X308013Y301200D01*
X307760Y300700D01*
X307633Y300033D01*
X307760Y299450D01*
X308077Y298867D01*
X308457Y298533D01*
X308900Y298450D01*
X309407Y298617D01*
X309787Y299033D01*
X310167Y299783D01*
G01X296000Y282000D02*
Y292000D01*
X336000D01*
Y282000D01*
X296000D01*
G01D02*
X336000D01*
Y292000D01*
X296000D01*
Y288161D01*
G01Y285839D02*
Y282000D01*
G01X317207Y289220D02*
X317437Y288858D01*
X317743Y288652D01*
X318088Y288600D01*
X318395Y288652D01*
X318702Y288910D01*
X318893Y289220D01*
X318932Y289530D01*
X318855Y289892D01*
X318587Y290150D01*
X318318Y290253D01*
X317973D01*
G01X318318D02*
X318548Y290408D01*
X318740Y290667D01*
X318817Y290977D01*
X318740Y291287D01*
X318548Y291545D01*
X318203Y291700D01*
X317858Y291648D01*
X317513Y291442D01*
G01X307322Y291183D02*
X307552Y291493D01*
X307820Y291648D01*
X308127Y291700D01*
X308510Y291597D01*
X308778Y291338D01*
X308855Y291028D01*
X308817Y290718D01*
X308663Y290460D01*
X307897Y289943D01*
X307552Y289582D01*
X307322Y289065D01*
X307245Y288600D01*
X308855D01*
G01X298050D02*
Y291700D01*
X297590Y291080D01*
G01Y288600D02*
X298510D01*
G01X317207Y274220D02*
X317437Y273858D01*
X317743Y273652D01*
X318088Y273600D01*
X318395Y273652D01*
X318702Y273910D01*
X318893Y274220D01*
X318932Y274530D01*
X318855Y274892D01*
X318587Y275150D01*
X318318Y275253D01*
X317973D01*
G01X318318D02*
X318548Y275408D01*
X318740Y275667D01*
X318817Y275977D01*
X318740Y276287D01*
X318548Y276545D01*
X318203Y276700D01*
X317858Y276648D01*
X317513Y276442D01*
G01X307322Y276183D02*
X307552Y276493D01*
X307820Y276648D01*
X308127Y276700D01*
X308510Y276597D01*
X308778Y276338D01*
X308855Y276028D01*
X308817Y275718D01*
X308663Y275460D01*
X307897Y274943D01*
X307552Y274582D01*
X307322Y274065D01*
X307245Y273600D01*
X308855D01*
G01X298050D02*
Y276700D01*
X297590Y276080D01*
G01Y273600D02*
X298510D01*
G01X337000Y318000D02*
G03I-10000J0D01*
G01X327000Y328000D02*
G03X317000Y318000I0J-10000D01*
G01D02*
G03X327000Y308000I10000J0D01*
G01X320122Y325583D02*
X320352Y325893D01*
X320620Y326048D01*
X320927Y326100D01*
X321310Y325997D01*
X321578Y325738D01*
X321655Y325428D01*
X321617Y325118D01*
X321463Y324860D01*
X320697Y324343D01*
X320352Y323982D01*
X320122Y323465D01*
X320045Y323000D01*
X321655D01*
G01X320850Y313000D02*
Y316100D01*
X320390Y315480D01*
G01Y313000D02*
X321310D01*
G01X305000Y318000D02*
G03X295000Y328000I-10000J0D01*
G01X296176Y308069D02*
G03X305000Y318000I-1176J9931D01*
G01X301878Y310417D02*
X301648Y310107D01*
X301380Y309952D01*
X301073Y309900D01*
X300690Y310003D01*
X300422Y310262D01*
X300345Y310572D01*
X300383Y310882D01*
X300537Y311140D01*
X301303Y311657D01*
X301648Y312018D01*
X301878Y312535D01*
X301955Y313000D01*
X300345D01*
G01X301150Y323000D02*
Y319900D01*
X301610Y320520D01*
G01Y323000D02*
X300690D01*
G01X323293Y362583D02*
X322913Y362833D01*
X322470Y363000D01*
X321963D01*
X321393Y362750D01*
X320950Y362333D01*
X320633Y361833D01*
X320380Y361000D01*
X320317Y360250D01*
X320443Y359500D01*
X320633Y359000D01*
X321013Y358500D01*
X321457Y358167D01*
X321900Y358000D01*
X322343D01*
X322787Y358167D01*
X323167Y358417D01*
X323483Y358750D01*
G01X325797Y362167D02*
X326177Y362667D01*
X326620Y362917D01*
X327127Y363000D01*
X327760Y362833D01*
X328203Y362417D01*
X328330Y361917D01*
X328267Y361417D01*
X328013Y361000D01*
X326747Y360167D01*
X326177Y359583D01*
X325797Y358750D01*
X325670Y358000D01*
X328330D01*
G01X330897Y360083D02*
X331340Y360667D01*
X331720Y361000D01*
X332227Y361167D01*
X332670Y361000D01*
X332987Y360667D01*
X333240Y360167D01*
X333303Y359583D01*
X333240Y359083D01*
X332987Y358583D01*
X332607Y358167D01*
X332163Y358000D01*
X331657Y358167D01*
X331213Y358667D01*
X330960Y359417D01*
X330897Y360250D01*
X331023Y361333D01*
X331213Y361917D01*
X331530Y362500D01*
X331973Y362917D01*
X332417Y363000D01*
X332860Y362833D01*
X333177Y362417D01*
G01X337000Y346000D02*
G03I-10000J0D01*
G01X327000Y356000D02*
G03X317000Y346000I0J-10000D01*
G01D02*
G03X327000Y336000I10000J0D01*
G01X320122Y353583D02*
X320352Y353893D01*
X320620Y354048D01*
X320927Y354100D01*
X321310Y353997D01*
X321578Y353738D01*
X321655Y353428D01*
X321617Y353118D01*
X321463Y352860D01*
X320697Y352343D01*
X320352Y351982D01*
X320122Y351465D01*
X320045Y351000D01*
X321655D01*
G01X320850Y341000D02*
Y344100D01*
X320390Y343480D01*
G01Y341000D02*
X321310D01*
G01X299000Y362000D02*
Y372000D01*
X319000D01*
Y362000D01*
X299000D01*
G01D02*
X319000D01*
Y372000D01*
X299000D01*
Y362000D01*
G01X310893Y370183D02*
X311053Y370433D01*
X311240Y370558D01*
X311453Y370600D01*
X311720Y370517D01*
X311907Y370308D01*
X311960Y370058D01*
X311933Y369808D01*
X311827Y369600D01*
X311293Y369183D01*
X311053Y368892D01*
X310893Y368475D01*
X310840Y368100D01*
X311960D01*
G01X301750Y367600D02*
Y370700D01*
X301290Y370080D01*
G01Y367600D02*
X302210D01*
G01X324000Y377047D02*
X323458Y377100D01*
X323000Y377180D01*
X322583Y377287D01*
X322125Y377420D01*
X321500Y377633D01*
Y376567D01*
G01X312958Y376593D02*
X312667Y376780D01*
X312500Y376940D01*
X312417Y377153D01*
X312500Y377340D01*
X312667Y377473D01*
X312917Y377580D01*
X313208Y377607D01*
X313458Y377580D01*
X313708Y377473D01*
X313917Y377313D01*
X314000Y377127D01*
X313917Y376913D01*
X313667Y376727D01*
X313292Y376620D01*
X312875Y376593D01*
X312333Y376647D01*
X312042Y376727D01*
X311750Y376860D01*
X311542Y377047D01*
X311500Y377233D01*
X311583Y377420D01*
X311792Y377553D01*
G01X303625Y376513D02*
X303833Y376673D01*
X303958Y376860D01*
X304000Y377100D01*
X303917Y377340D01*
X303750Y377527D01*
X303458Y377660D01*
X303125Y377687D01*
X302792Y377633D01*
X302583Y377500D01*
X302417Y377313D01*
X302375Y377127D01*
X302417Y376940D01*
X302583Y376700D01*
X301500Y376780D01*
Y377500D01*
G01X295500Y440557D02*
X299083D01*
X299833Y440810D01*
X300333Y441317D01*
X300500Y441950D01*
X300333Y442583D01*
X299833Y443090D01*
X299083Y443343D01*
X295500D01*
G01X300500Y447050D02*
X300417Y447493D01*
X300167Y448000D01*
X299750Y448317D01*
X299167Y448443D01*
X298583Y448317D01*
X298083Y447937D01*
X297833Y447367D01*
Y446733D01*
X297667Y446353D01*
X297250Y446037D01*
X296667Y445910D01*
X296083Y446100D01*
X295667Y446543D01*
X295500Y447050D01*
X295667Y447557D01*
X296083Y448000D01*
X296667Y448190D01*
X297250Y448063D01*
X297667Y447747D01*
X297833Y447367D01*
Y446733D01*
X298083Y446163D01*
X298583Y445783D01*
X299167Y445657D01*
X299750Y445783D01*
X300167Y446100D01*
X300417Y446607D01*
X300500Y447050D01*
G01X301917Y434393D02*
X301667Y434553D01*
X301542Y434740D01*
X301500Y434953D01*
X301583Y435220D01*
X301792Y435407D01*
X302042Y435460D01*
X302292Y435433D01*
X302500Y435327D01*
X302917Y434793D01*
X303208Y434553D01*
X303625Y434393D01*
X304000Y434340D01*
Y435460D01*
G01X301500Y437100D02*
X301583Y436887D01*
X301792Y436727D01*
X302042Y436620D01*
X302375Y436540D01*
X302750Y436513D01*
X303125Y436540D01*
X303458Y436620D01*
X303708Y436727D01*
X303917Y436887D01*
X304000Y437100D01*
X303917Y437313D01*
X303708Y437473D01*
X303458Y437580D01*
X303125Y437660D01*
X302750Y437687D01*
X302375Y437660D01*
X302042Y437580D01*
X301792Y437473D01*
X301583Y437313D01*
X301500Y437100D01*
G01X314000Y434900D02*
X311500D01*
X312000Y434580D01*
G01X314000D02*
Y435220D01*
G01X313708Y436647D02*
X313917Y436833D01*
X314000Y437047D01*
X313917Y437260D01*
X313667Y437447D01*
X313292Y437580D01*
X312917Y437633D01*
X312458D01*
X312083Y437580D01*
X311750Y437447D01*
X311583Y437287D01*
X311500Y437100D01*
X311583Y436887D01*
X311750Y436727D01*
X312000Y436620D01*
X312333Y436567D01*
X312625Y436620D01*
X312917Y436753D01*
X313083Y436913D01*
X313125Y437100D01*
X313042Y437313D01*
X312833Y437473D01*
X312458Y437633D01*
G01X324000Y434900D02*
X321500D01*
X322000Y434580D01*
G01X324000D02*
Y435220D01*
G01Y437100D02*
X323958Y437287D01*
X323833Y437500D01*
X323625Y437633D01*
X323333Y437687D01*
X323042Y437633D01*
X322792Y437473D01*
X322667Y437233D01*
Y436967D01*
X322583Y436807D01*
X322375Y436673D01*
X322083Y436620D01*
X321792Y436700D01*
X321583Y436887D01*
X321500Y437100D01*
X321583Y437313D01*
X321792Y437500D01*
X322083Y437580D01*
X322375Y437527D01*
X322583Y437393D01*
X322667Y437233D01*
Y436967D01*
X322792Y436727D01*
X323042Y436567D01*
X323333Y436513D01*
X323625Y436567D01*
X323833Y436700D01*
X323958Y436913D01*
X324000Y437100D01*
G01X319000Y449000D02*
Y459000D01*
X359000D01*
Y449000D01*
X319000D01*
G01D02*
X359000D01*
Y459000D01*
X319000D01*
Y449000D01*
G01X316933Y461200D02*
X317250Y460700D01*
X317630Y460367D01*
X318073Y460200D01*
X318580Y460367D01*
X318960Y460700D01*
X319340Y461200D01*
X319467Y461867D01*
Y465200D01*
G01X323300Y460200D02*
Y465200D01*
X322540Y464200D01*
G01Y460200D02*
X324060D01*
G01X329160D02*
Y465200D01*
X326817Y461617D01*
X329983D01*
G01X321050Y455600D02*
Y458700D01*
X320590Y458080D01*
G01Y455600D02*
X321510D01*
G01X305510D02*
Y458700D01*
X304092Y456478D01*
X306008D01*
G01X348057Y95000D02*
Y91417D01*
X348310Y90667D01*
X348817Y90167D01*
X349450Y90000D01*
X350083Y90167D01*
X350590Y90667D01*
X350843Y91417D01*
Y95000D01*
G01X354423Y90000D02*
X354550Y91083D01*
X354740Y92000D01*
X354993Y92833D01*
X355310Y93750D01*
X355817Y95000D01*
X353283D01*
G01X338000Y188000D02*
Y98000D01*
X360000D01*
Y188000D01*
X354000D01*
X351500Y185500D01*
X346500D01*
X344000Y188000D01*
X338000D01*
G01Y182027D02*
Y98000D01*
X360000D01*
Y172027D01*
G01X332647Y103292D02*
X332833Y103083D01*
X333047Y103000D01*
X333260Y103083D01*
X333447Y103333D01*
X333580Y103708D01*
X333633Y104083D01*
Y104542D01*
X333580Y104917D01*
X333447Y105250D01*
X333287Y105417D01*
X333100Y105500D01*
X332887Y105417D01*
X332727Y105250D01*
X332620Y105000D01*
X332567Y104667D01*
X332620Y104375D01*
X332753Y104083D01*
X332913Y103917D01*
X333100Y103875D01*
X333313Y103958D01*
X333473Y104167D01*
X333633Y104542D01*
G01X333100Y113000D02*
X333287Y113042D01*
X333500Y113167D01*
X333633Y113375D01*
X333687Y113667D01*
X333633Y113958D01*
X333473Y114208D01*
X333233Y114333D01*
X332967D01*
X332807Y114417D01*
X332673Y114625D01*
X332620Y114917D01*
X332700Y115208D01*
X332887Y115417D01*
X333100Y115500D01*
X333313Y115417D01*
X333500Y115208D01*
X333580Y114917D01*
X333527Y114625D01*
X333393Y114417D01*
X333233Y114333D01*
X332967D01*
X332727Y114208D01*
X332567Y113958D01*
X332513Y113667D01*
X332567Y113375D01*
X332700Y113167D01*
X332913Y113042D01*
X333100Y113000D01*
G01X333047Y123000D02*
X333100Y123542D01*
X333180Y124000D01*
X333287Y124417D01*
X333420Y124875D01*
X333633Y125500D01*
X332567D01*
G01X332593Y134042D02*
X332780Y134333D01*
X332940Y134500D01*
X333153Y134583D01*
X333340Y134500D01*
X333473Y134333D01*
X333580Y134083D01*
X333607Y133792D01*
X333580Y133542D01*
X333473Y133292D01*
X333313Y133083D01*
X333127Y133000D01*
X332913Y133083D01*
X332727Y133333D01*
X332620Y133708D01*
X332593Y134125D01*
X332647Y134667D01*
X332727Y134958D01*
X332860Y135250D01*
X333047Y135458D01*
X333233Y135500D01*
X333420Y135417D01*
X333553Y135208D01*
G01X332513Y143375D02*
X332673Y143167D01*
X332860Y143042D01*
X333100Y143000D01*
X333340Y143083D01*
X333527Y143250D01*
X333660Y143542D01*
X333687Y143875D01*
X333633Y144208D01*
X333500Y144417D01*
X333313Y144583D01*
X333127Y144625D01*
X332940Y144583D01*
X332700Y144417D01*
X332780Y145500D01*
X333500D01*
G01X333420Y153000D02*
Y155500D01*
X332433Y153708D01*
X333767D01*
G01X332513Y163500D02*
X332673Y163208D01*
X332887Y163042D01*
X333127Y163000D01*
X333340Y163042D01*
X333553Y163250D01*
X333687Y163500D01*
X333713Y163750D01*
X333660Y164042D01*
X333473Y164250D01*
X333287Y164333D01*
X333047D01*
G01X333287D02*
X333447Y164458D01*
X333580Y164667D01*
X333633Y164917D01*
X333580Y165167D01*
X333447Y165375D01*
X333207Y165500D01*
X332967Y165458D01*
X332727Y165292D01*
G01X332593Y175083D02*
X332753Y175333D01*
X332940Y175458D01*
X333153Y175500D01*
X333420Y175417D01*
X333607Y175208D01*
X333660Y174958D01*
X333633Y174708D01*
X333527Y174500D01*
X332993Y174083D01*
X332753Y173792D01*
X332593Y173375D01*
X332540Y173000D01*
X333660D01*
G01X338000Y188000D02*
Y183973D01*
G01X360000Y173973D02*
Y188000D01*
X354000D01*
X351500Y185500D01*
X346500D01*
X344000Y188000D01*
X338000D01*
G01X333100Y183000D02*
Y185500D01*
X332780Y185000D01*
G01Y183000D02*
X333420D01*
G01X353000Y201000D02*
G03I-10000J0D01*
G01D02*
G03X343000Y211000I-10000J0D01*
G01D02*
G03X333000Y201000I0J-10000D01*
G01D02*
G03X343000Y191000I10000J0D01*
G01D02*
G03X353000Y201000I0J10000D01*
G01X336122Y208583D02*
X336352Y208893D01*
X336620Y209048D01*
X336927Y209100D01*
X337310Y208997D01*
X337578Y208738D01*
X337655Y208428D01*
X337617Y208118D01*
X337463Y207860D01*
X336697Y207343D01*
X336352Y206982D01*
X336122Y206465D01*
X336045Y206000D01*
X337655D01*
G01X336850Y196000D02*
Y199100D01*
X336390Y198480D01*
G01Y196000D02*
X337310D01*
G01X344157Y206417D02*
X344537Y206167D01*
X344980Y206000D01*
X345487D01*
X346057Y206250D01*
X346500Y206667D01*
X346817Y207167D01*
X347070Y208000D01*
X347133Y208750D01*
X347007Y209500D01*
X346817Y210000D01*
X346437Y210500D01*
X345993Y210833D01*
X345550Y211000D01*
X345107D01*
X344663Y210833D01*
X344283Y210583D01*
X343967Y210250D01*
G01X340450Y211000D02*
X340007Y210917D01*
X339500Y210667D01*
X339183Y210250D01*
X339057Y209667D01*
X339183Y209083D01*
X339563Y208583D01*
X340133Y208333D01*
X340767D01*
X341147Y208167D01*
X341463Y207750D01*
X341590Y207167D01*
X341400Y206583D01*
X340957Y206167D01*
X340450Y206000D01*
X339943Y206167D01*
X339500Y206583D01*
X339310Y207167D01*
X339437Y207750D01*
X339753Y208167D01*
X340133Y208333D01*
X340767D01*
X341337Y208583D01*
X341717Y209083D01*
X341843Y209667D01*
X341717Y210250D01*
X341400Y210667D01*
X340893Y210917D01*
X340450Y211000D01*
G01X333000Y225000D02*
G03I10000J0D01*
G01X353000D02*
G03X343000Y235000I-10000J0D01*
G01D02*
G03X333000Y225000I0J-10000D01*
G01D02*
G03X343000Y215000I10000J0D01*
G01D02*
G03X353000Y225000I0J10000D01*
G01X349878Y217417D02*
X349648Y217107D01*
X349380Y216952D01*
X349073Y216900D01*
X348690Y217003D01*
X348422Y217262D01*
X348345Y217572D01*
X348383Y217882D01*
X348537Y218140D01*
X349303Y218657D01*
X349648Y219018D01*
X349878Y219535D01*
X349955Y220000D01*
X348345D01*
G01X349150Y230000D02*
Y226900D01*
X349610Y227520D01*
G01Y230000D02*
X348690D01*
G01X354583Y253878D02*
X354893Y253648D01*
X355048Y253380D01*
X355100Y253073D01*
X354997Y252690D01*
X354738Y252422D01*
X354428Y252345D01*
X354118Y252383D01*
X353860Y252537D01*
X353343Y253303D01*
X352982Y253648D01*
X352465Y253878D01*
X352000Y253955D01*
Y252345D01*
G01X356367Y243500D02*
Y240400D01*
X355408D01*
X355102Y240555D01*
X354910Y240762D01*
X354833Y241175D01*
X354910Y241588D01*
X355140Y241847D01*
X355408Y242002D01*
X356367D01*
G01X355408D02*
X354833Y243500D01*
G01X352500D02*
Y240400D01*
X352960Y241020D01*
G01Y243500D02*
X352040D01*
G01X348940D02*
Y240400D01*
X350358Y242622D01*
X348442D01*
G01X328510Y288600D02*
Y291700D01*
X327092Y289478D01*
X329008D01*
G01X328510Y273600D02*
Y276700D01*
X327092Y274478D01*
X329008D01*
G01X337000Y318000D02*
G03X327000Y328000I-10000J0D01*
G01Y308000D02*
G03X337000Y318000I0J10000D01*
G01X349433Y326700D02*
X349750Y326200D01*
X350130Y325867D01*
X350573Y325700D01*
X351080Y325867D01*
X351460Y326200D01*
X351840Y326700D01*
X351967Y327367D01*
Y330700D01*
G01X355800Y325700D02*
Y330700D01*
X355040Y329700D01*
G01Y325700D02*
X356560D01*
G01X360900Y330700D02*
X360393Y330533D01*
X360013Y330117D01*
X359760Y329617D01*
X359570Y328950D01*
X359507Y328200D01*
X359570Y327450D01*
X359760Y326783D01*
X360013Y326283D01*
X360393Y325867D01*
X360900Y325700D01*
X361407Y325867D01*
X361787Y326283D01*
X362040Y326783D01*
X362230Y327450D01*
X362293Y328200D01*
X362230Y328950D01*
X362040Y329617D01*
X361787Y330117D01*
X361407Y330533D01*
X360900Y330700D01*
G01X348000Y311000D02*
Y321000D01*
X388000D01*
Y311000D01*
X348000D01*
G01D02*
X361839D01*
G01X364161D02*
X388000D01*
Y321000D01*
X354161D01*
G01X351839D02*
X348000D01*
Y311000D01*
G01X350050Y317600D02*
Y320700D01*
X349590Y320080D01*
G01Y317600D02*
X350510D01*
G01X337000Y346000D02*
G03X327000Y356000I-10000J0D01*
G01Y336000D02*
G03X337000Y346000I0J10000D01*
G01X354000Y374900D02*
X351500D01*
X352000Y374580D01*
G01X354000D02*
Y375220D01*
G01X351500Y377100D02*
X351583Y376887D01*
X351792Y376727D01*
X352042Y376620D01*
X352375Y376540D01*
X352750Y376513D01*
X353125Y376540D01*
X353458Y376620D01*
X353708Y376727D01*
X353917Y376887D01*
X354000Y377100D01*
X353917Y377313D01*
X353708Y377473D01*
X353458Y377580D01*
X353125Y377660D01*
X352750Y377687D01*
X352375Y377660D01*
X352042Y377580D01*
X351792Y377473D01*
X351583Y377313D01*
X351500Y377100D01*
G01X343708Y376647D02*
X343917Y376833D01*
X344000Y377047D01*
X343917Y377260D01*
X343667Y377447D01*
X343292Y377580D01*
X342917Y377633D01*
X342458D01*
X342083Y377580D01*
X341750Y377447D01*
X341583Y377287D01*
X341500Y377100D01*
X341583Y376887D01*
X341750Y376727D01*
X342000Y376620D01*
X342333Y376567D01*
X342625Y376620D01*
X342917Y376753D01*
X343083Y376913D01*
X343125Y377100D01*
X343042Y377313D01*
X342833Y377473D01*
X342458Y377633D01*
G01X334000Y377100D02*
X333958Y377287D01*
X333833Y377500D01*
X333625Y377633D01*
X333333Y377687D01*
X333042Y377633D01*
X332792Y377473D01*
X332667Y377233D01*
Y376967D01*
X332583Y376807D01*
X332375Y376673D01*
X332083Y376620D01*
X331792Y376700D01*
X331583Y376887D01*
X331500Y377100D01*
X331583Y377313D01*
X331792Y377500D01*
X332083Y377580D01*
X332375Y377527D01*
X332583Y377393D01*
X332667Y377233D01*
Y376967D01*
X332792Y376727D01*
X333042Y376567D01*
X333333Y376513D01*
X333625Y376567D01*
X333833Y376700D01*
X333958Y376913D01*
X334000Y377100D01*
G01Y434900D02*
X331500D01*
X332000Y434580D01*
G01X334000D02*
Y435220D01*
G01Y437047D02*
X333458Y437100D01*
X333000Y437180D01*
X332583Y437287D01*
X332125Y437420D01*
X331500Y437633D01*
Y436567D01*
G01X344000Y434900D02*
X341500D01*
X342000Y434580D01*
G01X344000D02*
Y435220D01*
G01X342958Y436593D02*
X342667Y436780D01*
X342500Y436940D01*
X342417Y437153D01*
X342500Y437340D01*
X342667Y437473D01*
X342917Y437580D01*
X343208Y437607D01*
X343458Y437580D01*
X343708Y437473D01*
X343917Y437313D01*
X344000Y437127D01*
X343917Y436913D01*
X343667Y436727D01*
X343292Y436620D01*
X342875Y436593D01*
X342333Y436647D01*
X342042Y436727D01*
X341750Y436860D01*
X341542Y437047D01*
X341500Y437233D01*
X341583Y437420D01*
X341792Y437553D01*
G01X354000Y434900D02*
X351500D01*
X352000Y434580D01*
G01X354000D02*
Y435220D01*
G01X353625Y436513D02*
X353833Y436673D01*
X353958Y436860D01*
X354000Y437100D01*
X353917Y437340D01*
X353750Y437527D01*
X353458Y437660D01*
X353125Y437687D01*
X352792Y437633D01*
X352583Y437500D01*
X352417Y437313D01*
X352375Y437127D01*
X352417Y436940D01*
X352583Y436700D01*
X351500Y436780D01*
Y437500D01*
G01X351510Y455600D02*
Y458700D01*
X350092Y456478D01*
X352008D01*
G01X340207Y456220D02*
X340437Y455858D01*
X340743Y455652D01*
X341088Y455600D01*
X341395Y455652D01*
X341702Y455910D01*
X341893Y456220D01*
X341932Y456530D01*
X341855Y456892D01*
X341587Y457150D01*
X341318Y457253D01*
X340973D01*
G01X341318D02*
X341548Y457408D01*
X341740Y457667D01*
X341817Y457977D01*
X341740Y458287D01*
X341548Y458545D01*
X341203Y458700D01*
X340858Y458648D01*
X340513Y458442D01*
G01X330322Y458183D02*
X330552Y458493D01*
X330820Y458648D01*
X331127Y458700D01*
X331510Y458597D01*
X331778Y458338D01*
X331855Y458028D01*
X331817Y457718D01*
X331663Y457460D01*
X330897Y456943D01*
X330552Y456582D01*
X330322Y456065D01*
X330245Y455600D01*
X331855D01*
G01X385183Y86000D02*
X385500Y85500D01*
X385880Y85167D01*
X386323Y85000D01*
X386830Y85167D01*
X387210Y85500D01*
X387590Y86000D01*
X387717Y86667D01*
Y90000D01*
G01X390347Y87083D02*
X390790Y87667D01*
X391170Y88000D01*
X391677Y88167D01*
X392120Y88000D01*
X392437Y87667D01*
X392690Y87167D01*
X392753Y86583D01*
X392690Y86083D01*
X392437Y85583D01*
X392057Y85167D01*
X391613Y85000D01*
X391107Y85167D01*
X390663Y85667D01*
X390410Y86417D01*
X390347Y87250D01*
X390473Y88333D01*
X390663Y88917D01*
X390980Y89500D01*
X391423Y89917D01*
X391867Y90000D01*
X392310Y89833D01*
X392627Y89417D01*
G01X360900Y103000D02*
Y105500D01*
X360580Y105000D01*
G01Y103000D02*
X361220D01*
G01X363100Y105500D02*
X362887Y105417D01*
X362727Y105208D01*
X362620Y104958D01*
X362540Y104625D01*
X362513Y104250D01*
X362540Y103875D01*
X362620Y103542D01*
X362727Y103292D01*
X362887Y103083D01*
X363100Y103000D01*
X363313Y103083D01*
X363473Y103292D01*
X363580Y103542D01*
X363660Y103875D01*
X363687Y104250D01*
X363660Y104625D01*
X363580Y104958D01*
X363473Y105208D01*
X363313Y105417D01*
X363100Y105500D01*
G01X360900Y113000D02*
Y115500D01*
X360580Y115000D01*
G01Y113000D02*
X361220D01*
G01X363100D02*
Y115500D01*
X362780Y115000D01*
G01Y113000D02*
X363420D01*
G01X380000Y92000D02*
Y132000D01*
X400000D01*
Y92000D01*
X380000D01*
G01D02*
X400000D01*
Y132000D01*
X380000D01*
Y92000D01*
G01X376350Y97000D02*
Y100100D01*
X375890Y99480D01*
G01Y97000D02*
X376810D01*
G01X360900Y123000D02*
Y125500D01*
X360580Y125000D01*
G01Y123000D02*
X361220D01*
G01X362593Y125083D02*
X362753Y125333D01*
X362940Y125458D01*
X363153Y125500D01*
X363420Y125417D01*
X363607Y125208D01*
X363660Y124958D01*
X363633Y124708D01*
X363527Y124500D01*
X362993Y124083D01*
X362753Y123792D01*
X362593Y123375D01*
X362540Y123000D01*
X363660D01*
G01X360900Y133000D02*
Y135500D01*
X360580Y135000D01*
G01Y133000D02*
X361220D01*
G01X362513Y133500D02*
X362673Y133208D01*
X362887Y133042D01*
X363127Y133000D01*
X363340Y133042D01*
X363553Y133250D01*
X363687Y133500D01*
X363713Y133750D01*
X363660Y134042D01*
X363473Y134250D01*
X363287Y134333D01*
X363047D01*
G01X363287D02*
X363447Y134458D01*
X363580Y134667D01*
X363633Y134917D01*
X363580Y135167D01*
X363447Y135375D01*
X363207Y135500D01*
X362967Y135458D01*
X362727Y135292D01*
G01X360900Y143000D02*
Y145500D01*
X360580Y145000D01*
G01Y143000D02*
X361220D01*
G01X363420D02*
Y145500D01*
X362433Y143708D01*
X363767D01*
G01X376647Y127000D02*
X376700Y127542D01*
X376780Y128000D01*
X376887Y128417D01*
X377020Y128875D01*
X377233Y129500D01*
X376167D01*
G01X385183Y141000D02*
X385500Y140500D01*
X385880Y140167D01*
X386323Y140000D01*
X386830Y140167D01*
X387210Y140500D01*
X387590Y141000D01*
X387717Y141667D01*
Y145000D01*
G01X391423Y140000D02*
X391550Y141083D01*
X391740Y142000D01*
X391993Y142833D01*
X392310Y143750D01*
X392817Y145000D01*
X390283D01*
G01X380000Y148000D02*
Y188000D01*
X400000D01*
Y148000D01*
X380000D01*
G01D02*
X400000D01*
Y188000D01*
X380000D01*
Y148000D01*
G01X360900Y153000D02*
Y155500D01*
X360580Y155000D01*
G01Y153000D02*
X361220D01*
G01X362513Y153375D02*
X362673Y153167D01*
X362860Y153042D01*
X363100Y153000D01*
X363340Y153083D01*
X363527Y153250D01*
X363660Y153542D01*
X363687Y153875D01*
X363633Y154208D01*
X363500Y154417D01*
X363313Y154583D01*
X363127Y154625D01*
X362940Y154583D01*
X362700Y154417D01*
X362780Y155500D01*
X363500D01*
G01X360900Y163000D02*
Y165500D01*
X360580Y165000D01*
G01Y163000D02*
X361220D01*
G01X362593Y164042D02*
X362780Y164333D01*
X362940Y164500D01*
X363153Y164583D01*
X363340Y164500D01*
X363473Y164333D01*
X363580Y164083D01*
X363607Y163792D01*
X363580Y163542D01*
X363473Y163292D01*
X363313Y163083D01*
X363127Y163000D01*
X362913Y163083D01*
X362727Y163333D01*
X362620Y163708D01*
X362593Y164125D01*
X362647Y164667D01*
X362727Y164958D01*
X362860Y165250D01*
X363047Y165458D01*
X363233Y165500D01*
X363420Y165417D01*
X363553Y165208D01*
G01X360900Y173000D02*
Y175500D01*
X360580Y175000D01*
G01Y173000D02*
X361220D01*
G01X363047D02*
X363100Y173542D01*
X363180Y174000D01*
X363287Y174417D01*
X363420Y174875D01*
X363633Y175500D01*
X362567D01*
G01X376350Y153000D02*
Y156100D01*
X375890Y155480D01*
G01Y153000D02*
X376810D01*
G01X360900Y183000D02*
Y185500D01*
X360580Y185000D01*
G01Y183000D02*
X361220D01*
G01X363100D02*
X363287Y183042D01*
X363500Y183167D01*
X363633Y183375D01*
X363687Y183667D01*
X363633Y183958D01*
X363473Y184208D01*
X363233Y184333D01*
X362967D01*
X362807Y184417D01*
X362673Y184625D01*
X362620Y184917D01*
X362700Y185208D01*
X362887Y185417D01*
X363100Y185500D01*
X363313Y185417D01*
X363500Y185208D01*
X363580Y184917D01*
X363527Y184625D01*
X363393Y184417D01*
X363233Y184333D01*
X362967D01*
X362727Y184208D01*
X362567Y183958D01*
X362513Y183667D01*
X362567Y183375D01*
X362700Y183167D01*
X362913Y183042D01*
X363100Y183000D01*
G01X376647D02*
X376700Y183542D01*
X376780Y184000D01*
X376887Y184417D01*
X377020Y184875D01*
X377233Y185500D01*
X376167D01*
G01X380000Y204000D02*
Y244000D01*
X400000D01*
Y204000D01*
X380000D01*
G01D02*
X400000D01*
Y244000D01*
X380000D01*
Y204000D01*
G01X376350Y209000D02*
Y212100D01*
X375890Y211480D01*
G01Y209000D02*
X376810D01*
G01X373878Y205417D02*
X373648Y205107D01*
X373380Y204952D01*
X373073Y204900D01*
X372690Y205003D01*
X372422Y205262D01*
X372345Y205572D01*
X372383Y205882D01*
X372537Y206140D01*
X373303Y206657D01*
X373648Y207018D01*
X373878Y207535D01*
X373955Y208000D01*
X372345D01*
G01X376647Y239000D02*
X376700Y239542D01*
X376780Y240000D01*
X376887Y240417D01*
X377020Y240875D01*
X377233Y241500D01*
X376167D01*
G01X372000Y242000D02*
Y214000D01*
X362000D01*
Y242000D01*
X372000D01*
G01D02*
X362000D01*
Y214000D01*
X372000D01*
Y242000D01*
G01X380000Y260000D02*
Y300000D01*
X400000D01*
Y260000D01*
X380000D01*
G01D02*
X400000D01*
Y300000D01*
X380000D01*
Y260000D01*
G01X376350Y265000D02*
Y268100D01*
X375890Y267480D01*
G01Y265000D02*
X376810D01*
G01X373150Y248000D02*
Y244900D01*
X373610Y245520D01*
G01Y248000D02*
X372690D01*
G01X358000Y269000D02*
Y297000D01*
X368000D01*
Y269000D01*
X358000D01*
G01D02*
X368000D01*
Y297000D01*
X358000D01*
Y269000D01*
G01X356850Y263000D02*
Y266100D01*
X356390Y265480D01*
G01Y263000D02*
X357310D01*
G01X376647Y295000D02*
X376700Y295542D01*
X376780Y296000D01*
X376887Y296417D01*
X377020Y296875D01*
X377233Y297500D01*
X376167D01*
G01X370166Y292400D02*
X373266D01*
Y291441D01*
X373111Y291135D01*
X372904Y290943D01*
X372491Y290866D01*
X372078Y290943D01*
X371819Y291173D01*
X371664Y291441D01*
Y292400D01*
G01Y291441D02*
X370166Y290866D01*
G01Y288533D02*
X373266D01*
X372646Y288993D01*
G01X370166D02*
Y288073D01*
G01X372749Y286161D02*
X373059Y285931D01*
X373214Y285663D01*
X373266Y285356D01*
X373163Y284973D01*
X372904Y284705D01*
X372594Y284628D01*
X372284Y284666D01*
X372026Y284820D01*
X371509Y285586D01*
X371148Y285931D01*
X370631Y286161D01*
X370166Y286238D01*
Y284628D01*
G01X385183Y305000D02*
X385500Y304500D01*
X385880Y304167D01*
X386323Y304000D01*
X386830Y304167D01*
X387210Y304500D01*
X387590Y305000D01*
X387717Y305667D01*
Y309000D01*
G01X390473Y304583D02*
X390917Y304167D01*
X391423Y304000D01*
X391930Y304167D01*
X392373Y304667D01*
X392690Y305417D01*
X392817Y306167D01*
Y307083D01*
X392690Y307833D01*
X392373Y308500D01*
X391993Y308833D01*
X391550Y309000D01*
X391043Y308833D01*
X390663Y308500D01*
X390410Y308000D01*
X390283Y307333D01*
X390410Y306750D01*
X390727Y306167D01*
X391107Y305833D01*
X391550Y305750D01*
X392057Y305917D01*
X392437Y306333D01*
X392817Y307083D01*
G01X356122Y305583D02*
X356352Y305893D01*
X356620Y306048D01*
X356927Y306100D01*
X357310Y305997D01*
X357578Y305738D01*
X357655Y305428D01*
X357617Y305118D01*
X357463Y304860D01*
X356697Y304343D01*
X356352Y303982D01*
X356122Y303465D01*
X356045Y303000D01*
X357655D01*
G01X376850Y326000D02*
Y329100D01*
X376390Y328480D01*
G01Y326000D02*
X377310D01*
G01X380510Y317600D02*
Y320700D01*
X379092Y318478D01*
X381008D01*
G01X369207Y318220D02*
X369437Y317858D01*
X369743Y317652D01*
X370088Y317600D01*
X370395Y317652D01*
X370702Y317910D01*
X370893Y318220D01*
X370932Y318530D01*
X370855Y318892D01*
X370587Y319150D01*
X370318Y319253D01*
X369973D01*
G01X370318D02*
X370548Y319408D01*
X370740Y319667D01*
X370817Y319977D01*
X370740Y320287D01*
X370548Y320545D01*
X370203Y320700D01*
X369858Y320648D01*
X369513Y320442D01*
G01X359322Y320183D02*
X359552Y320493D01*
X359820Y320648D01*
X360127Y320700D01*
X360510Y320597D01*
X360778Y320338D01*
X360855Y320028D01*
X360817Y319718D01*
X360663Y319460D01*
X359897Y318943D01*
X359552Y318582D01*
X359322Y318065D01*
X359245Y317600D01*
X360855D01*
G01X383166Y348400D02*
X386266D01*
Y347441D01*
X386111Y347135D01*
X385904Y346943D01*
X385491Y346866D01*
X385078Y346943D01*
X384819Y347173D01*
X384664Y347441D01*
Y348400D01*
G01Y347441D02*
X383166Y346866D01*
G01Y344533D02*
X386266D01*
X385646Y344993D01*
G01X383166D02*
Y344073D01*
G01X383786Y342276D02*
X383424Y342046D01*
X383218Y341740D01*
X383166Y341395D01*
X383218Y341088D01*
X383476Y340781D01*
X383786Y340590D01*
X384096Y340551D01*
X384458Y340628D01*
X384716Y340896D01*
X384819Y341165D01*
Y341510D01*
G01Y341165D02*
X384974Y340935D01*
X385233Y340743D01*
X385543Y340666D01*
X385853Y340743D01*
X386111Y340935D01*
X386266Y341280D01*
X386214Y341625D01*
X386008Y341970D01*
G01X378000Y332000D02*
Y360000D01*
X388000D01*
Y332000D01*
X378000D01*
G01D02*
X388000D01*
Y360000D01*
X378000D01*
Y332000D01*
G01X376122Y368583D02*
X376352Y368893D01*
X376620Y369048D01*
X376927Y369100D01*
X377310Y368997D01*
X377578Y368738D01*
X377655Y368428D01*
X377617Y368118D01*
X377463Y367860D01*
X376697Y367343D01*
X376352Y366982D01*
X376122Y366465D01*
X376045Y366000D01*
X377655D01*
G01X374000Y374900D02*
X371500D01*
X372000Y374580D01*
G01X374000D02*
Y375220D01*
G01X371917Y376593D02*
X371667Y376753D01*
X371542Y376940D01*
X371500Y377153D01*
X371583Y377420D01*
X371792Y377607D01*
X372042Y377660D01*
X372292Y377633D01*
X372500Y377527D01*
X372917Y376993D01*
X373208Y376753D01*
X373625Y376593D01*
X374000Y376540D01*
Y377660D01*
G01X364000Y374900D02*
X361500D01*
X362000Y374580D01*
G01X364000D02*
Y375220D01*
G01Y377100D02*
X361500D01*
X362000Y376780D01*
G01X364000D02*
Y377420D01*
G01Y434900D02*
X361500D01*
X362000Y434580D01*
G01X364000D02*
Y435220D01*
G01Y437420D02*
X361500D01*
X363292Y436433D01*
Y437767D01*
G01X374000Y434900D02*
X371500D01*
X372000Y434580D01*
G01X374000D02*
Y435220D01*
G01X373500Y436513D02*
X373792Y436673D01*
X373958Y436887D01*
X374000Y437127D01*
X373958Y437340D01*
X373750Y437553D01*
X373500Y437687D01*
X373250Y437713D01*
X372958Y437660D01*
X372750Y437473D01*
X372667Y437287D01*
Y437047D01*
G01Y437287D02*
X372542Y437447D01*
X372333Y437580D01*
X372083Y437633D01*
X371833Y437580D01*
X371625Y437447D01*
X371500Y437207D01*
X371542Y436967D01*
X371708Y436727D01*
G01X365000Y449000D02*
Y459000D01*
X405000D01*
Y449000D01*
X365000D01*
G01D02*
X378839D01*
G01X381161D02*
X405000D01*
Y459000D01*
X365000D01*
Y449000D01*
G01X362933Y461200D02*
X363250Y460700D01*
X363630Y460367D01*
X364073Y460200D01*
X364580Y460367D01*
X364960Y460700D01*
X365340Y461200D01*
X365467Y461867D01*
Y465200D01*
G01X369300Y460200D02*
Y465200D01*
X368540Y464200D01*
G01Y460200D02*
X370060D01*
G01X373007Y461200D02*
X373387Y460617D01*
X373893Y460283D01*
X374463Y460200D01*
X374970Y460283D01*
X375477Y460700D01*
X375793Y461200D01*
X375857Y461700D01*
X375730Y462283D01*
X375287Y462700D01*
X374843Y462867D01*
X374273D01*
G01X374843D02*
X375223Y463117D01*
X375540Y463533D01*
X375667Y464033D01*
X375540Y464533D01*
X375223Y464950D01*
X374653Y465200D01*
X374083Y465117D01*
X373513Y464783D01*
G01X376322Y458183D02*
X376552Y458493D01*
X376820Y458648D01*
X377127Y458700D01*
X377510Y458597D01*
X377778Y458338D01*
X377855Y458028D01*
X377817Y457718D01*
X377663Y457460D01*
X376897Y456943D01*
X376552Y456582D01*
X376322Y456065D01*
X376245Y455600D01*
X377855D01*
G01X367050D02*
Y458700D01*
X366590Y458080D01*
G01Y455600D02*
X367510D01*
G01X400622Y99583D02*
X400852Y99893D01*
X401120Y100048D01*
X401427Y100100D01*
X401810Y99997D01*
X402078Y99738D01*
X402155Y99428D01*
X402117Y99118D01*
X401963Y98860D01*
X401197Y98343D01*
X400852Y97982D01*
X400622Y97465D01*
X400545Y97000D01*
X402155D01*
G01X401700Y127000D02*
X401887Y127042D01*
X402100Y127167D01*
X402233Y127375D01*
X402287Y127667D01*
X402233Y127958D01*
X402073Y128208D01*
X401833Y128333D01*
X401567D01*
X401407Y128417D01*
X401273Y128625D01*
X401220Y128917D01*
X401300Y129208D01*
X401487Y129417D01*
X401700Y129500D01*
X401913Y129417D01*
X402100Y129208D01*
X402180Y128917D01*
X402127Y128625D01*
X401993Y128417D01*
X401833Y128333D01*
X401567D01*
X401327Y128208D01*
X401167Y127958D01*
X401113Y127667D01*
X401167Y127375D01*
X401300Y127167D01*
X401513Y127042D01*
X401700Y127000D01*
G01X400622Y155583D02*
X400852Y155893D01*
X401120Y156048D01*
X401427Y156100D01*
X401810Y155997D01*
X402078Y155738D01*
X402155Y155428D01*
X402117Y155118D01*
X401963Y154860D01*
X401197Y154343D01*
X400852Y153982D01*
X400622Y153465D01*
X400545Y153000D01*
X402155D01*
G01X401700Y183000D02*
X401887Y183042D01*
X402100Y183167D01*
X402233Y183375D01*
X402287Y183667D01*
X402233Y183958D01*
X402073Y184208D01*
X401833Y184333D01*
X401567D01*
X401407Y184417D01*
X401273Y184625D01*
X401220Y184917D01*
X401300Y185208D01*
X401487Y185417D01*
X401700Y185500D01*
X401913Y185417D01*
X402100Y185208D01*
X402180Y184917D01*
X402127Y184625D01*
X401993Y184417D01*
X401833Y184333D01*
X401567D01*
X401327Y184208D01*
X401167Y183958D01*
X401113Y183667D01*
X401167Y183375D01*
X401300Y183167D01*
X401513Y183042D01*
X401700Y183000D01*
G01X400622Y211583D02*
X400852Y211893D01*
X401120Y212048D01*
X401427Y212100D01*
X401810Y211997D01*
X402078Y211738D01*
X402155Y211428D01*
X402117Y211118D01*
X401963Y210860D01*
X401197Y210343D01*
X400852Y209982D01*
X400622Y209465D01*
X400545Y209000D01*
X402155D01*
G01X401700Y239000D02*
X401887Y239042D01*
X402100Y239167D01*
X402233Y239375D01*
X402287Y239667D01*
X402233Y239958D01*
X402073Y240208D01*
X401833Y240333D01*
X401567D01*
X401407Y240417D01*
X401273Y240625D01*
X401220Y240917D01*
X401300Y241208D01*
X401487Y241417D01*
X401700Y241500D01*
X401913Y241417D01*
X402100Y241208D01*
X402180Y240917D01*
X402127Y240625D01*
X401993Y240417D01*
X401833Y240333D01*
X401567D01*
X401327Y240208D01*
X401167Y239958D01*
X401113Y239667D01*
X401167Y239375D01*
X401300Y239167D01*
X401513Y239042D01*
X401700Y239000D01*
G01X387183Y247000D02*
X387500Y246500D01*
X387880Y246167D01*
X388323Y246000D01*
X388830Y246167D01*
X389210Y246500D01*
X389590Y247000D01*
X389717Y247667D01*
Y251000D01*
G01X393550Y246000D02*
X393993Y246083D01*
X394500Y246333D01*
X394817Y246750D01*
X394943Y247333D01*
X394817Y247917D01*
X394437Y248417D01*
X393867Y248667D01*
X393233D01*
X392853Y248833D01*
X392537Y249250D01*
X392410Y249833D01*
X392600Y250417D01*
X393043Y250833D01*
X393550Y251000D01*
X394057Y250833D01*
X394500Y250417D01*
X394690Y249833D01*
X394563Y249250D01*
X394247Y248833D01*
X393867Y248667D01*
X393233D01*
X392663Y248417D01*
X392283Y247917D01*
X392157Y247333D01*
X392283Y246750D01*
X392600Y246333D01*
X393107Y246083D01*
X393550Y246000D01*
G01X400622Y267583D02*
X400852Y267893D01*
X401120Y268048D01*
X401427Y268100D01*
X401810Y267997D01*
X402078Y267738D01*
X402155Y267428D01*
X402117Y267118D01*
X401963Y266860D01*
X401197Y266343D01*
X400852Y265982D01*
X400622Y265465D01*
X400545Y265000D01*
X402155D01*
G01X401700Y295000D02*
X401887Y295042D01*
X402100Y295167D01*
X402233Y295375D01*
X402287Y295667D01*
X402233Y295958D01*
X402073Y296208D01*
X401833Y296333D01*
X401567D01*
X401407Y296417D01*
X401273Y296625D01*
X401220Y296917D01*
X401300Y297208D01*
X401487Y297417D01*
X401700Y297500D01*
X401913Y297417D01*
X402100Y297208D01*
X402180Y296917D01*
X402127Y296625D01*
X401993Y296417D01*
X401833Y296333D01*
X401567D01*
X401327Y296208D01*
X401167Y295958D01*
X401113Y295667D01*
X401167Y295375D01*
X401300Y295167D01*
X401513Y295042D01*
X401700Y295000D01*
G01X398000Y309267D02*
X395500D01*
Y309907D01*
X395625Y310120D01*
X395917Y310280D01*
X396250Y310333D01*
X396583Y310280D01*
X396833Y310147D01*
X396958Y309907D01*
Y309267D01*
G01X398000Y312000D02*
X397958Y311840D01*
X397792Y311680D01*
X397500Y311573D01*
X397167Y311520D01*
X396833Y311573D01*
X396542Y311680D01*
X396375Y311840D01*
X396333Y312000D01*
X396375Y312160D01*
X396542Y312320D01*
X396833Y312427D01*
X397167Y312453D01*
X397500Y312427D01*
X397792Y312320D01*
X397958Y312160D01*
X398000Y312000D01*
G01Y314200D02*
X395500D01*
G01X398750Y315840D02*
X398833Y316000D01*
X398750Y316213D01*
X398583Y316347D01*
X398375Y316453D01*
X397708Y316613D01*
X396333Y316960D01*
G01Y316107D02*
X397708Y316613D01*
G01Y318200D02*
X397875Y318333D01*
X398000Y318520D01*
Y318680D01*
X397917Y318840D01*
X397792Y318947D01*
X397625Y319000D01*
X397375Y318973D01*
X397250Y318867D01*
X397000Y318387D01*
X396708Y318280D01*
X396500Y318333D01*
X396375Y318440D01*
X396333Y318600D01*
X396375Y318760D01*
X396500Y318920D01*
G01X398000Y320800D02*
X397958Y320640D01*
X397792Y320480D01*
X397500Y320373D01*
X397167Y320320D01*
X396833Y320373D01*
X396542Y320480D01*
X396375Y320640D01*
X396333Y320800D01*
X396375Y320960D01*
X396542Y321120D01*
X396833Y321227D01*
X397167Y321253D01*
X397500Y321227D01*
X397792Y321120D01*
X397958Y320960D01*
X398000Y320800D01*
G01Y322840D02*
X395875D01*
X395667Y322893D01*
X395542Y323000D01*
X395500Y323160D01*
X395583Y323320D01*
X395792Y323400D01*
G01X396500Y323080D02*
Y322547D01*
G01X395500Y325200D02*
X398000D01*
G01X396333Y324827D02*
Y325573D01*
G01Y327400D02*
X398000D01*
G01X395667D02*
X395625Y327347D01*
X395542D01*
X395500Y327400D01*
X395542Y327453D01*
X395625D01*
X395667Y327400D01*
G01X398833Y330080D02*
X396333D01*
G01X396708D02*
X396500Y329947D01*
X396375Y329787D01*
X396333Y329600D01*
X396375Y329440D01*
X396583Y329253D01*
X396875Y329147D01*
X397167Y329120D01*
X397458Y329147D01*
X397750Y329253D01*
X397958Y329440D01*
X398000Y329600D01*
X397958Y329787D01*
X397833Y329947D01*
X397625Y330080D01*
G01X396333Y331347D02*
X397500D01*
X397792Y331453D01*
X397958Y331613D01*
X398000Y331800D01*
X397958Y331987D01*
X397792Y332147D01*
X397500Y332253D01*
G01X398000D02*
X396333D01*
G01X396875Y333600D02*
Y334453D01*
X396583Y334373D01*
X396417Y334240D01*
X396333Y334053D01*
X396375Y333867D01*
X396500Y333707D01*
X396792Y333600D01*
X397042Y333547D01*
X397292D01*
X397542Y333600D01*
X397792Y333733D01*
X397958Y333893D01*
X398000Y334080D01*
X397917Y334267D01*
X397667Y334453D01*
G01X395500Y338080D02*
Y338720D01*
G01Y338400D02*
X398000D01*
G01Y338080D02*
Y338720D01*
G01Y340147D02*
X396333D01*
G01X396750D02*
X396542Y340253D01*
X396375Y340413D01*
X396333Y340627D01*
X396375Y340813D01*
X396542Y340973D01*
X396833Y341053D01*
X398000D01*
G01X396542Y343227D02*
X396375Y343040D01*
X396333Y342880D01*
X396417Y342667D01*
X396583Y342507D01*
X396875Y342400D01*
X397167Y342373D01*
X397458Y342400D01*
X397708Y342507D01*
X397917Y342667D01*
X398000Y342880D01*
X397917Y343067D01*
X397750Y343227D01*
G01X398083Y345000D02*
X398042Y344947D01*
X397958D01*
X397917Y345000D01*
X397958Y345053D01*
X398042D01*
X398083Y345000D01*
G01X407667Y309240D02*
X407875Y309453D01*
X408000Y309693D01*
Y309907D01*
X407875Y310120D01*
X407667Y310280D01*
X407375Y310360D01*
X407083Y310307D01*
X406833Y310173D01*
X406667Y309933D01*
X406583Y309613D01*
X406417Y309427D01*
X406125Y309347D01*
X405833Y309400D01*
X405625Y309533D01*
X405500Y309720D01*
Y309907D01*
X405583Y310093D01*
X405792Y310253D01*
G01X408083Y311520D02*
X405500Y312480D01*
G01X408000Y313587D02*
X405500D01*
X408000Y314813D01*
X405500D01*
G01Y318600D02*
X405583Y318387D01*
X405792Y318227D01*
X406042Y318120D01*
X406375Y318040D01*
X406750Y318013D01*
X407125Y318040D01*
X407458Y318120D01*
X407708Y318227D01*
X407917Y318387D01*
X408000Y318600D01*
X407917Y318813D01*
X407708Y318973D01*
X407458Y319080D01*
X407125Y319160D01*
X406750Y319187D01*
X406375Y319160D01*
X406042Y319080D01*
X405792Y318973D01*
X405583Y318813D01*
X405500Y318600D01*
G01Y320800D02*
X405583Y320587D01*
X405792Y320427D01*
X406042Y320320D01*
X406375Y320240D01*
X406750Y320213D01*
X407125Y320240D01*
X407458Y320320D01*
X407708Y320427D01*
X407917Y320587D01*
X408000Y320800D01*
X407917Y321013D01*
X407708Y321173D01*
X407458Y321280D01*
X407125Y321360D01*
X406750Y321387D01*
X406375Y321360D01*
X406042Y321280D01*
X405792Y321173D01*
X405583Y321013D01*
X405500Y320800D01*
G01X408000Y323000D02*
X405500D01*
X406000Y322680D01*
G01X408000D02*
Y323320D01*
G01X400500Y309480D02*
Y310120D01*
G01Y309800D02*
X403000D01*
G01Y309480D02*
Y310120D01*
G01X400917Y311493D02*
X400667Y311653D01*
X400542Y311840D01*
X400500Y312053D01*
X400583Y312320D01*
X400792Y312507D01*
X401042Y312560D01*
X401292Y312533D01*
X401500Y312427D01*
X401917Y311893D01*
X402208Y311653D01*
X402625Y311493D01*
X403000Y311440D01*
Y312560D01*
G01X400708Y314787D02*
X400583Y314627D01*
X400500Y314440D01*
Y314227D01*
X400625Y313987D01*
X400833Y313800D01*
X401083Y313667D01*
X401500Y313560D01*
X401875Y313533D01*
X402250Y313587D01*
X402500Y313667D01*
X402750Y313827D01*
X402917Y314013D01*
X403000Y314200D01*
Y314387D01*
X402917Y314573D01*
X402792Y314733D01*
X402625Y314867D01*
G01X402667Y318040D02*
X402875Y318253D01*
X403000Y318493D01*
Y318707D01*
X402875Y318920D01*
X402667Y319080D01*
X402375Y319160D01*
X402083Y319107D01*
X401833Y318973D01*
X401667Y318733D01*
X401583Y318413D01*
X401417Y318227D01*
X401125Y318147D01*
X400833Y318200D01*
X400625Y318333D01*
X400500Y318520D01*
Y318707D01*
X400583Y318893D01*
X400792Y319053D01*
G01X401333Y320133D02*
X403000Y320453D01*
X401333Y320800D01*
X403000Y321147D01*
X401333Y321467D01*
G01Y323000D02*
X403000D01*
G01X400667D02*
X400625Y322947D01*
X400542D01*
X400500Y323000D01*
X400542Y323053D01*
X400625D01*
X400667Y323000D01*
G01X400500Y325200D02*
X403000D01*
G01X401333Y324827D02*
Y325573D01*
G01X401542Y327827D02*
X401375Y327640D01*
X401333Y327480D01*
X401417Y327267D01*
X401583Y327107D01*
X401875Y327000D01*
X402167Y326973D01*
X402458Y327000D01*
X402708Y327107D01*
X402917Y327267D01*
X403000Y327480D01*
X402917Y327667D01*
X402750Y327827D01*
G01X403000Y329147D02*
X400500D01*
G01X401708D02*
X401500Y329280D01*
X401375Y329413D01*
X401333Y329627D01*
X401375Y329787D01*
X401542Y329973D01*
X401792Y330053D01*
X403000D01*
G01X400500Y309480D02*
Y310120D01*
G01Y309800D02*
X403000D01*
G01Y309480D02*
Y310120D01*
G01X400917Y311493D02*
X400667Y311653D01*
X400542Y311840D01*
X400500Y312053D01*
X400583Y312320D01*
X400792Y312507D01*
X401042Y312560D01*
X401292Y312533D01*
X401500Y312427D01*
X401917Y311893D01*
X402208Y311653D01*
X402625Y311493D01*
X403000Y311440D01*
Y312560D01*
G01X400708Y314787D02*
X400583Y314627D01*
X400500Y314440D01*
Y314227D01*
X400625Y313987D01*
X400833Y313800D01*
X401083Y313667D01*
X401500Y313560D01*
X401875Y313533D01*
X402250Y313587D01*
X402500Y313667D01*
X402750Y313827D01*
X402917Y314013D01*
X403000Y314200D01*
Y314387D01*
X402917Y314573D01*
X402792Y314733D01*
X402625Y314867D01*
G01X402667Y318040D02*
X402875Y318253D01*
X403000Y318493D01*
Y318707D01*
X402875Y318920D01*
X402667Y319080D01*
X402375Y319160D01*
X402083Y319107D01*
X401833Y318973D01*
X401667Y318733D01*
X401583Y318413D01*
X401417Y318227D01*
X401125Y318147D01*
X400833Y318200D01*
X400625Y318333D01*
X400500Y318520D01*
Y318707D01*
X400583Y318893D01*
X400792Y319053D01*
G01X401333Y320133D02*
X403000Y320453D01*
X401333Y320800D01*
X403000Y321147D01*
X401333Y321467D01*
G01Y323000D02*
X403000D01*
G01X400667D02*
X400625Y322947D01*
X400542D01*
X400500Y323000D01*
X400542Y323053D01*
X400625D01*
X400667Y323000D01*
G01X400500Y325200D02*
X403000D01*
G01X401333Y324827D02*
Y325573D01*
G01X401542Y327827D02*
X401375Y327640D01*
X401333Y327480D01*
X401417Y327267D01*
X401583Y327107D01*
X401875Y327000D01*
X402167Y326973D01*
X402458Y327000D01*
X402708Y327107D01*
X402917Y327267D01*
X403000Y327480D01*
X402917Y327667D01*
X402750Y327827D01*
G01X403000Y329147D02*
X400500D01*
G01X401708D02*
X401500Y329280D01*
X401375Y329413D01*
X401333Y329627D01*
X401375Y329787D01*
X401542Y329973D01*
X401792Y330053D01*
X403000D01*
G01X407667Y309240D02*
X407875Y309453D01*
X408000Y309693D01*
Y309907D01*
X407875Y310120D01*
X407667Y310280D01*
X407375Y310360D01*
X407083Y310307D01*
X406833Y310173D01*
X406667Y309933D01*
X406583Y309613D01*
X406417Y309427D01*
X406125Y309347D01*
X405833Y309400D01*
X405625Y309533D01*
X405500Y309720D01*
Y309907D01*
X405583Y310093D01*
X405792Y310253D01*
G01X408083Y311520D02*
X405500Y312480D01*
G01X408000Y313587D02*
X405500D01*
X408000Y314813D01*
X405500D01*
G01Y318600D02*
X405583Y318387D01*
X405792Y318227D01*
X406042Y318120D01*
X406375Y318040D01*
X406750Y318013D01*
X407125Y318040D01*
X407458Y318120D01*
X407708Y318227D01*
X407917Y318387D01*
X408000Y318600D01*
X407917Y318813D01*
X407708Y318973D01*
X407458Y319080D01*
X407125Y319160D01*
X406750Y319187D01*
X406375Y319160D01*
X406042Y319080D01*
X405792Y318973D01*
X405583Y318813D01*
X405500Y318600D01*
G01Y320800D02*
X405583Y320587D01*
X405792Y320427D01*
X406042Y320320D01*
X406375Y320240D01*
X406750Y320213D01*
X407125Y320240D01*
X407458Y320320D01*
X407708Y320427D01*
X407917Y320587D01*
X408000Y320800D01*
X407917Y321013D01*
X407708Y321173D01*
X407458Y321280D01*
X407125Y321360D01*
X406750Y321387D01*
X406375Y321360D01*
X406042Y321280D01*
X405792Y321173D01*
X405583Y321013D01*
X405500Y320800D01*
G01X408000Y323000D02*
X405500D01*
X406000Y322680D01*
G01X408000D02*
Y323320D01*
G01X398000Y309267D02*
X395500D01*
Y309907D01*
X395625Y310120D01*
X395917Y310280D01*
X396250Y310333D01*
X396583Y310280D01*
X396833Y310147D01*
X396958Y309907D01*
Y309267D01*
G01X398000Y312000D02*
X397958Y311840D01*
X397792Y311680D01*
X397500Y311573D01*
X397167Y311520D01*
X396833Y311573D01*
X396542Y311680D01*
X396375Y311840D01*
X396333Y312000D01*
X396375Y312160D01*
X396542Y312320D01*
X396833Y312427D01*
X397167Y312453D01*
X397500Y312427D01*
X397792Y312320D01*
X397958Y312160D01*
X398000Y312000D01*
G01Y314200D02*
X395500D01*
G01X398750Y315840D02*
X398833Y316000D01*
X398750Y316213D01*
X398583Y316347D01*
X398375Y316453D01*
X397708Y316613D01*
X396333Y316960D01*
G01Y316107D02*
X397708Y316613D01*
G01Y318200D02*
X397875Y318333D01*
X398000Y318520D01*
Y318680D01*
X397917Y318840D01*
X397792Y318947D01*
X397625Y319000D01*
X397375Y318973D01*
X397250Y318867D01*
X397000Y318387D01*
X396708Y318280D01*
X396500Y318333D01*
X396375Y318440D01*
X396333Y318600D01*
X396375Y318760D01*
X396500Y318920D01*
G01X398000Y320800D02*
X397958Y320640D01*
X397792Y320480D01*
X397500Y320373D01*
X397167Y320320D01*
X396833Y320373D01*
X396542Y320480D01*
X396375Y320640D01*
X396333Y320800D01*
X396375Y320960D01*
X396542Y321120D01*
X396833Y321227D01*
X397167Y321253D01*
X397500Y321227D01*
X397792Y321120D01*
X397958Y320960D01*
X398000Y320800D01*
G01Y322840D02*
X395875D01*
X395667Y322893D01*
X395542Y323000D01*
X395500Y323160D01*
X395583Y323320D01*
X395792Y323400D01*
G01X396500Y323080D02*
Y322547D01*
G01X395500Y325200D02*
X398000D01*
G01X396333Y324827D02*
Y325573D01*
G01Y327400D02*
X398000D01*
G01X395667D02*
X395625Y327347D01*
X395542D01*
X395500Y327400D01*
X395542Y327453D01*
X395625D01*
X395667Y327400D01*
G01X398833Y330080D02*
X396333D01*
G01X396708D02*
X396500Y329947D01*
X396375Y329787D01*
X396333Y329600D01*
X396375Y329440D01*
X396583Y329253D01*
X396875Y329147D01*
X397167Y329120D01*
X397458Y329147D01*
X397750Y329253D01*
X397958Y329440D01*
X398000Y329600D01*
X397958Y329787D01*
X397833Y329947D01*
X397625Y330080D01*
G01X396333Y331347D02*
X397500D01*
X397792Y331453D01*
X397958Y331613D01*
X398000Y331800D01*
X397958Y331987D01*
X397792Y332147D01*
X397500Y332253D01*
G01X398000D02*
X396333D01*
G01X396875Y333600D02*
Y334453D01*
X396583Y334373D01*
X396417Y334240D01*
X396333Y334053D01*
X396375Y333867D01*
X396500Y333707D01*
X396792Y333600D01*
X397042Y333547D01*
X397292D01*
X397542Y333600D01*
X397792Y333733D01*
X397958Y333893D01*
X398000Y334080D01*
X397917Y334267D01*
X397667Y334453D01*
G01X395500Y338080D02*
Y338720D01*
G01Y338400D02*
X398000D01*
G01Y338080D02*
Y338720D01*
G01Y340147D02*
X396333D01*
G01X396750D02*
X396542Y340253D01*
X396375Y340413D01*
X396333Y340627D01*
X396375Y340813D01*
X396542Y340973D01*
X396833Y341053D01*
X398000D01*
G01X396542Y343227D02*
X396375Y343040D01*
X396333Y342880D01*
X396417Y342667D01*
X396583Y342507D01*
X396875Y342400D01*
X397167Y342373D01*
X397458Y342400D01*
X397708Y342507D01*
X397917Y342667D01*
X398000Y342880D01*
X397917Y343067D01*
X397750Y343227D01*
G01X398083Y345000D02*
X398042Y344947D01*
X397958D01*
X397917Y345000D01*
X397958Y345053D01*
X398042D01*
X398083Y345000D01*
G01X392800Y346933D02*
X393300Y347250D01*
X393633Y347630D01*
X393800Y348073D01*
X393633Y348580D01*
X393300Y348960D01*
X392800Y349340D01*
X392133Y349467D01*
X388800D01*
G01X393800Y353300D02*
X388800D01*
X389800Y352540D01*
G01X393800D02*
Y354060D01*
G01Y358400D02*
X388800D01*
X389800Y357640D01*
G01X393800D02*
Y359160D01*
G01X405000Y349000D02*
X395000D01*
Y389000D01*
X405000D01*
Y349000D01*
G01D02*
Y362839D01*
G01Y365161D02*
Y389000D01*
X395000D01*
Y349000D01*
X405000D01*
G01X395817Y360322D02*
X395507Y360552D01*
X395352Y360820D01*
X395300Y361127D01*
X395403Y361510D01*
X395662Y361778D01*
X395972Y361855D01*
X396282Y361817D01*
X396540Y361663D01*
X397057Y360897D01*
X397418Y360552D01*
X397935Y360322D01*
X398400Y360245D01*
Y361855D01*
G01Y351050D02*
X395300D01*
X395920Y350590D01*
G01X398400D02*
Y351510D01*
G01Y381510D02*
X395300D01*
X397522Y380092D01*
Y382008D01*
G01X397780Y370207D02*
X398142Y370437D01*
X398348Y370743D01*
X398400Y371088D01*
X398348Y371395D01*
X398090Y371702D01*
X397780Y371893D01*
X397470Y371932D01*
X397108Y371855D01*
X396850Y371587D01*
X396747Y371318D01*
Y370973D01*
G01Y371318D02*
X396592Y371548D01*
X396333Y371740D01*
X396023Y371817D01*
X395713Y371740D01*
X395455Y371548D01*
X395300Y371203D01*
X395352Y370858D01*
X395558Y370513D01*
G01X389300Y389433D02*
X389800Y389750D01*
X390133Y390130D01*
X390300Y390573D01*
X390133Y391080D01*
X389800Y391460D01*
X389300Y391840D01*
X388633Y391967D01*
X385300D01*
G01X390300Y395800D02*
X385300D01*
X386300Y395040D01*
G01X390300D02*
Y396560D01*
G01X386133Y399697D02*
X385633Y400077D01*
X385383Y400520D01*
X385300Y401027D01*
X385467Y401660D01*
X385883Y402103D01*
X386383Y402230D01*
X386883Y402167D01*
X387300Y401913D01*
X388133Y400647D01*
X388717Y400077D01*
X389550Y399697D01*
X390300Y399570D01*
Y402230D01*
G01X405000Y395000D02*
X395000D01*
Y435000D01*
X405000D01*
Y395000D01*
G01D02*
Y408839D01*
G01Y411161D02*
Y435000D01*
X395000D01*
Y395000D01*
X405000D01*
G01X397780Y416207D02*
X398142Y416437D01*
X398348Y416743D01*
X398400Y417088D01*
X398348Y417395D01*
X398090Y417702D01*
X397780Y417893D01*
X397470Y417932D01*
X397108Y417855D01*
X396850Y417587D01*
X396747Y417318D01*
Y416973D01*
G01Y417318D02*
X396592Y417548D01*
X396333Y417740D01*
X396023Y417817D01*
X395713Y417740D01*
X395455Y417548D01*
X395300Y417203D01*
X395352Y416858D01*
X395558Y416513D01*
G01X395817Y406322D02*
X395507Y406552D01*
X395352Y406820D01*
X395300Y407127D01*
X395403Y407510D01*
X395662Y407778D01*
X395972Y407855D01*
X396282Y407817D01*
X396540Y407663D01*
X397057Y406897D01*
X397418Y406552D01*
X397935Y406322D01*
X398400Y406245D01*
Y407855D01*
G01Y397050D02*
X395300D01*
X395920Y396590D01*
G01X398400D02*
Y397510D01*
G01Y427510D02*
X395300D01*
X397522Y426092D01*
Y428008D01*
G01X397510Y455600D02*
Y458700D01*
X396092Y456478D01*
X398008D01*
G01X386207Y456220D02*
X386437Y455858D01*
X386743Y455652D01*
X387088Y455600D01*
X387395Y455652D01*
X387702Y455910D01*
X387893Y456220D01*
X387932Y456530D01*
X387855Y456892D01*
X387587Y457150D01*
X387318Y457253D01*
X386973D01*
G01X387318D02*
X387548Y457408D01*
X387740Y457667D01*
X387817Y457977D01*
X387740Y458287D01*
X387548Y458545D01*
X387203Y458700D01*
X386858Y458648D01*
X386513Y458442D01*
M02*
