G04 ================== begin FILE IDENTIFICATION RECORD ==================*
G04 Layout Name:  C:/Cadence/Projects/i2c_switch/i2c_switch.brd*
G04 Film Name:    soldermask_top*
G04 File Format:  Gerber RS274X*
G04 File Origin:  Cadence Allegro 16.3-p003*
G04 Origin Date:  Tue Jul 28 03:32:18 2020*
G04 *
G04 Layer:  VIA CLASS/SOLDERMASK_TOP*
G04 Layer:  PIN/SOLDERMASK_TOP*
G04 Layer:  PACKAGE GEOMETRY/SOLDERMASK_TOP*
G04 Layer:  BOARD GEOMETRY/SOLDERMASK_TOP*
G04 *
G04 Offset:    (0.00 0.00)*
G04 Mirror:    No*
G04 Mode:      Positive*
G04 Rotation:  0*
G04 FullContactRelief:  No*
G04 UndefLineWidth:     8.00*
G04 ================== end FILE IDENTIFICATION RECORD ====================*
%FSLAX55Y55*MOIN*%
%IR0*IPPOS*OFA0.00000B0.00000*MIA0B0*SFA1.00000B1.00000*%
%ADD13C,.08*%
%ADD11C,.044*%
%ADD12C,.075*%
%ADD14C,.095*%
%ADD15R,.075X.075*%
%ADD10C,.145*%
%LPD*%
G75*
G54D10*
X95000Y53000D03*
Y476000D03*
X421000Y53000D03*
Y476000D03*
G54D11*
X114300Y127000D03*
X137252Y117000D03*
Y127000D03*
X143851Y303747D03*
X124748Y329000D03*
X146000D03*
X163252Y170000D03*
X150748Y228000D03*
X159700Y301598D03*
X170000Y443648D03*
X167949Y440749D03*
X178348Y143300D03*
Y139700D03*
Y154800D03*
X187000Y310000D03*
X204801Y440252D03*
X177503Y457600D03*
X212902Y303748D03*
X210752Y320000D03*
Y340000D03*
X216000Y443648D03*
X236950Y440252D03*
X229300D03*
X222252Y430000D03*
Y450400D03*
X224598Y443151D03*
X246000Y214300D03*
X254800Y303748D03*
X265752Y321000D03*
X239252Y352000D03*
X265752Y341000D03*
X266700Y374000D03*
X243000Y440252D03*
X262000Y443648D03*
X267448Y135400D03*
X291050Y209000D03*
X267448Y219000D03*
X273613Y303748D03*
X290300Y313000D03*
X303300Y78748D03*
X303050Y135400D03*
X302300Y219000D03*
X316200Y254252D03*
X327000Y303748D03*
X298950D03*
X312000Y369300D03*
X322000D03*
X308000Y443648D03*
X302700Y454000D03*
X354450Y166500D03*
X338700Y183000D03*
X347051Y254252D03*
X356950Y247000D03*
X353000Y303748D03*
X330700D03*
X353000Y330700D03*
X333252Y323000D03*
X342000Y346000D03*
X333252Y351000D03*
X332000Y369300D03*
X354000Y443648D03*
X348700Y454000D03*
X360300Y78748D03*
X368700Y173000D03*
X363000Y320700D03*
Y331300D03*
X398387Y303748D03*
X395300Y364000D03*
Y410000D03*
X400000Y443648D03*
X403700Y440252D03*
X394700Y454000D03*
G54D12*
X131000Y117000D03*
X121000D03*
X131000Y107000D03*
X121000D03*
X131000Y97000D03*
X121000D03*
X131000Y127000D03*
X121000D03*
X131000Y153000D03*
X121000D03*
X131000Y183000D03*
Y173000D03*
X121000Y183000D03*
Y173000D03*
X131000Y163000D03*
X121000D03*
X131000Y209000D03*
X121000D03*
X131000Y239000D03*
Y229000D03*
X121000Y239000D03*
Y229000D03*
X131000Y219000D03*
X121000D03*
X131000Y265000D03*
X121000D03*
X131000Y295000D03*
Y285000D03*
X121000Y295000D03*
Y285000D03*
X131000Y275000D03*
X121000D03*
X131000Y329000D03*
Y339000D03*
X140000Y454000D03*
X156000Y329000D03*
Y339000D03*
X171000Y375000D03*
Y365000D03*
X150000Y454000D03*
X160000D03*
X170000D03*
X208300Y88000D03*
X200400D03*
X208300Y95900D03*
X200400D03*
X192500Y111700D03*
X184600D03*
X192500Y119600D03*
X184600D03*
X192500Y127500D03*
X184600D03*
X192500Y135400D03*
X184600D03*
X192500Y143300D03*
X184600D03*
X192500Y151200D03*
X184600D03*
X200400Y180200D03*
X208300D03*
X192500Y159100D03*
X184600D03*
X192500Y167000D03*
X184600D03*
X200400Y188100D03*
X208300D03*
X203000Y375000D03*
Y365000D03*
X186000Y454000D03*
X196000D03*
X206000D03*
X232000Y88000D03*
X224100D03*
X216200D03*
X232000Y95900D03*
X224100D03*
X216200D03*
Y180200D03*
X224100D03*
X232000D03*
X216200Y188100D03*
X224100D03*
X232000D03*
X235000Y375000D03*
Y365000D03*
X237000Y411000D03*
Y401000D03*
X233000Y433000D03*
X232000Y454000D03*
X216000D03*
X255700Y88000D03*
X247800D03*
X239900D03*
X255700Y95900D03*
X247800D03*
X239900D03*
Y180200D03*
X247800D03*
X255700D03*
X239900Y188100D03*
X247800D03*
X255700D03*
X246000Y209000D03*
Y219000D03*
X243000Y433000D03*
X262000Y434000D03*
X242000Y454000D03*
X252000D03*
X262000D03*
X273700Y119600D03*
X281600D03*
X273700Y111700D03*
X281600D03*
X273700Y151200D03*
X281600D03*
X273700Y143300D03*
X281600D03*
X273700Y135400D03*
X281600D03*
X273700Y127500D03*
X281600D03*
X273700Y167000D03*
X281600D03*
X273700Y159100D03*
X281600D03*
X274000Y209000D03*
Y219000D03*
X295000Y313000D03*
Y323000D03*
X292000Y374000D03*
X282000D03*
X272000D03*
Y434000D03*
X282000D03*
X292000D03*
X278000Y454000D03*
X288000D03*
X298000D03*
X307000Y85000D03*
Y95000D03*
Y120000D03*
Y149000D03*
Y130000D03*
Y159000D03*
Y181000D03*
Y191000D03*
Y209000D03*
Y219000D03*
X327000Y323000D03*
Y313000D03*
Y351000D03*
Y341000D03*
X322000Y374000D03*
X312000D03*
X302000D03*
Y434000D03*
X312000D03*
X322000D03*
X324000Y454000D03*
X308000D03*
X334000Y103000D03*
Y113000D03*
Y123000D03*
Y133000D03*
Y143000D03*
Y153000D03*
Y163000D03*
Y173000D03*
X343000Y206000D03*
Y196000D03*
Y220000D03*
Y230000D03*
X353000Y326000D03*
Y316000D03*
Y346000D03*
Y336000D03*
X352000Y374000D03*
X342000D03*
X332000D03*
Y434000D03*
X342000D03*
X352000D03*
X334000Y454000D03*
X344000D03*
X354000D03*
X364000Y103000D03*
Y113000D03*
Y123000D03*
X385000Y117000D03*
Y107000D03*
Y97000D03*
X364000Y133000D03*
Y143000D03*
Y153000D03*
X385000Y127000D03*
Y153000D03*
X364000Y163000D03*
Y173000D03*
Y183000D03*
X385000D03*
Y173000D03*
Y163000D03*
Y209000D03*
Y239000D03*
Y229000D03*
Y219000D03*
Y265000D03*
Y295000D03*
Y285000D03*
Y275000D03*
X363000Y326000D03*
Y316000D03*
Y346000D03*
Y336000D03*
X372000Y374000D03*
X362000D03*
Y434000D03*
X372000D03*
X370000Y454000D03*
X380000D03*
X395000Y117000D03*
Y107000D03*
Y97000D03*
Y127000D03*
Y153000D03*
Y183000D03*
Y173000D03*
Y163000D03*
Y209000D03*
Y239000D03*
Y229000D03*
Y219000D03*
Y265000D03*
Y295000D03*
Y285000D03*
Y275000D03*
X400000Y364000D03*
Y354000D03*
Y384000D03*
Y374000D03*
Y420000D03*
Y410000D03*
Y400000D03*
Y430000D03*
X390000Y454000D03*
X400000D03*
G54D13*
X157000Y130000D03*
Y170000D03*
Y188000D03*
Y228000D03*
X175000Y310000D03*
Y350000D03*
X233000Y312000D03*
Y352000D03*
X216000Y390000D03*
Y430000D03*
X312000Y247000D03*
X352000D03*
X367000Y208000D03*
Y248000D03*
G54D14*
X204000Y320000D03*
Y330000D03*
Y340000D03*
X259000Y331000D03*
Y321000D03*
Y341000D03*
G54D15*
X262000Y374000D03*
X334000Y183000D03*
M02*
