G04 ================== begin FILE IDENTIFICATION RECORD ==================*
G04 Layout Name:  C:/Cadence/Projects/i2c_switch/i2c_switch.brd*
G04 Film Name:    TOP*
G04 File Format:  Gerber RS274X*
G04 File Origin:  Cadence Allegro 16.3-p003*
G04 Origin Date:  Sat Aug 08 14:24:34 2020*
G04 *
G04 Layer:  ETCH/TOP*
G04 Layer:  PIN/TOP*
G04 Layer:  VIA CLASS/TOP*
G04 *
G04 Offset:    (0.00 0.00)*
G04 Mirror:    No*
G04 Mode:      Positive*
G04 Rotation:  0*
G04 FullContactRelief:  No*
G04 UndefLineWidth:     8.00*
G04 ================== end FILE IDENTIFICATION RECORD ====================*
%FSLAX55Y55*MOIN*%
%IR0*IPPOS*OFA0.00000B0.00000*MIA0B0*SFA1.00000B1.00000*%
%ADD12C,.024*%
%ADD11C,.06*%
%ADD10C,.025*%
%ADD14C,.08*%
%ADD13C,.065*%
%ADD15R,.06X.06*%
%ADD16C,.005*%
%ADD17C,.007*%
%ADD18C,.009*%
G75*
%LPD*%
G75*
G54D10*
X95000Y53000D03*
Y476000D03*
X421000Y53000D03*
Y476000D03*
G54D11*
X131000Y117000D03*
X121000D03*
X131000Y107000D03*
X121000D03*
X131000Y97000D03*
X121000D03*
X131000Y127000D03*
X121000D03*
X131000Y153000D03*
X121000D03*
X131000Y183000D03*
Y173000D03*
X121000Y183000D03*
Y173000D03*
X131000Y163000D03*
X121000D03*
X131000Y209000D03*
X121000D03*
X131000Y239000D03*
Y229000D03*
X121000Y239000D03*
Y229000D03*
X131000Y219000D03*
X121000D03*
X131000Y265000D03*
X121000D03*
X131000Y295000D03*
Y285000D03*
X121000Y295000D03*
Y285000D03*
X131000Y275000D03*
X121000D03*
X131000Y329000D03*
Y339000D03*
X140000Y454000D03*
X176000Y272000D03*
X166000D03*
X176000Y287000D03*
X166000D03*
X156000Y329000D03*
Y339000D03*
X171000Y375000D03*
Y365000D03*
X170000Y454000D03*
X160000D03*
X150000D03*
X208300Y88000D03*
X200400D03*
X208300Y95900D03*
X200400D03*
X192500Y111700D03*
X184600D03*
X192500Y119600D03*
X184600D03*
X192500Y127500D03*
X184600D03*
X192500Y135400D03*
X184600D03*
X192500Y143300D03*
X184600D03*
X192500Y151200D03*
X184600D03*
X200400Y180200D03*
X208300D03*
X192500Y159100D03*
X184600D03*
X192500Y167000D03*
X184600D03*
X200400Y188100D03*
X208300D03*
X196000Y272000D03*
X186000D03*
X196000Y287000D03*
X186000D03*
X203000Y375000D03*
Y365000D03*
X206000Y454000D03*
X196000D03*
X186000D03*
X232000Y88000D03*
X224100D03*
X216200D03*
X232000Y95900D03*
X224100D03*
X216200D03*
Y180200D03*
X224100D03*
X232000D03*
X216200Y188100D03*
X224100D03*
X232000D03*
X231000Y272000D03*
X221000D03*
X211000D03*
X231000Y287000D03*
X221000D03*
X211000D03*
X235000Y375000D03*
Y365000D03*
X237000Y411000D03*
Y401000D03*
X232000Y454000D03*
X216000D03*
X255700Y88000D03*
X247800D03*
X239900D03*
X255700Y95900D03*
X247800D03*
X239900D03*
Y180200D03*
X247800D03*
X255700D03*
X239900Y188100D03*
X247800D03*
X255700D03*
X246000Y209000D03*
Y219000D03*
X266000Y272000D03*
X256000D03*
X241000D03*
X266000Y287000D03*
X256000D03*
X241000D03*
X264000Y438000D03*
X262000Y454000D03*
X252000D03*
X242000D03*
X273700Y119600D03*
X281600D03*
X273700Y111700D03*
X281600D03*
X273700Y151200D03*
X281600D03*
X273700Y143300D03*
X281600D03*
X273700Y135400D03*
X281600D03*
X273700Y127500D03*
X281600D03*
X273700Y167000D03*
X281600D03*
X273700Y159100D03*
X281600D03*
X274000Y209000D03*
Y219000D03*
X286000Y272000D03*
X276000D03*
X286000Y287000D03*
X276000D03*
X295000Y313000D03*
Y323000D03*
X294000Y378000D03*
X284000D03*
X274000D03*
Y438000D03*
X284000D03*
X294000D03*
X298000Y454000D03*
X288000D03*
X278000D03*
X307000Y85000D03*
Y95000D03*
Y120000D03*
Y149000D03*
Y130000D03*
Y159000D03*
Y181000D03*
Y191000D03*
Y209000D03*
Y219000D03*
X321000Y272000D03*
X311000D03*
X301000D03*
X321000Y287000D03*
X311000D03*
X301000D03*
X327000Y323000D03*
Y313000D03*
Y351000D03*
Y341000D03*
X314000Y367000D03*
X304000D03*
X324000Y378000D03*
X314000D03*
X304000D03*
Y438000D03*
X314000D03*
X324000D03*
Y454000D03*
X308000D03*
X334000Y103000D03*
Y113000D03*
Y123000D03*
Y133000D03*
Y143000D03*
Y153000D03*
Y163000D03*
Y173000D03*
X343000Y206000D03*
Y196000D03*
Y220000D03*
Y230000D03*
X331000Y272000D03*
Y287000D03*
X353000Y316000D03*
X354000Y378000D03*
X344000D03*
X334000D03*
Y438000D03*
X344000D03*
X354000D03*
Y454000D03*
X344000D03*
X334000D03*
X364000Y103000D03*
Y113000D03*
Y123000D03*
X385000Y117000D03*
Y107000D03*
Y97000D03*
X364000Y133000D03*
Y143000D03*
Y153000D03*
X385000Y127000D03*
Y153000D03*
X364000Y163000D03*
Y173000D03*
Y183000D03*
X385000D03*
Y173000D03*
Y163000D03*
Y209000D03*
Y239000D03*
Y229000D03*
Y219000D03*
Y265000D03*
Y295000D03*
Y285000D03*
Y275000D03*
X383000Y316000D03*
X373000D03*
X363000D03*
X374000Y378000D03*
X364000D03*
Y438000D03*
X374000D03*
X380000Y454000D03*
X370000D03*
X395000Y117000D03*
Y107000D03*
Y97000D03*
Y127000D03*
Y153000D03*
Y183000D03*
Y173000D03*
Y163000D03*
Y209000D03*
Y239000D03*
Y229000D03*
Y219000D03*
Y265000D03*
Y295000D03*
Y285000D03*
Y275000D03*
X400000Y364000D03*
Y354000D03*
Y384000D03*
Y374000D03*
Y420000D03*
Y410000D03*
Y400000D03*
Y454000D03*
X390000D03*
X400000Y430000D03*
G54D12*
X135700Y117000D03*
X121000Y131700D03*
X131000D03*
X141949Y303653D03*
X144000Y305704D03*
X124748Y329000D03*
X140000Y445698D03*
X132801Y444252D03*
X171498Y130000D03*
X157000Y165050D03*
X175398Y181300D03*
X176000Y256748D03*
X173100D03*
X162050D03*
X166000Y267300D03*
X162252Y329000D03*
X164748Y310000D03*
X173700Y444252D03*
X150000Y458700D03*
X197200Y143300D03*
Y151200D03*
X183050Y188000D03*
X206100Y200750D03*
X179700Y256748D03*
X204150Y265950D03*
X186000Y445698D03*
X204801Y444252D03*
X200700Y454000D03*
X221000Y256748D03*
X217300D03*
X234200D03*
X211800Y247001D03*
X227700Y258698D03*
X211000Y277751D03*
X210752Y320000D03*
Y340000D03*
X237000Y396300D03*
X232000Y445698D03*
X220950Y430000D03*
X255700Y134900D03*
X255925Y219000D03*
X266000Y256748D03*
X260400D03*
X256000Y278001D03*
X259000Y315300D03*
X239252Y352000D03*
X252248Y341000D03*
X259300Y378000D03*
X242000Y460700D03*
X269851Y78748D03*
X291050Y209000D03*
X291300Y256748D03*
X296300Y272000D03*
X281500Y265950D03*
X296300Y287000D03*
X295000Y308300D03*
X280150Y444700D03*
X277250Y444800D03*
X288000Y460700D03*
X310950Y78748D03*
X311700Y219000D03*
X311000Y256748D03*
X307300D03*
X327000D03*
X303051Y254790D03*
X314000Y382700D03*
X324000Y444800D03*
X317700Y444700D03*
X354450Y166500D03*
X338700Y183000D03*
X339050Y254790D03*
X334700Y256748D03*
X353000Y320700D03*
X333252Y323000D03*
Y351000D03*
X334000Y367250D03*
Y460700D03*
X360301Y78748D03*
X359300Y173000D03*
X367949Y256748D03*
X362050Y248000D03*
X363000Y311300D03*
X368000Y334000D03*
X378050Y366000D03*
X370000Y445698D03*
X380000Y449300D03*
X396800Y256748D03*
X404700Y364000D03*
Y410000D03*
X406849Y444252D03*
G54D13*
X157000Y130000D03*
Y170000D03*
Y188000D03*
Y228000D03*
X175000Y310000D03*
Y350000D03*
X233000Y312000D03*
Y352000D03*
X216000Y390000D03*
Y430000D03*
X312000Y247000D03*
X352000D03*
X367000Y208000D03*
Y248000D03*
X363000Y263000D03*
Y303000D03*
X383000Y326000D03*
Y366000D03*
G54D14*
X204000Y320000D03*
Y330000D03*
Y340000D03*
X259000Y331000D03*
Y321000D03*
Y341000D03*
G54D15*
X264000Y378000D03*
X334000Y183000D03*
G54D16*
G01X216200Y88000D02*
X212450Y91750D01*
X120250D01*
X115250Y96750D01*
Y223250D01*
X121000Y229000D01*
G01Y107000D02*
X117250Y110750D01*
Y131650D01*
X140550Y154950D01*
X180450D01*
X184600Y159100D01*
G01Y151200D02*
X165100D01*
X135650Y121750D01*
X125750D01*
X121000Y117000D01*
G01X131000Y97000D02*
X178350D01*
X188350Y107000D01*
Y162850D01*
X192500Y167000D01*
G01X121000Y97000D02*
X116250Y101750D01*
Y154100D01*
X121250Y159100D01*
X176700D01*
X184600Y167000D01*
G01X131000Y163000D02*
X156000Y188000D01*
X157000D01*
G01X131000Y209000D02*
X142000D01*
X161000Y190000D01*
Y184000D01*
X171000Y174000D01*
X191400D01*
X200400Y165000D01*
Y95900D01*
G01X131000Y239000D02*
X162000Y208000D01*
Y187000D01*
X174000Y175000D01*
X204000D01*
X224100Y154900D01*
Y95900D01*
G01X232000D02*
Y169001D01*
X225000Y176001D01*
X189512D01*
X173448Y192065D01*
Y203367D01*
X144750Y232065D01*
Y251250D01*
X131000Y265000D01*
G01Y285000D02*
X149750Y266250D01*
Y229000D01*
X154750Y224000D01*
X173000D01*
X178000Y219000D01*
Y199000D01*
X193050Y183950D01*
X220350D01*
X224100Y180200D01*
G01X184600Y119600D02*
X181898D01*
X171498Y130000D01*
G01D02*
X157000D01*
G01X171000Y365000D02*
Y354000D01*
X175000Y350000D01*
G01X374000Y438000D02*
Y455750D01*
X372000Y457750D01*
X173750D01*
X170000Y454000D01*
G01X208300Y188100D02*
X204150Y192250D01*
Y201700D01*
X205150Y202700D01*
X207600D01*
X208050Y202250D01*
X367000D01*
X376000Y211250D01*
Y286000D01*
X385000Y295000D01*
G01X200400Y188100D02*
Y200700D01*
X204400Y204700D01*
X314700D01*
X324750Y214750D01*
X343000D01*
G01X204150Y265950D02*
X281500D01*
G01X196000Y272000D02*
X199750Y268250D01*
X241000D01*
G01X186000Y275750D02*
Y272000D01*
G01Y287000D02*
Y275750D01*
G01D02*
X231000D01*
G01X233000Y312000D02*
Y335000D01*
X203000Y365000D01*
G01X385000Y183000D02*
X380899Y187101D01*
X305099D01*
X299350Y192850D01*
X236750D01*
X232000Y188100D01*
G01X216200D02*
X227850Y199750D01*
X381750D01*
X388750Y206750D01*
Y268750D01*
X395000Y275000D01*
G01X385000Y209000D02*
X376750Y200750D01*
X206100D01*
G01X211800Y247001D02*
X272601D01*
X294350Y268750D01*
Y288750D01*
X304350Y298750D01*
X386750D01*
X389750Y295750D01*
Y290250D01*
X395000Y285000D01*
G01X294000Y326750D02*
X293000D01*
X291138Y324888D01*
Y268698D01*
X281138Y258698D01*
X227700D01*
G01X231000Y287000D02*
Y275750D01*
G01X276000D02*
X231000D01*
G01Y272000D02*
Y275750D01*
G01X233250Y390000D02*
X292000D01*
X304000Y378000D01*
G01X237000Y411000D02*
X233250Y407250D01*
Y390000D01*
G01D02*
X216000D01*
G01X395000Y265000D02*
X398750Y261250D01*
Y94300D01*
X385700Y81250D01*
X262450D01*
X255700Y88000D01*
G01X364000Y103000D02*
X360250Y106750D01*
X261250D01*
X247800Y120200D01*
Y180200D01*
G01Y188100D02*
X251550Y184350D01*
Y124350D01*
X267950Y107950D01*
X358950D01*
X364000Y113000D01*
G01X255700Y180200D02*
X279150D01*
X290350Y169000D01*
X379000D01*
X385000Y163000D01*
G01Y153000D02*
X388750Y156750D01*
Y174750D01*
X386750Y176750D01*
X305350D01*
X294000Y188100D01*
X255700D01*
G01X241000Y268250D02*
Y272000D01*
G01Y268250D02*
X282250D01*
X286000Y272000D01*
G01X390000Y454000D02*
Y444000D01*
X379250Y433250D01*
X268750D01*
X264000Y438000D01*
G01X273700Y111700D02*
X277450Y115450D01*
X311750D01*
X324050Y127750D01*
X358750D01*
X364000Y133000D01*
G01Y123000D02*
X358750Y117750D01*
X330800D01*
X324750Y111700D01*
X281600D01*
G01X385000Y117000D02*
Y118900D01*
X364750Y139150D01*
X279450D01*
X277450Y141150D01*
Y147450D01*
X273700Y151200D01*
G01X395000Y117000D02*
X390750Y121250D01*
Y137750D01*
X380750Y147750D01*
X323950D01*
X316750Y154950D01*
X277850D01*
X273700Y159100D01*
G01X281600Y167000D02*
X353950D01*
X354450Y166500D01*
G01X273700Y167000D02*
X277850Y162850D01*
X313750D01*
X327850Y148750D01*
X392000D01*
X395000Y145750D01*
Y127000D01*
G01X276000Y275750D02*
Y272000D01*
G01Y287000D02*
Y275750D01*
G01X383000Y326000D02*
X382250Y326750D01*
X294000D01*
G01Y378000D02*
Y326750D01*
G01X307000Y120000D02*
X320000Y133000D01*
X334000D01*
G01X304000Y367000D02*
Y378000D01*
G01Y438000D02*
Y448000D01*
X298000Y454000D01*
G01X314000Y438000D02*
Y448000D01*
X308000Y454000D01*
G01X343000Y220000D02*
Y214750D01*
G01D02*
X360250D01*
X367000Y208000D01*
G01X344000Y378000D02*
X348000Y374000D01*
X400000D01*
G01X395000Y97000D02*
X389750Y102250D01*
Y133000D01*
X379750Y143000D01*
X364000D01*
G01Y378000D02*
Y384000D01*
X400000Y420000D01*
G54D17*
G01X131000Y117000D02*
X135700D01*
G01X121000Y127000D02*
Y131700D01*
G01X157000Y228000D02*
Y292704D01*
X144000Y305704D01*
G01X131000Y329000D02*
X124748D01*
G01X175000Y310000D02*
X164748D01*
G01X156000Y329000D02*
X162252D01*
G01X192500Y143300D02*
X197200D01*
G01X211000Y287000D02*
Y277751D01*
G01X233000Y352000D02*
X239252D01*
G01X246000Y219000D02*
X255925D01*
G01D02*
X274000D01*
G01X256000Y287000D02*
Y278001D01*
G01X334000Y367250D02*
X324000Y377250D01*
Y378000D01*
G01X334000Y183000D02*
X338700D01*
G01D02*
X364000D01*
G01X352000Y247000D02*
X353000Y248000D01*
X362050D01*
G01X327000Y323000D02*
X333252D01*
G01X327000Y351000D02*
X333252D01*
G01X334000Y378000D02*
Y367250D01*
G01X362050Y248000D02*
X367000D01*
G01X363000Y316000D02*
Y311300D01*
G01D02*
Y303000D01*
G54D18*
G01X131000Y153000D02*
X121000D01*
G01X140000Y454000D02*
Y445698D01*
G01X156000Y339000D02*
X164402Y330598D01*
Y327803D01*
X162050Y325451D01*
Y256748D01*
G01X204000Y330000D02*
X173100Y299100D01*
Y256748D01*
G01X184600Y127500D02*
Y135400D01*
G01X203000Y375000D02*
X204801Y376801D01*
Y444252D01*
G01X232000Y454000D02*
Y445698D01*
G01X246000Y209000D02*
X274000D01*
G01X237000Y401000D02*
Y396300D01*
G01X303050Y209000D02*
X291050D01*
G01D02*
X274000D01*
G01X307000D02*
X303050D01*
G01D02*
Y221000D01*
X312050Y230000D01*
X343000D01*
G01X311000Y272000D02*
Y256748D01*
G01X324000Y454000D02*
Y444800D01*
G01X370000Y454000D02*
Y445698D01*
G01X400000Y400000D02*
X406850Y406850D01*
Y444251D01*
X406849Y444252D01*
M02*
